<svg xmlns="http://www.w3.org/2000/svg" xmlns:xlink="http://www.w3.org/1999/xlink" width="1920" zoomAndPan="magnify" viewBox="0 0 1440 809.999993" height="1080" preserveAspectRatio="xMidYMid meet" version="1.0"><path fill="#fa743e" d="M 1040.410156 729 L 1040.410156 639.25 C 1040.410156 579.761719 992.195312 531.546875 932.710938 531.546875 L 645.507812 531.546875 C 586.039062 531.546875 537.804688 579.761719 537.804688 639.25 L 537.804688 729 Z M 1040.410156 729 " fill-opacity="1" fill-rule="nonzero"/><path fill="#ffdc5d" d="M 710.84375 533.453125 C 710.84375 549.5 753.207031 569.226562 789.109375 569.226562 C 825.007812 569.226562 867.351562 549.5 867.351562 533.46875 L 867.351562 464.953125 L 710.828125 464.953125 L 710.828125 533.453125 Z M 710.84375 533.453125 " fill-opacity="1" fill-rule="nonzero"/><path fill="#f9ca55" d="M 710.703125 497.820312 C 732.527344 522.484375 759.597656 529.160156 789.035156 529.160156 C 818.457031 529.160156 845.507812 522.464844 867.351562 497.820312 L 867.351562 435.15625 L 710.683594 435.15625 L 710.683594 497.820312 Z M 710.703125 497.820312 " fill-opacity="1" fill-rule="nonzero"/><path fill="#ffac33" d="M 856.078125 92.328125 C 821.527344 81.144531 740.210938 84.195312 719.875 110.617188 C 667.027344 111.640625 605.03125 159.40625 596.898438 222.410156 C 588.855469 284.789062 606.789062 313.742188 613.160156 360.644531 C 620.394531 413.777344 650.265625 430.777344 674.136719 437.882812 C 708.492188 483.28125 745.023438 481.34375 806.359375 481.34375 C 926.121094 481.34375 983.167969 401.210938 988.210938 265.097656 C 991.261719 182.796875 942.957031 120.4375 856.078125 92.328125 Z M 856.078125 92.328125 " fill-opacity="1" fill-rule="nonzero"/><path fill="#ffdc5d" d="M 924.578125 270.929688 C 912.980469 254.882812 898.15625 241.957031 865.628906 237.398438 C 877.835938 242.980469 889.519531 262.296875 891.046875 272.976562 C 892.574219 283.65625 894.097656 292.292969 884.441406 281.609375 C 845.757812 238.855469 803.628906 255.691406 761.894531 229.574219 C 732.746094 211.335938 723.859375 191.140625 723.859375 191.140625 C 723.859375 191.140625 720.304688 218.066406 676.09375 245.511719 C 663.277344 253.464844 647.984375 271.183594 639.511719 297.351562 C 633.410156 316.164062 635.3125 332.929688 635.3125 361.578125 C 635.3125 445.226562 704.257812 515.554688 789.289062 515.554688 C 874.316406 515.554688 943.265625 444.597656 943.265625 361.578125 C 943.226562 309.558594 937.789062 289.222656 924.578125 270.929688 Z M 924.578125 270.929688 " fill-opacity="1" fill-rule="nonzero"/><path fill="#c1694f" d="M 806.359375 404.355469 L 772.144531 404.355469 C 767.425781 404.355469 763.582031 400.53125 763.582031 395.792969 C 763.582031 391.054688 767.40625 387.230469 772.144531 387.230469 L 806.359375 387.230469 C 811.078125 387.230469 814.921875 391.054688 814.921875 395.792969 C 814.921875 400.53125 811.097656 404.355469 806.359375 404.355469 Z M 806.359375 404.355469 " fill-opacity="1" fill-rule="nonzero"/><path fill="#662113" d="M 720.808594 344.472656 C 711.367188 344.472656 703.703125 336.808594 703.703125 327.367188 L 703.703125 310.257812 C 703.703125 300.816406 711.367188 293.152344 720.808594 293.152344 C 730.25 293.152344 737.914062 300.816406 737.914062 310.257812 L 737.914062 327.367188 C 737.933594 336.824219 730.265625 344.472656 720.808594 344.472656 Z M 857.695312 344.472656 C 848.253906 344.472656 840.589844 336.808594 840.589844 327.367188 L 840.589844 310.257812 C 840.589844 300.816406 848.253906 293.152344 857.695312 293.152344 C 867.136719 293.152344 874.800781 300.816406 874.800781 310.257812 L 874.800781 327.367188 C 874.800781 336.824219 867.136719 344.472656 857.695312 344.472656 Z M 857.695312 344.472656 " fill-opacity="1" fill-rule="nonzero"/><path fill="#c1694f" d="M 791.511719 475.796875 C 742.078125 475.796875 726.894531 463.140625 724.363281 460.574219 C 719.765625 455.976562 719.765625 448.527344 724.363281 443.933594 C 728.8125 439.480469 735.957031 439.355469 740.554688 443.519531 C 741.488281 444.183594 753.496094 452.261719 791.511719 452.261719 C 831.003906 452.261719 842.421875 443.558594 842.527344 443.46875 C 847.121094 438.890625 854.320312 439.105469 858.917969 443.738281 C 863.511719 448.332031 863.261719 455.996094 858.664062 460.574219 C 856.117188 463.140625 840.949219 475.796875 791.511719 475.796875 " fill-opacity="1" fill-rule="nonzero"/><path fill="#e1e8ed" d="M 1004.507812 711.050781 C 1004.507812 720.976562 996.484375 729 986.558594 729 L 807.058594 729 C 797.132812 729 789.109375 720.976562 789.109375 711.050781 C 789.109375 701.125 797.132812 693.101562 807.058594 693.101562 L 986.558594 693.101562 C 996.484375 693.101562 1004.507812 701.125 1004.507812 711.050781 Z M 1004.507812 711.050781 " fill-opacity="1" fill-rule="nonzero"/><path fill="#e1e8ed" d="M 775.464844 477.699219 L 479.628906 477.699219 C 452.273438 477.699219 417.199219 491.539062 435.148438 541.078125 L 490.292969 693.207031 C 490.308594 693.207031 497.417969 729 537.804688 729 L 896.808594 729 L 825.007812 527.242188 C 817.144531 503.511719 802.839844 477.699219 775.464844 477.699219 Z M 775.464844 477.699219 " fill-opacity="1" fill-rule="nonzero"/><path fill="#99aab5" d="M 757.515625 477.699219 L 461.679688 477.699219 C 434.324219 477.699219 399.25 491.539062 417.199219 541.078125 L 472.34375 693.207031 C 472.359375 693.207031 479.46875 729 519.855469 729 L 878.859375 729 L 807.058594 527.242188 C 799.195312 503.511719 784.890625 477.699219 757.515625 477.699219 Z M 757.515625 477.699219 " fill-opacity="1" fill-rule="nonzero"/><path fill="#e1e8ed" d="M 663.796875 608.429688 C 673.203125 636.648438 665.574219 664.613281 646.761719 670.878906 C 627.953125 677.160156 605.082031 659.371094 595.675781 631.152344 C 586.269531 602.9375 593.898438 574.96875 612.710938 568.707031 C 631.523438 562.441406 654.410156 580.210938 663.796875 608.429688 Z M 753.207031 527.0625 L 466.003906 527.0625 C 458.574219 527.0625 452.542969 521.03125 452.542969 513.597656 C 452.542969 506.167969 458.574219 500.136719 466.003906 500.136719 L 753.207031 500.136719 C 760.640625 500.136719 766.671875 506.167969 766.671875 513.597656 C 766.671875 521.03125 760.640625 527.0625 753.207031 527.0625 Z M 753.207031 527.0625 " fill-opacity="1" fill-rule="nonzero"/></svg>