<svg xmlns="http://www.w3.org/2000/svg" xmlns:xlink="http://www.w3.org/1999/xlink" width="1920" zoomAndPan="magnify" viewBox="0 0 1440 809.999993" height="1080" preserveAspectRatio="xMidYMid meet" version="1.0"><defs><clipPath id="312c54243c"><path d="M 445.773438 106 L 607.773438 106 L 607.773438 218.75 L 445.773438 218.75 Z M 445.773438 106 " clip-rule="nonzero"/></clipPath><clipPath id="3f506476a5"><path d="M 504 70.25 L 550 70.25 L 550 218.75 L 504 218.75 Z M 504 70.25 " clip-rule="nonzero"/></clipPath><clipPath id="d8eaa514df"><path d="M 454 205 L 599 205 L 599 218.75 L 454 218.75 Z M 454 205 " clip-rule="nonzero"/></clipPath><clipPath id="d8c64682e7"><path d="M 311.449219 127.429688 L 377.449219 127.429688 L 377.449219 141 L 311.449219 141 Z M 311.449219 127.429688 " clip-rule="nonzero"/></clipPath><clipPath id="430413b178"><path d="M 311.449219 147 L 377.449219 147 L 377.449219 161.179688 L 311.449219 161.179688 Z M 311.449219 147 " clip-rule="nonzero"/></clipPath></defs><path fill="#f4900c" d="M 238.515625 203.542969 L 238.410156 203.648438 C 234.148438 207.902344 227.242188 207.902344 222.988281 203.648438 L 118.230469 99.046875 C 115.675781 96.496094 115.675781 92.359375 118.230469 89.808594 L 124.507812 83.539062 C 127.0625 80.988281 131.207031 80.988281 133.761719 83.539062 L 238.519531 188.140625 C 242.773438 192.394531 242.773438 199.289062 238.515625 203.542969 Z M 238.515625 203.542969 " fill-opacity="1" fill-rule="nonzero"/><path fill="#66757f" d="M 161.847656 99.183594 L 146.316406 83.675781 C 143.742188 81.105469 139.574219 81.105469 137 83.675781 L 121.472656 99.183594 C 112.125 108.359375 104.5625 112.40625 94.875 112.585938 C 94.125 119.484375 97.796875 135.363281 103.515625 141.761719 C 110.949219 150.078125 123.480469 152.703125 135.242188 152.523438 C 134.652344 142.160156 137.160156 133.128906 146.316406 123.988281 L 161.84375 108.480469 C 164.421875 105.914062 164.421875 101.75 161.847656 99.183594 Z M 161.847656 99.183594 " fill-opacity="1" fill-rule="nonzero"/><path fill="#ccd6dd" d="M 94.875 112.585938 C 91.578125 112.648438 88.042969 112.269531 84.097656 111.480469 C 80.992188 133.191406 115.15625 167.304688 136.898438 164.203125 C 136.050781 160.09375 135.457031 156.226562 135.246094 152.523438 C 115.839844 146.34375 99.636719 130.277344 94.875 112.585938 Z M 94.875 112.585938 " fill-opacity="1" fill-rule="nonzero"/><path fill="#dac8b1" d="M 598.742188 115.25 C 598.742188 120.21875 594.710938 124.25 589.746094 124.25 L 562.757812 124.25 C 557.792969 124.25 553.761719 120.21875 553.761719 115.25 L 553.761719 106.25 C 553.761719 101.28125 557.792969 97.25 562.757812 97.25 L 589.746094 97.25 C 594.710938 97.25 598.742188 101.28125 598.742188 106.25 Z M 499.78125 115.25 C 499.78125 120.21875 495.75 124.25 490.785156 124.25 L 463.796875 124.25 C 458.832031 124.25 454.800781 120.21875 454.800781 115.25 L 454.800781 106.25 C 454.800781 101.28125 458.832031 97.25 463.796875 97.25 L 490.785156 97.25 C 495.75 97.25 499.78125 101.28125 499.78125 106.25 Z M 499.78125 115.25 " fill-opacity="1" fill-rule="nonzero"/><g clip-path="url(#312c54243c)"><path fill="#f1dcc1" d="M 607.738281 209.75 C 607.738281 214.71875 603.710938 218.75 598.742188 218.75 L 454.800781 218.75 C 449.832031 218.75 445.804688 214.71875 445.804688 209.75 L 445.804688 115.25 C 445.804688 110.28125 449.832031 106.25 454.800781 106.25 L 598.742188 106.25 C 603.710938 106.25 607.738281 110.28125 607.738281 115.25 Z M 607.738281 209.75 " fill-opacity="1" fill-rule="nonzero"/></g><g clip-path="url(#3f506476a5)"><path fill="#dac8b1" d="M 544.765625 97.25 L 544.765625 88.25 C 544.765625 84.929688 542.945312 82.058594 540.265625 80.496094 L 540.265625 79.25 C 540.265625 74.28125 536.234375 70.25 531.269531 70.25 L 522.273438 70.25 C 517.308594 70.25 513.277344 74.28125 513.277344 79.25 L 513.277344 80.496094 C 510.601562 82.058594 508.777344 84.929688 508.777344 88.25 L 508.777344 97.25 L 504.28125 97.25 L 504.28125 218.75 L 549.261719 218.75 L 549.261719 97.25 Z M 544.765625 97.25 " fill-opacity="1" fill-rule="nonzero"/></g><path fill="#55acee" d="M 508.777344 88.25 L 517.773438 88.25 L 517.773438 97.25 L 508.777344 97.25 Z M 535.769531 88.25 L 544.765625 88.25 L 544.765625 97.25 L 535.769531 97.25 Z M 522.273438 88.25 L 531.269531 88.25 L 531.269531 97.25 L 522.273438 97.25 Z M 522.273438 88.25 " fill-opacity="1" fill-rule="nonzero"/><path fill="#3b88c3" d="M 513.277344 124.25 L 522.273438 124.25 L 522.273438 187.25 L 513.277344 187.25 Z M 531.269531 124.25 L 540.265625 124.25 L 540.265625 187.25 L 531.269531 187.25 Z M 531.269531 124.25 " fill-opacity="1" fill-rule="nonzero"/><path fill="#55acee" d="M 553.761719 133.25 L 562.757812 133.25 L 562.757812 187.25 L 553.761719 187.25 Z M 571.753906 133.25 L 580.75 133.25 L 580.75 187.25 L 571.753906 187.25 Z M 589.746094 133.25 L 598.742188 133.25 L 598.742188 187.25 L 589.746094 187.25 Z M 454.800781 133.25 L 463.796875 133.25 L 463.796875 187.25 L 454.800781 187.25 Z M 472.792969 133.25 L 481.789062 133.25 L 481.789062 187.25 L 472.792969 187.25 Z M 490.785156 133.25 L 499.78125 133.25 L 499.78125 187.25 L 490.785156 187.25 Z M 454.800781 191.75 L 463.796875 191.75 L 463.796875 200.75 L 454.800781 200.75 Z M 472.792969 191.75 L 481.789062 191.75 L 481.789062 200.75 L 472.792969 200.75 Z M 490.785156 191.75 L 499.78125 191.75 L 499.78125 200.75 L 490.785156 200.75 Z M 490.785156 191.75 " fill-opacity="1" fill-rule="nonzero"/><path fill="#3b88c3" d="M 513.277344 191.75 L 522.273438 191.75 L 522.273438 200.75 L 513.277344 200.75 Z M 531.269531 191.75 L 540.265625 191.75 L 540.265625 200.75 L 531.269531 200.75 Z M 531.269531 191.75 " fill-opacity="1" fill-rule="nonzero"/><path fill="#55acee" d="M 553.761719 191.75 L 562.757812 191.75 L 562.757812 200.75 L 553.761719 200.75 Z M 571.753906 191.75 L 580.75 191.75 L 580.75 200.75 L 571.753906 200.75 Z M 589.746094 191.75 L 598.742188 191.75 L 598.742188 200.75 L 589.746094 200.75 Z M 589.746094 191.75 " fill-opacity="1" fill-rule="nonzero"/><g clip-path="url(#d8eaa514df)"><path fill="#66757f" d="M 454.800781 205.25 L 463.796875 205.25 L 463.796875 218.75 L 454.800781 218.75 Z M 472.792969 205.25 L 481.789062 205.25 L 481.789062 218.75 L 472.792969 218.75 Z M 490.785156 205.25 L 499.78125 205.25 L 499.78125 218.75 L 490.785156 218.75 Z M 513.277344 205.25 L 522.273438 205.25 L 522.273438 218.75 L 513.277344 218.75 Z M 531.269531 205.25 L 540.265625 205.25 L 540.265625 218.75 L 531.269531 218.75 Z M 553.761719 205.25 L 562.757812 205.25 L 562.757812 218.75 L 553.761719 218.75 Z M 571.753906 205.25 L 580.75 205.25 L 580.75 218.75 L 571.753906 218.75 Z M 589.746094 205.25 L 598.742188 205.25 L 598.742188 218.75 L 589.746094 218.75 Z M 589.746094 205.25 " fill-opacity="1" fill-rule="nonzero"/></g><g clip-path="url(#d8c64682e7)"><path fill="#000000" d="M 311.480469 134.324219 C 311.472656 132.5 312.203125 130.746094 313.507812 129.457031 C 314.8125 128.164062 316.582031 127.4375 318.425781 127.4375 C 331.035156 127.433594 357.515625 127.429688 370.285156 127.425781 C 372.183594 127.425781 374.007812 128.175781 375.351562 129.507812 C 376.691406 130.84375 377.4375 132.648438 377.425781 134.53125 C 377.425781 134.542969 377.425781 134.558594 377.425781 134.570312 C 377.40625 138.070312 374.527344 140.894531 370.988281 140.894531 C 358.46875 140.894531 330.855469 140.894531 318.144531 140.894531 C 314.46875 140.894531 311.488281 137.957031 311.480469 134.324219 Z M 311.480469 134.324219 " fill-opacity="1" fill-rule="evenodd"/></g><g clip-path="url(#430413b178)"><path fill="#000000" d="M 311.480469 154.601562 C 311.472656 152.777344 312.203125 151.023438 313.507812 149.730469 C 314.8125 148.4375 316.582031 147.710938 318.425781 147.710938 C 331.035156 147.710938 357.515625 147.703125 370.285156 147.703125 C 372.183594 147.703125 374.007812 148.453125 375.351562 149.785156 C 376.691406 151.117188 377.4375 152.925781 377.425781 154.808594 C 377.425781 154.820312 377.425781 154.832031 377.425781 154.847656 C 377.40625 158.34375 374.527344 161.171875 370.988281 161.171875 C 358.46875 161.171875 330.855469 161.171875 318.144531 161.171875 C 314.46875 161.171875 311.488281 158.230469 311.480469 154.601562 Z M 311.480469 154.601562 " fill-opacity="1" fill-rule="evenodd"/></g></svg>