<svg xmlns="http://www.w3.org/2000/svg" xmlns:xlink="http://www.w3.org/1999/xlink" width="1920" zoomAndPan="magnify" viewBox="0 0 1440 809.999993" height="1080" preserveAspectRatio="xMidYMid meet" version="1.0"><defs><clipPath id="4684323a60"><path d="M 445.773438 106 L 607.773438 106 L 607.773438 218.75 L 445.773438 218.75 Z M 445.773438 106 " clip-rule="nonzero"/></clipPath><clipPath id="d082e324be"><path d="M 504 70.25 L 550 70.25 L 550 218.75 L 504 218.75 Z M 504 70.25 " clip-rule="nonzero"/></clipPath><clipPath id="ad4d795c4c"><path d="M 454 205 L 599 205 L 599 218.75 L 454 218.75 Z M 454 205 " clip-rule="nonzero"/></clipPath><clipPath id="e5ca99b247"><path d="M 311.449219 127.429688 L 377.449219 127.429688 L 377.449219 141 L 311.449219 141 Z M 311.449219 127.429688 " clip-rule="nonzero"/></clipPath><clipPath id="bf3cd39c87"><path d="M 311.449219 147 L 377.449219 147 L 377.449219 161.179688 L 311.449219 161.179688 Z M 311.449219 147 " clip-rule="nonzero"/></clipPath><clipPath id="6d5ce199b8"><path d="M 311.449219 387.957031 L 377.449219 387.957031 L 377.449219 402 L 311.449219 402 Z M 311.449219 387.957031 " clip-rule="nonzero"/></clipPath><clipPath id="4794cadb29"><path d="M 311.449219 408 L 377.449219 408 L 377.449219 421.707031 L 311.449219 421.707031 Z M 311.449219 408 " clip-rule="nonzero"/></clipPath></defs><path fill="#f4900c" d="M 238.515625 203.542969 L 238.410156 203.648438 C 234.148438 207.902344 227.242188 207.902344 222.988281 203.648438 L 118.230469 99.046875 C 115.675781 96.496094 115.675781 92.359375 118.230469 89.808594 L 124.507812 83.539062 C 127.0625 80.988281 131.207031 80.988281 133.761719 83.539062 L 238.519531 188.140625 C 242.773438 192.394531 242.773438 199.289062 238.515625 203.542969 Z M 238.515625 203.542969 " fill-opacity="1" fill-rule="nonzero"/><path fill="#66757f" d="M 161.847656 99.183594 L 146.316406 83.675781 C 143.742188 81.105469 139.574219 81.105469 137 83.675781 L 121.472656 99.183594 C 112.125 108.359375 104.5625 112.40625 94.875 112.585938 C 94.125 119.484375 97.796875 135.363281 103.515625 141.761719 C 110.949219 150.078125 123.480469 152.703125 135.242188 152.523438 C 134.652344 142.160156 137.160156 133.128906 146.316406 123.988281 L 161.84375 108.480469 C 164.421875 105.914062 164.421875 101.75 161.847656 99.183594 Z M 161.847656 99.183594 " fill-opacity="1" fill-rule="nonzero"/><path fill="#ccd6dd" d="M 94.875 112.585938 C 91.578125 112.648438 88.042969 112.269531 84.097656 111.480469 C 80.992188 133.191406 115.15625 167.304688 136.898438 164.203125 C 136.050781 160.09375 135.457031 156.226562 135.246094 152.523438 C 115.839844 146.34375 99.636719 130.277344 94.875 112.585938 Z M 94.875 112.585938 " fill-opacity="1" fill-rule="nonzero"/><path fill="#dac8b1" d="M 598.742188 115.25 C 598.742188 120.21875 594.710938 124.25 589.746094 124.25 L 562.757812 124.25 C 557.792969 124.25 553.761719 120.21875 553.761719 115.25 L 553.761719 106.25 C 553.761719 101.28125 557.792969 97.25 562.757812 97.25 L 589.746094 97.25 C 594.710938 97.25 598.742188 101.28125 598.742188 106.25 Z M 499.78125 115.25 C 499.78125 120.21875 495.75 124.25 490.785156 124.25 L 463.796875 124.25 C 458.832031 124.25 454.800781 120.21875 454.800781 115.25 L 454.800781 106.25 C 454.800781 101.28125 458.832031 97.25 463.796875 97.25 L 490.785156 97.25 C 495.75 97.25 499.78125 101.28125 499.78125 106.25 Z M 499.78125 115.25 " fill-opacity="1" fill-rule="nonzero"/><g clip-path="url(#4684323a60)"><path fill="#f1dcc1" d="M 607.738281 209.75 C 607.738281 214.71875 603.710938 218.75 598.742188 218.75 L 454.800781 218.75 C 449.832031 218.75 445.804688 214.71875 445.804688 209.75 L 445.804688 115.25 C 445.804688 110.28125 449.832031 106.25 454.800781 106.25 L 598.742188 106.25 C 603.710938 106.25 607.738281 110.28125 607.738281 115.25 Z M 607.738281 209.75 " fill-opacity="1" fill-rule="nonzero"/></g><g clip-path="url(#d082e324be)"><path fill="#dac8b1" d="M 544.765625 97.25 L 544.765625 88.25 C 544.765625 84.929688 542.945312 82.058594 540.265625 80.496094 L 540.265625 79.25 C 540.265625 74.28125 536.234375 70.25 531.269531 70.25 L 522.273438 70.25 C 517.308594 70.25 513.277344 74.28125 513.277344 79.25 L 513.277344 80.496094 C 510.601562 82.058594 508.777344 84.929688 508.777344 88.25 L 508.777344 97.25 L 504.28125 97.25 L 504.28125 218.75 L 549.261719 218.75 L 549.261719 97.25 Z M 544.765625 97.25 " fill-opacity="1" fill-rule="nonzero"/></g><path fill="#55acee" d="M 508.777344 88.25 L 517.773438 88.25 L 517.773438 97.25 L 508.777344 97.25 Z M 535.769531 88.25 L 544.765625 88.25 L 544.765625 97.25 L 535.769531 97.25 Z M 522.273438 88.25 L 531.269531 88.25 L 531.269531 97.25 L 522.273438 97.25 Z M 522.273438 88.25 " fill-opacity="1" fill-rule="nonzero"/><path fill="#3b88c3" d="M 513.277344 124.25 L 522.273438 124.25 L 522.273438 187.25 L 513.277344 187.25 Z M 531.269531 124.25 L 540.265625 124.25 L 540.265625 187.25 L 531.269531 187.25 Z M 531.269531 124.25 " fill-opacity="1" fill-rule="nonzero"/><path fill="#55acee" d="M 553.761719 133.25 L 562.757812 133.25 L 562.757812 187.25 L 553.761719 187.25 Z M 571.753906 133.25 L 580.75 133.25 L 580.75 187.25 L 571.753906 187.25 Z M 589.746094 133.25 L 598.742188 133.25 L 598.742188 187.25 L 589.746094 187.25 Z M 454.800781 133.25 L 463.796875 133.25 L 463.796875 187.25 L 454.800781 187.25 Z M 472.792969 133.25 L 481.789062 133.25 L 481.789062 187.25 L 472.792969 187.25 Z M 490.785156 133.25 L 499.78125 133.25 L 499.78125 187.25 L 490.785156 187.25 Z M 454.800781 191.75 L 463.796875 191.75 L 463.796875 200.75 L 454.800781 200.75 Z M 472.792969 191.75 L 481.789062 191.75 L 481.789062 200.75 L 472.792969 200.75 Z M 490.785156 191.75 L 499.78125 191.75 L 499.78125 200.75 L 490.785156 200.75 Z M 490.785156 191.75 " fill-opacity="1" fill-rule="nonzero"/><path fill="#3b88c3" d="M 513.277344 191.75 L 522.273438 191.75 L 522.273438 200.75 L 513.277344 200.75 Z M 531.269531 191.75 L 540.265625 191.75 L 540.265625 200.75 L 531.269531 200.75 Z M 531.269531 191.75 " fill-opacity="1" fill-rule="nonzero"/><path fill="#55acee" d="M 553.761719 191.75 L 562.757812 191.75 L 562.757812 200.75 L 553.761719 200.75 Z M 571.753906 191.75 L 580.75 191.75 L 580.75 200.75 L 571.753906 200.75 Z M 589.746094 191.75 L 598.742188 191.75 L 598.742188 200.75 L 589.746094 200.75 Z M 589.746094 191.75 " fill-opacity="1" fill-rule="nonzero"/><g clip-path="url(#ad4d795c4c)"><path fill="#66757f" d="M 454.800781 205.25 L 463.796875 205.25 L 463.796875 218.75 L 454.800781 218.75 Z M 472.792969 205.25 L 481.789062 205.25 L 481.789062 218.75 L 472.792969 218.75 Z M 490.785156 205.25 L 499.78125 205.25 L 499.78125 218.75 L 490.785156 218.75 Z M 513.277344 205.25 L 522.273438 205.25 L 522.273438 218.75 L 513.277344 218.75 Z M 531.269531 205.25 L 540.265625 205.25 L 540.265625 218.75 L 531.269531 218.75 Z M 553.761719 205.25 L 562.757812 205.25 L 562.757812 218.75 L 553.761719 218.75 Z M 571.753906 205.25 L 580.75 205.25 L 580.75 218.75 L 571.753906 218.75 Z M 589.746094 205.25 L 598.742188 205.25 L 598.742188 218.75 L 589.746094 218.75 Z M 589.746094 205.25 " fill-opacity="1" fill-rule="nonzero"/></g><path fill="#aa8dd8" d="M 116.84375 342 C 121.34375 337.5 117.96875 324 110.371094 324 C 102.777344 324 103.34375 333 107.84375 333 C 112.34375 333 112.34375 342 112.34375 346.5 C 112.34375 351 116.84375 342 116.84375 342 Z M 98.019531 349.738281 C 102.519531 345.238281 99.144531 331.738281 91.546875 331.738281 C 83.953125 331.738281 84.519531 340.738281 89.019531 340.738281 C 93.519531 340.738281 93.519531 349.738281 93.519531 354.238281 C 93.519531 358.738281 98.019531 349.738281 98.019531 349.738281 Z M 98.019531 349.738281 " fill-opacity="1" fill-rule="nonzero"/><path fill="#744eaa" d="M 216.707031 471.851562 C 217.558594 475.488281 222.226562 482.113281 225.851562 481.261719 C 229.476562 480.40625 230.695312 472.390625 229.847656 468.765625 C 228.996094 465.128906 225.355469 462.882812 221.726562 463.738281 C 218.105469 464.59375 215.851562 468.226562 216.707031 471.851562 Z M 192.253906 474.773438 C 192.265625 478.507812 195.316406 486.011719 199.042969 486 C 202.769531 485.980469 205.765625 478.453125 205.753906 474.722656 C 205.738281 470.992188 202.707031 467.988281 198.980469 467.996094 C 195.253906 468.011719 192.238281 471.042969 192.253906 474.773438 Z M 168.535156 463.765625 C 167.066406 467.203125 166.890625 475.300781 170.316406 476.769531 C 173.75 478.226562 179.484375 472.507812 180.949219 469.074219 C 182.410156 465.648438 180.824219 461.683594 177.398438 460.210938 C 173.96875 458.746094 170.003906 460.332031 168.535156 463.765625 Z M 145.894531 414.085938 C 142.242188 414.859375 135.507812 419.363281 136.269531 423.007812 C 137.046875 426.652344 145.023438 428.066406 148.675781 427.296875 C 152.324219 426.527344 154.65625 422.945312 153.894531 419.300781 C 153.121094 415.65625 149.554688 413.316406 145.894531 414.085938 Z M 136.726562 391.585938 C 133.074219 392.359375 126.34375 396.863281 127.101562 400.507812 C 127.882812 404.152344 135.855469 405.566406 139.507812 404.796875 C 143.160156 404.027344 145.488281 400.445312 144.730469 396.800781 C 143.953125 393.15625 140.382812 390.816406 136.726562 391.585938 Z M 136.726562 391.585938 " fill-opacity="1" fill-rule="nonzero"/><path fill="#9266cc" d="M 206.074219 477 C 218.8125 477 228.238281 473.054688 229.769531 472.378906 C 239.988281 467.832031 244.589844 455.867188 240.046875 445.652344 C 235.550781 435.527344 223.777344 430.914062 213.625 435.238281 C 213.027344 435.464844 205.554688 438.160156 198.582031 434.914062 C 190.25 431.042969 185.101562 420.027344 182.253906 411.476562 C 181.605469 409.539062 180.523438 405.742188 179.167969 401.054688 C 170.769531 371.933594 166.421875 363.769531 161.242188 356.863281 C 144.542969 334.585938 118.078125 333.03125 105.070312 335.640625 C 94.105469 337.832031 86.988281 348.503906 89.183594 359.46875 C 91.382812 370.441406 102.054688 377.558594 113.015625 375.355469 C 113.746094 375.238281 122.933594 373.976562 128.425781 380.613281 C 131.320312 386.40625 137.785156 403.691406 140.261719 412.265625 C 141.816406 417.664062 143.089844 422.035156 143.832031 424.269531 C 151.8125 448.195312 164.832031 464.289062 182.546875 472.097656 C 190.882812 475.78125 198.988281 477 206.074219 477 Z M 206.074219 477 " fill-opacity="1" fill-rule="nonzero"/><path fill="#ffffff" d="M 118.042969 346.5 C 118.042969 346.796875 118.015625 347.089844 117.957031 347.378906 C 117.898438 347.667969 117.816406 347.949219 117.703125 348.222656 C 117.589844 348.496094 117.449219 348.753906 117.285156 349 C 117.121094 349.246094 116.933594 349.472656 116.726562 349.683594 C 116.515625 349.890625 116.289062 350.078125 116.042969 350.242188 C 115.796875 350.40625 115.539062 350.542969 115.265625 350.65625 C 114.992188 350.769531 114.710938 350.855469 114.421875 350.914062 C 114.132812 350.972656 113.839844 351 113.542969 351 C 113.25 351 112.957031 350.972656 112.667969 350.914062 C 112.375 350.855469 112.09375 350.769531 111.820312 350.65625 C 111.550781 350.542969 111.289062 350.40625 111.042969 350.242188 C 110.796875 350.078125 110.570312 349.890625 110.363281 349.683594 C 110.152344 349.472656 109.964844 349.246094 109.800781 349 C 109.636719 348.753906 109.5 348.496094 109.386719 348.222656 C 109.273438 347.949219 109.1875 347.667969 109.128906 347.378906 C 109.074219 347.089844 109.042969 346.796875 109.042969 346.5 C 109.042969 346.203125 109.074219 345.910156 109.128906 345.621094 C 109.1875 345.332031 109.273438 345.050781 109.386719 344.777344 C 109.5 344.503906 109.636719 344.246094 109.800781 344 C 109.964844 343.753906 110.152344 343.527344 110.363281 343.316406 C 110.570312 343.109375 110.796875 342.921875 111.042969 342.757812 C 111.289062 342.59375 111.550781 342.457031 111.820312 342.34375 C 112.09375 342.230469 112.375 342.144531 112.667969 342.085938 C 112.957031 342.027344 113.25 342 113.542969 342 C 113.839844 342 114.132812 342.027344 114.421875 342.085938 C 114.710938 342.144531 114.992188 342.230469 115.265625 342.34375 C 115.539062 342.457031 115.796875 342.59375 116.042969 342.757812 C 116.289062 342.921875 116.515625 343.109375 116.726562 343.316406 C 116.933594 343.527344 117.121094 343.753906 117.285156 344 C 117.449219 344.246094 117.589844 344.503906 117.703125 344.777344 C 117.816406 345.050781 117.898438 345.332031 117.957031 345.621094 C 118.015625 345.910156 118.042969 346.203125 118.042969 346.5 Z M 118.042969 346.5 " fill-opacity="1" fill-rule="nonzero"/><path fill="#744eaa" d="M 222.628906 472.339844 C 222.226562 472.339844 221.820312 472.285156 221.417969 472.175781 C 219.023438 471.511719 217.621094 469.03125 218.285156 466.636719 C 221.691406 454.386719 214.820312 446.199219 214.753906 446.117188 C 213.136719 444.230469 213.347656 441.386719 215.234375 439.773438 C 217.117188 438.15625 219.964844 438.367188 221.578125 440.253906 C 221.992188 440.734375 231.632812 452.222656 226.957031 469.039062 C 226.410156 471.03125 224.59375 472.339844 222.628906 472.339844 Z M 190.234375 469.804688 C 189.128906 469.804688 188.027344 469.402344 187.15625 468.589844 C 185.339844 466.886719 185.246094 464.039062 186.945312 462.226562 C 193.625 455.085938 193.480469 443.359375 193.476562 443.238281 C 193.40625 440.753906 195.363281 438.683594 197.851562 438.609375 C 200.289062 438.589844 202.410156 440.496094 202.476562 442.984375 C 202.496094 443.609375 202.804688 458.449219 193.519531 468.382812 C 192.632812 469.328125 191.429688 469.804688 190.234375 469.804688 Z M 151.792969 430.671875 C 149.632812 430.671875 147.726562 429.109375 147.363281 426.90625 C 146.957031 424.457031 148.613281 422.136719 151.066406 421.734375 C 164.898438 419.441406 172.546875 411.039062 172.625 410.953125 C 174.265625 409.109375 177.117188 408.933594 178.964844 410.574219 C 180.820312 412.21875 181.003906 415.042969 179.375 416.902344 C 178.984375 417.347656 169.671875 427.769531 152.535156 430.609375 C 152.285156 430.65625 152.035156 430.671875 151.792969 430.671875 Z M 164.9375 452.527344 C 163.027344 452.527344 161.253906 451.304688 160.644531 449.386719 C 159.898438 447.019531 161.210938 444.488281 163.578125 443.742188 C 175.699219 439.902344 181.039062 431.003906 181.09375 430.914062 C 182.351562 428.769531 185.109375 428.050781 187.25 429.308594 C 189.394531 430.566406 190.113281 433.328125 188.855469 435.464844 C 188.574219 435.949219 181.679688 447.449219 166.296875 452.3125 C 165.84375 452.460938 165.382812 452.527344 164.9375 452.527344 Z M 144.152344 404.515625 C 141.921875 404.515625 139.980469 402.851562 139.695312 400.578125 C 139.382812 398.109375 141.128906 395.859375 143.59375 395.546875 C 155.695312 394.015625 164.550781 386.675781 164.636719 386.597656 C 166.535156 385.007812 169.375 385.234375 170.972656 387.136719 C 172.574219 389.03125 172.34375 391.859375 170.457031 393.464844 C 170.019531 393.839844 159.566406 402.597656 144.722656 404.472656 C 144.53125 404.5 144.34375 404.515625 144.152344 404.515625 Z M 135.957031 383.0625 C 134.046875 383.0625 132.273438 381.835938 131.664062 379.90625 C 130.921875 377.535156 132.238281 375.011719 134.609375 374.265625 C 148.695312 369.839844 153.746094 362.152344 153.953125 361.828125 C 155.28125 359.746094 158.054688 359.105469 160.140625 360.421875 C 162.234375 361.738281 162.890625 364.46875 161.597656 366.570312 C 161.328125 367.007812 154.824219 377.351562 137.304688 382.855469 C 136.859375 382.996094 136.402344 383.0625 135.957031 383.0625 Z M 135.957031 383.0625 " fill-opacity="1" fill-rule="nonzero"/><g clip-path="url(#e5ca99b247)"><path fill="#000000" d="M 311.480469 134.324219 C 311.472656 132.5 312.203125 130.746094 313.507812 129.457031 C 314.8125 128.164062 316.582031 127.4375 318.425781 127.4375 C 331.035156 127.433594 357.515625 127.429688 370.285156 127.425781 C 372.183594 127.425781 374.007812 128.175781 375.351562 129.507812 C 376.691406 130.84375 377.4375 132.648438 377.425781 134.53125 C 377.425781 134.542969 377.425781 134.558594 377.425781 134.570312 C 377.40625 138.070312 374.527344 140.894531 370.988281 140.894531 C 358.46875 140.894531 330.855469 140.894531 318.144531 140.894531 C 314.46875 140.894531 311.488281 137.957031 311.480469 134.324219 Z M 311.480469 134.324219 " fill-opacity="1" fill-rule="evenodd"/></g><g clip-path="url(#bf3cd39c87)"><path fill="#000000" d="M 311.480469 154.601562 C 311.472656 152.777344 312.203125 151.023438 313.507812 149.730469 C 314.8125 148.4375 316.582031 147.710938 318.425781 147.710938 C 331.035156 147.710938 357.515625 147.703125 370.285156 147.703125 C 372.183594 147.703125 374.007812 148.453125 375.351562 149.785156 C 376.691406 151.117188 377.4375 152.925781 377.425781 154.808594 C 377.425781 154.820312 377.425781 154.832031 377.425781 154.847656 C 377.40625 158.34375 374.527344 161.171875 370.988281 161.171875 C 358.46875 161.171875 330.855469 161.171875 318.144531 161.171875 C 314.46875 161.171875 311.488281 158.230469 311.480469 154.601562 Z M 311.480469 154.601562 " fill-opacity="1" fill-rule="evenodd"/></g><g clip-path="url(#6d5ce199b8)"><path fill="#000000" d="M 311.480469 394.851562 C 311.472656 393.023438 312.203125 391.273438 313.507812 389.980469 C 314.8125 388.6875 316.582031 387.960938 318.425781 387.960938 C 331.035156 387.960938 357.515625 387.953125 370.285156 387.953125 C 372.183594 387.953125 374.007812 388.703125 375.351562 390.035156 C 376.691406 391.367188 377.4375 393.175781 377.425781 395.054688 C 377.425781 395.070312 377.425781 395.082031 377.425781 395.09375 C 377.40625 398.59375 374.527344 401.417969 370.988281 401.417969 C 358.46875 401.417969 330.855469 401.417969 318.144531 401.417969 C 314.46875 401.417969 311.488281 398.480469 311.480469 394.851562 Z M 311.480469 394.851562 " fill-opacity="1" fill-rule="evenodd"/></g><g clip-path="url(#4794cadb29)"><path fill="#000000" d="M 311.480469 415.125 C 311.472656 413.300781 312.203125 411.550781 313.507812 410.257812 C 314.8125 408.964844 316.582031 408.238281 318.425781 408.238281 C 331.035156 408.234375 357.515625 408.230469 370.285156 408.226562 C 372.183594 408.226562 374.007812 408.976562 375.351562 410.3125 C 376.691406 411.644531 377.4375 413.453125 377.425781 415.332031 C 377.425781 415.34375 377.425781 415.359375 377.425781 415.371094 C 377.40625 418.871094 374.527344 421.695312 370.988281 421.695312 C 358.46875 421.695312 330.855469 421.695312 318.144531 421.695312 C 314.46875 421.695312 311.488281 418.757812 311.480469 415.128906 C 311.480469 415.128906 311.480469 415.125 311.480469 415.125 Z M 311.480469 415.125 " fill-opacity="1" fill-rule="evenodd"/></g></svg>