<svg xmlns="http://www.w3.org/2000/svg" xmlns:xlink="http://www.w3.org/1999/xlink" width="1920" zoomAndPan="magnify" viewBox="0 0 1440 809.999993" height="1080" preserveAspectRatio="xMidYMid meet" version="1.0"><defs><clipPath id="ebbef341bb"><path d="M 311.449219 127.429688 L 377.449219 127.429688 L 377.449219 141 L 311.449219 141 Z M 311.449219 127.429688 " clip-rule="nonzero"/></clipPath><clipPath id="5249f2361a"><path d="M 311.449219 147 L 377.449219 147 L 377.449219 161.179688 L 311.449219 161.179688 Z M 311.449219 147 " clip-rule="nonzero"/></clipPath></defs><path fill="#f4900c" d="M 238.515625 203.542969 L 238.410156 203.648438 C 234.148438 207.902344 227.242188 207.902344 222.988281 203.648438 L 118.230469 99.046875 C 115.675781 96.496094 115.675781 92.359375 118.230469 89.808594 L 124.507812 83.539062 C 127.0625 80.988281 131.207031 80.988281 133.761719 83.539062 L 238.519531 188.140625 C 242.773438 192.394531 242.773438 199.289062 238.515625 203.542969 Z M 238.515625 203.542969 " fill-opacity="1" fill-rule="nonzero"/><path fill="#66757f" d="M 161.847656 99.183594 L 146.316406 83.675781 C 143.742188 81.105469 139.574219 81.105469 137 83.675781 L 121.472656 99.183594 C 112.125 108.359375 104.5625 112.40625 94.875 112.585938 C 94.125 119.484375 97.796875 135.363281 103.515625 141.761719 C 110.949219 150.078125 123.480469 152.703125 135.242188 152.523438 C 134.652344 142.160156 137.160156 133.128906 146.316406 123.988281 L 161.84375 108.480469 C 164.421875 105.914062 164.421875 101.75 161.847656 99.183594 Z M 161.847656 99.183594 " fill-opacity="1" fill-rule="nonzero"/><path fill="#ccd6dd" d="M 94.875 112.585938 C 91.578125 112.648438 88.042969 112.269531 84.097656 111.480469 C 80.992188 133.191406 115.15625 167.304688 136.898438 164.203125 C 136.050781 160.09375 135.457031 156.226562 135.246094 152.523438 C 115.839844 146.34375 99.636719 130.277344 94.875 112.585938 Z M 94.875 112.585938 " fill-opacity="1" fill-rule="nonzero"/><g clip-path="url(#ebbef341bb)"><path fill="#000000" d="M 311.480469 134.324219 C 311.472656 132.5 312.203125 130.746094 313.507812 129.457031 C 314.8125 128.164062 316.582031 127.4375 318.425781 127.4375 C 331.035156 127.433594 357.515625 127.429688 370.285156 127.425781 C 372.183594 127.425781 374.007812 128.175781 375.351562 129.507812 C 376.691406 130.84375 377.4375 132.648438 377.425781 134.53125 C 377.425781 134.542969 377.425781 134.558594 377.425781 134.570312 C 377.40625 138.070312 374.527344 140.894531 370.988281 140.894531 C 358.46875 140.894531 330.855469 140.894531 318.144531 140.894531 C 314.46875 140.894531 311.488281 137.957031 311.480469 134.324219 Z M 311.480469 134.324219 " fill-opacity="1" fill-rule="evenodd"/></g><g clip-path="url(#5249f2361a)"><path fill="#000000" d="M 311.480469 154.601562 C 311.472656 152.777344 312.203125 151.023438 313.507812 149.730469 C 314.8125 148.4375 316.582031 147.710938 318.425781 147.710938 C 331.035156 147.710938 357.515625 147.703125 370.285156 147.703125 C 372.183594 147.703125 374.007812 148.453125 375.351562 149.785156 C 376.691406 151.117188 377.4375 152.925781 377.425781 154.808594 C 377.425781 154.820312 377.425781 154.832031 377.425781 154.847656 C 377.40625 158.34375 374.527344 161.171875 370.988281 161.171875 C 358.46875 161.171875 330.855469 161.171875 318.144531 161.171875 C 314.46875 161.171875 311.488281 158.230469 311.480469 154.601562 Z M 311.480469 154.601562 " fill-opacity="1" fill-rule="evenodd"/></g></svg>