<svg xmlns="http://www.w3.org/2000/svg" xmlns:xlink="http://www.w3.org/1999/xlink" width="1920" zoomAndPan="magnify" viewBox="0 0 1440 809.999993" height="1080" preserveAspectRatio="xMidYMid meet" version="1.0"><path fill="#3e721d" d="M 572.726562 346.8125 L 571.644531 346.070312 C 570.238281 345.027344 431.761719 239.882812 484.859375 104.070312 C 488.675781 94.28125 499.699219 89.476562 509.464844 93.292969 C 519.308594 97.078125 524.0625 108.136719 520.261719 117.902344 C 477.597656 227.039062 593.175781 314.71875 594.351562 315.589844 C 602.769531 321.863281 604.519531 333.757812 598.25 342.195312 C 592.222656 350.234375 581.050781 352.171875 572.726562 346.8125 Z M 853.535156 338.90625 L 852.449219 338.167969 C 851.042969 337.121094 712.570312 231.976562 765.664062 96.164062 C 769.484375 86.378906 780.503906 81.570312 790.273438 85.390625 C 800.117188 89.171875 804.867188 100.230469 801.066406 110 C 758.40625 219.132812 873.980469 306.8125 875.160156 307.6875 C 883.578125 313.957031 885.324219 325.851562 879.054688 334.289062 C 873.050781 342.328125 861.855469 344.265625 853.535156 338.90625 Z M 853.535156 338.90625 " fill-opacity="1" fill-rule="nonzero"/><path fill="#3e721d" d="M 588.082031 338.90625 L 589.164062 338.167969 C 590.570312 337.121094 729.046875 231.976562 675.953125 96.164062 C 672.132812 86.378906 661.109375 81.570312 651.34375 85.390625 C 641.5 89.171875 636.75 100.230469 640.546875 110 C 683.210938 219.132812 567.632812 306.8125 566.457031 307.6875 C 558.039062 313.957031 556.289062 325.851562 562.5625 334.289062 C 568.566406 342.328125 579.757812 344.265625 588.082031 338.90625 Z M 414.261719 488.082031 C 411.621094 487.566406 409.035156 486.464844 406.71875 484.792969 C 398.242188 478.597656 396.378906 466.722656 402.554688 458.226562 C 486.246094 343.46875 636.539062 354.414062 642.90625 354.925781 C 653.335938 355.878906 661.109375 364.941406 660.273438 375.394531 C 659.4375 385.84375 650.277344 393.636719 639.828125 392.820312 C 638.476562 392.703125 504.242188 383.316406 433.265625 480.613281 C 428.78125 486.789062 421.273438 489.449219 414.261719 488.082031 Z M 486.207031 715.679688 C 483.851562 717.007812 481.191406 717.863281 478.339844 718.09375 C 467.867188 718.910156 458.730469 711.117188 457.890625 700.648438 C 446.644531 559.058594 567.785156 469.457031 572.957031 465.714844 C 581.488281 459.652344 593.289062 461.457031 599.464844 469.933594 C 605.640625 478.410156 603.757812 490.285156 595.304688 496.480469 C 594.199219 497.277344 486.226562 577.605469 495.785156 697.644531 C 496.375 705.265625 492.421875 712.164062 486.207031 715.679688 Z M 868.355469 346.8125 L 869.4375 346.070312 C 870.84375 345.027344 1009.320312 239.882812 956.226562 104.070312 C 952.40625 94.28125 941.382812 89.457031 931.617188 93.277344 C 921.773438 97.058594 917.023438 108.117188 920.824219 117.882812 C 963.484375 227.019531 847.910156 314.699219 846.730469 315.570312 C 838.3125 321.84375 836.5625 333.738281 842.835938 342.175781 C 848.859375 350.234375 860.03125 352.171875 868.355469 346.8125 Z M 868.355469 346.8125 " fill-opacity="1" fill-rule="nonzero"/><path fill="#3e721d" d="M 1026.820312 488.082031 C 1029.460938 487.566406 1032.046875 486.464844 1034.367188 484.792969 C 1042.839844 478.597656 1044.703125 466.722656 1038.527344 458.226562 C 954.839844 343.46875 804.542969 354.414062 798.179688 354.925781 C 787.746094 355.878906 779.972656 364.941406 780.808594 375.394531 C 781.644531 385.84375 790.804688 393.636719 801.257812 392.820312 C 802.605469 392.703125 936.84375 383.316406 1007.820312 480.613281 C 1012.304688 486.789062 1019.808594 489.449219 1026.820312 488.082031 Z M 954.875 715.679688 C 957.234375 717.007812 959.894531 717.863281 962.742188 718.09375 C 973.214844 718.910156 982.355469 711.117188 983.191406 700.648438 C 994.441406 559.058594 873.296875 469.457031 868.128906 465.714844 C 859.59375 459.652344 847.792969 461.457031 841.617188 469.933594 C 835.441406 478.410156 837.324219 490.285156 845.78125 496.480469 C 846.882812 497.277344 954.855469 577.605469 945.296875 697.644531 C 944.710938 705.265625 948.664062 712.164062 954.875 715.679688 Z M 954.875 715.679688 " fill-opacity="1" fill-rule="nonzero"/><path fill="#77b255" d="M 839.527344 210.523438 C 838.332031 160.621094 797.207031 119.957031 720.761719 119.957031 C 645.945312 119.957031 603.1875 160.621094 601.992188 210.523438 C 550.492188 244.445312 516.839844 303.5625 516.839844 385.996094 C 516.839844 522.039062 608.128906 707.582031 720.761719 707.582031 C 833.390625 707.582031 924.679688 522.039062 924.679688 385.996094 C 924.660156 303.5625 891.007812 244.425781 839.527344 210.523438 Z M 839.527344 210.523438 " fill-opacity="1" fill-rule="nonzero"/><path fill="#5c913b" d="M 549.335938 264.433594 C 528.925781 296.550781 516.839844 337.066406 516.839844 385.996094 C 516.839844 522.039062 608.128906 707.582031 720.761719 707.582031 C 833.390625 707.582031 924.679688 522.039062 924.679688 385.996094 C 924.679688 337.007812 912.59375 296.472656 892.148438 264.359375 C 846.40625 256.851562 789.398438 252.976562 720.949219 252.976562 C 652.273438 252.976562 595.132812 256.871094 549.335938 264.433594 Z M 549.335938 264.433594 " fill-opacity="1" fill-rule="nonzero"/><path fill="#3e721d" d="M 601.992188 210.523438 C 601.992188 210.523438 657.421875 195.949219 723.269531 195.949219 C 789.113281 195.949219 839.527344 210.523438 839.527344 210.523438 C 839.527344 210.523438 841.582031 119.957031 720.761719 119.957031 C 599.9375 119.957031 601.992188 210.523438 601.992188 210.523438 Z M 601.992188 210.523438 " fill-opacity="1" fill-rule="nonzero"/><path fill="#77b255" d="M 686.78125 727.269531 C 577.402344 715.964844 491.355469 596.246094 491.355469 450.1875 C 491.355469 304.152344 574.929688 298.109375 663.789062 298.109375 C 691.039062 298.109375 703.773438 309.128906 703.773438 353.597656 L 703.773438 705.929688 C 703.753906 728.164062 692.390625 727.878906 686.78125 727.269531 Z M 751.355469 727.269531 C 860.734375 715.964844 946.78125 596.246094 946.78125 450.1875 C 946.78125 304.152344 863.207031 298.109375 774.347656 298.109375 C 747.097656 298.109375 734.367188 309.128906 734.367188 353.597656 L 734.367188 705.929688 C 734.386719 728.164062 745.75 727.878906 751.355469 727.269531 Z M 751.355469 727.269531 " fill-opacity="1" fill-rule="nonzero"/><path fill="#5c913b" d="M 662.324219 697.265625 C 656.054688 697.265625 649.917969 694.167969 646.289062 688.484375 C 534.039062 512.671875 585.800781 311.636719 592.070312 289.292969 C 594.902344 279.199219 605.296875 273.234375 615.503906 276.140625 C 625.613281 278.972656 631.484375 289.480469 628.652344 299.570312 C 622.839844 320.226562 574.949219 506.152344 678.289062 668.039062 C 683.933594 676.894531 681.347656 688.636719 672.492188 694.28125 C 669.375 696.296875 665.824219 697.265625 662.324219 697.265625 Z M 776.019531 697.265625 C 772.503906 697.265625 768.988281 696.296875 765.816406 694.28125 C 756.960938 688.636719 754.375 676.894531 760.019531 668.039062 C 843.976562 536.539062 830.730469 374.558594 809.65625 299.570312 C 806.824219 289.460938 812.714844 278.972656 822.804688 276.140625 C 832.933594 273.367188 843.40625 279.199219 846.238281 289.292969 C 852.507812 311.636719 904.308594 512.632812 792.019531 688.484375 C 788.449219 694.167969 782.308594 697.265625 776.019531 697.265625 Z M 776.019531 697.265625 " fill-opacity="1" fill-rule="nonzero"/><path fill="#5c913b" d="M 568.925781 268.785156 L 872.972656 268.785156 L 872.972656 325.796875 L 568.925781 325.796875 Z M 568.925781 268.785156 " fill-opacity="1" fill-rule="nonzero"/><path fill="#77b255" d="M 501.027344 376.835938 C 509.503906 350.59375 528.375 322.832031 550.550781 306.984375 C 571.113281 292.3125 590.722656 292.902344 584.832031 319.675781 C 566.644531 402.664062 489.363281 413.019531 501.027344 376.835938 Z M 623.789062 321.386719 C 634.925781 288.511719 691.953125 285.832031 700.40625 322.660156 C 708.882812 359.488281 680.929688 362.035156 658.070312 361.179688 C 635.207031 360.324219 614.476562 348.902344 623.789062 321.386719 Z M 936.558594 376.835938 C 928.082031 350.59375 909.210938 322.832031 887.035156 306.984375 C 866.472656 292.3125 846.863281 292.902344 852.753906 319.675781 C 870.941406 402.664062 948.226562 413.019531 936.558594 376.835938 Z M 813.78125 321.386719 C 802.644531 288.511719 745.617188 285.832031 737.160156 322.660156 C 728.683594 359.488281 756.636719 362.035156 779.5 361.179688 C 802.359375 360.324219 823.089844 348.902344 813.78125 321.386719 Z M 813.78125 321.386719 " fill-opacity="1" fill-rule="nonzero"/></svg>