<svg xmlns="http://www.w3.org/2000/svg" xmlns:xlink="http://www.w3.org/1999/xlink" width="1920" zoomAndPan="magnify" viewBox="0 0 1440 809.999993" height="1080" preserveAspectRatio="xMidYMid meet" version="1.0"><defs><g/><clipPath id="2b485bba91"><path d="M 1116 261.976562 L 1359 261.976562 L 1359 504.976562 L 1116 504.976562 Z M 1116 261.976562 " clip-rule="nonzero"/></clipPath><clipPath id="e3077ecc45"><path d="M 1237.5 261.976562 C 1170.398438 261.976562 1116 316.371094 1116 383.476562 C 1116 450.578125 1170.398438 504.976562 1237.5 504.976562 C 1304.601562 504.976562 1359 450.578125 1359 383.476562 C 1359 316.371094 1304.601562 261.976562 1237.5 261.976562 Z M 1237.5 261.976562 " clip-rule="nonzero"/></clipPath><clipPath id="d0e4679a1c"><path d="M 0 0.976562 L 243 0.976562 L 243 243.976562 L 0 243.976562 Z M 0 0.976562 " clip-rule="nonzero"/></clipPath><clipPath id="5d3075443d"><path d="M 121.5 0.976562 C 54.398438 0.976562 0 55.371094 0 122.476562 C 0 189.578125 54.398438 243.976562 121.5 243.976562 C 188.601562 243.976562 243 189.578125 243 122.476562 C 243 55.371094 188.601562 0.976562 121.5 0.976562 Z M 121.5 0.976562 " clip-rule="nonzero"/></clipPath><clipPath id="10c21cd24b"><rect x="0" width="243" y="0" height="244"/></clipPath><clipPath id="01fa45c25c"><path d="M 81 261.976562 L 324 261.976562 L 324 504.976562 L 81 504.976562 Z M 81 261.976562 " clip-rule="nonzero"/></clipPath><clipPath id="a55b634f6f"><path d="M 118.96875 261.976562 L 286.03125 261.976562 C 307 261.976562 324 278.972656 324 299.945312 L 324 467.007812 C 324 487.976562 307 504.976562 286.03125 504.976562 L 118.96875 504.976562 C 98 504.976562 81 487.976562 81 467.007812 L 81 299.945312 C 81 278.972656 98 261.976562 118.96875 261.976562 Z M 118.96875 261.976562 " clip-rule="nonzero"/></clipPath><clipPath id="fbb4d19fc0"><path d="M 0 0.976562 L 243 0.976562 L 243 243.976562 L 0 243.976562 Z M 0 0.976562 " clip-rule="nonzero"/></clipPath><clipPath id="3a4476e686"><path d="M 37.96875 0.976562 L 205.03125 0.976562 C 226 0.976562 243 17.972656 243 38.945312 L 243 206.007812 C 243 226.976562 226 243.976562 205.03125 243.976562 L 37.96875 243.976562 C 17 243.976562 0 226.976562 0 206.007812 L 0 38.945312 C 0 17.972656 17 0.976562 37.96875 0.976562 Z M 37.96875 0.976562 " clip-rule="nonzero"/></clipPath><clipPath id="1fc66c00e7"><rect x="0" width="243" y="0" height="244"/></clipPath><clipPath id="0c7ac71ebc"><path d="M 598.5 261.976562 L 841.5 261.976562 L 841.5 504.976562 L 598.5 504.976562 Z M 598.5 261.976562 " clip-rule="nonzero"/></clipPath><clipPath id="c073f0b39b"><path d="M 636.46875 261.976562 L 803.53125 261.976562 C 824.5 261.976562 841.5 278.972656 841.5 299.945312 L 841.5 467.007812 C 841.5 487.976562 824.5 504.976562 803.53125 504.976562 L 636.46875 504.976562 C 615.5 504.976562 598.5 487.976562 598.5 467.007812 L 598.5 299.945312 C 598.5 278.972656 615.5 261.976562 636.46875 261.976562 Z M 636.46875 261.976562 " clip-rule="nonzero"/></clipPath><clipPath id="001961c03a"><path d="M 0.5 0.976562 L 243.5 0.976562 L 243.5 243.976562 L 0.5 243.976562 Z M 0.5 0.976562 " clip-rule="nonzero"/></clipPath><clipPath id="a4948c732e"><path d="M 38.46875 0.976562 L 205.53125 0.976562 C 226.5 0.976562 243.5 17.972656 243.5 38.945312 L 243.5 206.007812 C 243.5 226.976562 226.5 243.976562 205.53125 243.976562 L 38.46875 243.976562 C 17.5 243.976562 0.5 226.976562 0.5 206.007812 L 0.5 38.945312 C 0.5 17.972656 17.5 0.976562 38.46875 0.976562 Z M 38.46875 0.976562 " clip-rule="nonzero"/></clipPath><clipPath id="04baeb201e"><rect x="0" width="244" y="0" height="244"/></clipPath><clipPath id="ca5cf116f3"><path d="M 1178.5 124.371094 L 1303.757812 124.371094 L 1303.757812 250.050781 L 1178.5 250.050781 Z M 1178.5 124.371094 " clip-rule="nonzero"/></clipPath><clipPath id="8d77d2d885"><path d="M 1181.078125 121.800781 L 1306.96875 121.800781 L 1306.96875 246 L 1181.078125 246 Z M 1181.078125 121.800781 " clip-rule="nonzero"/></clipPath></defs><g clip-path="url(#2b485bba91)"><g clip-path="url(#e3077ecc45)"><g transform="matrix(1, 0, 0, 1, 1116, 261)"><g clip-path="url(#10c21cd24b)"><g clip-path="url(#d0e4679a1c)"><g clip-path="url(#5d3075443d)"><path fill="#d9f4cd" d="M 0 0.976562 L 243 0.976562 L 243 243.976562 L 0 243.976562 Z M 0 0.976562 " fill-opacity="1" fill-rule="nonzero"/></g></g></g></g><path stroke-linecap="butt" transform="matrix(0.75, 0, 0, 0.75, 1115.99995, 261.975007)" fill="none" stroke-linejoin="miter" d="M 162.000075 0.00207424 C 72.53132 0.00207424 0.000066563 72.52812 0.000066563 162.002082 C 0.000066563 251.470837 72.53132 324.002091 162.000075 324.002091 C 251.468829 324.002091 324.000083 251.470837 324.000083 162.002082 C 324.000083 72.52812 251.468829 0.00207424 162.000075 0.00207424 Z M 162.000075 0.00207424 " stroke="#000000" stroke-width="20" stroke-opacity="1" stroke-miterlimit="4"/></g></g><g fill="#000000" fill-opacity="1"><g transform="translate(1172.718697, 369.975001)"><g><path d="M 12.125 0.4375 C 10.164062 0.4375 8.414062 -0.046875 6.875 -1.015625 C 5.34375 -1.992188 4.128906 -3.394531 3.234375 -5.21875 C 2.347656 -7.039062 1.90625 -9.238281 1.90625 -11.8125 C 1.90625 -14.351562 2.351562 -16.539062 3.25 -18.375 C 4.15625 -20.207031 5.394531 -21.609375 6.96875 -22.578125 C 8.539062 -23.554688 10.347656 -24.046875 12.390625 -24.046875 C 13.941406 -24.046875 15.242188 -23.738281 16.296875 -23.125 C 17.359375 -22.519531 18.226562 -21.867188 18.90625 -21.171875 L 17.203125 -19.265625 C 16.628906 -19.890625 15.960938 -20.40625 15.203125 -20.8125 C 14.453125 -21.21875 13.515625 -21.421875 12.390625 -21.421875 C 10.921875 -21.421875 9.632812 -21.03125 8.53125 -20.25 C 7.425781 -19.46875 6.566406 -18.367188 5.953125 -16.953125 C 5.347656 -15.535156 5.046875 -13.84375 5.046875 -11.875 C 5.046875 -9.882812 5.332031 -8.171875 5.90625 -6.734375 C 6.476562 -5.296875 7.304688 -4.179688 8.390625 -3.390625 C 9.472656 -2.597656 10.78125 -2.203125 12.3125 -2.203125 C 13.125 -2.203125 13.898438 -2.328125 14.640625 -2.578125 C 15.390625 -2.828125 15.984375 -3.164062 16.421875 -3.59375 L 16.421875 -9.75 L 11.703125 -9.75 L 11.703125 -12.234375 L 19.1875 -12.234375 L 19.1875 -2.296875 C 18.445312 -1.535156 17.46875 -0.890625 16.25 -0.359375 C 15.039062 0.171875 13.664062 0.4375 12.125 0.4375 Z M 12.125 0.4375 "/></g></g></g><g fill="#000000" fill-opacity="1"><g transform="translate(1194.31166, 369.975001)"><g><path d="M 10.796875 0.4375 C 9.265625 0.4375 7.84375 0.078125 6.53125 -0.640625 C 5.226562 -1.367188 4.171875 -2.414062 3.359375 -3.78125 C 2.554688 -5.144531 2.15625 -6.789062 2.15625 -8.71875 C 2.15625 -10.675781 2.554688 -12.335938 3.359375 -13.703125 C 4.171875 -15.078125 5.226562 -16.125 6.53125 -16.84375 C 7.84375 -17.5625 9.265625 -17.921875 10.796875 -17.921875 C 12.335938 -17.921875 13.757812 -17.5625 15.0625 -16.84375 C 16.375 -16.125 17.429688 -15.078125 18.234375 -13.703125 C 19.035156 -12.335938 19.4375 -10.675781 19.4375 -8.71875 C 19.4375 -6.789062 19.035156 -5.144531 18.234375 -3.78125 C 17.429688 -2.414062 16.375 -1.367188 15.0625 -0.640625 C 13.757812 0.078125 12.335938 0.4375 10.796875 0.4375 Z M 10.796875 -2.015625 C 11.921875 -2.015625 12.90625 -2.296875 13.75 -2.859375 C 14.59375 -3.421875 15.238281 -4.207031 15.6875 -5.21875 C 16.144531 -6.226562 16.375 -7.394531 16.375 -8.71875 C 16.375 -10.0625 16.144531 -11.238281 15.6875 -12.25 C 15.238281 -13.269531 14.59375 -14.0625 13.75 -14.625 C 12.90625 -15.195312 11.921875 -15.484375 10.796875 -15.484375 C 9.671875 -15.484375 8.691406 -15.195312 7.859375 -14.625 C 7.035156 -14.0625 6.390625 -13.269531 5.921875 -12.25 C 5.453125 -11.238281 5.21875 -10.0625 5.21875 -8.71875 C 5.21875 -7.394531 5.453125 -6.226562 5.921875 -5.21875 C 6.390625 -4.207031 7.035156 -3.421875 7.859375 -2.859375 C 8.691406 -2.296875 9.671875 -2.015625 10.796875 -2.015625 Z M 10.796875 -2.015625 "/></g></g></g><g fill="#000000" fill-opacity="1"><g transform="translate(1215.904624, 369.975001)"><g><path d="M 10.796875 0.4375 C 9.265625 0.4375 7.84375 0.078125 6.53125 -0.640625 C 5.226562 -1.367188 4.171875 -2.414062 3.359375 -3.78125 C 2.554688 -5.144531 2.15625 -6.789062 2.15625 -8.71875 C 2.15625 -10.675781 2.554688 -12.335938 3.359375 -13.703125 C 4.171875 -15.078125 5.226562 -16.125 6.53125 -16.84375 C 7.84375 -17.5625 9.265625 -17.921875 10.796875 -17.921875 C 12.335938 -17.921875 13.757812 -17.5625 15.0625 -16.84375 C 16.375 -16.125 17.429688 -15.078125 18.234375 -13.703125 C 19.035156 -12.335938 19.4375 -10.675781 19.4375 -8.71875 C 19.4375 -6.789062 19.035156 -5.144531 18.234375 -3.78125 C 17.429688 -2.414062 16.375 -1.367188 15.0625 -0.640625 C 13.757812 0.078125 12.335938 0.4375 10.796875 0.4375 Z M 10.796875 -2.015625 C 11.921875 -2.015625 12.90625 -2.296875 13.75 -2.859375 C 14.59375 -3.421875 15.238281 -4.207031 15.6875 -5.21875 C 16.144531 -6.226562 16.375 -7.394531 16.375 -8.71875 C 16.375 -10.0625 16.144531 -11.238281 15.6875 -12.25 C 15.238281 -13.269531 14.59375 -14.0625 13.75 -14.625 C 12.90625 -15.195312 11.921875 -15.484375 10.796875 -15.484375 C 9.671875 -15.484375 8.691406 -15.195312 7.859375 -14.625 C 7.035156 -14.0625 6.390625 -13.269531 5.921875 -12.25 C 5.453125 -11.238281 5.21875 -10.0625 5.21875 -8.71875 C 5.21875 -7.394531 5.453125 -6.226562 5.921875 -5.21875 C 6.390625 -4.207031 7.035156 -3.421875 7.859375 -2.859375 C 8.691406 -2.296875 9.671875 -2.015625 10.796875 -2.015625 Z M 10.796875 -2.015625 "/></g></g></g><g fill="#000000" fill-opacity="1"><g transform="translate(1237.497587, 369.975001)"><g><path d="M 10.65625 8.0625 C 8.945312 8.0625 7.492188 7.867188 6.296875 7.484375 C 5.097656 7.097656 4.179688 6.546875 3.546875 5.828125 C 2.910156 5.109375 2.59375 4.234375 2.59375 3.203125 C 2.59375 2.503906 2.835938 1.8125 3.328125 1.125 C 3.816406 0.445312 4.53125 -0.15625 5.46875 -0.6875 L 5.46875 -0.828125 C 5.007812 -1.085938 4.59375 -1.445312 4.21875 -1.90625 C 3.851562 -2.363281 3.671875 -2.960938 3.671875 -3.703125 C 3.671875 -4.253906 3.847656 -4.820312 4.203125 -5.40625 C 4.566406 -6 5.085938 -6.523438 5.765625 -6.984375 L 5.765625 -7.125 C 5.160156 -7.582031 4.644531 -8.191406 4.21875 -8.953125 C 3.800781 -9.722656 3.59375 -10.625 3.59375 -11.65625 C 3.59375 -12.9375 3.910156 -14.039062 4.546875 -14.96875 C 5.191406 -15.90625 6.035156 -16.628906 7.078125 -17.140625 C 8.117188 -17.660156 9.25 -17.921875 10.46875 -17.921875 C 11.457031 -17.921875 12.320312 -17.78125 13.0625 -17.5 L 20.296875 -17.5 L 20.296875 -15.078125 L 15.765625 -15.078125 C 16.171875 -14.671875 16.519531 -14.15625 16.8125 -13.53125 C 17.101562 -12.90625 17.25 -12.25 17.25 -11.5625 C 17.25 -10.3125 16.945312 -9.234375 16.34375 -8.328125 C 15.738281 -7.429688 14.925781 -6.742188 13.90625 -6.265625 C 12.894531 -5.785156 11.75 -5.546875 10.46875 -5.546875 C 10.019531 -5.546875 9.535156 -5.597656 9.015625 -5.703125 C 8.503906 -5.816406 8.007812 -5.976562 7.53125 -6.1875 C 7.09375 -5.925781 6.753906 -5.625 6.515625 -5.28125 C 6.273438 -4.945312 6.15625 -4.578125 6.15625 -4.171875 C 6.15625 -3.503906 6.472656 -3 7.109375 -2.65625 C 7.742188 -2.320312 8.640625 -2.15625 9.796875 -2.15625 L 13.71875 -2.15625 C 15.96875 -2.15625 17.640625 -1.84375 18.734375 -1.21875 C 19.828125 -0.59375 20.375 0.457031 20.375 1.9375 C 20.375 3.019531 19.976562 4.03125 19.1875 4.96875 C 18.394531 5.90625 17.269531 6.65625 15.8125 7.21875 C 14.363281 7.78125 12.644531 8.0625 10.65625 8.0625 Z M 10.46875 -7.53125 C 11.21875 -7.53125 11.894531 -7.695312 12.5 -8.03125 C 13.113281 -8.363281 13.601562 -8.84375 13.96875 -9.46875 C 14.332031 -10.09375 14.515625 -10.820312 14.515625 -11.65625 C 14.515625 -12.476562 14.332031 -13.191406 13.96875 -13.796875 C 13.601562 -14.410156 13.113281 -14.890625 12.5 -15.234375 C 11.894531 -15.585938 11.21875 -15.765625 10.46875 -15.765625 C 9.75 -15.765625 9.082031 -15.585938 8.46875 -15.234375 C 7.863281 -14.890625 7.375 -14.410156 7 -13.796875 C 6.625 -13.191406 6.4375 -12.476562 6.4375 -11.65625 C 6.4375 -10.820312 6.625 -10.09375 7 -9.46875 C 7.375 -8.84375 7.863281 -8.363281 8.46875 -8.03125 C 9.082031 -7.695312 9.75 -7.53125 10.46875 -7.53125 Z M 10.875 5.90625 C 12.238281 5.90625 13.410156 5.734375 14.390625 5.390625 C 15.378906 5.054688 16.132812 4.625 16.65625 4.09375 C 17.1875 3.570312 17.453125 3.007812 17.453125 2.40625 C 17.453125 1.570312 17.125 1.007812 16.46875 0.71875 C 15.8125 0.425781 14.8125 0.28125 13.46875 0.28125 L 10.046875 0.28125 C 9.535156 0.28125 9.054688 0.253906 8.609375 0.203125 C 8.171875 0.160156 7.757812 0.09375 7.375 0 C 6.5625 0.457031 5.984375 0.929688 5.640625 1.421875 C 5.304688 1.910156 5.140625 2.410156 5.140625 2.921875 C 5.140625 3.828125 5.625 4.550781 6.59375 5.09375 C 7.570312 5.632812 9 5.90625 10.875 5.90625 Z M 10.875 5.90625 "/></g></g></g><g fill="#000000" fill-opacity="1"><g transform="translate(1259.09055, 369.975001)"><g><path d="M 14.609375 0.4375 C 12.765625 0.4375 11.347656 -0.09375 10.359375 -1.15625 C 9.378906 -2.226562 8.890625 -3.800781 8.890625 -5.875 L 8.890625 -23.21875 L 2.921875 -23.21875 L 2.921875 -25.625 L 11.84375 -25.625 L 11.84375 -5.65625 C 11.84375 -4.382812 12.15625 -3.457031 12.78125 -2.875 C 13.40625 -2.300781 14.234375 -2.015625 15.265625 -2.015625 C 15.765625 -2.015625 16.28125 -2.078125 16.8125 -2.203125 C 17.34375 -2.335938 17.929688 -2.550781 18.578125 -2.84375 L 19.328125 -0.609375 C 18.535156 -0.328125 17.789062 -0.0820312 17.09375 0.125 C 16.40625 0.332031 15.578125 0.4375 14.609375 0.4375 Z M 14.609375 0.4375 "/></g></g></g><g fill="#000000" fill-opacity="1"><g transform="translate(1280.683513, 369.975001)"><g><path d="M 11.875 0.4375 C 10.125 0.4375 8.535156 0.078125 7.109375 -0.640625 C 5.679688 -1.367188 4.546875 -2.421875 3.703125 -3.796875 C 2.867188 -5.179688 2.453125 -6.84375 2.453125 -8.78125 C 2.453125 -10.675781 2.867188 -12.304688 3.703125 -13.671875 C 4.546875 -15.046875 5.644531 -16.097656 7 -16.828125 C 8.351562 -17.554688 9.8125 -17.921875 11.375 -17.921875 C 13.050781 -17.921875 14.484375 -17.578125 15.671875 -16.890625 C 16.859375 -16.210938 17.769531 -15.257812 18.40625 -14.03125 C 19.050781 -12.8125 19.375 -11.375 19.375 -9.71875 C 19.375 -9.382812 19.359375 -9.0625 19.328125 -8.75 C 19.304688 -8.4375 19.269531 -8.160156 19.21875 -7.921875 L 4.421875 -7.921875 L 4.421875 -10.21875 L 17.453125 -10.21875 L 16.703125 -9.390625 C 16.703125 -11.453125 16.226562 -13 15.28125 -14.03125 C 14.332031 -15.070312 13.054688 -15.59375 11.453125 -15.59375 C 10.367188 -15.59375 9.363281 -15.328125 8.4375 -14.796875 C 7.519531 -14.265625 6.785156 -13.492188 6.234375 -12.484375 C 5.679688 -11.484375 5.40625 -10.25 5.40625 -8.78125 C 5.40625 -7.269531 5.703125 -6.007812 6.296875 -5 C 6.898438 -3.988281 7.71875 -3.222656 8.75 -2.703125 C 9.78125 -2.191406 10.941406 -1.9375 12.234375 -1.9375 C 13.296875 -1.9375 14.25 -2.085938 15.09375 -2.390625 C 15.945312 -2.691406 16.769531 -3.09375 17.5625 -3.59375 L 18.640625 -1.65625 C 17.785156 -1.082031 16.796875 -0.585938 15.671875 -0.171875 C 14.554688 0.234375 13.289062 0.4375 11.875 0.4375 Z M 11.875 0.4375 "/></g></g></g><g fill="#000000" fill-opacity="1"><g transform="translate(1183.511665, 420.224999)"><g><path d="M 10.984375 0.4375 C 9.253906 0.4375 7.660156 0.117188 6.203125 -0.515625 C 4.753906 -1.148438 3.488281 -2 2.40625 -3.0625 L 4.21875 -5.140625 C 5.101562 -4.253906 6.140625 -3.539062 7.328125 -3 C 8.515625 -2.46875 9.78125 -2.203125 11.125 -2.203125 C 12.757812 -2.203125 14.023438 -2.546875 14.921875 -3.234375 C 15.816406 -3.929688 16.265625 -4.832031 16.265625 -5.9375 C 16.265625 -6.78125 16.078125 -7.453125 15.703125 -7.953125 C 15.335938 -8.460938 14.835938 -8.882812 14.203125 -9.21875 C 13.566406 -9.550781 12.84375 -9.882812 12.03125 -10.21875 L 8.640625 -11.703125 C 7.847656 -12.035156 7.0625 -12.453125 6.28125 -12.953125 C 5.5 -13.460938 4.84375 -14.109375 4.3125 -14.890625 C 3.789062 -15.671875 3.53125 -16.632812 3.53125 -17.78125 C 3.53125 -18.976562 3.859375 -20.050781 4.515625 -21 C 5.179688 -21.945312 6.097656 -22.691406 7.265625 -23.234375 C 8.441406 -23.773438 9.773438 -24.046875 11.265625 -24.046875 C 12.753906 -24.046875 14.125 -23.773438 15.375 -23.234375 C 16.625 -22.691406 17.679688 -21.988281 18.546875 -21.125 L 16.953125 -19.1875 C 16.179688 -19.882812 15.328125 -20.429688 14.390625 -20.828125 C 13.460938 -21.222656 12.382812 -21.421875 11.15625 -21.421875 C 9.789062 -21.421875 8.6875 -21.113281 7.84375 -20.5 C 7.007812 -19.882812 6.59375 -19.039062 6.59375 -17.96875 C 6.59375 -17.21875 6.800781 -16.601562 7.21875 -16.125 C 7.632812 -15.644531 8.164062 -15.25 8.8125 -14.9375 C 9.46875 -14.625 10.128906 -14.328125 10.796875 -14.046875 L 14.109375 -12.59375 C 15.097656 -12.21875 15.988281 -11.757812 16.78125 -11.21875 C 17.570312 -10.675781 18.191406 -10.007812 18.640625 -9.21875 C 19.097656 -8.425781 19.328125 -7.453125 19.328125 -6.296875 C 19.328125 -5.046875 18.988281 -3.910156 18.3125 -2.890625 C 17.644531 -1.878906 16.6875 -1.070312 15.4375 -0.46875 C 14.195312 0.132812 12.710938 0.4375 10.984375 0.4375 Z M 10.984375 0.4375 "/></g></g></g><g fill="#000000" fill-opacity="1"><g transform="translate(1205.104629, 420.224999)"><g><path d="M 3.34375 0 L 3.34375 -25.625 L 6.296875 -25.625 L 6.296875 -18.640625 L 6.125 -14.515625 L 6.234375 -14.515625 C 7.117188 -15.472656 8.085938 -16.28125 9.140625 -16.9375 C 10.203125 -17.59375 11.414062 -17.921875 12.78125 -17.921875 C 14.84375 -17.921875 16.363281 -17.320312 17.34375 -16.125 C 18.332031 -14.925781 18.828125 -13.175781 18.828125 -10.875 L 18.828125 0 L 15.875 0 L 15.875 -10.46875 C 15.875 -12.125 15.5625 -13.351562 14.9375 -14.15625 C 14.3125 -14.96875 13.28125 -15.375 11.84375 -15.375 C 10.8125 -15.375 9.882812 -15.109375 9.0625 -14.578125 C 8.25 -14.046875 7.328125 -13.253906 6.296875 -12.203125 L 6.296875 0 Z M 3.34375 0 "/></g></g></g><g fill="#000000" fill-opacity="1"><g transform="translate(1226.697592, 420.224999)"><g><path d="M 11.875 0.4375 C 10.125 0.4375 8.535156 0.078125 7.109375 -0.640625 C 5.679688 -1.367188 4.546875 -2.421875 3.703125 -3.796875 C 2.867188 -5.179688 2.453125 -6.84375 2.453125 -8.78125 C 2.453125 -10.675781 2.867188 -12.304688 3.703125 -13.671875 C 4.546875 -15.046875 5.644531 -16.097656 7 -16.828125 C 8.351562 -17.554688 9.8125 -17.921875 11.375 -17.921875 C 13.050781 -17.921875 14.484375 -17.578125 15.671875 -16.890625 C 16.859375 -16.210938 17.769531 -15.257812 18.40625 -14.03125 C 19.050781 -12.8125 19.375 -11.375 19.375 -9.71875 C 19.375 -9.382812 19.359375 -9.0625 19.328125 -8.75 C 19.304688 -8.4375 19.269531 -8.160156 19.21875 -7.921875 L 4.421875 -7.921875 L 4.421875 -10.21875 L 17.453125 -10.21875 L 16.703125 -9.390625 C 16.703125 -11.453125 16.226562 -13 15.28125 -14.03125 C 14.332031 -15.070312 13.054688 -15.59375 11.453125 -15.59375 C 10.367188 -15.59375 9.363281 -15.328125 8.4375 -14.796875 C 7.519531 -14.265625 6.785156 -13.492188 6.234375 -12.484375 C 5.679688 -11.484375 5.40625 -10.25 5.40625 -8.78125 C 5.40625 -7.269531 5.703125 -6.007812 6.296875 -5 C 6.898438 -3.988281 7.71875 -3.222656 8.75 -2.703125 C 9.78125 -2.191406 10.941406 -1.9375 12.234375 -1.9375 C 13.296875 -1.9375 14.25 -2.085938 15.09375 -2.390625 C 15.945312 -2.691406 16.769531 -3.09375 17.5625 -3.59375 L 18.640625 -1.65625 C 17.785156 -1.082031 16.796875 -0.585938 15.671875 -0.171875 C 14.554688 0.234375 13.289062 0.4375 11.875 0.4375 Z M 11.875 0.4375 "/></g></g></g><g fill="#000000" fill-opacity="1"><g transform="translate(1248.290555, 420.224999)"><g><path d="M 11.875 0.4375 C 10.125 0.4375 8.535156 0.078125 7.109375 -0.640625 C 5.679688 -1.367188 4.546875 -2.421875 3.703125 -3.796875 C 2.867188 -5.179688 2.453125 -6.84375 2.453125 -8.78125 C 2.453125 -10.675781 2.867188 -12.304688 3.703125 -13.671875 C 4.546875 -15.046875 5.644531 -16.097656 7 -16.828125 C 8.351562 -17.554688 9.8125 -17.921875 11.375 -17.921875 C 13.050781 -17.921875 14.484375 -17.578125 15.671875 -16.890625 C 16.859375 -16.210938 17.769531 -15.257812 18.40625 -14.03125 C 19.050781 -12.8125 19.375 -11.375 19.375 -9.71875 C 19.375 -9.382812 19.359375 -9.0625 19.328125 -8.75 C 19.304688 -8.4375 19.269531 -8.160156 19.21875 -7.921875 L 4.421875 -7.921875 L 4.421875 -10.21875 L 17.453125 -10.21875 L 16.703125 -9.390625 C 16.703125 -11.453125 16.226562 -13 15.28125 -14.03125 C 14.332031 -15.070312 13.054688 -15.59375 11.453125 -15.59375 C 10.367188 -15.59375 9.363281 -15.328125 8.4375 -14.796875 C 7.519531 -14.265625 6.785156 -13.492188 6.234375 -12.484375 C 5.679688 -11.484375 5.40625 -10.25 5.40625 -8.78125 C 5.40625 -7.269531 5.703125 -6.007812 6.296875 -5 C 6.898438 -3.988281 7.71875 -3.222656 8.75 -2.703125 C 9.78125 -2.191406 10.941406 -1.9375 12.234375 -1.9375 C 13.296875 -1.9375 14.25 -2.085938 15.09375 -2.390625 C 15.945312 -2.691406 16.769531 -3.09375 17.5625 -3.59375 L 18.640625 -1.65625 C 17.785156 -1.082031 16.796875 -0.585938 15.671875 -0.171875 C 14.554688 0.234375 13.289062 0.4375 11.875 0.4375 Z M 11.875 0.4375 "/></g></g></g><g fill="#000000" fill-opacity="1"><g transform="translate(1269.883518, 420.224999)"><g><path d="M 14.1875 0.4375 C 12.476562 0.4375 11.128906 0.128906 10.140625 -0.484375 C 9.160156 -1.097656 8.460938 -1.941406 8.046875 -3.015625 C 7.628906 -4.097656 7.421875 -5.359375 7.421875 -6.796875 L 7.421875 -15.078125 L 2.484375 -15.078125 L 2.484375 -17.3125 L 7.53125 -17.5 L 7.921875 -23.109375 L 10.375 -23.109375 L 10.375 -17.5 L 18.96875 -17.5 L 18.96875 -15.078125 L 10.375 -15.078125 L 10.375 -6.765625 C 10.375 -5.734375 10.503906 -4.859375 10.765625 -4.140625 C 11.023438 -3.421875 11.476562 -2.878906 12.125 -2.515625 C 12.78125 -2.160156 13.671875 -1.984375 14.796875 -1.984375 C 15.640625 -1.984375 16.394531 -2.050781 17.0625 -2.1875 C 17.738281 -2.332031 18.390625 -2.523438 19.015625 -2.765625 L 19.65625 -0.609375 C 18.863281 -0.328125 18.03125 -0.0820312 17.15625 0.125 C 16.28125 0.332031 15.289062 0.4375 14.1875 0.4375 Z M 14.1875 0.4375 "/></g></g></g><path stroke-linecap="round" transform="matrix(0, 0.75, -0.75, 0, 1241.24644, 124.05353)" fill="none" stroke-linejoin="miter" d="M 5.001544 5.000462 L 176.397386 5.000462 " stroke="#000000" stroke-width="10" stroke-opacity="1" stroke-miterlimit="4"/><path stroke-linecap="round" transform="matrix(0, 0.75, -0.75, 0, 1241.24644, 124.05353)" fill="none" stroke-linejoin="round" d="M 158.902593 -9.999539 L 178.897386 5.000462 L 158.902593 20.000462 " stroke="#000000" stroke-width="10" stroke-opacity="1" stroke-miterlimit="4"/><g clip-path="url(#01fa45c25c)"><g clip-path="url(#a55b634f6f)"><g transform="matrix(1, 0, 0, 1, 81, 261)"><g clip-path="url(#1fc66c00e7)"><g clip-path="url(#fbb4d19fc0)"><g clip-path="url(#3a4476e686)"><path fill="#dfdfdf" d="M 0 0.976562 L 243 0.976562 L 243 243.976562 L 0 243.976562 Z M 0 0.976562 " fill-opacity="1" fill-rule="nonzero"/></g></g></g></g><path stroke-linecap="butt" transform="matrix(0.75, 0, 0, 0.75, 81.000002, 261.975007)" fill="none" stroke-linejoin="miter" d="M 50.625 0.00207424 L 273.375011 0.00207424 C 301.333346 0.00207424 324.000013 22.663534 324.000013 50.627077 L 324.000013 273.377088 C 324.000013 301.335423 301.333346 324.002091 273.375011 324.002091 L 50.625 324.002091 C 22.666665 324.002091 -0.00000286296 301.335423 -0.00000286296 273.377088 L -0.00000286296 50.627077 C -0.00000286296 22.663534 22.666665 0.00207424 50.625 0.00207424 Z M 50.625 0.00207424 " stroke="#000000" stroke-width="20" stroke-opacity="1" stroke-miterlimit="4"/></g></g><g fill="#000000" fill-opacity="1"><g transform="translate(94.535158, 395.475)"><g><path d="M 14.609375 0.4375 C 12.765625 0.4375 11.347656 -0.09375 10.359375 -1.15625 C 9.378906 -2.226562 8.890625 -3.800781 8.890625 -5.875 L 8.890625 -23.21875 L 2.921875 -23.21875 L 2.921875 -25.625 L 11.84375 -25.625 L 11.84375 -5.65625 C 11.84375 -4.382812 12.15625 -3.457031 12.78125 -2.875 C 13.40625 -2.300781 14.234375 -2.015625 15.265625 -2.015625 C 15.765625 -2.015625 16.28125 -2.078125 16.8125 -2.203125 C 17.34375 -2.335938 17.929688 -2.550781 18.578125 -2.84375 L 19.328125 -0.609375 C 18.535156 -0.328125 17.789062 -0.0820312 17.09375 0.125 C 16.40625 0.332031 15.578125 0.4375 14.609375 0.4375 Z M 14.609375 0.4375 "/></g></g></g><g fill="#000000" fill-opacity="1"><g transform="translate(116.128121, 395.475)"><g><path d="M 11.875 0.4375 C 10.125 0.4375 8.535156 0.078125 7.109375 -0.640625 C 5.679688 -1.367188 4.546875 -2.421875 3.703125 -3.796875 C 2.867188 -5.179688 2.453125 -6.84375 2.453125 -8.78125 C 2.453125 -10.675781 2.867188 -12.304688 3.703125 -13.671875 C 4.546875 -15.046875 5.644531 -16.097656 7 -16.828125 C 8.351562 -17.554688 9.8125 -17.921875 11.375 -17.921875 C 13.050781 -17.921875 14.484375 -17.578125 15.671875 -16.890625 C 16.859375 -16.210938 17.769531 -15.257812 18.40625 -14.03125 C 19.050781 -12.8125 19.375 -11.375 19.375 -9.71875 C 19.375 -9.382812 19.359375 -9.0625 19.328125 -8.75 C 19.304688 -8.4375 19.269531 -8.160156 19.21875 -7.921875 L 4.421875 -7.921875 L 4.421875 -10.21875 L 17.453125 -10.21875 L 16.703125 -9.390625 C 16.703125 -11.453125 16.226562 -13 15.28125 -14.03125 C 14.332031 -15.070312 13.054688 -15.59375 11.453125 -15.59375 C 10.367188 -15.59375 9.363281 -15.328125 8.4375 -14.796875 C 7.519531 -14.265625 6.785156 -13.492188 6.234375 -12.484375 C 5.679688 -11.484375 5.40625 -10.25 5.40625 -8.78125 C 5.40625 -7.269531 5.703125 -6.007812 6.296875 -5 C 6.898438 -3.988281 7.71875 -3.222656 8.75 -2.703125 C 9.78125 -2.191406 10.941406 -1.9375 12.234375 -1.9375 C 13.296875 -1.9375 14.25 -2.085938 15.09375 -2.390625 C 15.945312 -2.691406 16.769531 -3.09375 17.5625 -3.59375 L 18.640625 -1.65625 C 17.785156 -1.082031 16.796875 -0.585938 15.671875 -0.171875 C 14.554688 0.234375 13.289062 0.4375 11.875 0.4375 Z M 11.875 0.4375 "/></g></g></g><g fill="#000000" fill-opacity="1"><g transform="translate(137.721084, 395.475)"><g><path d="M 9.21875 0 L 1.84375 -17.5 L 4.828125 -17.5 L 8.859375 -7.5625 C 9.210938 -6.695312 9.550781 -5.832031 9.875 -4.96875 C 10.207031 -4.101562 10.53125 -3.25 10.84375 -2.40625 L 10.984375 -2.40625 C 11.296875 -3.25 11.609375 -4.101562 11.921875 -4.96875 C 12.234375 -5.832031 12.554688 -6.695312 12.890625 -7.5625 L 16.921875 -17.5 L 19.765625 -17.5 L 12.53125 0 Z M 9.21875 0 "/></g></g></g><g fill="#000000" fill-opacity="1"><g transform="translate(159.314047, 395.475)"><g><path d="M 11.875 0.4375 C 10.125 0.4375 8.535156 0.078125 7.109375 -0.640625 C 5.679688 -1.367188 4.546875 -2.421875 3.703125 -3.796875 C 2.867188 -5.179688 2.453125 -6.84375 2.453125 -8.78125 C 2.453125 -10.675781 2.867188 -12.304688 3.703125 -13.671875 C 4.546875 -15.046875 5.644531 -16.097656 7 -16.828125 C 8.351562 -17.554688 9.8125 -17.921875 11.375 -17.921875 C 13.050781 -17.921875 14.484375 -17.578125 15.671875 -16.890625 C 16.859375 -16.210938 17.769531 -15.257812 18.40625 -14.03125 C 19.050781 -12.8125 19.375 -11.375 19.375 -9.71875 C 19.375 -9.382812 19.359375 -9.0625 19.328125 -8.75 C 19.304688 -8.4375 19.269531 -8.160156 19.21875 -7.921875 L 4.421875 -7.921875 L 4.421875 -10.21875 L 17.453125 -10.21875 L 16.703125 -9.390625 C 16.703125 -11.453125 16.226562 -13 15.28125 -14.03125 C 14.332031 -15.070312 13.054688 -15.59375 11.453125 -15.59375 C 10.367188 -15.59375 9.363281 -15.328125 8.4375 -14.796875 C 7.519531 -14.265625 6.785156 -13.492188 6.234375 -12.484375 C 5.679688 -11.484375 5.40625 -10.25 5.40625 -8.78125 C 5.40625 -7.269531 5.703125 -6.007812 6.296875 -5 C 6.898438 -3.988281 7.71875 -3.222656 8.75 -2.703125 C 9.78125 -2.191406 10.941406 -1.9375 12.234375 -1.9375 C 13.296875 -1.9375 14.25 -2.085938 15.09375 -2.390625 C 15.945312 -2.691406 16.769531 -3.09375 17.5625 -3.59375 L 18.640625 -1.65625 C 17.785156 -1.082031 16.796875 -0.585938 15.671875 -0.171875 C 14.554688 0.234375 13.289062 0.4375 11.875 0.4375 Z M 11.875 0.4375 "/></g></g></g><g fill="#000000" fill-opacity="1"><g transform="translate(180.90701, 395.475)"><g><path d="M 14.609375 0.4375 C 12.765625 0.4375 11.347656 -0.09375 10.359375 -1.15625 C 9.378906 -2.226562 8.890625 -3.800781 8.890625 -5.875 L 8.890625 -23.21875 L 2.921875 -23.21875 L 2.921875 -25.625 L 11.84375 -25.625 L 11.84375 -5.65625 C 11.84375 -4.382812 12.15625 -3.457031 12.78125 -2.875 C 13.40625 -2.300781 14.234375 -2.015625 15.265625 -2.015625 C 15.765625 -2.015625 16.28125 -2.078125 16.8125 -2.203125 C 17.34375 -2.335938 17.929688 -2.550781 18.578125 -2.84375 L 19.328125 -0.609375 C 18.535156 -0.328125 17.789062 -0.0820312 17.09375 0.125 C 16.40625 0.332031 15.578125 0.4375 14.609375 0.4375 Z M 14.609375 0.4375 "/></g></g></g><g fill="#000000" fill-opacity="1"><g transform="translate(202.499974, 395.475)"><g><path d="M 11.15625 0.4375 C 9.457031 0.4375 7.863281 0.160156 6.375 -0.390625 C 4.882812 -0.941406 3.613281 -1.578125 2.5625 -2.296875 L 3.921875 -4.25 C 4.929688 -3.53125 6.046875 -2.953125 7.265625 -2.515625 C 8.492188 -2.085938 9.910156 -1.875 11.515625 -1.875 C 13.003906 -1.875 14.113281 -2.148438 14.84375 -2.703125 C 15.582031 -3.253906 15.953125 -3.890625 15.953125 -4.609375 C 15.953125 -4.941406 15.882812 -5.25 15.75 -5.53125 C 15.613281 -5.820312 15.359375 -6.097656 14.984375 -6.359375 C 14.617188 -6.628906 14.078125 -6.882812 13.359375 -7.125 C 12.640625 -7.363281 11.675781 -7.601562 10.46875 -7.84375 C 8.195312 -8.320312 6.488281 -8.96875 5.34375 -9.78125 C 4.207031 -10.601562 3.640625 -11.660156 3.640625 -12.953125 C 3.640625 -14.367188 4.25 -15.550781 5.46875 -16.5 C 6.695312 -17.445312 8.507812 -17.921875 10.90625 -17.921875 C 12.25 -17.921875 13.546875 -17.695312 14.796875 -17.25 C 16.046875 -16.8125 17.101562 -16.296875 17.96875 -15.703125 L 16.53125 -13.78125 C 15.738281 -14.363281 14.835938 -14.816406 13.828125 -15.140625 C 12.816406 -15.460938 11.757812 -15.625 10.65625 -15.625 C 9.644531 -15.625 8.84375 -15.507812 8.25 -15.28125 C 7.664062 -15.050781 7.25 -14.742188 7 -14.359375 C 6.75 -13.972656 6.625 -13.554688 6.625 -13.109375 C 6.625 -12.359375 7.023438 -11.773438 7.828125 -11.359375 C 8.628906 -10.941406 9.921875 -10.550781 11.703125 -10.1875 C 13.640625 -9.78125 15.128906 -9.320312 16.171875 -8.8125 C 17.222656 -8.3125 17.945312 -7.738281 18.34375 -7.09375 C 18.738281 -6.445312 18.9375 -5.675781 18.9375 -4.78125 C 18.9375 -3.820312 18.632812 -2.953125 18.03125 -2.171875 C 17.4375 -1.398438 16.5625 -0.769531 15.40625 -0.28125 C 14.257812 0.195312 12.84375 0.4375 11.15625 0.4375 Z M 11.15625 0.4375 "/></g></g></g><g fill="#000000" fill-opacity="1"><g transform="translate(224.092937, 395.475)"><g><path d="M 10.796875 0.4375 C 10.003906 0.4375 9.320312 0.15625 8.75 -0.40625 C 8.175781 -0.976562 7.890625 -1.707031 7.890625 -2.59375 C 7.890625 -3.5 8.175781 -4.234375 8.75 -4.796875 C 9.320312 -5.367188 10.003906 -5.65625 10.796875 -5.65625 C 11.617188 -5.65625 12.3125 -5.367188 12.875 -4.796875 C 13.4375 -4.234375 13.71875 -3.5 13.71875 -2.59375 C 13.71875 -1.707031 13.4375 -0.976562 12.875 -0.40625 C 12.3125 0.15625 11.617188 0.4375 10.796875 0.4375 Z M 10.796875 0.4375 "/></g></g></g><g fill="#000000" fill-opacity="1"><g transform="translate(245.6859, 395.475)"><g><path d="M 8.71875 0 L 8.71875 -18.96875 C 8.71875 -20.382812 8.972656 -21.625 9.484375 -22.6875 C 10.003906 -23.757812 10.78125 -24.585938 11.8125 -25.171875 C 12.84375 -25.765625 14.160156 -26.0625 15.765625 -26.0625 C 16.628906 -26.0625 17.472656 -25.984375 18.296875 -25.828125 C 19.128906 -25.671875 19.96875 -25.414062 20.8125 -25.0625 L 20.125 -22.828125 C 19.40625 -23.160156 18.738281 -23.378906 18.125 -23.484375 C 17.507812 -23.597656 16.820312 -23.65625 16.0625 -23.65625 C 14.5 -23.65625 13.367188 -23.242188 12.671875 -22.421875 C 11.972656 -21.609375 11.625 -20.492188 11.625 -19.078125 L 11.625 0 Z M 3.703125 -15.078125 L 3.703125 -17.3125 L 8.8125 -17.5 L 18.96875 -17.5 L 18.96875 -15.078125 Z M 3.703125 -15.078125 "/></g></g></g><g fill="#000000" fill-opacity="1"><g transform="translate(267.278863, 395.475)"><g><path d="M 4.71875 7.53125 C 4.332031 7.53125 3.925781 7.492188 3.5 7.421875 C 3.082031 7.347656 2.71875 7.257812 2.40625 7.15625 L 3.03125 4.828125 C 3.269531 4.898438 3.523438 4.957031 3.796875 5 C 4.078125 5.050781 4.347656 5.078125 4.609375 5.078125 C 5.828125 5.078125 6.820312 4.722656 7.59375 4.015625 C 8.363281 3.304688 8.960938 2.410156 9.390625 1.328125 L 9.9375 0.03125 L 1.765625 -17.5 L 4.75 -17.5 L 9.03125 -7.8125 C 9.375 -7.039062 9.726562 -6.21875 10.09375 -5.34375 C 10.46875 -4.46875 10.835938 -3.597656 11.203125 -2.734375 L 11.34375 -2.734375 C 11.65625 -3.578125 11.972656 -4.4375 12.296875 -5.3125 C 12.617188 -6.1875 12.925781 -7.019531 13.21875 -7.8125 L 17.03125 -17.5 L 19.84375 -17.5 L 12.125 1.4375 C 11.695312 2.59375 11.160156 3.628906 10.515625 4.546875 C 9.867188 5.472656 9.070312 6.203125 8.125 6.734375 C 7.175781 7.265625 6.039062 7.53125 4.71875 7.53125 Z M 4.71875 7.53125 "/></g></g></g><g fill="#000000" fill-opacity="1"><g transform="translate(288.871826, 395.475)"><g><path d="M 11.375 0 L 11.375 -15.078125 L 3.234375 -15.078125 L 3.234375 -17.5 L 14.328125 -17.5 L 14.328125 0 Z M 12.53125 -21.171875 C 11.863281 -21.171875 11.300781 -21.378906 10.84375 -21.796875 C 10.382812 -22.210938 10.15625 -22.769531 10.15625 -23.46875 C 10.15625 -24.164062 10.382812 -24.722656 10.84375 -25.140625 C 11.300781 -25.566406 11.863281 -25.78125 12.53125 -25.78125 C 13.207031 -25.78125 13.769531 -25.566406 14.21875 -25.140625 C 14.675781 -24.722656 14.90625 -24.164062 14.90625 -23.46875 C 14.90625 -22.769531 14.675781 -22.210938 14.21875 -21.796875 C 13.769531 -21.378906 13.207031 -21.171875 12.53125 -21.171875 Z M 12.53125 -21.171875 "/></g></g></g><g clip-path="url(#0c7ac71ebc)"><g clip-path="url(#c073f0b39b)"><g transform="matrix(1, 0, 0, 1, 598, 261)"><g clip-path="url(#04baeb201e)"><g clip-path="url(#001961c03a)"><g clip-path="url(#a4948c732e)"><path fill="#d8c7fa" d="M 0.5 0.976562 L 243.5 0.976562 L 243.5 243.976562 L 0.5 243.976562 Z M 0.5 0.976562 " fill-opacity="1" fill-rule="nonzero"/></g></g></g></g><path stroke-linecap="butt" transform="matrix(0.75, 0, 0, 0.75, 598.499976, 261.975007)" fill="none" stroke-linejoin="miter" d="M 50.625034 0.00207424 L 273.375046 0.00207424 C 301.33338 0.00207424 324.000048 22.663534 324.000048 50.627077 L 324.000048 273.377088 C 324.000048 301.335423 301.33338 324.002091 273.375046 324.002091 L 50.625034 324.002091 C 22.6667 324.002091 0.00003185 301.335423 0.00003185 273.377088 L 0.00003185 50.627077 C 0.00003185 22.663534 22.6667 0.00207424 50.625034 0.00207424 Z M 50.625034 0.00207424 " stroke="#000000" stroke-width="20" stroke-opacity="1" stroke-miterlimit="4"/></g></g><g fill="#000000" fill-opacity="1"><g transform="translate(655.195286, 369.975001)"><g><path d="M 12.125 0.4375 C 10.164062 0.4375 8.414062 -0.046875 6.875 -1.015625 C 5.34375 -1.992188 4.128906 -3.394531 3.234375 -5.21875 C 2.347656 -7.039062 1.90625 -9.238281 1.90625 -11.8125 C 1.90625 -14.351562 2.351562 -16.539062 3.25 -18.375 C 4.15625 -20.207031 5.394531 -21.609375 6.96875 -22.578125 C 8.539062 -23.554688 10.347656 -24.046875 12.390625 -24.046875 C 13.941406 -24.046875 15.242188 -23.738281 16.296875 -23.125 C 17.359375 -22.519531 18.226562 -21.867188 18.90625 -21.171875 L 17.203125 -19.265625 C 16.628906 -19.890625 15.960938 -20.40625 15.203125 -20.8125 C 14.453125 -21.21875 13.515625 -21.421875 12.390625 -21.421875 C 10.921875 -21.421875 9.632812 -21.03125 8.53125 -20.25 C 7.425781 -19.46875 6.566406 -18.367188 5.953125 -16.953125 C 5.347656 -15.535156 5.046875 -13.84375 5.046875 -11.875 C 5.046875 -9.882812 5.332031 -8.171875 5.90625 -6.734375 C 6.476562 -5.296875 7.304688 -4.179688 8.390625 -3.390625 C 9.472656 -2.597656 10.78125 -2.203125 12.3125 -2.203125 C 13.125 -2.203125 13.898438 -2.328125 14.640625 -2.578125 C 15.390625 -2.828125 15.984375 -3.164062 16.421875 -3.59375 L 16.421875 -9.75 L 11.703125 -9.75 L 11.703125 -12.234375 L 19.1875 -12.234375 L 19.1875 -2.296875 C 18.445312 -1.535156 17.46875 -0.890625 16.25 -0.359375 C 15.039062 0.171875 13.664062 0.4375 12.125 0.4375 Z M 12.125 0.4375 "/></g></g></g><g fill="#000000" fill-opacity="1"><g transform="translate(676.795333, 369.975001)"><g><path d="M 10.796875 0.4375 C 9.265625 0.4375 7.84375 0.078125 6.53125 -0.640625 C 5.226562 -1.367188 4.171875 -2.414062 3.359375 -3.78125 C 2.554688 -5.144531 2.15625 -6.789062 2.15625 -8.71875 C 2.15625 -10.675781 2.554688 -12.335938 3.359375 -13.703125 C 4.171875 -15.078125 5.226562 -16.125 6.53125 -16.84375 C 7.84375 -17.5625 9.265625 -17.921875 10.796875 -17.921875 C 12.335938 -17.921875 13.757812 -17.5625 15.0625 -16.84375 C 16.375 -16.125 17.429688 -15.078125 18.234375 -13.703125 C 19.035156 -12.335938 19.4375 -10.675781 19.4375 -8.71875 C 19.4375 -6.789062 19.035156 -5.144531 18.234375 -3.78125 C 17.429688 -2.414062 16.375 -1.367188 15.0625 -0.640625 C 13.757812 0.078125 12.335938 0.4375 10.796875 0.4375 Z M 10.796875 -2.015625 C 11.921875 -2.015625 12.90625 -2.296875 13.75 -2.859375 C 14.59375 -3.421875 15.238281 -4.207031 15.6875 -5.21875 C 16.144531 -6.226562 16.375 -7.394531 16.375 -8.71875 C 16.375 -10.0625 16.144531 -11.238281 15.6875 -12.25 C 15.238281 -13.269531 14.59375 -14.0625 13.75 -14.625 C 12.90625 -15.195312 11.921875 -15.484375 10.796875 -15.484375 C 9.671875 -15.484375 8.691406 -15.195312 7.859375 -14.625 C 7.035156 -14.0625 6.390625 -13.269531 5.921875 -12.25 C 5.453125 -11.238281 5.21875 -10.0625 5.21875 -8.71875 C 5.21875 -7.394531 5.453125 -6.226562 5.921875 -5.21875 C 6.390625 -4.207031 7.035156 -3.421875 7.859375 -2.859375 C 8.691406 -2.296875 9.671875 -2.015625 10.796875 -2.015625 Z M 10.796875 -2.015625 "/></g></g></g><g fill="#000000" fill-opacity="1"><g transform="translate(698.39538, 369.975001)"><g><path d="M 10.796875 0.4375 C 9.265625 0.4375 7.84375 0.078125 6.53125 -0.640625 C 5.226562 -1.367188 4.171875 -2.414062 3.359375 -3.78125 C 2.554688 -5.144531 2.15625 -6.789062 2.15625 -8.71875 C 2.15625 -10.675781 2.554688 -12.335938 3.359375 -13.703125 C 4.171875 -15.078125 5.226562 -16.125 6.53125 -16.84375 C 7.84375 -17.5625 9.265625 -17.921875 10.796875 -17.921875 C 12.335938 -17.921875 13.757812 -17.5625 15.0625 -16.84375 C 16.375 -16.125 17.429688 -15.078125 18.234375 -13.703125 C 19.035156 -12.335938 19.4375 -10.675781 19.4375 -8.71875 C 19.4375 -6.789062 19.035156 -5.144531 18.234375 -3.78125 C 17.429688 -2.414062 16.375 -1.367188 15.0625 -0.640625 C 13.757812 0.078125 12.335938 0.4375 10.796875 0.4375 Z M 10.796875 -2.015625 C 11.921875 -2.015625 12.90625 -2.296875 13.75 -2.859375 C 14.59375 -3.421875 15.238281 -4.207031 15.6875 -5.21875 C 16.144531 -6.226562 16.375 -7.394531 16.375 -8.71875 C 16.375 -10.0625 16.144531 -11.238281 15.6875 -12.25 C 15.238281 -13.269531 14.59375 -14.0625 13.75 -14.625 C 12.90625 -15.195312 11.921875 -15.484375 10.796875 -15.484375 C 9.671875 -15.484375 8.691406 -15.195312 7.859375 -14.625 C 7.035156 -14.0625 6.390625 -13.269531 5.921875 -12.25 C 5.453125 -11.238281 5.21875 -10.0625 5.21875 -8.71875 C 5.21875 -7.394531 5.453125 -6.226562 5.921875 -5.21875 C 6.390625 -4.207031 7.035156 -3.421875 7.859375 -2.859375 C 8.691406 -2.296875 9.671875 -2.015625 10.796875 -2.015625 Z M 10.796875 -2.015625 "/></g></g></g><g fill="#000000" fill-opacity="1"><g transform="translate(719.995427, 369.975001)"><g><path d="M 10.65625 8.0625 C 8.945312 8.0625 7.492188 7.867188 6.296875 7.484375 C 5.097656 7.097656 4.179688 6.546875 3.546875 5.828125 C 2.910156 5.109375 2.59375 4.234375 2.59375 3.203125 C 2.59375 2.503906 2.835938 1.8125 3.328125 1.125 C 3.816406 0.445312 4.53125 -0.15625 5.46875 -0.6875 L 5.46875 -0.828125 C 5.007812 -1.085938 4.59375 -1.445312 4.21875 -1.90625 C 3.851562 -2.363281 3.671875 -2.960938 3.671875 -3.703125 C 3.671875 -4.253906 3.847656 -4.820312 4.203125 -5.40625 C 4.566406 -6 5.085938 -6.523438 5.765625 -6.984375 L 5.765625 -7.125 C 5.160156 -7.582031 4.644531 -8.191406 4.21875 -8.953125 C 3.800781 -9.722656 3.59375 -10.625 3.59375 -11.65625 C 3.59375 -12.9375 3.910156 -14.039062 4.546875 -14.96875 C 5.191406 -15.90625 6.035156 -16.628906 7.078125 -17.140625 C 8.117188 -17.660156 9.25 -17.921875 10.46875 -17.921875 C 11.457031 -17.921875 12.320312 -17.78125 13.0625 -17.5 L 20.296875 -17.5 L 20.296875 -15.078125 L 15.765625 -15.078125 C 16.171875 -14.671875 16.519531 -14.15625 16.8125 -13.53125 C 17.101562 -12.90625 17.25 -12.25 17.25 -11.5625 C 17.25 -10.3125 16.945312 -9.234375 16.34375 -8.328125 C 15.738281 -7.429688 14.925781 -6.742188 13.90625 -6.265625 C 12.894531 -5.785156 11.75 -5.546875 10.46875 -5.546875 C 10.019531 -5.546875 9.535156 -5.597656 9.015625 -5.703125 C 8.503906 -5.816406 8.007812 -5.976562 7.53125 -6.1875 C 7.09375 -5.925781 6.753906 -5.625 6.515625 -5.28125 C 6.273438 -4.945312 6.15625 -4.578125 6.15625 -4.171875 C 6.15625 -3.503906 6.472656 -3 7.109375 -2.65625 C 7.742188 -2.320312 8.640625 -2.15625 9.796875 -2.15625 L 13.71875 -2.15625 C 15.96875 -2.15625 17.640625 -1.84375 18.734375 -1.21875 C 19.828125 -0.59375 20.375 0.457031 20.375 1.9375 C 20.375 3.019531 19.976562 4.03125 19.1875 4.96875 C 18.394531 5.90625 17.269531 6.65625 15.8125 7.21875 C 14.363281 7.78125 12.644531 8.0625 10.65625 8.0625 Z M 10.46875 -7.53125 C 11.21875 -7.53125 11.894531 -7.695312 12.5 -8.03125 C 13.113281 -8.363281 13.601562 -8.84375 13.96875 -9.46875 C 14.332031 -10.09375 14.515625 -10.820312 14.515625 -11.65625 C 14.515625 -12.476562 14.332031 -13.191406 13.96875 -13.796875 C 13.601562 -14.410156 13.113281 -14.890625 12.5 -15.234375 C 11.894531 -15.585938 11.21875 -15.765625 10.46875 -15.765625 C 9.75 -15.765625 9.082031 -15.585938 8.46875 -15.234375 C 7.863281 -14.890625 7.375 -14.410156 7 -13.796875 C 6.625 -13.191406 6.4375 -12.476562 6.4375 -11.65625 C 6.4375 -10.820312 6.625 -10.09375 7 -9.46875 C 7.375 -8.84375 7.863281 -8.363281 8.46875 -8.03125 C 9.082031 -7.695312 9.75 -7.53125 10.46875 -7.53125 Z M 10.875 5.90625 C 12.238281 5.90625 13.410156 5.734375 14.390625 5.390625 C 15.378906 5.054688 16.132812 4.625 16.65625 4.09375 C 17.1875 3.570312 17.453125 3.007812 17.453125 2.40625 C 17.453125 1.570312 17.125 1.007812 16.46875 0.71875 C 15.8125 0.425781 14.8125 0.28125 13.46875 0.28125 L 10.046875 0.28125 C 9.535156 0.28125 9.054688 0.253906 8.609375 0.203125 C 8.171875 0.160156 7.757812 0.09375 7.375 0 C 6.5625 0.457031 5.984375 0.929688 5.640625 1.421875 C 5.304688 1.910156 5.140625 2.410156 5.140625 2.921875 C 5.140625 3.828125 5.625 4.550781 6.59375 5.09375 C 7.570312 5.632812 9 5.90625 10.875 5.90625 Z M 10.875 5.90625 "/></g></g></g><g fill="#000000" fill-opacity="1"><g transform="translate(741.595473, 369.975001)"><g><path d="M 14.609375 0.4375 C 12.765625 0.4375 11.347656 -0.09375 10.359375 -1.15625 C 9.378906 -2.226562 8.890625 -3.800781 8.890625 -5.875 L 8.890625 -23.21875 L 2.921875 -23.21875 L 2.921875 -25.625 L 11.84375 -25.625 L 11.84375 -5.65625 C 11.84375 -4.382812 12.15625 -3.457031 12.78125 -2.875 C 13.40625 -2.300781 14.234375 -2.015625 15.265625 -2.015625 C 15.765625 -2.015625 16.28125 -2.078125 16.8125 -2.203125 C 17.34375 -2.335938 17.929688 -2.550781 18.578125 -2.84375 L 19.328125 -0.609375 C 18.535156 -0.328125 17.789062 -0.0820312 17.09375 0.125 C 16.40625 0.332031 15.578125 0.4375 14.609375 0.4375 Z M 14.609375 0.4375 "/></g></g></g><g fill="#000000" fill-opacity="1"><g transform="translate(763.19552, 369.975001)"><g><path d="M 11.875 0.4375 C 10.125 0.4375 8.535156 0.078125 7.109375 -0.640625 C 5.679688 -1.367188 4.546875 -2.421875 3.703125 -3.796875 C 2.867188 -5.179688 2.453125 -6.84375 2.453125 -8.78125 C 2.453125 -10.675781 2.867188 -12.304688 3.703125 -13.671875 C 4.546875 -15.046875 5.644531 -16.097656 7 -16.828125 C 8.351562 -17.554688 9.8125 -17.921875 11.375 -17.921875 C 13.050781 -17.921875 14.484375 -17.578125 15.671875 -16.890625 C 16.859375 -16.210938 17.769531 -15.257812 18.40625 -14.03125 C 19.050781 -12.8125 19.375 -11.375 19.375 -9.71875 C 19.375 -9.382812 19.359375 -9.0625 19.328125 -8.75 C 19.304688 -8.4375 19.269531 -8.160156 19.21875 -7.921875 L 4.421875 -7.921875 L 4.421875 -10.21875 L 17.453125 -10.21875 L 16.703125 -9.390625 C 16.703125 -11.453125 16.226562 -13 15.28125 -14.03125 C 14.332031 -15.070312 13.054688 -15.59375 11.453125 -15.59375 C 10.367188 -15.59375 9.363281 -15.328125 8.4375 -14.796875 C 7.519531 -14.265625 6.785156 -13.492188 6.234375 -12.484375 C 5.679688 -11.484375 5.40625 -10.25 5.40625 -8.78125 C 5.40625 -7.269531 5.703125 -6.007812 6.296875 -5 C 6.898438 -3.988281 7.71875 -3.222656 8.75 -2.703125 C 9.78125 -2.191406 10.941406 -1.9375 12.234375 -1.9375 C 13.296875 -1.9375 14.25 -2.085938 15.09375 -2.390625 C 15.945312 -2.691406 16.769531 -3.09375 17.5625 -3.59375 L 18.640625 -1.65625 C 17.785156 -1.082031 16.796875 -0.585938 15.671875 -0.171875 C 14.554688 0.234375 13.289062 0.4375 11.875 0.4375 Z M 11.875 0.4375 "/></g></g></g><g fill="#000000" fill-opacity="1"><g transform="translate(676.792941, 420.224999)"><g><path d="M 4.78125 0 L 4.78125 -23.609375 L 19.296875 -23.609375 L 19.296875 -21.09375 L 7.8125 -21.09375 L 7.8125 -13.109375 L 17.53125 -13.109375 L 17.53125 -10.578125 L 7.8125 -10.578125 L 7.8125 0 Z M 4.78125 0 "/></g></g></g><g fill="#000000" fill-opacity="1"><g transform="translate(698.392988, 420.224999)"><g><path d="M 10.796875 0.4375 C 9.265625 0.4375 7.84375 0.078125 6.53125 -0.640625 C 5.226562 -1.367188 4.171875 -2.414062 3.359375 -3.78125 C 2.554688 -5.144531 2.15625 -6.789062 2.15625 -8.71875 C 2.15625 -10.675781 2.554688 -12.335938 3.359375 -13.703125 C 4.171875 -15.078125 5.226562 -16.125 6.53125 -16.84375 C 7.84375 -17.5625 9.265625 -17.921875 10.796875 -17.921875 C 12.335938 -17.921875 13.757812 -17.5625 15.0625 -16.84375 C 16.375 -16.125 17.429688 -15.078125 18.234375 -13.703125 C 19.035156 -12.335938 19.4375 -10.675781 19.4375 -8.71875 C 19.4375 -6.789062 19.035156 -5.144531 18.234375 -3.78125 C 17.429688 -2.414062 16.375 -1.367188 15.0625 -0.640625 C 13.757812 0.078125 12.335938 0.4375 10.796875 0.4375 Z M 10.796875 -2.015625 C 11.921875 -2.015625 12.90625 -2.296875 13.75 -2.859375 C 14.59375 -3.421875 15.238281 -4.207031 15.6875 -5.21875 C 16.144531 -6.226562 16.375 -7.394531 16.375 -8.71875 C 16.375 -10.0625 16.144531 -11.238281 15.6875 -12.25 C 15.238281 -13.269531 14.59375 -14.0625 13.75 -14.625 C 12.90625 -15.195312 11.921875 -15.484375 10.796875 -15.484375 C 9.671875 -15.484375 8.691406 -15.195312 7.859375 -14.625 C 7.035156 -14.0625 6.390625 -13.269531 5.921875 -12.25 C 5.453125 -11.238281 5.21875 -10.0625 5.21875 -8.71875 C 5.21875 -7.394531 5.453125 -6.226562 5.921875 -5.21875 C 6.390625 -4.207031 7.035156 -3.421875 7.859375 -2.859375 C 8.691406 -2.296875 9.671875 -2.015625 10.796875 -2.015625 Z M 10.796875 -2.015625 "/></g></g></g><g fill="#000000" fill-opacity="1"><g transform="translate(719.993035, 420.224999)"><g><path d="M 5.25 0 L 5.25 -17.5 L 7.703125 -17.5 L 7.953125 -13.359375 L 8.0625 -13.359375 C 8.976562 -14.773438 10.109375 -15.890625 11.453125 -16.703125 C 12.796875 -17.515625 14.269531 -17.921875 15.875 -17.921875 C 16.519531 -17.921875 17.125 -17.867188 17.6875 -17.765625 C 18.257812 -17.660156 18.804688 -17.472656 19.328125 -17.203125 L 18.640625 -14.65625 C 18.046875 -14.863281 17.53125 -15.015625 17.09375 -15.109375 C 16.664062 -15.210938 16.101562 -15.265625 15.40625 -15.265625 C 14.082031 -15.265625 12.816406 -14.882812 11.609375 -14.125 C 10.398438 -13.375 9.265625 -12.085938 8.203125 -10.265625 L 8.203125 0 Z M 5.25 0 "/></g></g></g><g fill="#000000" fill-opacity="1"><g transform="translate(741.593082, 420.224999)"><g><path d="M 2.09375 0 L 2.09375 -17.5 L 4.46875 -17.5 L 4.71875 -15.1875 L 4.78125 -15.1875 C 5.238281 -16.007812 5.765625 -16.671875 6.359375 -17.171875 C 6.960938 -17.671875 7.769531 -17.921875 8.78125 -17.921875 C 9.644531 -17.921875 10.351562 -17.671875 10.90625 -17.171875 C 11.457031 -16.671875 11.851562 -15.914062 12.09375 -14.90625 C 12.601562 -15.84375 13.160156 -16.578125 13.765625 -17.109375 C 14.378906 -17.648438 15.191406 -17.921875 16.203125 -17.921875 C 17.421875 -17.921875 18.375 -17.457031 19.0625 -16.53125 C 19.75 -15.613281 20.09375 -14.28125 20.09375 -12.53125 L 20.09375 0 L 17.140625 0 L 17.140625 -12.3125 C 17.140625 -14.351562 16.515625 -15.375 15.265625 -15.375 C 14.660156 -15.375 14.160156 -15.148438 13.765625 -14.703125 C 13.367188 -14.265625 12.929688 -13.585938 12.453125 -12.671875 L 12.453125 0 L 9.71875 0 L 9.71875 -12.3125 C 9.71875 -13.320312 9.578125 -14.082031 9.296875 -14.59375 C 9.023438 -15.113281 8.566406 -15.375 7.921875 -15.375 C 7.316406 -15.375 6.789062 -15.148438 6.34375 -14.703125 C 5.90625 -14.265625 5.472656 -13.585938 5.046875 -12.671875 L 5.046875 0 Z M 2.09375 0 "/></g></g></g><path stroke-linecap="round" transform="matrix(0.75, -0.000000000000000093, 0.000000000000000093, 0.75, 841.499964, 379.725001)" fill="none" stroke-linejoin="miter" d="M 5.000048 5.002082 L 358.500066 5.002082 " stroke="#000000" stroke-width="10" stroke-opacity="1" stroke-miterlimit="4"/><path stroke-linecap="round" transform="matrix(0.75, -0.000000000000000093, 0.000000000000000093, 0.75, 841.499964, 379.725001)" fill="none" stroke-linejoin="round" d="M 341.000065 -9.997918 L 361.000066 5.002082 L 341.000065 20.002083 " stroke="#000000" stroke-width="10" stroke-opacity="1" stroke-miterlimit="4"/><path stroke-linecap="round" transform="matrix(0.75, 0, 0, 0.75, 323.99999, 379.725001)" fill="none" stroke-linejoin="miter" d="M 5.000014 5.002082 L 358.500031 5.002082 " stroke="#000000" stroke-width="10" stroke-opacity="1" stroke-miterlimit="4"/><path stroke-linecap="round" transform="matrix(0.75, 0, 0, 0.75, 323.99999, 379.725001)" fill="none" stroke-linejoin="round" d="M 341.000031 -9.997918 L 361.000032 5.002082 L 341.000031 20.002083 " stroke="#000000" stroke-width="10" stroke-opacity="1" stroke-miterlimit="4"/><g fill="#000000" fill-opacity="1"><g transform="translate(1172.695267, 114.150014)"><g><path d="M 10.984375 0.4375 C 9.253906 0.4375 7.660156 0.117188 6.203125 -0.515625 C 4.753906 -1.148438 3.488281 -2 2.40625 -3.0625 L 4.21875 -5.140625 C 5.101562 -4.253906 6.140625 -3.539062 7.328125 -3 C 8.515625 -2.46875 9.78125 -2.203125 11.125 -2.203125 C 12.757812 -2.203125 14.023438 -2.546875 14.921875 -3.234375 C 15.816406 -3.929688 16.265625 -4.832031 16.265625 -5.9375 C 16.265625 -6.78125 16.078125 -7.453125 15.703125 -7.953125 C 15.335938 -8.460938 14.835938 -8.882812 14.203125 -9.21875 C 13.566406 -9.550781 12.84375 -9.882812 12.03125 -10.21875 L 8.640625 -11.703125 C 7.847656 -12.035156 7.0625 -12.453125 6.28125 -12.953125 C 5.5 -13.460938 4.84375 -14.109375 4.3125 -14.890625 C 3.789062 -15.671875 3.53125 -16.632812 3.53125 -17.78125 C 3.53125 -18.976562 3.859375 -20.050781 4.515625 -21 C 5.179688 -21.945312 6.097656 -22.691406 7.265625 -23.234375 C 8.441406 -23.773438 9.773438 -24.046875 11.265625 -24.046875 C 12.753906 -24.046875 14.125 -23.773438 15.375 -23.234375 C 16.625 -22.691406 17.679688 -21.988281 18.546875 -21.125 L 16.953125 -19.1875 C 16.179688 -19.882812 15.328125 -20.429688 14.390625 -20.828125 C 13.460938 -21.222656 12.382812 -21.421875 11.15625 -21.421875 C 9.789062 -21.421875 8.6875 -21.113281 7.84375 -20.5 C 7.007812 -19.882812 6.59375 -19.039062 6.59375 -17.96875 C 6.59375 -17.21875 6.800781 -16.601562 7.21875 -16.125 C 7.632812 -15.644531 8.164062 -15.25 8.8125 -14.9375 C 9.46875 -14.625 10.128906 -14.328125 10.796875 -14.046875 L 14.109375 -12.59375 C 15.097656 -12.21875 15.988281 -11.757812 16.78125 -11.21875 C 17.570312 -10.675781 18.191406 -10.007812 18.640625 -9.21875 C 19.097656 -8.425781 19.328125 -7.453125 19.328125 -6.296875 C 19.328125 -5.046875 18.988281 -3.910156 18.3125 -2.890625 C 17.644531 -1.878906 16.6875 -1.070312 15.4375 -0.46875 C 14.195312 0.132812 12.710938 0.4375 10.984375 0.4375 Z M 10.984375 0.4375 "/></g></g></g><g fill="#000000" fill-opacity="1"><g transform="translate(1194.295314, 114.150014)"><g><path d="M 12.453125 0.4375 C 10.628906 0.4375 8.988281 0.078125 7.53125 -0.640625 C 6.082031 -1.367188 4.941406 -2.414062 4.109375 -3.78125 C 3.285156 -5.144531 2.875 -6.789062 2.875 -8.71875 C 2.875 -10.675781 3.316406 -12.335938 4.203125 -13.703125 C 5.097656 -15.078125 6.28125 -16.125 7.75 -16.84375 C 9.226562 -17.5625 10.859375 -17.921875 12.640625 -17.921875 C 14.078125 -17.921875 15.316406 -17.671875 16.359375 -17.171875 C 17.398438 -16.671875 18.285156 -16.070312 19.015625 -15.375 L 17.53125 -13.46875 C 16.8125 -14.09375 16.066406 -14.582031 15.296875 -14.9375 C 14.523438 -15.300781 13.675781 -15.484375 12.75 -15.484375 C 11.40625 -15.484375 10.210938 -15.195312 9.171875 -14.625 C 8.140625 -14.0625 7.34375 -13.269531 6.78125 -12.25 C 6.21875 -11.238281 5.9375 -10.0625 5.9375 -8.71875 C 5.9375 -7.394531 6.210938 -6.226562 6.765625 -5.21875 C 7.316406 -4.207031 8.101562 -3.421875 9.125 -2.859375 C 10.144531 -2.296875 11.328125 -2.015625 12.671875 -2.015625 C 13.753906 -2.015625 14.742188 -2.226562 15.640625 -2.65625 C 16.535156 -3.09375 17.347656 -3.613281 18.078125 -4.21875 L 19.40625 -2.296875 C 18.445312 -1.441406 17.375 -0.769531 16.1875 -0.28125 C 15 0.195312 13.753906 0.4375 12.453125 0.4375 Z M 12.453125 0.4375 "/></g></g></g><g fill="#000000" fill-opacity="1"><g transform="translate(1215.895361, 114.150014)"><g><path d="M 3.34375 0 L 3.34375 -25.625 L 6.296875 -25.625 L 6.296875 -18.640625 L 6.125 -14.515625 L 6.234375 -14.515625 C 7.117188 -15.472656 8.085938 -16.28125 9.140625 -16.9375 C 10.203125 -17.59375 11.414062 -17.921875 12.78125 -17.921875 C 14.84375 -17.921875 16.363281 -17.320312 17.34375 -16.125 C 18.332031 -14.925781 18.828125 -13.175781 18.828125 -10.875 L 18.828125 0 L 15.875 0 L 15.875 -10.46875 C 15.875 -12.125 15.5625 -13.351562 14.9375 -14.15625 C 14.3125 -14.96875 13.28125 -15.375 11.84375 -15.375 C 10.8125 -15.375 9.882812 -15.109375 9.0625 -14.578125 C 8.25 -14.046875 7.328125 -13.253906 6.296875 -12.203125 L 6.296875 0 Z M 3.34375 0 "/></g></g></g><g fill="#000000" fill-opacity="1"><g transform="translate(1237.495408, 114.150014)"><g><path d="M 11.875 0.4375 C 10.125 0.4375 8.535156 0.078125 7.109375 -0.640625 C 5.679688 -1.367188 4.546875 -2.421875 3.703125 -3.796875 C 2.867188 -5.179688 2.453125 -6.84375 2.453125 -8.78125 C 2.453125 -10.675781 2.867188 -12.304688 3.703125 -13.671875 C 4.546875 -15.046875 5.644531 -16.097656 7 -16.828125 C 8.351562 -17.554688 9.8125 -17.921875 11.375 -17.921875 C 13.050781 -17.921875 14.484375 -17.578125 15.671875 -16.890625 C 16.859375 -16.210938 17.769531 -15.257812 18.40625 -14.03125 C 19.050781 -12.8125 19.375 -11.375 19.375 -9.71875 C 19.375 -9.382812 19.359375 -9.0625 19.328125 -8.75 C 19.304688 -8.4375 19.269531 -8.160156 19.21875 -7.921875 L 4.421875 -7.921875 L 4.421875 -10.21875 L 17.453125 -10.21875 L 16.703125 -9.390625 C 16.703125 -11.453125 16.226562 -13 15.28125 -14.03125 C 14.332031 -15.070312 13.054688 -15.59375 11.453125 -15.59375 C 10.367188 -15.59375 9.363281 -15.328125 8.4375 -14.796875 C 7.519531 -14.265625 6.785156 -13.492188 6.234375 -12.484375 C 5.679688 -11.484375 5.40625 -10.25 5.40625 -8.78125 C 5.40625 -7.269531 5.703125 -6.007812 6.296875 -5 C 6.898438 -3.988281 7.71875 -3.222656 8.75 -2.703125 C 9.78125 -2.191406 10.941406 -1.9375 12.234375 -1.9375 C 13.296875 -1.9375 14.25 -2.085938 15.09375 -2.390625 C 15.945312 -2.691406 16.769531 -3.09375 17.5625 -3.59375 L 18.640625 -1.65625 C 17.785156 -1.082031 16.796875 -0.585938 15.671875 -0.171875 C 14.554688 0.234375 13.289062 0.4375 11.875 0.4375 Z M 11.875 0.4375 "/></g></g></g><g fill="#000000" fill-opacity="1"><g transform="translate(1259.095455, 114.150014)"><g><path d="M 2.09375 0 L 2.09375 -17.5 L 4.46875 -17.5 L 4.71875 -15.1875 L 4.78125 -15.1875 C 5.238281 -16.007812 5.765625 -16.671875 6.359375 -17.171875 C 6.960938 -17.671875 7.769531 -17.921875 8.78125 -17.921875 C 9.644531 -17.921875 10.351562 -17.671875 10.90625 -17.171875 C 11.457031 -16.671875 11.851562 -15.914062 12.09375 -14.90625 C 12.601562 -15.84375 13.160156 -16.578125 13.765625 -17.109375 C 14.378906 -17.648438 15.191406 -17.921875 16.203125 -17.921875 C 17.421875 -17.921875 18.375 -17.457031 19.0625 -16.53125 C 19.75 -15.613281 20.09375 -14.28125 20.09375 -12.53125 L 20.09375 0 L 17.140625 0 L 17.140625 -12.3125 C 17.140625 -14.351562 16.515625 -15.375 15.265625 -15.375 C 14.660156 -15.375 14.160156 -15.148438 13.765625 -14.703125 C 13.367188 -14.265625 12.929688 -13.585938 12.453125 -12.671875 L 12.453125 0 L 9.71875 0 L 9.71875 -12.3125 C 9.71875 -13.320312 9.578125 -14.082031 9.296875 -14.59375 C 9.023438 -15.113281 8.566406 -15.375 7.921875 -15.375 C 7.316406 -15.375 6.789062 -15.148438 6.34375 -14.703125 C 5.90625 -14.265625 5.472656 -13.585938 5.046875 -12.671875 L 5.046875 0 Z M 2.09375 0 "/></g></g></g><g fill="#000000" fill-opacity="1"><g transform="translate(1280.695502, 114.150014)"><g><path d="M 8.859375 0.4375 C 7.773438 0.4375 6.773438 0.238281 5.859375 -0.15625 C 4.953125 -0.550781 4.234375 -1.117188 3.703125 -1.859375 C 3.179688 -2.609375 2.921875 -3.5 2.921875 -4.53125 C 2.921875 -6.5 3.898438 -7.992188 5.859375 -9.015625 C 7.828125 -10.035156 11.070312 -10.726562 15.59375 -11.09375 C 15.5625 -11.882812 15.394531 -12.613281 15.09375 -13.28125 C 14.800781 -13.957031 14.316406 -14.492188 13.640625 -14.890625 C 12.972656 -15.285156 12.070312 -15.484375 10.9375 -15.484375 C 10.195312 -15.484375 9.457031 -15.378906 8.71875 -15.171875 C 7.988281 -14.972656 7.296875 -14.707031 6.640625 -14.375 C 5.984375 -14.050781 5.378906 -13.722656 4.828125 -13.390625 L 3.671875 -15.40625 C 4.242188 -15.789062 4.941406 -16.179688 5.765625 -16.578125 C 6.597656 -16.972656 7.492188 -17.296875 8.453125 -17.546875 C 9.421875 -17.796875 10.421875 -17.921875 11.453125 -17.921875 C 13.054688 -17.921875 14.378906 -17.617188 15.421875 -17.015625 C 16.460938 -16.421875 17.242188 -15.585938 17.765625 -14.515625 C 18.285156 -13.453125 18.546875 -12.191406 18.546875 -10.734375 L 18.546875 0 L 16.125 0 L 15.875 -2.375 L 15.765625 -2.375 C 14.804688 -1.601562 13.726562 -0.941406 12.53125 -0.390625 C 11.332031 0.160156 10.109375 0.4375 8.859375 0.4375 Z M 9.640625 -1.9375 C 10.648438 -1.9375 11.644531 -2.164062 12.625 -2.625 C 13.613281 -3.082031 14.601562 -3.71875 15.59375 -4.53125 L 15.59375 -9.140625 C 13.09375 -8.921875 11.128906 -8.617188 9.703125 -8.234375 C 8.273438 -7.859375 7.265625 -7.375 6.671875 -6.78125 C 6.085938 -6.195312 5.796875 -5.519531 5.796875 -4.75 C 5.796875 -4.101562 5.972656 -3.566406 6.328125 -3.140625 C 6.691406 -2.722656 7.164062 -2.414062 7.75 -2.21875 C 8.34375 -2.03125 8.972656 -1.9375 9.640625 -1.9375 Z M 9.640625 -1.9375 "/></g></g></g><g clip-path="url(#ca5cf116f3)"><path fill="#ff0000" d="M 1287.96875 141.023438 C 1285.054688 143.40625 1282.203125 145.636719 1279.265625 148.253906 C 1279.058594 148.414062 1278.855469 148.574219 1278.652344 148.730469 C 1278.328125 148.929688 1278.003906 149.125 1277.675781 149.320312 C 1277.714844 149.285156 1277.757812 149.25 1277.796875 149.214844 C 1278.175781 148.90625 1278.558594 148.597656 1278.941406 148.285156 C 1278.863281 148.332031 1278.78125 148.378906 1278.699219 148.421875 C 1280.128906 147.171875 1281.550781 145.921875 1282.976562 144.695312 C 1284.644531 143.371094 1286.378906 141.933594 1288.113281 140.4375 C 1288.222656 140.441406 1288.332031 140.449219 1288.445312 140.457031 C 1288.28125 140.648438 1288.125 140.835938 1287.96875 141.023438 Z M 1280.089844 144.617188 C 1280.253906 144.449219 1280.605469 144.140625 1280.34375 144.230469 C 1281.714844 143.039062 1283.097656 141.808594 1284.503906 140.546875 C 1284.65625 140.542969 1284.820312 140.539062 1284.992188 140.527344 C 1284.765625 140.71875 1284.546875 140.90625 1284.328125 141.089844 C 1282.71875 142.449219 1281.140625 143.789062 1279.578125 145.132812 C 1279.746094 144.964844 1279.917969 144.792969 1280.089844 144.617188 Z M 1197.582031 226.945312 C 1195.429688 229.394531 1193.308594 231.847656 1191.21875 234.320312 C 1191.722656 233.722656 1192.1875 233.175781 1192.335938 233.003906 C 1192.632812 232.652344 1192.335938 231.148438 1192.335938 231.148438 C 1192.566406 230.882812 1192.800781 230.617188 1193.035156 230.351562 C 1194.625 228.789062 1196.195312 227.242188 1197.800781 225.667969 C 1198.8125 224.675781 1199.832031 223.664062 1200.867188 222.625 C 1200.867188 222.625 1200.867188 222.625 1200.871094 222.625 C 1201.828125 222.1875 1202.722656 221.199219 1202.988281 220.90625 C 1202.992188 220.90625 1202.992188 220.90625 1202.996094 220.902344 C 1201.164062 222.914062 1199.359375 224.925781 1197.582031 226.945312 Z M 1190.457031 230.785156 C 1189.386719 231.96875 1188.3125 233.148438 1187.238281 234.332031 L 1186.902344 234.636719 C 1187.265625 234.21875 1187.628906 233.804688 1187.992188 233.382812 C 1189.054688 232.15625 1190.113281 230.929688 1191.171875 229.707031 C 1192.234375 228.488281 1193.296875 227.269531 1194.355469 226.054688 C 1195.300781 224.972656 1196.246094 223.890625 1197.191406 222.808594 C 1197.289062 223.039062 1197.351562 223.207031 1197.242188 223.328125 C 1197.242188 223.328125 1197.242188 223.332031 1197.242188 223.332031 C 1196.246094 224.433594 1195.257812 225.539062 1194.277344 226.660156 L 1192.363281 228.71875 C 1191.726562 229.40625 1191.085938 230.089844 1190.457031 230.785156 Z M 1189.796875 236.011719 C 1189.816406 235.988281 1189.832031 235.960938 1189.851562 235.941406 C 1189.996094 235.769531 1190.210938 235.515625 1190.453125 235.226562 C 1190.234375 235.488281 1190.015625 235.75 1189.796875 236.011719 Z M 1187.441406 234.605469 L 1187.476562 234.570312 C 1187.5 234.648438 1187.480469 234.644531 1187.441406 234.605469 Z M 1193.191406 223.632812 L 1193.191406 223.628906 L 1191.980469 224.179688 C 1192.476562 223.585938 1192.96875 222.988281 1193.464844 222.390625 C 1195.027344 220.535156 1196.597656 218.667969 1198.242188 216.792969 C 1198.808594 216.160156 1199.378906 215.519531 1199.957031 214.878906 C 1199.511719 215.847656 1199.203125 216.835938 1199.203125 216.835938 C 1198.925781 217.199219 1198.644531 217.5625 1198.367188 217.925781 C 1196.625 219.816406 1194.902344 221.722656 1193.191406 223.632812 Z M 1191.546875 224.378906 C 1190.992188 225.046875 1190.445312 225.710938 1189.898438 226.371094 C 1189.871094 226.402344 1189.84375 226.4375 1189.824219 226.464844 C 1189.820312 226.464844 1189.820312 226.46875 1189.816406 226.46875 C 1189.363281 227.019531 1188.914062 227.570312 1188.460938 228.117188 C 1188.023438 228.65625 1187.589844 229.191406 1187.148438 229.730469 C 1186.804688 229.929688 1186.40625 230.121094 1186.042969 230.304688 C 1188.40625 227.546875 1190.734375 224.824219 1193.066406 222.101562 C 1194.324219 220.660156 1195.582031 219.222656 1196.859375 217.78125 C 1198.132812 216.339844 1199.445312 214.921875 1200.777344 213.488281 C 1199.550781 214.960938 1198.289062 216.425781 1197.011719 217.929688 C 1195.730469 219.429688 1194.429688 220.960938 1193.09375 222.523438 C 1192.570312 223.148438 1192.058594 223.765625 1191.546875 224.378906 Z M 1191.007812 225.355469 C 1191.128906 225.210938 1191.246094 225.066406 1191.363281 224.925781 C 1191.273438 225.132812 1191.152344 225.324219 1191.007812 225.355469 Z M 1187.820312 229.207031 C 1187.835938 229.191406 1187.847656 229.171875 1187.863281 229.15625 C 1187.851562 229.171875 1187.839844 229.1875 1187.828125 229.199219 C 1187.828125 229.203125 1187.824219 229.203125 1187.820312 229.207031 Z M 1190.019531 228.894531 L 1189.285156 229.769531 C 1188.566406 230.574219 1187.847656 231.375 1187.128906 232.179688 C 1187.128906 232.179688 1187.882812 231.085938 1188.78125 230.042969 C 1189.097656 229.703125 1189.414062 229.367188 1189.730469 229.027344 C 1189.917969 228.851562 1190.101562 228.691406 1190.277344 228.558594 C 1190.191406 228.671875 1190.105469 228.785156 1190.019531 228.894531 Z M 1303.355469 128.21875 C 1303.371094 127.917969 1303.378906 127.566406 1303.339844 127.328125 C 1303.257812 126.839844 1303.339844 127.328125 1303.304688 126.828125 C 1303.273438 126.324219 1302.601562 125.941406 1302.308594 125.535156 C 1302.226562 125.421875 1302.1875 125.292969 1302.164062 125.167969 C 1302.199219 125.109375 1302.246094 125.03125 1302.308594 124.925781 C 1302.308594 124.925781 1302.28125 124.882812 1302.214844 124.875 C 1302.179688 124.890625 1302.15625 124.902344 1302.132812 124.910156 C 1302.109375 124.691406 1302.082031 124.542969 1301.867188 124.621094 C 1301.457031 124.765625 1300.722656 124.800781 1300.070312 124.882812 C 1299.425781 124.960938 1298.347656 125.453125 1297.472656 126.140625 C 1296.601562 126.828125 1296.628906 126.105469 1296.492188 126.230469 C 1296.355469 126.351562 1295.894531 126.1875 1295.484375 126.140625 L 1295.070312 125 C 1295.066406 124.980469 1295.066406 124.953125 1295.066406 124.933594 L 1294.929688 124.621094 C 1294.679688 124.609375 1294.265625 124.757812 1293.730469 125.039062 C 1293.726562 125.039062 1293.722656 125.042969 1293.71875 125.042969 C 1293.066406 125.347656 1293.273438 125.042969 1293.273438 125.042969 L 1291.800781 125.042969 C 1291.800781 125.042969 1290.492188 125.453125 1289.753906 125.78125 C 1289.019531 126.105469 1289.019531 126.140625 1289.019531 126.140625 C 1289.019531 126.140625 1287.136719 126.921875 1286.890625 126.828125 C 1286.644531 126.734375 1284.683594 127.644531 1284.683594 127.644531 L 1283.453125 129.042969 L 1279.808594 130.667969 C 1278.253906 131.242188 1275.054688 133.632812 1271.988281 136.609375 C 1267.046875 141.21875 1262.210938 145.773438 1257.394531 150.402344 C 1252.578125 155.03125 1247.777344 159.730469 1242.914062 164.640625 C 1235.707031 171.910156 1229.296875 178.632812 1222.160156 185.691406 C 1218.972656 189.09375 1215.878906 192.46875 1212.839844 195.855469 L 1212.832031 195.863281 L 1212.710938 195.996094 C 1211.984375 196.808594 1211.257812 197.621094 1210.535156 198.4375 L 1210.269531 198.734375 C 1208.679688 200.523438 1207.101562 202.320312 1205.535156 204.128906 C 1204.785156 204.992188 1204.035156 205.859375 1203.289062 206.726562 C 1202.007812 208.226562 1200.816406 209.652344 1199.710938 211.058594 C 1198.898438 212.085938 1198.117188 213.089844 1197.359375 214.085938 L 1197.351562 214.097656 C 1197.074219 214.457031 1196.804688 214.816406 1196.53125 215.171875 C 1196.316406 215.464844 1196.105469 215.75 1195.890625 216.039062 L 1193.683594 217.5 C 1193.683594 217.5 1194.503906 217.210938 1193.683594 217.96875 C 1192.867188 218.722656 1192.457031 219.375 1192.210938 219.949219 C 1191.964844 220.519531 1191.390625 221.335938 1191.390625 221.335938 C 1191.390625 221.335938 1191.734375 221.644531 1191.109375 222.488281 C 1190.898438 222.773438 1190.757812 222.957031 1190.667969 223.082031 C 1190.652344 223.101562 1190.640625 223.121094 1190.625 223.140625 C 1190.542969 223.25 1190.507812 223.296875 1190.492188 223.316406 C 1190.492188 223.316406 1190.492188 223.320312 1190.488281 223.320312 C 1190.484375 223.332031 1190.484375 223.332031 1190.484375 223.332031 C 1190.359375 223.492188 1190.378906 223.539062 1190.480469 223.484375 C 1190.613281 223.386719 1190.808594 223.183594 1190.914062 223.03125 C 1190.949219 222.988281 1190.988281 222.945312 1191.023438 222.902344 L 1193.097656 221.253906 L 1198.671875 213.863281 C 1200.804688 211.40625 1202.980469 208.949219 1205.214844 206.492188 L 1203.515625 209.273438 L 1202.445312 210.3125 L 1202.125 210.613281 C 1201.304688 211.414062 1200.613281 212.277344 1200.347656 212.789062 C 1200.261719 212.949219 1200.230469 213.0625 1200.230469 213.136719 C 1198.917969 214.628906 1197.582031 216.105469 1196.273438 217.609375 C 1194.964844 219.109375 1193.65625 220.605469 1192.367188 222.101562 C 1191.085938 223.605469 1189.824219 225.105469 1188.589844 226.597656 C 1187.441406 227.988281 1186.335938 229.390625 1185.253906 230.769531 C 1185.128906 230.871094 1185.039062 230.972656 1185.015625 231.078125 C 1184.78125 231.378906 1184.6875 231.566406 1184.78125 231.566406 C 1184.675781 231.660156 1184.546875 231.796875 1184.445312 231.929688 C 1183.925781 232.664062 1183.324219 233.46875 1182.667969 234.296875 C 1182.535156 234.484375 1182.480469 234.605469 1182.574219 234.546875 C 1182.679688 234.492188 1182.863281 234.308594 1182.988281 234.144531 C 1183.652344 233.289062 1184.292969 232.445312 1184.863281 231.660156 C 1184.921875 231.574219 1184.957031 231.507812 1184.949219 231.480469 C 1184.949219 231.480469 1184.953125 231.480469 1184.953125 231.480469 C 1184.917969 231.929688 1184.964844 232.363281 1184.699219 232.679688 C 1184.40625 233.03125 1184.113281 233.382812 1183.816406 233.738281 C 1183.644531 233.933594 1183.5625 234.089844 1183.609375 234.09375 C 1183.609375 234.09375 1183.863281 234.382812 1183.488281 234.832031 C 1183.117188 235.28125 1182.621094 235.875 1182.320312 236.234375 C 1182.179688 236.40625 1181.949219 236.6875 1181.742188 236.941406 C 1181.683594 237.011719 1181.625 237.078125 1181.570312 237.148438 C 1181.410156 237.34375 1181.289062 237.488281 1181.28125 237.5 C 1180.644531 238.277344 1180.007812 239.058594 1179.375 239.839844 C 1179.074219 240.199219 1178.875 240.527344 1178.945312 240.570312 C 1179.007812 240.613281 1179.316406 240.351562 1179.617188 239.996094 C 1180.070312 239.492188 1180.523438 238.984375 1180.976562 238.476562 C 1181.242188 238.1875 1181.511719 237.894531 1181.777344 237.601562 C 1182.042969 237.648438 1182.308594 237.691406 1182.308594 237.691406 L 1184.074219 235.097656 C 1184.074219 235.097656 1183.359375 236.46875 1184.566406 235.085938 C 1184.695312 234.9375 1184.824219 234.789062 1184.953125 234.640625 C 1184.070312 235.652344 1183.191406 236.671875 1182.308594 237.691406 C 1181.429688 238.671875 1180.855469 239.617188 1180.980469 239.816406 C 1181.132812 239.976562 1181.894531 239.34375 1182.75 238.40625 C 1182.625 238.570312 1182.5 238.730469 1182.371094 238.894531 C 1182.242188 239.054688 1182.179688 239.195312 1182.242188 239.175781 C 1182.324219 239.140625 1182.515625 238.957031 1182.644531 238.800781 C 1183.09375 238.210938 1183.535156 237.632812 1183.976562 237.050781 C 1186.207031 234.558594 1188.472656 232.097656 1190.714844 229.609375 C 1192.851562 227.292969 1194.96875 224.953125 1197.121094 222.640625 C 1197.121094 222.648438 1197.125 222.652344 1197.128906 222.660156 C 1193.4375 226.894531 1189.707031 231.164062 1185.984375 235.480469 L 1185.96875 235.492188 L 1185.964844 235.496094 C 1185.039062 236.570312 1184.113281 237.644531 1183.191406 238.726562 C 1183.265625 238.597656 1183.242188 238.554688 1183.101562 238.671875 C 1182.976562 238.773438 1182.773438 239.007812 1182.691406 239.136719 C 1182.601562 239.289062 1182.65625 239.296875 1182.78125 239.195312 C 1182.785156 239.191406 1182.789062 239.1875 1182.792969 239.183594 C 1181.515625 240.683594 1180.238281 242.1875 1178.957031 243.691406 C 1179.3125 243.269531 1179.957031 242.601562 1180.695312 241.878906 C 1181.003906 241.519531 1181.3125 241.15625 1181.621094 240.792969 C 1182.667969 239.539062 1183.746094 238.316406 1184.804688 237.078125 C 1185.140625 236.6875 1185.476562 236.292969 1185.816406 235.902344 L 1185.09375 237.828125 C 1184.929688 238.019531 1184.566406 238.375 1184.183594 238.753906 C 1185.050781 238.097656 1185.199219 238.234375 1183.578125 240.164062 C 1183.449219 240.316406 1184.417969 239.210938 1182.949219 240.898438 C 1182.957031 240.964844 1182.964844 241 1182.964844 241 C 1182.964844 241 1183.023438 241.292969 1182.703125 242.207031 C 1182.402344 242.601562 1182.101562 242.996094 1181.804688 243.390625 C 1181.664062 243.574219 1181.613281 243.691406 1181.695312 243.652344 C 1181.78125 243.617188 1181.949219 243.449219 1182.085938 243.269531 C 1182.214844 243.113281 1182.34375 242.957031 1182.472656 242.796875 C 1181.898438 244.183594 1181.28125 245.734375 1181.28125 245.734375 L 1181.28125 246.484375 C 1181.28125 246.484375 1181.28125 246.488281 1181.28125 246.492188 C 1180.796875 247.105469 1180.3125 247.722656 1179.832031 248.339844 C 1179.09375 249.261719 1178.691406 250.035156 1178.9375 250.054688 C 1179.183594 250.074219 1179.988281 249.332031 1180.71875 248.410156 C 1181.804688 247.109375 1182.875 245.824219 1183.9375 244.554688 C 1184.285156 244.140625 1184.523438 243.851562 1184.796875 243.527344 C 1184.847656 243.464844 1184.894531 243.40625 1184.945312 243.34375 C 1184.984375 243.296875 1185.023438 243.25 1185.066406 243.203125 C 1185.828125 242.285156 1186.589844 241.375 1187.347656 240.464844 C 1187.667969 240.414062 1187.933594 240.230469 1188.359375 239.253906 C 1188.582031 238.988281 1188.804688 238.722656 1189.027344 238.453125 C 1189.707031 237.625 1190.402344 236.808594 1191.097656 235.984375 C 1191.789062 235.160156 1192.484375 234.328125 1193.1875 233.496094 C 1193.882812 232.660156 1194.597656 231.824219 1195.316406 230.984375 C 1196.035156 230.140625 1196.757812 229.292969 1197.492188 228.433594 C 1198.53125 227.207031 1199.566406 226.039062 1200.574219 224.878906 C 1201.589844 223.722656 1202.578125 222.578125 1203.59375 221.453125 C 1205.613281 219.195312 1207.636719 216.929688 1209.835938 214.550781 C 1212.390625 211.75 1214.933594 209.117188 1217.472656 206.503906 C 1220.027344 203.90625 1222.582031 201.332031 1225.222656 198.710938 C 1225.761719 198.214844 1226.296875 197.714844 1226.8125 197.183594 C 1227.335938 196.644531 1227.855469 196.109375 1228.371094 195.578125 C 1232.53125 191.496094 1236.691406 187.578125 1240.867188 183.710938 C 1238.464844 186.125 1236.09375 188.558594 1233.738281 190.984375 C 1232.566406 192.210938 1231.402344 193.429688 1230.238281 194.648438 C 1229.660156 195.261719 1229.082031 195.875 1228.503906 196.484375 C 1227.9375 197.097656 1227.367188 197.710938 1226.796875 198.328125 C 1226.464844 198.675781 1226.292969 198.953125 1226.382812 198.972656 C 1226.496094 198.96875 1226.84375 198.703125 1227.175781 198.351562 C 1233.660156 191.652344 1240.304688 185.054688 1246.976562 178.496094 C 1249.289062 177.214844 1253.464844 173.765625 1256.972656 170.453125 C 1258.273438 169.234375 1259.414062 168.035156 1260.542969 166.808594 C 1259.960938 167.324219 1259.390625 167.824219 1258.808594 168.339844 C 1260.449219 166.738281 1261.75 165.269531 1263.027344 163.800781 C 1263.15625 163.691406 1263.285156 163.582031 1263.417969 163.460938 C 1266.945312 160.648438 1270.714844 157 1274.371094 153.800781 C 1274.234375 153.808594 1274.085938 153.832031 1273.949219 153.835938 C 1274.652344 153.273438 1275.144531 153.03125 1275.898438 152.394531 C 1275.648438 152.535156 1275.417969 152.667969 1275.171875 152.808594 C 1275.1875 152.792969 1275.203125 152.78125 1275.214844 152.769531 C 1276.082031 152.15625 1277.050781 151.335938 1278.019531 150.445312 C 1280.484375 148.707031 1283.316406 146.402344 1286.199219 143.890625 C 1286.632812 143.632812 1287.226562 143.183594 1287.871094 142.609375 C 1288.160156 142.382812 1288.492188 142.109375 1288.71875 141.964844 C 1290.753906 140.671875 1293.089844 138.925781 1295.59375 136.933594 C 1295.085938 137.289062 1294.554688 137.660156 1294.046875 138.015625 C 1294.773438 137.445312 1295.496094 136.882812 1296.253906 136.1875 C 1296.140625 136.222656 1296.003906 136.28125 1295.890625 136.316406 C 1296.285156 136.03125 1296.691406 135.71875 1297.101562 135.386719 C 1297.167969 135.34375 1297.234375 135.289062 1297.304688 135.226562 C 1297.304688 135.226562 1297.304688 135.226562 1297.304688 135.222656 C 1298.617188 134.15625 1299.949219 132.914062 1301.042969 131.757812 C 1301.289062 131.519531 1301.476562 131.339844 1301.550781 131.277344 C 1301.679688 131.171875 1301.996094 130.757812 1302.339844 130.28125 C 1302.542969 130.027344 1302.726562 129.78125 1302.882812 129.554688 C 1303.078125 129.265625 1303.21875 129.019531 1303.304688 128.820312 C 1303.4375 128.523438 1303.449219 128.320312 1303.355469 128.21875 " fill-opacity="1" fill-rule="nonzero"/></g><path fill="#ff0000" d="M 1182.964844 240.183594 C 1183.011719 239.941406 1183.617188 239.316406 1184.183594 238.753906 C 1183.367188 239.371094 1181.910156 240.695312 1180.695312 241.878906 C 1179.945312 242.761719 1179.195312 243.644531 1178.445312 244.527344 C 1177.394531 245.78125 1179.414062 243.90625 1178.363281 245.164062 C 1178.199219 245.363281 1182.015625 241.972656 1182.042969 241.941406 C 1182.417969 241.507812 1182.714844 241.171875 1182.949219 240.898438 C 1182.929688 240.753906 1182.90625 240.46875 1182.964844 240.183594 " fill-opacity="1" fill-rule="nonzero"/><path fill="#ff0000" d="M 1225.511719 199.847656 C 1220.132812 205.03125 1214.792969 210.300781 1209.550781 215.644531 C 1209.375 215.824219 1209.25 215.996094 1209.273438 216.035156 C 1209.289062 216.070312 1209.453125 215.953125 1209.613281 215.785156 C 1214.859375 210.441406 1220.175781 205.207031 1225.550781 200.023438 C 1225.730469 199.84375 1225.855469 199.675781 1225.851562 199.625 C 1225.832031 199.585938 1225.679688 199.6875 1225.511719 199.847656 " fill-opacity="1" fill-rule="nonzero"/><path fill="#ff0000" d="M 1183.617188 238.09375 C 1183.761719 237.976562 1183.945312 237.761719 1184.023438 237.632812 C 1184.117188 237.476562 1184.082031 237.453125 1183.9375 237.574219 C 1183.8125 237.675781 1183.621094 237.886719 1183.527344 238.039062 C 1183.449219 238.167969 1183.492188 238.195312 1183.617188 238.09375 " fill-opacity="1" fill-rule="nonzero"/><g clip-path="url(#8d77d2d885)"><path fill="#ff0000" d="M 1197.628906 137.203125 C 1200.015625 140.109375 1202.257812 142.953125 1204.882812 145.882812 C 1205.042969 146.089844 1205.199219 146.292969 1205.359375 146.496094 C 1205.554688 146.816406 1205.75 147.144531 1205.949219 147.46875 C 1205.914062 147.429688 1205.878906 147.386719 1205.84375 147.347656 C 1205.535156 146.96875 1205.222656 146.585938 1204.910156 146.207031 C 1204.957031 146.285156 1205.003906 146.367188 1205.050781 146.449219 C 1203.792969 145.023438 1202.542969 143.605469 1201.308594 142.183594 C 1199.980469 140.519531 1198.542969 138.789062 1197.039062 137.058594 C 1197.042969 136.953125 1197.050781 136.84375 1197.058594 136.730469 C 1197.253906 136.890625 1197.441406 137.050781 1197.628906 137.203125 Z M 1201.234375 145.0625 C 1201.0625 144.898438 1200.757812 144.546875 1200.847656 144.808594 C 1199.648438 143.4375 1198.417969 142.0625 1197.148438 140.660156 C 1197.148438 140.507812 1197.140625 140.34375 1197.132812 140.175781 C 1197.320312 140.398438 1197.511719 140.617188 1197.695312 140.835938 C 1199.058594 142.4375 1200.402344 144.011719 1201.75 145.574219 C 1201.578125 145.402344 1201.410156 145.234375 1201.234375 145.0625 Z M 1283.792969 227.339844 C 1286.246094 229.484375 1288.710938 231.597656 1291.1875 233.679688 C 1290.589844 233.179688 1290.039062 232.714844 1289.867188 232.570312 C 1289.519531 232.269531 1288.007812 232.570312 1288.007812 232.570312 C 1287.742188 232.335938 1287.476562 232.105469 1287.210938 231.871094 C 1285.640625 230.285156 1284.09375 228.71875 1282.507812 227.117188 C 1281.519531 226.109375 1280.503906 225.09375 1279.460938 224.058594 C 1279.023438 223.101562 1278.03125 222.210938 1277.738281 221.945312 C 1277.734375 221.941406 1277.734375 221.941406 1277.734375 221.9375 C 1279.75 223.765625 1281.769531 225.5625 1283.792969 227.339844 Z M 1287.644531 234.441406 C 1288.828125 235.511719 1290.015625 236.582031 1291.199219 237.652344 L 1291.507812 237.984375 C 1291.085938 237.625 1290.671875 237.261719 1290.25 236.898438 C 1289.019531 235.839844 1287.789062 234.78125 1286.5625 233.726562 C 1285.339844 232.667969 1284.121094 231.609375 1282.902344 230.554688 C 1281.8125 229.609375 1280.730469 228.667969 1279.644531 227.726562 C 1279.878906 227.628906 1280.046875 227.566406 1280.167969 227.671875 C 1280.167969 227.675781 1280.167969 227.675781 1280.167969 227.675781 C 1281.277344 228.667969 1282.382812 229.65625 1283.503906 230.632812 L 1285.570312 232.539062 C 1286.261719 233.175781 1286.949219 233.8125 1287.644531 234.441406 Z M 1292.882812 235.097656 C 1292.859375 235.082031 1292.835938 235.0625 1292.8125 235.042969 C 1292.640625 234.902344 1292.386719 234.6875 1292.097656 234.445312 C 1292.359375 234.664062 1292.621094 234.878906 1292.882812 235.097656 Z M 1291.476562 237.449219 L 1291.4375 237.414062 C 1291.519531 237.390625 1291.515625 237.410156 1291.476562 237.449219 Z M 1280.46875 231.714844 L 1281.019531 232.921875 C 1280.425781 232.429688 1279.824219 231.9375 1279.226562 231.445312 C 1277.367188 229.882812 1275.492188 228.316406 1273.613281 226.675781 C 1272.976562 226.113281 1272.335938 225.542969 1271.691406 224.96875 C 1272.664062 225.414062 1273.65625 225.71875 1273.65625 225.71875 C 1274.019531 225.996094 1274.382812 226.277344 1274.75 226.554688 C 1276.644531 228.289062 1278.554688 230.007812 1280.46875 231.714844 Z M 1281.21875 233.355469 C 1281.890625 233.90625 1282.554688 234.453125 1283.214844 234.996094 C 1283.25 235.027344 1283.285156 235.054688 1283.308594 235.074219 C 1283.3125 235.074219 1283.3125 235.078125 1283.316406 235.078125 C 1283.867188 235.53125 1284.417969 235.980469 1284.96875 236.433594 C 1285.507812 236.867188 1286.046875 237.300781 1286.582031 237.742188 C 1286.789062 238.082031 1286.976562 238.480469 1287.160156 238.839844 C 1284.394531 236.488281 1281.664062 234.164062 1278.933594 231.839844 C 1277.488281 230.585938 1276.046875 229.332031 1274.601562 228.058594 C 1273.160156 226.785156 1271.734375 225.476562 1270.296875 224.152344 C 1271.773438 225.375 1273.246094 226.632812 1274.753906 227.90625 C 1276.257812 229.183594 1277.789062 230.480469 1279.359375 231.8125 C 1279.988281 232.335938 1280.605469 232.847656 1281.21875 233.355469 Z M 1282.199219 233.890625 C 1282.054688 233.773438 1281.910156 233.652344 1281.765625 233.535156 C 1281.972656 233.625 1282.167969 233.746094 1282.199219 233.890625 Z M 1286.0625 237.070312 C 1286.046875 237.054688 1286.027344 237.042969 1286.011719 237.027344 C 1286.023438 237.039062 1286.039062 237.050781 1286.054688 237.0625 C 1286.054688 237.066406 1286.058594 237.066406 1286.0625 237.070312 Z M 1285.75 234.878906 L 1286.625 235.609375 C 1287.429688 236.328125 1288.238281 237.042969 1289.042969 237.761719 C 1289.042969 237.761719 1287.949219 237.011719 1286.898438 236.113281 C 1286.558594 235.796875 1286.21875 235.480469 1285.882812 235.164062 C 1285.707031 234.976562 1285.546875 234.796875 1285.410156 234.621094 C 1285.523438 234.707031 1285.636719 234.789062 1285.75 234.878906 Z M 1184.789062 121.859375 C 1184.484375 121.84375 1184.128906 121.835938 1183.894531 121.878906 C 1183.40625 121.957031 1183.894531 121.878906 1183.394531 121.910156 C 1182.890625 121.945312 1182.503906 122.609375 1182.097656 122.90625 C 1181.984375 122.984375 1181.855469 123.023438 1181.726562 123.046875 C 1181.667969 123.011719 1181.589844 122.964844 1181.484375 122.90625 C 1181.484375 122.90625 1181.441406 122.929688 1181.433594 123 C 1181.449219 123.03125 1181.460938 123.058594 1181.46875 123.078125 C 1181.25 123.101562 1181.101562 123.128906 1181.179688 123.34375 C 1181.324219 123.753906 1181.359375 124.488281 1181.441406 125.132812 C 1181.523438 125.78125 1182.015625 126.855469 1182.703125 127.726562 C 1183.390625 128.59375 1182.667969 128.566406 1182.792969 128.703125 C 1182.917969 128.839844 1182.75 129.300781 1182.703125 129.710938 L 1181.5625 130.121094 C 1181.539062 130.125 1181.515625 130.125 1181.492188 130.128906 L 1181.179688 130.257812 C 1181.167969 130.511719 1181.316406 130.925781 1181.597656 131.457031 C 1181.601562 131.460938 1181.605469 131.46875 1181.605469 131.472656 C 1181.90625 132.121094 1181.605469 131.914062 1181.605469 131.914062 L 1181.605469 133.382812 C 1181.605469 133.382812 1182.015625 134.6875 1182.34375 135.421875 C 1182.667969 136.15625 1182.703125 136.15625 1182.703125 136.15625 C 1182.703125 136.15625 1183.488281 138.035156 1183.394531 138.277344 C 1183.300781 138.523438 1184.210938 140.480469 1184.210938 140.480469 L 1185.613281 141.707031 L 1187.242188 145.339844 C 1187.820312 146.894531 1190.214844 150.082031 1193.203125 153.136719 C 1197.824219 158.066406 1202.390625 162.886719 1207.035156 167.691406 C 1211.675781 172.496094 1216.386719 177.285156 1221.3125 182.132812 C 1228.605469 189.316406 1235.34375 195.710938 1242.421875 202.828125 C 1245.835938 206.003906 1249.222656 209.089844 1252.617188 212.125 L 1252.621094 212.128906 L 1252.757812 212.25 C 1253.574219 212.976562 1254.386719 213.699219 1255.203125 214.421875 L 1255.5 214.683594 L 1255.503906 214.6875 C 1257.296875 216.269531 1259.097656 217.84375 1260.910156 219.40625 L 1260.914062 219.40625 C 1261.777344 220.152344 1262.648438 220.898438 1263.515625 221.644531 C 1265.019531 222.921875 1266.449219 224.109375 1267.863281 225.214844 C 1268.890625 226.023438 1269.898438 226.800781 1270.898438 227.558594 L 1270.910156 227.566406 C 1271.269531 227.839844 1271.628906 228.113281 1271.988281 228.382812 C 1272.277344 228.597656 1272.566406 228.808594 1272.855469 229.023438 L 1274.320312 231.222656 C 1274.320312 231.222656 1274.03125 230.40625 1274.789062 231.222656 C 1275.546875 232.039062 1276.203125 232.449219 1276.777344 232.691406 C 1277.347656 232.9375 1278.167969 233.507812 1278.167969 233.507812 C 1278.167969 233.507812 1278.476562 233.167969 1279.324219 233.792969 C 1279.609375 234.003906 1279.796875 234.140625 1279.921875 234.230469 C 1279.9375 234.246094 1279.957031 234.257812 1279.976562 234.273438 C 1280.085938 234.355469 1280.132812 234.390625 1280.152344 234.40625 C 1280.15625 234.40625 1280.15625 234.40625 1280.15625 234.410156 C 1280.167969 234.414062 1280.167969 234.417969 1280.167969 234.417969 C 1280.332031 234.539062 1280.378906 234.515625 1280.320312 234.421875 C 1280.226562 234.285156 1280.019531 234.089844 1279.871094 233.984375 C 1279.828125 233.949219 1279.785156 233.914062 1279.738281 233.878906 L 1278.085938 231.808594 L 1270.675781 226.25 C 1268.207031 224.125 1265.746094 221.953125 1263.28125 219.726562 L 1266.070312 221.417969 L 1267.113281 222.484375 L 1267.414062 222.808594 C 1268.21875 223.625 1269.082031 224.316406 1269.597656 224.578125 C 1269.757812 224.664062 1269.871094 224.699219 1269.945312 224.695312 C 1271.441406 226.003906 1272.921875 227.335938 1274.429688 228.640625 C 1275.933594 229.945312 1277.433594 231.253906 1278.933594 232.539062 C 1280.445312 233.8125 1281.949219 235.074219 1283.445312 236.304688 C 1284.839844 237.449219 1286.242188 238.550781 1287.628906 239.628906 C 1287.730469 239.753906 1287.832031 239.84375 1287.9375 239.867188 C 1288.238281 240.101562 1288.429688 240.191406 1288.425781 240.101562 C 1288.523438 240.207031 1288.65625 240.335938 1288.792969 240.4375 C 1289.527344 240.953125 1290.335938 241.554688 1291.164062 242.210938 C 1291.355469 242.34375 1291.476562 242.398438 1291.414062 242.300781 C 1291.363281 242.195312 1291.175781 242.011719 1291.011719 241.890625 C 1290.15625 241.226562 1289.308594 240.589844 1288.519531 240.019531 C 1288.433594 239.960938 1288.371094 239.925781 1288.339844 239.933594 C 1288.339844 239.933594 1288.339844 239.929688 1288.339844 239.929688 C 1288.789062 239.964844 1289.226562 239.917969 1289.542969 240.183594 C 1289.542969 240.183594 1289.546875 240.183594 1289.546875 240.183594 C 1289.894531 240.472656 1290.246094 240.765625 1290.605469 241.0625 C 1290.800781 241.234375 1290.957031 241.316406 1290.964844 241.269531 C 1290.964844 241.269531 1291.253906 241.015625 1291.703125 241.386719 C 1292.152344 241.761719 1292.746094 242.253906 1293.109375 242.554688 C 1293.28125 242.695312 1293.5625 242.925781 1293.816406 243.132812 C 1293.886719 243.191406 1293.957031 243.246094 1294.023438 243.304688 C 1294.21875 243.464844 1294.367188 243.582031 1294.375 243.589844 C 1295.160156 244.226562 1295.941406 244.863281 1296.726562 245.492188 C 1297.082031 245.792969 1297.414062 245.988281 1297.457031 245.921875 C 1297.5 245.855469 1297.238281 245.550781 1296.882812 245.25 C 1296.375 244.800781 1295.867188 244.347656 1295.359375 243.894531 C 1295.066406 243.628906 1294.773438 243.363281 1294.480469 243.097656 C 1294.527344 242.832031 1294.570312 242.566406 1294.570312 242.566406 L 1291.96875 240.804688 C 1291.96875 240.804688 1293.34375 241.519531 1291.957031 240.316406 C 1291.808594 240.1875 1291.65625 240.058594 1291.507812 239.929688 C 1292.527344 240.808594 1293.546875 241.6875 1294.570312 242.566406 C 1295.554688 243.445312 1296.5 244.015625 1296.699219 243.894531 C 1296.859375 243.738281 1296.226562 242.980469 1295.289062 242.128906 C 1295.449219 242.253906 1295.613281 242.378906 1295.773438 242.503906 C 1295.9375 242.632812 1296.078125 242.699219 1296.058594 242.632812 C 1296.023438 242.550781 1295.839844 242.355469 1295.683594 242.230469 C 1295.089844 241.785156 1294.511719 241.34375 1293.925781 240.902344 C 1291.429688 238.679688 1288.960938 236.417969 1286.464844 234.1875 C 1284.144531 232.050781 1281.796875 229.941406 1279.476562 227.796875 C 1279.484375 227.792969 1279.488281 227.792969 1279.496094 227.789062 C 1283.742188 231.46875 1288.019531 235.191406 1292.351562 238.902344 L 1292.363281 238.917969 L 1292.371094 238.921875 C 1293.445312 239.84375 1294.523438 240.765625 1295.609375 241.6875 C 1295.476562 241.609375 1295.433594 241.636719 1295.554688 241.777344 C 1295.65625 241.898438 1295.886719 242.101562 1296.019531 242.183594 C 1296.171875 242.277344 1296.179688 242.21875 1296.078125 242.097656 C 1296.074219 242.089844 1296.070312 242.089844 1296.066406 242.082031 C 1297.570312 243.359375 1299.078125 244.632812 1300.585938 245.910156 C 1300.160156 245.554688 1299.492188 244.910156 1298.769531 244.175781 C 1298.40625 243.867188 1298.042969 243.558594 1297.679688 243.253906 C 1296.425781 242.210938 1295.195312 241.132812 1293.957031 240.078125 C 1293.5625 239.742188 1293.167969 239.40625 1292.773438 239.070312 L 1294.707031 239.792969 C 1294.898438 239.953125 1295.253906 240.316406 1295.632812 240.695312 C 1294.976562 239.832031 1295.113281 239.683594 1297.050781 241.300781 C 1297.203125 241.429688 1296.09375 240.464844 1297.785156 241.929688 C 1297.851562 241.921875 1297.890625 241.914062 1297.890625 241.914062 C 1297.890625 241.914062 1298.183594 241.855469 1299.097656 242.171875 C 1299.492188 242.472656 1299.890625 242.773438 1300.285156 243.070312 C 1300.464844 243.207031 1300.585938 243.257812 1300.546875 243.175781 C 1300.511719 243.09375 1300.34375 242.925781 1300.164062 242.789062 C 1300.003906 242.660156 1299.847656 242.53125 1299.691406 242.398438 C 1301.082031 242.972656 1302.636719 243.589844 1302.636719 243.589844 L 1303.386719 243.589844 C 1303.386719 243.589844 1303.390625 243.589844 1303.394531 243.59375 C 1304.011719 244.074219 1304.628906 244.558594 1305.246094 245.039062 C 1306.175781 245.769531 1306.949219 246.171875 1306.964844 245.925781 C 1306.988281 245.683594 1306.238281 244.878906 1305.320312 244.152344 C 1304.015625 243.066406 1302.726562 242 1301.453125 240.945312 C 1301.035156 240.597656 1300.742188 240.355469 1300.421875 240.085938 C 1300.359375 240.035156 1300.296875 239.988281 1300.238281 239.9375 C 1300.191406 239.898438 1300.144531 239.859375 1300.097656 239.820312 C 1299.179688 239.058594 1298.265625 238.300781 1297.351562 237.542969 C 1297.300781 237.222656 1297.117188 236.957031 1296.136719 236.535156 C 1295.871094 236.3125 1295.601562 236.089844 1295.335938 235.867188 C 1294.503906 235.191406 1293.683594 234.496094 1292.859375 233.804688 C 1292.027344 233.109375 1291.199219 232.417969 1290.363281 231.71875 C 1289.523438 231.027344 1288.6875 230.3125 1287.84375 229.597656 C 1287 228.878906 1286.148438 228.15625 1285.285156 227.425781 C 1284.054688 226.390625 1282.882812 225.359375 1281.71875 224.351562 C 1280.5625 223.339844 1279.414062 222.351562 1278.285156 221.34375 C 1276.023438 219.324219 1273.75 217.3125 1271.363281 215.117188 C 1268.558594 212.570312 1265.914062 210.03125 1263.292969 207.5 C 1260.691406 204.953125 1258.109375 202.410156 1255.480469 199.773438 C 1254.984375 199.234375 1254.476562 198.703125 1253.945312 198.1875 C 1253.40625 197.667969 1252.871094 197.148438 1252.339844 196.632812 C 1248.246094 192.488281 1244.3125 188.335938 1240.4375 184.175781 C 1242.855469 186.566406 1245.296875 188.933594 1247.730469 191.285156 C 1248.960938 192.449219 1250.183594 193.613281 1251.40625 194.773438 C 1252.019531 195.347656 1252.632812 195.925781 1253.246094 196.5 C 1253.863281 197.070312 1254.476562 197.636719 1255.09375 198.203125 C 1255.441406 198.535156 1255.722656 198.707031 1255.742188 198.617188 C 1255.734375 198.503906 1255.46875 198.15625 1255.121094 197.828125 C 1248.398438 191.359375 1241.78125 184.734375 1235.207031 178.082031 C 1233.921875 175.773438 1230.464844 171.609375 1227.144531 168.113281 C 1225.917969 166.816406 1224.71875 165.679688 1223.484375 164.554688 C 1224.003906 165.132812 1224.507812 165.699219 1225.023438 166.28125 C 1223.414062 164.644531 1221.941406 163.347656 1220.472656 162.074219 C 1220.363281 161.945312 1220.25 161.816406 1220.128906 161.683594 C 1217.308594 158.167969 1213.648438 154.410156 1210.441406 150.761719 C 1210.449219 150.898438 1210.472656 151.050781 1210.476562 151.183594 C 1209.914062 150.484375 1209.671875 149.992188 1209.03125 149.242188 C 1209.175781 149.488281 1209.304688 149.71875 1209.445312 149.964844 C 1209.433594 149.953125 1209.417969 149.9375 1209.40625 149.921875 C 1208.792969 149.058594 1207.972656 148.089844 1207.074219 147.128906 C 1205.332031 144.667969 1203.019531 141.84375 1200.503906 138.96875 C 1200.246094 138.535156 1199.792969 137.945312 1199.21875 137.304688 C 1198.992188 137.011719 1198.71875 136.683594 1198.574219 136.457031 C 1197.277344 134.425781 1195.527344 132.097656 1193.527344 129.597656 C 1193.882812 130.105469 1194.257812 130.636719 1194.613281 131.144531 C 1194.039062 130.417969 1193.476562 129.699219 1192.78125 128.941406 C 1192.816406 129.054688 1192.871094 129.191406 1192.90625 129.304688 C 1192.621094 128.914062 1192.308594 128.507812 1191.976562 128.097656 C 1191.933594 128.03125 1191.878906 127.964844 1191.8125 127.894531 C 1190.742188 126.585938 1189.496094 125.253906 1188.339844 124.167969 C 1188.097656 123.921875 1187.914062 123.734375 1187.855469 123.660156 C 1187.746094 123.53125 1187.335938 123.214844 1186.859375 122.875 C 1186.597656 122.667969 1186.355469 122.488281 1186.125 122.332031 C 1185.835938 122.136719 1185.59375 122 1185.394531 121.910156 C 1185.089844 121.777344 1184.890625 121.765625 1184.789062 121.859375 " fill-opacity="1" fill-rule="nonzero"/></g><path fill="#ff0000" d="M 1297.070312 241.914062 C 1296.824219 241.863281 1296.199219 241.261719 1295.632812 240.695312 C 1296.253906 241.511719 1297.582031 242.964844 1298.769531 244.175781 C 1299.65625 244.921875 1300.539062 245.671875 1301.425781 246.421875 C 1302.679688 247.46875 1300.800781 245.453125 1302.0625 246.503906 C 1302.261719 246.667969 1298.863281 242.859375 1298.832031 242.832031 C 1298.398438 242.457031 1298.058594 242.164062 1297.785156 241.929688 C 1297.640625 241.949219 1297.355469 241.96875 1297.070312 241.914062 " fill-opacity="1" fill-rule="nonzero"/><path fill="#ff0000" d="M 1256.621094 199.488281 C 1261.816406 204.847656 1267.097656 210.171875 1272.460938 215.398438 C 1272.640625 215.578125 1272.8125 215.703125 1272.851562 215.679688 C 1272.882812 215.664062 1272.769531 215.5 1272.601562 215.339844 C 1267.242188 210.105469 1261.992188 204.808594 1256.792969 199.449219 C 1256.617188 199.269531 1256.449219 199.144531 1256.398438 199.144531 C 1256.359375 199.167969 1256.457031 199.316406 1256.621094 199.488281 " fill-opacity="1" fill-rule="nonzero"/><path fill="#ff0000" d="M 1294.976562 241.261719 C 1294.855469 241.117188 1294.640625 240.9375 1294.511719 240.859375 C 1294.355469 240.761719 1294.332031 240.800781 1294.449219 240.945312 C 1294.554688 241.066406 1294.765625 241.257812 1294.917969 241.351562 C 1295.046875 241.429688 1295.078125 241.386719 1294.976562 241.261719 " fill-opacity="1" fill-rule="nonzero"/></svg>