<svg xmlns="http://www.w3.org/2000/svg" xmlns:xlink="http://www.w3.org/1999/xlink" width="1920" zoomAndPan="magnify" viewBox="0 0 1440 809.999993" height="1080" preserveAspectRatio="xMidYMid meet" version="1.0"><defs><g/><clipPath id="1d60cd96d7"><path d="M 1116 261.976562 L 1359 261.976562 L 1359 504.976562 L 1116 504.976562 Z M 1116 261.976562 " clip-rule="nonzero"/></clipPath><clipPath id="4116ed701f"><path d="M 1237.5 261.976562 C 1170.398438 261.976562 1116 316.371094 1116 383.476562 C 1116 450.578125 1170.398438 504.976562 1237.5 504.976562 C 1304.601562 504.976562 1359 450.578125 1359 383.476562 C 1359 316.371094 1304.601562 261.976562 1237.5 261.976562 Z M 1237.5 261.976562 " clip-rule="nonzero"/></clipPath><clipPath id="01ad00f048"><path d="M 0 0.976562 L 243 0.976562 L 243 243.976562 L 0 243.976562 Z M 0 0.976562 " clip-rule="nonzero"/></clipPath><clipPath id="8eb47872d4"><path d="M 121.5 0.976562 C 54.398438 0.976562 0 55.371094 0 122.476562 C 0 189.578125 54.398438 243.976562 121.5 243.976562 C 188.601562 243.976562 243 189.578125 243 122.476562 C 243 55.371094 188.601562 0.976562 121.5 0.976562 Z M 121.5 0.976562 " clip-rule="nonzero"/></clipPath><clipPath id="162433f779"><rect x="0" width="243" y="0" height="244"/></clipPath><clipPath id="2589c34048"><path d="M 81 261.976562 L 324 261.976562 L 324 504.976562 L 81 504.976562 Z M 81 261.976562 " clip-rule="nonzero"/></clipPath><clipPath id="d903fd44e3"><path d="M 118.96875 261.976562 L 286.03125 261.976562 C 307 261.976562 324 278.972656 324 299.945312 L 324 467.007812 C 324 487.976562 307 504.976562 286.03125 504.976562 L 118.96875 504.976562 C 98 504.976562 81 487.976562 81 467.007812 L 81 299.945312 C 81 278.972656 98 261.976562 118.96875 261.976562 Z M 118.96875 261.976562 " clip-rule="nonzero"/></clipPath><clipPath id="373c1821bb"><path d="M 0 0.976562 L 243 0.976562 L 243 243.976562 L 0 243.976562 Z M 0 0.976562 " clip-rule="nonzero"/></clipPath><clipPath id="092b3bb717"><path d="M 37.96875 0.976562 L 205.03125 0.976562 C 226 0.976562 243 17.972656 243 38.945312 L 243 206.007812 C 243 226.976562 226 243.976562 205.03125 243.976562 L 37.96875 243.976562 C 17 243.976562 0 226.976562 0 206.007812 L 0 38.945312 C 0 17.972656 17 0.976562 37.96875 0.976562 Z M 37.96875 0.976562 " clip-rule="nonzero"/></clipPath><clipPath id="4347f598df"><rect x="0" width="243" y="0" height="244"/></clipPath><clipPath id="10b5d1a694"><path d="M 598.5 261.976562 L 841.5 261.976562 L 841.5 504.976562 L 598.5 504.976562 Z M 598.5 261.976562 " clip-rule="nonzero"/></clipPath><clipPath id="b8d4620e1f"><path d="M 636.46875 261.976562 L 803.53125 261.976562 C 824.5 261.976562 841.5 278.972656 841.5 299.945312 L 841.5 467.007812 C 841.5 487.976562 824.5 504.976562 803.53125 504.976562 L 636.46875 504.976562 C 615.5 504.976562 598.5 487.976562 598.5 467.007812 L 598.5 299.945312 C 598.5 278.972656 615.5 261.976562 636.46875 261.976562 Z M 636.46875 261.976562 " clip-rule="nonzero"/></clipPath><clipPath id="ff44b370af"><path d="M 0.5 0.976562 L 243.5 0.976562 L 243.5 243.976562 L 0.5 243.976562 Z M 0.5 0.976562 " clip-rule="nonzero"/></clipPath><clipPath id="1b0ab90150"><path d="M 38.46875 0.976562 L 205.53125 0.976562 C 226.5 0.976562 243.5 17.972656 243.5 38.945312 L 243.5 206.007812 C 243.5 226.976562 226.5 243.976562 205.53125 243.976562 L 38.46875 243.976562 C 17.5 243.976562 0.5 226.976562 0.5 206.007812 L 0.5 38.945312 C 0.5 17.972656 17.5 0.976562 38.46875 0.976562 Z M 38.46875 0.976562 " clip-rule="nonzero"/></clipPath><clipPath id="4ed5f4145f"><rect x="0" width="244" y="0" height="244"/></clipPath></defs><g clip-path="url(#1d60cd96d7)"><g clip-path="url(#4116ed701f)"><g transform="matrix(1, 0, 0, 1, 1116, 261)"><g clip-path="url(#162433f779)"><g clip-path="url(#01ad00f048)"><g clip-path="url(#8eb47872d4)"><path fill="#d9f4cd" d="M 0 0.976562 L 243 0.976562 L 243 243.976562 L 0 243.976562 Z M 0 0.976562 " fill-opacity="1" fill-rule="nonzero"/></g></g></g></g><path stroke-linecap="butt" transform="matrix(0.75, 0, 0, 0.75, 1115.99995, 261.975007)" fill="none" stroke-linejoin="miter" d="M 162.000075 0.00207424 C 72.53132 0.00207424 0.000066563 72.52812 0.000066563 162.002082 C 0.000066563 251.470837 72.53132 324.002091 162.000075 324.002091 C 251.468829 324.002091 324.000083 251.470837 324.000083 162.002082 C 324.000083 72.52812 251.468829 0.00207424 162.000075 0.00207424 Z M 162.000075 0.00207424 " stroke="#000000" stroke-width="20" stroke-opacity="1" stroke-miterlimit="4"/></g></g><g fill="#000000" fill-opacity="1"><g transform="translate(1172.718697, 369.975001)"><g><path d="M 12.125 0.4375 C 10.164062 0.4375 8.414062 -0.046875 6.875 -1.015625 C 5.34375 -1.992188 4.128906 -3.394531 3.234375 -5.21875 C 2.347656 -7.039062 1.90625 -9.238281 1.90625 -11.8125 C 1.90625 -14.351562 2.351562 -16.539062 3.25 -18.375 C 4.15625 -20.207031 5.394531 -21.609375 6.96875 -22.578125 C 8.539062 -23.554688 10.347656 -24.046875 12.390625 -24.046875 C 13.941406 -24.046875 15.242188 -23.738281 16.296875 -23.125 C 17.359375 -22.519531 18.226562 -21.867188 18.90625 -21.171875 L 17.203125 -19.265625 C 16.628906 -19.890625 15.960938 -20.40625 15.203125 -20.8125 C 14.453125 -21.21875 13.515625 -21.421875 12.390625 -21.421875 C 10.921875 -21.421875 9.632812 -21.03125 8.53125 -20.25 C 7.425781 -19.46875 6.566406 -18.367188 5.953125 -16.953125 C 5.347656 -15.535156 5.046875 -13.84375 5.046875 -11.875 C 5.046875 -9.882812 5.332031 -8.171875 5.90625 -6.734375 C 6.476562 -5.296875 7.304688 -4.179688 8.390625 -3.390625 C 9.472656 -2.597656 10.78125 -2.203125 12.3125 -2.203125 C 13.125 -2.203125 13.898438 -2.328125 14.640625 -2.578125 C 15.390625 -2.828125 15.984375 -3.164062 16.421875 -3.59375 L 16.421875 -9.75 L 11.703125 -9.75 L 11.703125 -12.234375 L 19.1875 -12.234375 L 19.1875 -2.296875 C 18.445312 -1.535156 17.46875 -0.890625 16.25 -0.359375 C 15.039062 0.171875 13.664062 0.4375 12.125 0.4375 Z M 12.125 0.4375 "/></g></g></g><g fill="#000000" fill-opacity="1"><g transform="translate(1194.31166, 369.975001)"><g><path d="M 10.796875 0.4375 C 9.265625 0.4375 7.84375 0.078125 6.53125 -0.640625 C 5.226562 -1.367188 4.171875 -2.414062 3.359375 -3.78125 C 2.554688 -5.144531 2.15625 -6.789062 2.15625 -8.71875 C 2.15625 -10.675781 2.554688 -12.335938 3.359375 -13.703125 C 4.171875 -15.078125 5.226562 -16.125 6.53125 -16.84375 C 7.84375 -17.5625 9.265625 -17.921875 10.796875 -17.921875 C 12.335938 -17.921875 13.757812 -17.5625 15.0625 -16.84375 C 16.375 -16.125 17.429688 -15.078125 18.234375 -13.703125 C 19.035156 -12.335938 19.4375 -10.675781 19.4375 -8.71875 C 19.4375 -6.789062 19.035156 -5.144531 18.234375 -3.78125 C 17.429688 -2.414062 16.375 -1.367188 15.0625 -0.640625 C 13.757812 0.078125 12.335938 0.4375 10.796875 0.4375 Z M 10.796875 -2.015625 C 11.921875 -2.015625 12.90625 -2.296875 13.75 -2.859375 C 14.59375 -3.421875 15.238281 -4.207031 15.6875 -5.21875 C 16.144531 -6.226562 16.375 -7.394531 16.375 -8.71875 C 16.375 -10.0625 16.144531 -11.238281 15.6875 -12.25 C 15.238281 -13.269531 14.59375 -14.0625 13.75 -14.625 C 12.90625 -15.195312 11.921875 -15.484375 10.796875 -15.484375 C 9.671875 -15.484375 8.691406 -15.195312 7.859375 -14.625 C 7.035156 -14.0625 6.390625 -13.269531 5.921875 -12.25 C 5.453125 -11.238281 5.21875 -10.0625 5.21875 -8.71875 C 5.21875 -7.394531 5.453125 -6.226562 5.921875 -5.21875 C 6.390625 -4.207031 7.035156 -3.421875 7.859375 -2.859375 C 8.691406 -2.296875 9.671875 -2.015625 10.796875 -2.015625 Z M 10.796875 -2.015625 "/></g></g></g><g fill="#000000" fill-opacity="1"><g transform="translate(1215.904624, 369.975001)"><g><path d="M 10.796875 0.4375 C 9.265625 0.4375 7.84375 0.078125 6.53125 -0.640625 C 5.226562 -1.367188 4.171875 -2.414062 3.359375 -3.78125 C 2.554688 -5.144531 2.15625 -6.789062 2.15625 -8.71875 C 2.15625 -10.675781 2.554688 -12.335938 3.359375 -13.703125 C 4.171875 -15.078125 5.226562 -16.125 6.53125 -16.84375 C 7.84375 -17.5625 9.265625 -17.921875 10.796875 -17.921875 C 12.335938 -17.921875 13.757812 -17.5625 15.0625 -16.84375 C 16.375 -16.125 17.429688 -15.078125 18.234375 -13.703125 C 19.035156 -12.335938 19.4375 -10.675781 19.4375 -8.71875 C 19.4375 -6.789062 19.035156 -5.144531 18.234375 -3.78125 C 17.429688 -2.414062 16.375 -1.367188 15.0625 -0.640625 C 13.757812 0.078125 12.335938 0.4375 10.796875 0.4375 Z M 10.796875 -2.015625 C 11.921875 -2.015625 12.90625 -2.296875 13.75 -2.859375 C 14.59375 -3.421875 15.238281 -4.207031 15.6875 -5.21875 C 16.144531 -6.226562 16.375 -7.394531 16.375 -8.71875 C 16.375 -10.0625 16.144531 -11.238281 15.6875 -12.25 C 15.238281 -13.269531 14.59375 -14.0625 13.75 -14.625 C 12.90625 -15.195312 11.921875 -15.484375 10.796875 -15.484375 C 9.671875 -15.484375 8.691406 -15.195312 7.859375 -14.625 C 7.035156 -14.0625 6.390625 -13.269531 5.921875 -12.25 C 5.453125 -11.238281 5.21875 -10.0625 5.21875 -8.71875 C 5.21875 -7.394531 5.453125 -6.226562 5.921875 -5.21875 C 6.390625 -4.207031 7.035156 -3.421875 7.859375 -2.859375 C 8.691406 -2.296875 9.671875 -2.015625 10.796875 -2.015625 Z M 10.796875 -2.015625 "/></g></g></g><g fill="#000000" fill-opacity="1"><g transform="translate(1237.497587, 369.975001)"><g><path d="M 10.65625 8.0625 C 8.945312 8.0625 7.492188 7.867188 6.296875 7.484375 C 5.097656 7.097656 4.179688 6.546875 3.546875 5.828125 C 2.910156 5.109375 2.59375 4.234375 2.59375 3.203125 C 2.59375 2.503906 2.835938 1.8125 3.328125 1.125 C 3.816406 0.445312 4.53125 -0.15625 5.46875 -0.6875 L 5.46875 -0.828125 C 5.007812 -1.085938 4.59375 -1.445312 4.21875 -1.90625 C 3.851562 -2.363281 3.671875 -2.960938 3.671875 -3.703125 C 3.671875 -4.253906 3.847656 -4.820312 4.203125 -5.40625 C 4.566406 -6 5.085938 -6.523438 5.765625 -6.984375 L 5.765625 -7.125 C 5.160156 -7.582031 4.644531 -8.191406 4.21875 -8.953125 C 3.800781 -9.722656 3.59375 -10.625 3.59375 -11.65625 C 3.59375 -12.9375 3.910156 -14.039062 4.546875 -14.96875 C 5.191406 -15.90625 6.035156 -16.628906 7.078125 -17.140625 C 8.117188 -17.660156 9.25 -17.921875 10.46875 -17.921875 C 11.457031 -17.921875 12.320312 -17.78125 13.0625 -17.5 L 20.296875 -17.5 L 20.296875 -15.078125 L 15.765625 -15.078125 C 16.171875 -14.671875 16.519531 -14.15625 16.8125 -13.53125 C 17.101562 -12.90625 17.25 -12.25 17.25 -11.5625 C 17.25 -10.3125 16.945312 -9.234375 16.34375 -8.328125 C 15.738281 -7.429688 14.925781 -6.742188 13.90625 -6.265625 C 12.894531 -5.785156 11.75 -5.546875 10.46875 -5.546875 C 10.019531 -5.546875 9.535156 -5.597656 9.015625 -5.703125 C 8.503906 -5.816406 8.007812 -5.976562 7.53125 -6.1875 C 7.09375 -5.925781 6.753906 -5.625 6.515625 -5.28125 C 6.273438 -4.945312 6.15625 -4.578125 6.15625 -4.171875 C 6.15625 -3.503906 6.472656 -3 7.109375 -2.65625 C 7.742188 -2.320312 8.640625 -2.15625 9.796875 -2.15625 L 13.71875 -2.15625 C 15.96875 -2.15625 17.640625 -1.84375 18.734375 -1.21875 C 19.828125 -0.59375 20.375 0.457031 20.375 1.9375 C 20.375 3.019531 19.976562 4.03125 19.1875 4.96875 C 18.394531 5.90625 17.269531 6.65625 15.8125 7.21875 C 14.363281 7.78125 12.644531 8.0625 10.65625 8.0625 Z M 10.46875 -7.53125 C 11.21875 -7.53125 11.894531 -7.695312 12.5 -8.03125 C 13.113281 -8.363281 13.601562 -8.84375 13.96875 -9.46875 C 14.332031 -10.09375 14.515625 -10.820312 14.515625 -11.65625 C 14.515625 -12.476562 14.332031 -13.191406 13.96875 -13.796875 C 13.601562 -14.410156 13.113281 -14.890625 12.5 -15.234375 C 11.894531 -15.585938 11.21875 -15.765625 10.46875 -15.765625 C 9.75 -15.765625 9.082031 -15.585938 8.46875 -15.234375 C 7.863281 -14.890625 7.375 -14.410156 7 -13.796875 C 6.625 -13.191406 6.4375 -12.476562 6.4375 -11.65625 C 6.4375 -10.820312 6.625 -10.09375 7 -9.46875 C 7.375 -8.84375 7.863281 -8.363281 8.46875 -8.03125 C 9.082031 -7.695312 9.75 -7.53125 10.46875 -7.53125 Z M 10.875 5.90625 C 12.238281 5.90625 13.410156 5.734375 14.390625 5.390625 C 15.378906 5.054688 16.132812 4.625 16.65625 4.09375 C 17.1875 3.570312 17.453125 3.007812 17.453125 2.40625 C 17.453125 1.570312 17.125 1.007812 16.46875 0.71875 C 15.8125 0.425781 14.8125 0.28125 13.46875 0.28125 L 10.046875 0.28125 C 9.535156 0.28125 9.054688 0.253906 8.609375 0.203125 C 8.171875 0.160156 7.757812 0.09375 7.375 0 C 6.5625 0.457031 5.984375 0.929688 5.640625 1.421875 C 5.304688 1.910156 5.140625 2.410156 5.140625 2.921875 C 5.140625 3.828125 5.625 4.550781 6.59375 5.09375 C 7.570312 5.632812 9 5.90625 10.875 5.90625 Z M 10.875 5.90625 "/></g></g></g><g fill="#000000" fill-opacity="1"><g transform="translate(1259.09055, 369.975001)"><g><path d="M 14.609375 0.4375 C 12.765625 0.4375 11.347656 -0.09375 10.359375 -1.15625 C 9.378906 -2.226562 8.890625 -3.800781 8.890625 -5.875 L 8.890625 -23.21875 L 2.921875 -23.21875 L 2.921875 -25.625 L 11.84375 -25.625 L 11.84375 -5.65625 C 11.84375 -4.382812 12.15625 -3.457031 12.78125 -2.875 C 13.40625 -2.300781 14.234375 -2.015625 15.265625 -2.015625 C 15.765625 -2.015625 16.28125 -2.078125 16.8125 -2.203125 C 17.34375 -2.335938 17.929688 -2.550781 18.578125 -2.84375 L 19.328125 -0.609375 C 18.535156 -0.328125 17.789062 -0.0820312 17.09375 0.125 C 16.40625 0.332031 15.578125 0.4375 14.609375 0.4375 Z M 14.609375 0.4375 "/></g></g></g><g fill="#000000" fill-opacity="1"><g transform="translate(1280.683513, 369.975001)"><g><path d="M 11.875 0.4375 C 10.125 0.4375 8.535156 0.078125 7.109375 -0.640625 C 5.679688 -1.367188 4.546875 -2.421875 3.703125 -3.796875 C 2.867188 -5.179688 2.453125 -6.84375 2.453125 -8.78125 C 2.453125 -10.675781 2.867188 -12.304688 3.703125 -13.671875 C 4.546875 -15.046875 5.644531 -16.097656 7 -16.828125 C 8.351562 -17.554688 9.8125 -17.921875 11.375 -17.921875 C 13.050781 -17.921875 14.484375 -17.578125 15.671875 -16.890625 C 16.859375 -16.210938 17.769531 -15.257812 18.40625 -14.03125 C 19.050781 -12.8125 19.375 -11.375 19.375 -9.71875 C 19.375 -9.382812 19.359375 -9.0625 19.328125 -8.75 C 19.304688 -8.4375 19.269531 -8.160156 19.21875 -7.921875 L 4.421875 -7.921875 L 4.421875 -10.21875 L 17.453125 -10.21875 L 16.703125 -9.390625 C 16.703125 -11.453125 16.226562 -13 15.28125 -14.03125 C 14.332031 -15.070312 13.054688 -15.59375 11.453125 -15.59375 C 10.367188 -15.59375 9.363281 -15.328125 8.4375 -14.796875 C 7.519531 -14.265625 6.785156 -13.492188 6.234375 -12.484375 C 5.679688 -11.484375 5.40625 -10.25 5.40625 -8.78125 C 5.40625 -7.269531 5.703125 -6.007812 6.296875 -5 C 6.898438 -3.988281 7.71875 -3.222656 8.75 -2.703125 C 9.78125 -2.191406 10.941406 -1.9375 12.234375 -1.9375 C 13.296875 -1.9375 14.25 -2.085938 15.09375 -2.390625 C 15.945312 -2.691406 16.769531 -3.09375 17.5625 -3.59375 L 18.640625 -1.65625 C 17.785156 -1.082031 16.796875 -0.585938 15.671875 -0.171875 C 14.554688 0.234375 13.289062 0.4375 11.875 0.4375 Z M 11.875 0.4375 "/></g></g></g><g fill="#000000" fill-opacity="1"><g transform="translate(1183.511665, 420.224999)"><g><path d="M 10.984375 0.4375 C 9.253906 0.4375 7.660156 0.117188 6.203125 -0.515625 C 4.753906 -1.148438 3.488281 -2 2.40625 -3.0625 L 4.21875 -5.140625 C 5.101562 -4.253906 6.140625 -3.539062 7.328125 -3 C 8.515625 -2.46875 9.78125 -2.203125 11.125 -2.203125 C 12.757812 -2.203125 14.023438 -2.546875 14.921875 -3.234375 C 15.816406 -3.929688 16.265625 -4.832031 16.265625 -5.9375 C 16.265625 -6.78125 16.078125 -7.453125 15.703125 -7.953125 C 15.335938 -8.460938 14.835938 -8.882812 14.203125 -9.21875 C 13.566406 -9.550781 12.84375 -9.882812 12.03125 -10.21875 L 8.640625 -11.703125 C 7.847656 -12.035156 7.0625 -12.453125 6.28125 -12.953125 C 5.5 -13.460938 4.84375 -14.109375 4.3125 -14.890625 C 3.789062 -15.671875 3.53125 -16.632812 3.53125 -17.78125 C 3.53125 -18.976562 3.859375 -20.050781 4.515625 -21 C 5.179688 -21.945312 6.097656 -22.691406 7.265625 -23.234375 C 8.441406 -23.773438 9.773438 -24.046875 11.265625 -24.046875 C 12.753906 -24.046875 14.125 -23.773438 15.375 -23.234375 C 16.625 -22.691406 17.679688 -21.988281 18.546875 -21.125 L 16.953125 -19.1875 C 16.179688 -19.882812 15.328125 -20.429688 14.390625 -20.828125 C 13.460938 -21.222656 12.382812 -21.421875 11.15625 -21.421875 C 9.789062 -21.421875 8.6875 -21.113281 7.84375 -20.5 C 7.007812 -19.882812 6.59375 -19.039062 6.59375 -17.96875 C 6.59375 -17.21875 6.800781 -16.601562 7.21875 -16.125 C 7.632812 -15.644531 8.164062 -15.25 8.8125 -14.9375 C 9.46875 -14.625 10.128906 -14.328125 10.796875 -14.046875 L 14.109375 -12.59375 C 15.097656 -12.21875 15.988281 -11.757812 16.78125 -11.21875 C 17.570312 -10.675781 18.191406 -10.007812 18.640625 -9.21875 C 19.097656 -8.425781 19.328125 -7.453125 19.328125 -6.296875 C 19.328125 -5.046875 18.988281 -3.910156 18.3125 -2.890625 C 17.644531 -1.878906 16.6875 -1.070312 15.4375 -0.46875 C 14.195312 0.132812 12.710938 0.4375 10.984375 0.4375 Z M 10.984375 0.4375 "/></g></g></g><g fill="#000000" fill-opacity="1"><g transform="translate(1205.104629, 420.224999)"><g><path d="M 3.34375 0 L 3.34375 -25.625 L 6.296875 -25.625 L 6.296875 -18.640625 L 6.125 -14.515625 L 6.234375 -14.515625 C 7.117188 -15.472656 8.085938 -16.28125 9.140625 -16.9375 C 10.203125 -17.59375 11.414062 -17.921875 12.78125 -17.921875 C 14.84375 -17.921875 16.363281 -17.320312 17.34375 -16.125 C 18.332031 -14.925781 18.828125 -13.175781 18.828125 -10.875 L 18.828125 0 L 15.875 0 L 15.875 -10.46875 C 15.875 -12.125 15.5625 -13.351562 14.9375 -14.15625 C 14.3125 -14.96875 13.28125 -15.375 11.84375 -15.375 C 10.8125 -15.375 9.882812 -15.109375 9.0625 -14.578125 C 8.25 -14.046875 7.328125 -13.253906 6.296875 -12.203125 L 6.296875 0 Z M 3.34375 0 "/></g></g></g><g fill="#000000" fill-opacity="1"><g transform="translate(1226.697592, 420.224999)"><g><path d="M 11.875 0.4375 C 10.125 0.4375 8.535156 0.078125 7.109375 -0.640625 C 5.679688 -1.367188 4.546875 -2.421875 3.703125 -3.796875 C 2.867188 -5.179688 2.453125 -6.84375 2.453125 -8.78125 C 2.453125 -10.675781 2.867188 -12.304688 3.703125 -13.671875 C 4.546875 -15.046875 5.644531 -16.097656 7 -16.828125 C 8.351562 -17.554688 9.8125 -17.921875 11.375 -17.921875 C 13.050781 -17.921875 14.484375 -17.578125 15.671875 -16.890625 C 16.859375 -16.210938 17.769531 -15.257812 18.40625 -14.03125 C 19.050781 -12.8125 19.375 -11.375 19.375 -9.71875 C 19.375 -9.382812 19.359375 -9.0625 19.328125 -8.75 C 19.304688 -8.4375 19.269531 -8.160156 19.21875 -7.921875 L 4.421875 -7.921875 L 4.421875 -10.21875 L 17.453125 -10.21875 L 16.703125 -9.390625 C 16.703125 -11.453125 16.226562 -13 15.28125 -14.03125 C 14.332031 -15.070312 13.054688 -15.59375 11.453125 -15.59375 C 10.367188 -15.59375 9.363281 -15.328125 8.4375 -14.796875 C 7.519531 -14.265625 6.785156 -13.492188 6.234375 -12.484375 C 5.679688 -11.484375 5.40625 -10.25 5.40625 -8.78125 C 5.40625 -7.269531 5.703125 -6.007812 6.296875 -5 C 6.898438 -3.988281 7.71875 -3.222656 8.75 -2.703125 C 9.78125 -2.191406 10.941406 -1.9375 12.234375 -1.9375 C 13.296875 -1.9375 14.25 -2.085938 15.09375 -2.390625 C 15.945312 -2.691406 16.769531 -3.09375 17.5625 -3.59375 L 18.640625 -1.65625 C 17.785156 -1.082031 16.796875 -0.585938 15.671875 -0.171875 C 14.554688 0.234375 13.289062 0.4375 11.875 0.4375 Z M 11.875 0.4375 "/></g></g></g><g fill="#000000" fill-opacity="1"><g transform="translate(1248.290555, 420.224999)"><g><path d="M 11.875 0.4375 C 10.125 0.4375 8.535156 0.078125 7.109375 -0.640625 C 5.679688 -1.367188 4.546875 -2.421875 3.703125 -3.796875 C 2.867188 -5.179688 2.453125 -6.84375 2.453125 -8.78125 C 2.453125 -10.675781 2.867188 -12.304688 3.703125 -13.671875 C 4.546875 -15.046875 5.644531 -16.097656 7 -16.828125 C 8.351562 -17.554688 9.8125 -17.921875 11.375 -17.921875 C 13.050781 -17.921875 14.484375 -17.578125 15.671875 -16.890625 C 16.859375 -16.210938 17.769531 -15.257812 18.40625 -14.03125 C 19.050781 -12.8125 19.375 -11.375 19.375 -9.71875 C 19.375 -9.382812 19.359375 -9.0625 19.328125 -8.75 C 19.304688 -8.4375 19.269531 -8.160156 19.21875 -7.921875 L 4.421875 -7.921875 L 4.421875 -10.21875 L 17.453125 -10.21875 L 16.703125 -9.390625 C 16.703125 -11.453125 16.226562 -13 15.28125 -14.03125 C 14.332031 -15.070312 13.054688 -15.59375 11.453125 -15.59375 C 10.367188 -15.59375 9.363281 -15.328125 8.4375 -14.796875 C 7.519531 -14.265625 6.785156 -13.492188 6.234375 -12.484375 C 5.679688 -11.484375 5.40625 -10.25 5.40625 -8.78125 C 5.40625 -7.269531 5.703125 -6.007812 6.296875 -5 C 6.898438 -3.988281 7.71875 -3.222656 8.75 -2.703125 C 9.78125 -2.191406 10.941406 -1.9375 12.234375 -1.9375 C 13.296875 -1.9375 14.25 -2.085938 15.09375 -2.390625 C 15.945312 -2.691406 16.769531 -3.09375 17.5625 -3.59375 L 18.640625 -1.65625 C 17.785156 -1.082031 16.796875 -0.585938 15.671875 -0.171875 C 14.554688 0.234375 13.289062 0.4375 11.875 0.4375 Z M 11.875 0.4375 "/></g></g></g><g fill="#000000" fill-opacity="1"><g transform="translate(1269.883518, 420.224999)"><g><path d="M 14.1875 0.4375 C 12.476562 0.4375 11.128906 0.128906 10.140625 -0.484375 C 9.160156 -1.097656 8.460938 -1.941406 8.046875 -3.015625 C 7.628906 -4.097656 7.421875 -5.359375 7.421875 -6.796875 L 7.421875 -15.078125 L 2.484375 -15.078125 L 2.484375 -17.3125 L 7.53125 -17.5 L 7.921875 -23.109375 L 10.375 -23.109375 L 10.375 -17.5 L 18.96875 -17.5 L 18.96875 -15.078125 L 10.375 -15.078125 L 10.375 -6.765625 C 10.375 -5.734375 10.503906 -4.859375 10.765625 -4.140625 C 11.023438 -3.421875 11.476562 -2.878906 12.125 -2.515625 C 12.78125 -2.160156 13.671875 -1.984375 14.796875 -1.984375 C 15.640625 -1.984375 16.394531 -2.050781 17.0625 -2.1875 C 17.738281 -2.332031 18.390625 -2.523438 19.015625 -2.765625 L 19.65625 -0.609375 C 18.863281 -0.328125 18.03125 -0.0820312 17.15625 0.125 C 16.28125 0.332031 15.289062 0.4375 14.1875 0.4375 Z M 14.1875 0.4375 "/></g></g></g><g clip-path="url(#2589c34048)"><g clip-path="url(#d903fd44e3)"><g transform="matrix(1, 0, 0, 1, 81, 261)"><g clip-path="url(#4347f598df)"><g clip-path="url(#373c1821bb)"><g clip-path="url(#092b3bb717)"><path fill="#dfdfdf" d="M 0 0.976562 L 243 0.976562 L 243 243.976562 L 0 243.976562 Z M 0 0.976562 " fill-opacity="1" fill-rule="nonzero"/></g></g></g></g><path stroke-linecap="butt" transform="matrix(0.75, 0, 0, 0.75, 81.000002, 261.975007)" fill="none" stroke-linejoin="miter" d="M 50.625 0.00207424 L 273.375011 0.00207424 C 301.333346 0.00207424 324.000013 22.663534 324.000013 50.627077 L 324.000013 273.377088 C 324.000013 301.335423 301.333346 324.002091 273.375011 324.002091 L 50.625 324.002091 C 22.666665 324.002091 -0.00000286296 301.335423 -0.00000286296 273.377088 L -0.00000286296 50.627077 C -0.00000286296 22.663534 22.666665 0.00207424 50.625 0.00207424 Z M 50.625 0.00207424 " stroke="#000000" stroke-width="20" stroke-opacity="1" stroke-miterlimit="4"/></g></g><g fill="#000000" fill-opacity="1"><g transform="translate(94.535158, 395.475)"><g><path d="M 14.609375 0.4375 C 12.765625 0.4375 11.347656 -0.09375 10.359375 -1.15625 C 9.378906 -2.226562 8.890625 -3.800781 8.890625 -5.875 L 8.890625 -23.21875 L 2.921875 -23.21875 L 2.921875 -25.625 L 11.84375 -25.625 L 11.84375 -5.65625 C 11.84375 -4.382812 12.15625 -3.457031 12.78125 -2.875 C 13.40625 -2.300781 14.234375 -2.015625 15.265625 -2.015625 C 15.765625 -2.015625 16.28125 -2.078125 16.8125 -2.203125 C 17.34375 -2.335938 17.929688 -2.550781 18.578125 -2.84375 L 19.328125 -0.609375 C 18.535156 -0.328125 17.789062 -0.0820312 17.09375 0.125 C 16.40625 0.332031 15.578125 0.4375 14.609375 0.4375 Z M 14.609375 0.4375 "/></g></g></g><g fill="#000000" fill-opacity="1"><g transform="translate(116.128121, 395.475)"><g><path d="M 11.875 0.4375 C 10.125 0.4375 8.535156 0.078125 7.109375 -0.640625 C 5.679688 -1.367188 4.546875 -2.421875 3.703125 -3.796875 C 2.867188 -5.179688 2.453125 -6.84375 2.453125 -8.78125 C 2.453125 -10.675781 2.867188 -12.304688 3.703125 -13.671875 C 4.546875 -15.046875 5.644531 -16.097656 7 -16.828125 C 8.351562 -17.554688 9.8125 -17.921875 11.375 -17.921875 C 13.050781 -17.921875 14.484375 -17.578125 15.671875 -16.890625 C 16.859375 -16.210938 17.769531 -15.257812 18.40625 -14.03125 C 19.050781 -12.8125 19.375 -11.375 19.375 -9.71875 C 19.375 -9.382812 19.359375 -9.0625 19.328125 -8.75 C 19.304688 -8.4375 19.269531 -8.160156 19.21875 -7.921875 L 4.421875 -7.921875 L 4.421875 -10.21875 L 17.453125 -10.21875 L 16.703125 -9.390625 C 16.703125 -11.453125 16.226562 -13 15.28125 -14.03125 C 14.332031 -15.070312 13.054688 -15.59375 11.453125 -15.59375 C 10.367188 -15.59375 9.363281 -15.328125 8.4375 -14.796875 C 7.519531 -14.265625 6.785156 -13.492188 6.234375 -12.484375 C 5.679688 -11.484375 5.40625 -10.25 5.40625 -8.78125 C 5.40625 -7.269531 5.703125 -6.007812 6.296875 -5 C 6.898438 -3.988281 7.71875 -3.222656 8.75 -2.703125 C 9.78125 -2.191406 10.941406 -1.9375 12.234375 -1.9375 C 13.296875 -1.9375 14.25 -2.085938 15.09375 -2.390625 C 15.945312 -2.691406 16.769531 -3.09375 17.5625 -3.59375 L 18.640625 -1.65625 C 17.785156 -1.082031 16.796875 -0.585938 15.671875 -0.171875 C 14.554688 0.234375 13.289062 0.4375 11.875 0.4375 Z M 11.875 0.4375 "/></g></g></g><g fill="#000000" fill-opacity="1"><g transform="translate(137.721084, 395.475)"><g><path d="M 9.21875 0 L 1.84375 -17.5 L 4.828125 -17.5 L 8.859375 -7.5625 C 9.210938 -6.695312 9.550781 -5.832031 9.875 -4.96875 C 10.207031 -4.101562 10.53125 -3.25 10.84375 -2.40625 L 10.984375 -2.40625 C 11.296875 -3.25 11.609375 -4.101562 11.921875 -4.96875 C 12.234375 -5.832031 12.554688 -6.695312 12.890625 -7.5625 L 16.921875 -17.5 L 19.765625 -17.5 L 12.53125 0 Z M 9.21875 0 "/></g></g></g><g fill="#000000" fill-opacity="1"><g transform="translate(159.314047, 395.475)"><g><path d="M 11.875 0.4375 C 10.125 0.4375 8.535156 0.078125 7.109375 -0.640625 C 5.679688 -1.367188 4.546875 -2.421875 3.703125 -3.796875 C 2.867188 -5.179688 2.453125 -6.84375 2.453125 -8.78125 C 2.453125 -10.675781 2.867188 -12.304688 3.703125 -13.671875 C 4.546875 -15.046875 5.644531 -16.097656 7 -16.828125 C 8.351562 -17.554688 9.8125 -17.921875 11.375 -17.921875 C 13.050781 -17.921875 14.484375 -17.578125 15.671875 -16.890625 C 16.859375 -16.210938 17.769531 -15.257812 18.40625 -14.03125 C 19.050781 -12.8125 19.375 -11.375 19.375 -9.71875 C 19.375 -9.382812 19.359375 -9.0625 19.328125 -8.75 C 19.304688 -8.4375 19.269531 -8.160156 19.21875 -7.921875 L 4.421875 -7.921875 L 4.421875 -10.21875 L 17.453125 -10.21875 L 16.703125 -9.390625 C 16.703125 -11.453125 16.226562 -13 15.28125 -14.03125 C 14.332031 -15.070312 13.054688 -15.59375 11.453125 -15.59375 C 10.367188 -15.59375 9.363281 -15.328125 8.4375 -14.796875 C 7.519531 -14.265625 6.785156 -13.492188 6.234375 -12.484375 C 5.679688 -11.484375 5.40625 -10.25 5.40625 -8.78125 C 5.40625 -7.269531 5.703125 -6.007812 6.296875 -5 C 6.898438 -3.988281 7.71875 -3.222656 8.75 -2.703125 C 9.78125 -2.191406 10.941406 -1.9375 12.234375 -1.9375 C 13.296875 -1.9375 14.25 -2.085938 15.09375 -2.390625 C 15.945312 -2.691406 16.769531 -3.09375 17.5625 -3.59375 L 18.640625 -1.65625 C 17.785156 -1.082031 16.796875 -0.585938 15.671875 -0.171875 C 14.554688 0.234375 13.289062 0.4375 11.875 0.4375 Z M 11.875 0.4375 "/></g></g></g><g fill="#000000" fill-opacity="1"><g transform="translate(180.90701, 395.475)"><g><path d="M 14.609375 0.4375 C 12.765625 0.4375 11.347656 -0.09375 10.359375 -1.15625 C 9.378906 -2.226562 8.890625 -3.800781 8.890625 -5.875 L 8.890625 -23.21875 L 2.921875 -23.21875 L 2.921875 -25.625 L 11.84375 -25.625 L 11.84375 -5.65625 C 11.84375 -4.382812 12.15625 -3.457031 12.78125 -2.875 C 13.40625 -2.300781 14.234375 -2.015625 15.265625 -2.015625 C 15.765625 -2.015625 16.28125 -2.078125 16.8125 -2.203125 C 17.34375 -2.335938 17.929688 -2.550781 18.578125 -2.84375 L 19.328125 -0.609375 C 18.535156 -0.328125 17.789062 -0.0820312 17.09375 0.125 C 16.40625 0.332031 15.578125 0.4375 14.609375 0.4375 Z M 14.609375 0.4375 "/></g></g></g><g fill="#000000" fill-opacity="1"><g transform="translate(202.499974, 395.475)"><g><path d="M 11.15625 0.4375 C 9.457031 0.4375 7.863281 0.160156 6.375 -0.390625 C 4.882812 -0.941406 3.613281 -1.578125 2.5625 -2.296875 L 3.921875 -4.25 C 4.929688 -3.53125 6.046875 -2.953125 7.265625 -2.515625 C 8.492188 -2.085938 9.910156 -1.875 11.515625 -1.875 C 13.003906 -1.875 14.113281 -2.148438 14.84375 -2.703125 C 15.582031 -3.253906 15.953125 -3.890625 15.953125 -4.609375 C 15.953125 -4.941406 15.882812 -5.25 15.75 -5.53125 C 15.613281 -5.820312 15.359375 -6.097656 14.984375 -6.359375 C 14.617188 -6.628906 14.078125 -6.882812 13.359375 -7.125 C 12.640625 -7.363281 11.675781 -7.601562 10.46875 -7.84375 C 8.195312 -8.320312 6.488281 -8.96875 5.34375 -9.78125 C 4.207031 -10.601562 3.640625 -11.660156 3.640625 -12.953125 C 3.640625 -14.367188 4.25 -15.550781 5.46875 -16.5 C 6.695312 -17.445312 8.507812 -17.921875 10.90625 -17.921875 C 12.25 -17.921875 13.546875 -17.695312 14.796875 -17.25 C 16.046875 -16.8125 17.101562 -16.296875 17.96875 -15.703125 L 16.53125 -13.78125 C 15.738281 -14.363281 14.835938 -14.816406 13.828125 -15.140625 C 12.816406 -15.460938 11.757812 -15.625 10.65625 -15.625 C 9.644531 -15.625 8.84375 -15.507812 8.25 -15.28125 C 7.664062 -15.050781 7.25 -14.742188 7 -14.359375 C 6.75 -13.972656 6.625 -13.554688 6.625 -13.109375 C 6.625 -12.359375 7.023438 -11.773438 7.828125 -11.359375 C 8.628906 -10.941406 9.921875 -10.550781 11.703125 -10.1875 C 13.640625 -9.78125 15.128906 -9.320312 16.171875 -8.8125 C 17.222656 -8.3125 17.945312 -7.738281 18.34375 -7.09375 C 18.738281 -6.445312 18.9375 -5.675781 18.9375 -4.78125 C 18.9375 -3.820312 18.632812 -2.953125 18.03125 -2.171875 C 17.4375 -1.398438 16.5625 -0.769531 15.40625 -0.28125 C 14.257812 0.195312 12.84375 0.4375 11.15625 0.4375 Z M 11.15625 0.4375 "/></g></g></g><g fill="#000000" fill-opacity="1"><g transform="translate(224.092937, 395.475)"><g><path d="M 10.796875 0.4375 C 10.003906 0.4375 9.320312 0.15625 8.75 -0.40625 C 8.175781 -0.976562 7.890625 -1.707031 7.890625 -2.59375 C 7.890625 -3.5 8.175781 -4.234375 8.75 -4.796875 C 9.320312 -5.367188 10.003906 -5.65625 10.796875 -5.65625 C 11.617188 -5.65625 12.3125 -5.367188 12.875 -4.796875 C 13.4375 -4.234375 13.71875 -3.5 13.71875 -2.59375 C 13.71875 -1.707031 13.4375 -0.976562 12.875 -0.40625 C 12.3125 0.15625 11.617188 0.4375 10.796875 0.4375 Z M 10.796875 0.4375 "/></g></g></g><g fill="#000000" fill-opacity="1"><g transform="translate(245.6859, 395.475)"><g><path d="M 8.71875 0 L 8.71875 -18.96875 C 8.71875 -20.382812 8.972656 -21.625 9.484375 -22.6875 C 10.003906 -23.757812 10.78125 -24.585938 11.8125 -25.171875 C 12.84375 -25.765625 14.160156 -26.0625 15.765625 -26.0625 C 16.628906 -26.0625 17.472656 -25.984375 18.296875 -25.828125 C 19.128906 -25.671875 19.96875 -25.414062 20.8125 -25.0625 L 20.125 -22.828125 C 19.40625 -23.160156 18.738281 -23.378906 18.125 -23.484375 C 17.507812 -23.597656 16.820312 -23.65625 16.0625 -23.65625 C 14.5 -23.65625 13.367188 -23.242188 12.671875 -22.421875 C 11.972656 -21.609375 11.625 -20.492188 11.625 -19.078125 L 11.625 0 Z M 3.703125 -15.078125 L 3.703125 -17.3125 L 8.8125 -17.5 L 18.96875 -17.5 L 18.96875 -15.078125 Z M 3.703125 -15.078125 "/></g></g></g><g fill="#000000" fill-opacity="1"><g transform="translate(267.278863, 395.475)"><g><path d="M 4.71875 7.53125 C 4.332031 7.53125 3.925781 7.492188 3.5 7.421875 C 3.082031 7.347656 2.71875 7.257812 2.40625 7.15625 L 3.03125 4.828125 C 3.269531 4.898438 3.523438 4.957031 3.796875 5 C 4.078125 5.050781 4.347656 5.078125 4.609375 5.078125 C 5.828125 5.078125 6.820312 4.722656 7.59375 4.015625 C 8.363281 3.304688 8.960938 2.410156 9.390625 1.328125 L 9.9375 0.03125 L 1.765625 -17.5 L 4.75 -17.5 L 9.03125 -7.8125 C 9.375 -7.039062 9.726562 -6.21875 10.09375 -5.34375 C 10.46875 -4.46875 10.835938 -3.597656 11.203125 -2.734375 L 11.34375 -2.734375 C 11.65625 -3.578125 11.972656 -4.4375 12.296875 -5.3125 C 12.617188 -6.1875 12.925781 -7.019531 13.21875 -7.8125 L 17.03125 -17.5 L 19.84375 -17.5 L 12.125 1.4375 C 11.695312 2.59375 11.160156 3.628906 10.515625 4.546875 C 9.867188 5.472656 9.070312 6.203125 8.125 6.734375 C 7.175781 7.265625 6.039062 7.53125 4.71875 7.53125 Z M 4.71875 7.53125 "/></g></g></g><g fill="#000000" fill-opacity="1"><g transform="translate(288.871826, 395.475)"><g><path d="M 11.375 0 L 11.375 -15.078125 L 3.234375 -15.078125 L 3.234375 -17.5 L 14.328125 -17.5 L 14.328125 0 Z M 12.53125 -21.171875 C 11.863281 -21.171875 11.300781 -21.378906 10.84375 -21.796875 C 10.382812 -22.210938 10.15625 -22.769531 10.15625 -23.46875 C 10.15625 -24.164062 10.382812 -24.722656 10.84375 -25.140625 C 11.300781 -25.566406 11.863281 -25.78125 12.53125 -25.78125 C 13.207031 -25.78125 13.769531 -25.566406 14.21875 -25.140625 C 14.675781 -24.722656 14.90625 -24.164062 14.90625 -23.46875 C 14.90625 -22.769531 14.675781 -22.210938 14.21875 -21.796875 C 13.769531 -21.378906 13.207031 -21.171875 12.53125 -21.171875 Z M 12.53125 -21.171875 "/></g></g></g><g clip-path="url(#10b5d1a694)"><g clip-path="url(#b8d4620e1f)"><g transform="matrix(1, 0, 0, 1, 598, 261)"><g clip-path="url(#4ed5f4145f)"><g clip-path="url(#ff44b370af)"><g clip-path="url(#1b0ab90150)"><path fill="#d8c7fa" d="M 0.5 0.976562 L 243.5 0.976562 L 243.5 243.976562 L 0.5 243.976562 Z M 0.5 0.976562 " fill-opacity="1" fill-rule="nonzero"/></g></g></g></g><path stroke-linecap="butt" transform="matrix(0.75, 0, 0, 0.75, 598.499976, 261.975007)" fill="none" stroke-linejoin="miter" d="M 50.625034 0.00207424 L 273.375046 0.00207424 C 301.33338 0.00207424 324.000048 22.663534 324.000048 50.627077 L 324.000048 273.377088 C 324.000048 301.335423 301.33338 324.002091 273.375046 324.002091 L 50.625034 324.002091 C 22.6667 324.002091 0.00003185 301.335423 0.00003185 273.377088 L 0.00003185 50.627077 C 0.00003185 22.663534 22.6667 0.00207424 50.625034 0.00207424 Z M 50.625034 0.00207424 " stroke="#000000" stroke-width="20" stroke-opacity="1" stroke-miterlimit="4"/></g></g><g fill="#000000" fill-opacity="1"><g transform="translate(655.195286, 369.975001)"><g><path d="M 12.125 0.4375 C 10.164062 0.4375 8.414062 -0.046875 6.875 -1.015625 C 5.34375 -1.992188 4.128906 -3.394531 3.234375 -5.21875 C 2.347656 -7.039062 1.90625 -9.238281 1.90625 -11.8125 C 1.90625 -14.351562 2.351562 -16.539062 3.25 -18.375 C 4.15625 -20.207031 5.394531 -21.609375 6.96875 -22.578125 C 8.539062 -23.554688 10.347656 -24.046875 12.390625 -24.046875 C 13.941406 -24.046875 15.242188 -23.738281 16.296875 -23.125 C 17.359375 -22.519531 18.226562 -21.867188 18.90625 -21.171875 L 17.203125 -19.265625 C 16.628906 -19.890625 15.960938 -20.40625 15.203125 -20.8125 C 14.453125 -21.21875 13.515625 -21.421875 12.390625 -21.421875 C 10.921875 -21.421875 9.632812 -21.03125 8.53125 -20.25 C 7.425781 -19.46875 6.566406 -18.367188 5.953125 -16.953125 C 5.347656 -15.535156 5.046875 -13.84375 5.046875 -11.875 C 5.046875 -9.882812 5.332031 -8.171875 5.90625 -6.734375 C 6.476562 -5.296875 7.304688 -4.179688 8.390625 -3.390625 C 9.472656 -2.597656 10.78125 -2.203125 12.3125 -2.203125 C 13.125 -2.203125 13.898438 -2.328125 14.640625 -2.578125 C 15.390625 -2.828125 15.984375 -3.164062 16.421875 -3.59375 L 16.421875 -9.75 L 11.703125 -9.75 L 11.703125 -12.234375 L 19.1875 -12.234375 L 19.1875 -2.296875 C 18.445312 -1.535156 17.46875 -0.890625 16.25 -0.359375 C 15.039062 0.171875 13.664062 0.4375 12.125 0.4375 Z M 12.125 0.4375 "/></g></g></g><g fill="#000000" fill-opacity="1"><g transform="translate(676.795333, 369.975001)"><g><path d="M 10.796875 0.4375 C 9.265625 0.4375 7.84375 0.078125 6.53125 -0.640625 C 5.226562 -1.367188 4.171875 -2.414062 3.359375 -3.78125 C 2.554688 -5.144531 2.15625 -6.789062 2.15625 -8.71875 C 2.15625 -10.675781 2.554688 -12.335938 3.359375 -13.703125 C 4.171875 -15.078125 5.226562 -16.125 6.53125 -16.84375 C 7.84375 -17.5625 9.265625 -17.921875 10.796875 -17.921875 C 12.335938 -17.921875 13.757812 -17.5625 15.0625 -16.84375 C 16.375 -16.125 17.429688 -15.078125 18.234375 -13.703125 C 19.035156 -12.335938 19.4375 -10.675781 19.4375 -8.71875 C 19.4375 -6.789062 19.035156 -5.144531 18.234375 -3.78125 C 17.429688 -2.414062 16.375 -1.367188 15.0625 -0.640625 C 13.757812 0.078125 12.335938 0.4375 10.796875 0.4375 Z M 10.796875 -2.015625 C 11.921875 -2.015625 12.90625 -2.296875 13.75 -2.859375 C 14.59375 -3.421875 15.238281 -4.207031 15.6875 -5.21875 C 16.144531 -6.226562 16.375 -7.394531 16.375 -8.71875 C 16.375 -10.0625 16.144531 -11.238281 15.6875 -12.25 C 15.238281 -13.269531 14.59375 -14.0625 13.75 -14.625 C 12.90625 -15.195312 11.921875 -15.484375 10.796875 -15.484375 C 9.671875 -15.484375 8.691406 -15.195312 7.859375 -14.625 C 7.035156 -14.0625 6.390625 -13.269531 5.921875 -12.25 C 5.453125 -11.238281 5.21875 -10.0625 5.21875 -8.71875 C 5.21875 -7.394531 5.453125 -6.226562 5.921875 -5.21875 C 6.390625 -4.207031 7.035156 -3.421875 7.859375 -2.859375 C 8.691406 -2.296875 9.671875 -2.015625 10.796875 -2.015625 Z M 10.796875 -2.015625 "/></g></g></g><g fill="#000000" fill-opacity="1"><g transform="translate(698.39538, 369.975001)"><g><path d="M 10.796875 0.4375 C 9.265625 0.4375 7.84375 0.078125 6.53125 -0.640625 C 5.226562 -1.367188 4.171875 -2.414062 3.359375 -3.78125 C 2.554688 -5.144531 2.15625 -6.789062 2.15625 -8.71875 C 2.15625 -10.675781 2.554688 -12.335938 3.359375 -13.703125 C 4.171875 -15.078125 5.226562 -16.125 6.53125 -16.84375 C 7.84375 -17.5625 9.265625 -17.921875 10.796875 -17.921875 C 12.335938 -17.921875 13.757812 -17.5625 15.0625 -16.84375 C 16.375 -16.125 17.429688 -15.078125 18.234375 -13.703125 C 19.035156 -12.335938 19.4375 -10.675781 19.4375 -8.71875 C 19.4375 -6.789062 19.035156 -5.144531 18.234375 -3.78125 C 17.429688 -2.414062 16.375 -1.367188 15.0625 -0.640625 C 13.757812 0.078125 12.335938 0.4375 10.796875 0.4375 Z M 10.796875 -2.015625 C 11.921875 -2.015625 12.90625 -2.296875 13.75 -2.859375 C 14.59375 -3.421875 15.238281 -4.207031 15.6875 -5.21875 C 16.144531 -6.226562 16.375 -7.394531 16.375 -8.71875 C 16.375 -10.0625 16.144531 -11.238281 15.6875 -12.25 C 15.238281 -13.269531 14.59375 -14.0625 13.75 -14.625 C 12.90625 -15.195312 11.921875 -15.484375 10.796875 -15.484375 C 9.671875 -15.484375 8.691406 -15.195312 7.859375 -14.625 C 7.035156 -14.0625 6.390625 -13.269531 5.921875 -12.25 C 5.453125 -11.238281 5.21875 -10.0625 5.21875 -8.71875 C 5.21875 -7.394531 5.453125 -6.226562 5.921875 -5.21875 C 6.390625 -4.207031 7.035156 -3.421875 7.859375 -2.859375 C 8.691406 -2.296875 9.671875 -2.015625 10.796875 -2.015625 Z M 10.796875 -2.015625 "/></g></g></g><g fill="#000000" fill-opacity="1"><g transform="translate(719.995427, 369.975001)"><g><path d="M 10.65625 8.0625 C 8.945312 8.0625 7.492188 7.867188 6.296875 7.484375 C 5.097656 7.097656 4.179688 6.546875 3.546875 5.828125 C 2.910156 5.109375 2.59375 4.234375 2.59375 3.203125 C 2.59375 2.503906 2.835938 1.8125 3.328125 1.125 C 3.816406 0.445312 4.53125 -0.15625 5.46875 -0.6875 L 5.46875 -0.828125 C 5.007812 -1.085938 4.59375 -1.445312 4.21875 -1.90625 C 3.851562 -2.363281 3.671875 -2.960938 3.671875 -3.703125 C 3.671875 -4.253906 3.847656 -4.820312 4.203125 -5.40625 C 4.566406 -6 5.085938 -6.523438 5.765625 -6.984375 L 5.765625 -7.125 C 5.160156 -7.582031 4.644531 -8.191406 4.21875 -8.953125 C 3.800781 -9.722656 3.59375 -10.625 3.59375 -11.65625 C 3.59375 -12.9375 3.910156 -14.039062 4.546875 -14.96875 C 5.191406 -15.90625 6.035156 -16.628906 7.078125 -17.140625 C 8.117188 -17.660156 9.25 -17.921875 10.46875 -17.921875 C 11.457031 -17.921875 12.320312 -17.78125 13.0625 -17.5 L 20.296875 -17.5 L 20.296875 -15.078125 L 15.765625 -15.078125 C 16.171875 -14.671875 16.519531 -14.15625 16.8125 -13.53125 C 17.101562 -12.90625 17.25 -12.25 17.25 -11.5625 C 17.25 -10.3125 16.945312 -9.234375 16.34375 -8.328125 C 15.738281 -7.429688 14.925781 -6.742188 13.90625 -6.265625 C 12.894531 -5.785156 11.75 -5.546875 10.46875 -5.546875 C 10.019531 -5.546875 9.535156 -5.597656 9.015625 -5.703125 C 8.503906 -5.816406 8.007812 -5.976562 7.53125 -6.1875 C 7.09375 -5.925781 6.753906 -5.625 6.515625 -5.28125 C 6.273438 -4.945312 6.15625 -4.578125 6.15625 -4.171875 C 6.15625 -3.503906 6.472656 -3 7.109375 -2.65625 C 7.742188 -2.320312 8.640625 -2.15625 9.796875 -2.15625 L 13.71875 -2.15625 C 15.96875 -2.15625 17.640625 -1.84375 18.734375 -1.21875 C 19.828125 -0.59375 20.375 0.457031 20.375 1.9375 C 20.375 3.019531 19.976562 4.03125 19.1875 4.96875 C 18.394531 5.90625 17.269531 6.65625 15.8125 7.21875 C 14.363281 7.78125 12.644531 8.0625 10.65625 8.0625 Z M 10.46875 -7.53125 C 11.21875 -7.53125 11.894531 -7.695312 12.5 -8.03125 C 13.113281 -8.363281 13.601562 -8.84375 13.96875 -9.46875 C 14.332031 -10.09375 14.515625 -10.820312 14.515625 -11.65625 C 14.515625 -12.476562 14.332031 -13.191406 13.96875 -13.796875 C 13.601562 -14.410156 13.113281 -14.890625 12.5 -15.234375 C 11.894531 -15.585938 11.21875 -15.765625 10.46875 -15.765625 C 9.75 -15.765625 9.082031 -15.585938 8.46875 -15.234375 C 7.863281 -14.890625 7.375 -14.410156 7 -13.796875 C 6.625 -13.191406 6.4375 -12.476562 6.4375 -11.65625 C 6.4375 -10.820312 6.625 -10.09375 7 -9.46875 C 7.375 -8.84375 7.863281 -8.363281 8.46875 -8.03125 C 9.082031 -7.695312 9.75 -7.53125 10.46875 -7.53125 Z M 10.875 5.90625 C 12.238281 5.90625 13.410156 5.734375 14.390625 5.390625 C 15.378906 5.054688 16.132812 4.625 16.65625 4.09375 C 17.1875 3.570312 17.453125 3.007812 17.453125 2.40625 C 17.453125 1.570312 17.125 1.007812 16.46875 0.71875 C 15.8125 0.425781 14.8125 0.28125 13.46875 0.28125 L 10.046875 0.28125 C 9.535156 0.28125 9.054688 0.253906 8.609375 0.203125 C 8.171875 0.160156 7.757812 0.09375 7.375 0 C 6.5625 0.457031 5.984375 0.929688 5.640625 1.421875 C 5.304688 1.910156 5.140625 2.410156 5.140625 2.921875 C 5.140625 3.828125 5.625 4.550781 6.59375 5.09375 C 7.570312 5.632812 9 5.90625 10.875 5.90625 Z M 10.875 5.90625 "/></g></g></g><g fill="#000000" fill-opacity="1"><g transform="translate(741.595473, 369.975001)"><g><path d="M 14.609375 0.4375 C 12.765625 0.4375 11.347656 -0.09375 10.359375 -1.15625 C 9.378906 -2.226562 8.890625 -3.800781 8.890625 -5.875 L 8.890625 -23.21875 L 2.921875 -23.21875 L 2.921875 -25.625 L 11.84375 -25.625 L 11.84375 -5.65625 C 11.84375 -4.382812 12.15625 -3.457031 12.78125 -2.875 C 13.40625 -2.300781 14.234375 -2.015625 15.265625 -2.015625 C 15.765625 -2.015625 16.28125 -2.078125 16.8125 -2.203125 C 17.34375 -2.335938 17.929688 -2.550781 18.578125 -2.84375 L 19.328125 -0.609375 C 18.535156 -0.328125 17.789062 -0.0820312 17.09375 0.125 C 16.40625 0.332031 15.578125 0.4375 14.609375 0.4375 Z M 14.609375 0.4375 "/></g></g></g><g fill="#000000" fill-opacity="1"><g transform="translate(763.19552, 369.975001)"><g><path d="M 11.875 0.4375 C 10.125 0.4375 8.535156 0.078125 7.109375 -0.640625 C 5.679688 -1.367188 4.546875 -2.421875 3.703125 -3.796875 C 2.867188 -5.179688 2.453125 -6.84375 2.453125 -8.78125 C 2.453125 -10.675781 2.867188 -12.304688 3.703125 -13.671875 C 4.546875 -15.046875 5.644531 -16.097656 7 -16.828125 C 8.351562 -17.554688 9.8125 -17.921875 11.375 -17.921875 C 13.050781 -17.921875 14.484375 -17.578125 15.671875 -16.890625 C 16.859375 -16.210938 17.769531 -15.257812 18.40625 -14.03125 C 19.050781 -12.8125 19.375 -11.375 19.375 -9.71875 C 19.375 -9.382812 19.359375 -9.0625 19.328125 -8.75 C 19.304688 -8.4375 19.269531 -8.160156 19.21875 -7.921875 L 4.421875 -7.921875 L 4.421875 -10.21875 L 17.453125 -10.21875 L 16.703125 -9.390625 C 16.703125 -11.453125 16.226562 -13 15.28125 -14.03125 C 14.332031 -15.070312 13.054688 -15.59375 11.453125 -15.59375 C 10.367188 -15.59375 9.363281 -15.328125 8.4375 -14.796875 C 7.519531 -14.265625 6.785156 -13.492188 6.234375 -12.484375 C 5.679688 -11.484375 5.40625 -10.25 5.40625 -8.78125 C 5.40625 -7.269531 5.703125 -6.007812 6.296875 -5 C 6.898438 -3.988281 7.71875 -3.222656 8.75 -2.703125 C 9.78125 -2.191406 10.941406 -1.9375 12.234375 -1.9375 C 13.296875 -1.9375 14.25 -2.085938 15.09375 -2.390625 C 15.945312 -2.691406 16.769531 -3.09375 17.5625 -3.59375 L 18.640625 -1.65625 C 17.785156 -1.082031 16.796875 -0.585938 15.671875 -0.171875 C 14.554688 0.234375 13.289062 0.4375 11.875 0.4375 Z M 11.875 0.4375 "/></g></g></g><g fill="#000000" fill-opacity="1"><g transform="translate(676.792941, 420.224999)"><g><path d="M 4.78125 0 L 4.78125 -23.609375 L 19.296875 -23.609375 L 19.296875 -21.09375 L 7.8125 -21.09375 L 7.8125 -13.109375 L 17.53125 -13.109375 L 17.53125 -10.578125 L 7.8125 -10.578125 L 7.8125 0 Z M 4.78125 0 "/></g></g></g><g fill="#000000" fill-opacity="1"><g transform="translate(698.392988, 420.224999)"><g><path d="M 10.796875 0.4375 C 9.265625 0.4375 7.84375 0.078125 6.53125 -0.640625 C 5.226562 -1.367188 4.171875 -2.414062 3.359375 -3.78125 C 2.554688 -5.144531 2.15625 -6.789062 2.15625 -8.71875 C 2.15625 -10.675781 2.554688 -12.335938 3.359375 -13.703125 C 4.171875 -15.078125 5.226562 -16.125 6.53125 -16.84375 C 7.84375 -17.5625 9.265625 -17.921875 10.796875 -17.921875 C 12.335938 -17.921875 13.757812 -17.5625 15.0625 -16.84375 C 16.375 -16.125 17.429688 -15.078125 18.234375 -13.703125 C 19.035156 -12.335938 19.4375 -10.675781 19.4375 -8.71875 C 19.4375 -6.789062 19.035156 -5.144531 18.234375 -3.78125 C 17.429688 -2.414062 16.375 -1.367188 15.0625 -0.640625 C 13.757812 0.078125 12.335938 0.4375 10.796875 0.4375 Z M 10.796875 -2.015625 C 11.921875 -2.015625 12.90625 -2.296875 13.75 -2.859375 C 14.59375 -3.421875 15.238281 -4.207031 15.6875 -5.21875 C 16.144531 -6.226562 16.375 -7.394531 16.375 -8.71875 C 16.375 -10.0625 16.144531 -11.238281 15.6875 -12.25 C 15.238281 -13.269531 14.59375 -14.0625 13.75 -14.625 C 12.90625 -15.195312 11.921875 -15.484375 10.796875 -15.484375 C 9.671875 -15.484375 8.691406 -15.195312 7.859375 -14.625 C 7.035156 -14.0625 6.390625 -13.269531 5.921875 -12.25 C 5.453125 -11.238281 5.21875 -10.0625 5.21875 -8.71875 C 5.21875 -7.394531 5.453125 -6.226562 5.921875 -5.21875 C 6.390625 -4.207031 7.035156 -3.421875 7.859375 -2.859375 C 8.691406 -2.296875 9.671875 -2.015625 10.796875 -2.015625 Z M 10.796875 -2.015625 "/></g></g></g><g fill="#000000" fill-opacity="1"><g transform="translate(719.993035, 420.224999)"><g><path d="M 5.25 0 L 5.25 -17.5 L 7.703125 -17.5 L 7.953125 -13.359375 L 8.0625 -13.359375 C 8.976562 -14.773438 10.109375 -15.890625 11.453125 -16.703125 C 12.796875 -17.515625 14.269531 -17.921875 15.875 -17.921875 C 16.519531 -17.921875 17.125 -17.867188 17.6875 -17.765625 C 18.257812 -17.660156 18.804688 -17.472656 19.328125 -17.203125 L 18.640625 -14.65625 C 18.046875 -14.863281 17.53125 -15.015625 17.09375 -15.109375 C 16.664062 -15.210938 16.101562 -15.265625 15.40625 -15.265625 C 14.082031 -15.265625 12.816406 -14.882812 11.609375 -14.125 C 10.398438 -13.375 9.265625 -12.085938 8.203125 -10.265625 L 8.203125 0 Z M 5.25 0 "/></g></g></g><g fill="#000000" fill-opacity="1"><g transform="translate(741.593082, 420.224999)"><g><path d="M 2.09375 0 L 2.09375 -17.5 L 4.46875 -17.5 L 4.71875 -15.1875 L 4.78125 -15.1875 C 5.238281 -16.007812 5.765625 -16.671875 6.359375 -17.171875 C 6.960938 -17.671875 7.769531 -17.921875 8.78125 -17.921875 C 9.644531 -17.921875 10.351562 -17.671875 10.90625 -17.171875 C 11.457031 -16.671875 11.851562 -15.914062 12.09375 -14.90625 C 12.601562 -15.84375 13.160156 -16.578125 13.765625 -17.109375 C 14.378906 -17.648438 15.191406 -17.921875 16.203125 -17.921875 C 17.421875 -17.921875 18.375 -17.457031 19.0625 -16.53125 C 19.75 -15.613281 20.09375 -14.28125 20.09375 -12.53125 L 20.09375 0 L 17.140625 0 L 17.140625 -12.3125 C 17.140625 -14.351562 16.515625 -15.375 15.265625 -15.375 C 14.660156 -15.375 14.160156 -15.148438 13.765625 -14.703125 C 13.367188 -14.265625 12.929688 -13.585938 12.453125 -12.671875 L 12.453125 0 L 9.71875 0 L 9.71875 -12.3125 C 9.71875 -13.320312 9.578125 -14.082031 9.296875 -14.59375 C 9.023438 -15.113281 8.566406 -15.375 7.921875 -15.375 C 7.316406 -15.375 6.789062 -15.148438 6.34375 -14.703125 C 5.90625 -14.265625 5.472656 -13.585938 5.046875 -12.671875 L 5.046875 0 Z M 2.09375 0 "/></g></g></g><path stroke-linecap="round" transform="matrix(0.75, -0.000000000000000093, 0.000000000000000093, 0.75, 841.499964, 379.725001)" fill="none" stroke-linejoin="miter" d="M 5.000048 5.002082 L 358.500066 5.002082 " stroke="#000000" stroke-width="10" stroke-opacity="1" stroke-miterlimit="4"/><path stroke-linecap="round" transform="matrix(0.75, -0.000000000000000093, 0.000000000000000093, 0.75, 841.499964, 379.725001)" fill="none" stroke-linejoin="round" d="M 341.000065 -9.997918 L 361.000066 5.002082 L 341.000065 20.002083 " stroke="#000000" stroke-width="10" stroke-opacity="1" stroke-miterlimit="4"/><path stroke-linecap="round" transform="matrix(0.75, 0, 0, 0.75, 323.99999, 379.725001)" fill="none" stroke-linejoin="miter" d="M 5.000014 5.002082 L 358.500031 5.002082 " stroke="#000000" stroke-width="10" stroke-opacity="1" stroke-miterlimit="4"/><path stroke-linecap="round" transform="matrix(0.75, 0, 0, 0.75, 323.99999, 379.725001)" fill="none" stroke-linejoin="round" d="M 341.000031 -9.997918 L 361.000032 5.002082 L 341.000031 20.002083 " stroke="#000000" stroke-width="10" stroke-opacity="1" stroke-miterlimit="4"/></svg>