<svg xmlns="http://www.w3.org/2000/svg" xmlns:xlink="http://www.w3.org/1999/xlink" width="1920" zoomAndPan="magnify" viewBox="0 0 1440 809.999993" height="1080" preserveAspectRatio="xMidYMid meet" version="1.0"><defs><clipPath id="395f2bd88a"><path d="M 413.082031 81 L 1026.582031 81 L 1026.582031 729 L 413.082031 729 Z M 413.082031 81 " clip-rule="nonzero"/></clipPath><clipPath id="f8d9a43117"><path d="M 0.410156 45 L 549 45 L 549 606 L 0.410156 606 Z M 0.410156 45 " clip-rule="nonzero"/></clipPath><clipPath id="6c7e9cd26f"><rect x="0" width="614" y="0" height="648"/></clipPath></defs><g clip-path="url(#395f2bd88a)"><g transform="matrix(1, 0, 0, 1, 413, 81)"><g clip-path="url(#6c7e9cd26f)"><path fill="#5c913b" d="M 601.710938 303.105469 C 584.132812 303.105469 498.4375 326.742188 487.449219 343.769531 L 509.96875 341.589844 C 509.96875 341.589844 578.632812 319.601562 596.210938 319.601562 C 613.804688 319.601562 601.710938 303.105469 601.710938 303.105469 Z M 601.710938 303.105469 " fill-opacity="1" fill-rule="nonzero"/><path fill="#99aab5" d="M 422.304688 54.902344 C 404.722656 72.488281 369.566406 178.019531 369.566406 230.78125 C 369.566406 283.546875 404.722656 336.3125 334.410156 371.488281 C 264.09375 406.664062 246.496094 353.898438 246.496094 283.546875 C 246.496094 213.195312 264.09375 142.839844 281.671875 107.664062 C 299.25 72.488281 316.832031 107.664062 316.832031 107.664062 C 316.832031 107.664062 334.410156 37.3125 351.988281 37.3125 C 369.566406 37.3125 369.566406 72.488281 369.566406 72.488281 C 369.566406 72.488281 404.722656 37.3125 422.304688 37.3125 C 439.882812 37.3125 422.304688 54.902344 422.304688 54.902344 Z M 422.304688 54.902344 " fill-opacity="1" fill-rule="nonzero"/><g clip-path="url(#f8d9a43117)"><path fill="#ccd6dd" d="M 439.882812 283.546875 C 387.144531 283.546875 369.566406 353.898438 334.410156 353.898438 C 299.25 353.898438 316.832031 301.136719 281.671875 301.136719 C 246.515625 301.136719 105.882812 213.195312 105.882812 107.664062 C 105.882812 2.136719 53.148438 54.902344 53.148438 90.078125 C 35.570312 90.078125 17.992188 117.972656 17.992188 142.839844 C 17.992188 160.429688 17.992188 178.019531 35.570312 195.605469 C 17.992188 195.605469 0.410156 230.78125 17.992188 248.371094 C 0.410156 301.136719 35.570312 353.898438 70.726562 371.488281 C 70.726562 389.078125 105.882812 424.253906 141.042969 406.664062 C 141.042969 406.664062 158.621094 459.429688 193.777344 441.839844 C 193.777344 441.839844 140.128906 471.460938 123.464844 477.015625 C 70.726562 494.605469 0.410156 494.605469 0.410156 494.605469 C 0.410156 494.605469 0.410156 512.195312 35.570312 529.78125 C 35.570312 529.78125 17.992188 547.371094 35.570312 564.957031 C 53.148438 582.546875 70.726562 582.546875 70.726562 582.546875 C 70.726562 582.546875 53.148438 617.722656 105.882812 600.132812 C 158.621094 582.546875 211.355469 529.78125 211.355469 529.78125 C 211.355469 529.78125 299.25 547.371094 369.566406 512.195312 C 439.882812 477.015625 475.039062 406.664062 475.039062 371.488281 C 475.039062 336.3125 527.777344 353.898438 545.355469 353.898438 C 562.933594 353.898438 510.195312 318.722656 492.617188 318.722656 C 492.617188 318.722656 492.617188 283.546875 439.882812 283.546875 Z M 439.882812 283.546875 " fill-opacity="1" fill-rule="nonzero"/></g><path fill="#5c913b" d="M 493.496094 336.644531 C 493.496094 336.644531 397.902344 382.816406 353.957031 453.714844 C 320.558594 507.601562 305.050781 605.957031 305.050781 605.957031 C 305.050781 605.957031 304.296875 615.875 320.996094 565.835938 C 338.574219 513.074219 359.96875 455.242188 396.796875 421.824219 C 455.578125 368.515625 480.296875 360.265625 503.359375 347.074219 C 509.195312 343.75 499.542969 334.992188 493.496094 336.644531 Z M 493.496094 336.644531 " fill-opacity="1" fill-rule="nonzero"/><path fill="#5c913b" d="M 330.929688 521.691406 C 330.929688 521.691406 295.101562 523.503906 276.3125 559.3125 C 257.535156 595.121094 277.242188 645.742188 277.242188 645.742188 C 277.242188 645.742188 325.585938 623.4375 338.101562 593.910156 C 350.617188 564.359375 330.929688 521.691406 330.929688 521.691406 Z M 368.425781 437.65625 C 368.425781 437.65625 346.027344 462.929688 305.878906 467.644531 C 265.730469 472.375 233.4375 443.390625 233.4375 443.390625 C 233.4375 443.390625 271.125 408.738281 303.1875 407.632812 C 335.234375 406.488281 368.425781 437.65625 368.425781 437.65625 Z M 439.566406 382.289062 C 439.566406 382.289062 474.988281 388.074219 489.664062 425.765625 C 504.34375 463.457031 482.195312 496.292969 482.195312 496.292969 C 482.195312 496.292969 437.648438 481.378906 428.492188 450.617188 C 419.332031 419.890625 439.566406 382.289062 439.566406 382.289062 Z M 439.566406 382.289062 " fill-opacity="1" fill-rule="nonzero"/></g></g></g></svg>