<svg xmlns="http://www.w3.org/2000/svg" xmlns:xlink="http://www.w3.org/1999/xlink" width="1920" zoomAndPan="magnify" viewBox="0 0 1440 809.999993" height="1080" preserveAspectRatio="xMidYMid meet" version="1.0"><path fill="#000000" d="M 598.5 298.566406 L 598.5 334.125 C 598.5 350.890625 612.109375 364.5 628.875 364.5 L 811.125 364.5 C 812.121094 364.5 813.113281 364.453125 814.101562 364.355469 C 815.09375 364.257812 816.074219 364.109375 817.050781 363.917969 C 818.027344 363.722656 818.992188 363.480469 819.941406 363.191406 C 820.894531 362.902344 821.828125 362.570312 822.75 362.1875 C 823.667969 361.808594 824.566406 361.382812 825.445312 360.914062 C 826.320312 360.445312 827.171875 359.933594 828 359.378906 C 828.828125 358.828125 829.625 358.234375 830.394531 357.605469 C 831.164062 356.972656 831.898438 356.308594 832.601562 355.601562 C 833.308594 354.898438 833.972656 354.164062 834.605469 353.394531 C 835.234375 352.625 835.828125 351.828125 836.378906 351 C 836.933594 350.171875 837.445312 349.320312 837.914062 348.445312 C 838.382812 347.566406 838.808594 346.667969 839.1875 345.75 C 839.570312 344.828125 839.902344 343.894531 840.191406 342.941406 C 840.480469 341.992188 840.722656 341.027344 840.917969 340.050781 C 841.109375 339.074219 841.257812 338.09375 841.355469 337.101562 C 841.453125 336.113281 841.5 335.121094 841.5 334.125 L 841.5 298.566406 C 839.828125 297.976562 838.175781 297.335938 836.539062 296.648438 C 834.90625 295.960938 833.292969 295.226562 831.699219 294.441406 C 830.109375 293.660156 828.539062 292.832031 826.996094 291.960938 C 825.453125 291.085938 823.9375 290.167969 822.445312 289.207031 C 820.957031 288.246094 819.496094 287.242188 818.066406 286.195312 C 816.632812 285.144531 815.234375 284.058594 813.867188 282.929688 C 812.5 281.800781 811.164062 280.632812 809.867188 279.425781 C 808.566406 278.21875 807.304688 276.976562 806.074219 275.695312 C 804.847656 274.414062 803.660156 273.097656 802.511719 271.75 C 801.359375 270.398438 800.25 269.015625 799.179688 267.601562 C 798.113281 266.1875 797.085938 264.742188 796.097656 263.265625 C 795.113281 261.792969 794.171875 260.289062 793.277344 258.761719 C 792.378906 257.230469 791.527344 255.675781 790.71875 254.097656 C 789.914062 252.515625 789.152344 250.914062 788.441406 249.292969 C 787.726562 247.667969 787.0625 246.023438 786.445312 244.363281 C 785.828125 242.699219 785.257812 241.019531 784.742188 239.324219 C 784.222656 237.628906 783.753906 235.917969 783.332031 234.195312 C 782.914062 232.472656 782.546875 230.738281 782.226562 228.992188 C 781.910156 227.25 781.640625 225.496094 781.425781 223.734375 C 781.210938 221.976562 781.046875 220.210938 780.933594 218.441406 C 780.820312 216.671875 780.761719 214.898438 780.75 213.125 C 780.742188 211.351562 780.785156 209.578125 780.878906 207.808594 C 780.972656 206.039062 781.117188 204.269531 781.316406 202.507812 C 781.515625 200.746094 781.761719 198.992188 782.0625 197.242188 C 782.363281 195.496094 782.710938 193.757812 783.113281 192.03125 C 783.515625 190.300781 783.96875 188.589844 784.46875 186.886719 C 784.96875 185.1875 785.519531 183.5 786.121094 181.832031 C 786.71875 180.164062 787.367188 178.511719 788.0625 176.882812 C 788.761719 175.25 789.503906 173.640625 790.292969 172.054688 C 791.082031 170.464844 791.917969 168.902344 792.800781 167.363281 C 793.683594 165.824219 794.609375 164.3125 795.578125 162.828125 C 796.546875 161.34375 797.558594 159.886719 798.613281 158.460938 C 799.667969 157.035156 800.765625 155.640625 801.902344 154.28125 C 803.035156 152.917969 804.210938 151.589844 805.425781 150.296875 C 806.636719 149.003906 807.890625 147.746094 809.175781 146.527344 C 810.460938 145.308594 811.785156 144.125 813.140625 142.980469 C 814.496094 141.839844 815.882812 140.738281 817.304688 139.675781 C 818.726562 138.613281 820.175781 137.59375 821.65625 136.613281 C 823.132812 135.636719 824.640625 134.703125 826.175781 133.816406 C 827.710938 132.925781 829.269531 132.082031 830.851562 131.285156 C 832.4375 130.484375 834.042969 129.734375 835.667969 129.027344 C 837.296875 128.324219 838.945312 127.667969 840.609375 127.058594 C 842.277344 126.449219 843.957031 125.890625 845.65625 125.382812 C 847.355469 124.871094 849.066406 124.410156 850.792969 124 C 852.515625 123.589844 854.253906 123.230469 856 122.921875 C 857.746094 122.613281 859.5 122.355469 861.261719 122.148438 C 863.023438 121.941406 864.789062 121.785156 866.558594 121.683594 C 868.328125 121.578125 870.101562 121.527344 871.875 121.527344 C 873.648438 121.527344 875.421875 121.578125 877.191406 121.683594 C 878.960938 121.785156 880.726562 121.941406 882.488281 122.148438 C 884.25 122.355469 886.003906 122.613281 887.75 122.921875 C 889.496094 123.230469 891.234375 123.589844 892.957031 124 C 894.683594 124.410156 896.394531 124.871094 898.09375 125.382812 C 899.792969 125.890625 901.472656 126.449219 903.140625 127.058594 C 904.804688 127.667969 906.453125 128.324219 908.082031 129.027344 C 909.707031 129.734375 911.3125 130.484375 912.898438 131.285156 C 914.480469 132.082031 916.039062 132.925781 917.574219 133.816406 C 919.109375 134.703125 920.617188 135.636719 922.09375 136.613281 C 923.574219 137.59375 925.023438 138.613281 926.445312 139.675781 C 927.867188 140.738281 929.253906 141.839844 930.609375 142.980469 C 931.964844 144.125 933.289062 145.308594 934.574219 146.527344 C 935.859375 147.746094 937.113281 149.003906 938.324219 150.296875 C 939.539062 151.589844 940.714844 152.917969 941.847656 154.28125 C 942.984375 155.640625 944.082031 157.035156 945.136719 158.460938 C 946.191406 159.886719 947.203125 161.34375 948.171875 162.828125 C 949.140625 164.3125 950.066406 165.824219 950.949219 167.363281 C 951.832031 168.902344 952.664062 170.464844 953.457031 172.054688 C 954.246094 173.640625 954.988281 175.25 955.6875 176.882812 C 956.382812 178.511719 957.03125 180.164062 957.628906 181.832031 C 958.230469 183.5 958.78125 185.1875 959.28125 186.886719 C 959.78125 188.589844 960.234375 190.300781 960.636719 192.03125 C 961.035156 193.757812 961.386719 195.496094 961.6875 197.242188 C 961.988281 198.992188 962.234375 200.746094 962.433594 202.507812 C 962.632812 204.269531 962.777344 206.039062 962.871094 207.808594 C 962.964844 209.578125 963.007812 211.351562 963 213.125 C 962.988281 214.898438 962.929688 216.671875 962.816406 218.441406 C 962.703125 220.210938 962.539062 221.976562 962.324219 223.734375 C 962.109375 225.496094 961.839844 227.25 961.523438 228.992188 C 961.203125 230.738281 960.835938 232.472656 960.417969 234.195312 C 959.996094 235.917969 959.527344 237.628906 959.007812 239.324219 C 958.488281 241.019531 957.921875 242.699219 957.304688 244.363281 C 956.6875 246.023438 956.023438 247.667969 955.308594 249.292969 C 954.597656 250.914062 953.835938 252.515625 953.03125 254.097656 C 952.222656 255.675781 951.371094 257.230469 950.472656 258.761719 C 949.578125 260.289062 948.636719 261.792969 947.652344 263.265625 C 946.664062 264.742188 945.636719 266.1875 944.570312 267.601562 C 943.5 269.015625 942.390625 270.398438 941.238281 271.75 C 940.089844 273.097656 938.902344 274.414062 937.675781 275.695312 C 936.445312 276.976562 935.183594 278.21875 933.882812 279.425781 C 932.585938 280.632812 931.25 281.800781 929.882812 282.929688 C 928.515625 284.058594 927.117188 285.144531 925.683594 286.195312 C 924.253906 287.242188 922.792969 288.246094 921.304688 289.207031 C 919.8125 290.167969 918.296875 291.085938 916.753906 291.960938 C 915.210938 292.832031 913.640625 293.660156 912.050781 294.441406 C 910.457031 295.226562 908.84375 295.960938 907.210938 296.648438 C 905.574219 297.335938 903.921875 297.976562 902.25 298.566406 L 902.25 334.125 C 902.25 335.617188 902.214844 337.105469 902.140625 338.597656 C 902.066406 340.085938 901.957031 341.574219 901.8125 343.058594 C 901.664062 344.539062 901.484375 346.019531 901.261719 347.496094 C 901.042969 348.972656 900.789062 350.441406 900.5 351.902344 C 900.207031 353.367188 899.882812 354.820312 899.519531 356.265625 C 899.15625 357.714844 898.757812 359.148438 898.324219 360.578125 C 897.894531 362.003906 897.425781 363.417969 896.921875 364.824219 C 896.421875 366.226562 895.882812 367.621094 895.3125 368.996094 C 894.742188 370.375 894.136719 371.738281 893.5 373.085938 C 892.863281 374.433594 892.191406 375.765625 891.488281 377.082031 C 890.785156 378.394531 890.050781 379.695312 889.285156 380.972656 C 888.519531 382.25 887.722656 383.511719 886.894531 384.75 C 886.0625 385.992188 885.207031 387.210938 884.316406 388.40625 C 883.429688 389.605469 882.511719 390.78125 881.566406 391.933594 C 880.621094 393.085938 879.644531 394.214844 878.644531 395.320312 C 877.644531 396.425781 876.613281 397.503906 875.558594 398.558594 C 874.503906 399.613281 873.425781 400.644531 872.320312 401.644531 C 871.214844 402.644531 870.085938 403.621094 868.933594 404.566406 C 867.78125 405.511719 866.605469 406.429688 865.40625 407.316406 C 864.210938 408.207031 862.992188 409.0625 861.75 409.894531 C 860.511719 410.722656 859.25 411.519531 857.972656 412.285156 C 856.695312 413.050781 855.394531 413.785156 854.082031 414.488281 C 852.765625 415.191406 851.433594 415.863281 850.085938 416.5 C 848.738281 417.136719 847.375 417.742188 845.996094 418.3125 C 844.621094 418.882812 843.226562 419.421875 841.824219 419.921875 C 840.417969 420.425781 839.003906 420.894531 837.578125 421.324219 C 836.148438 421.757812 834.714844 422.15625 833.265625 422.519531 C 831.820312 422.882812 830.363281 423.207031 828.902344 423.5 C 827.441406 423.789062 825.972656 424.042969 824.496094 424.261719 C 823.019531 424.484375 821.539062 424.664062 820.058594 424.8125 C 818.574219 424.957031 817.085938 425.066406 815.597656 425.140625 C 814.105469 425.214844 812.617188 425.25 811.125 425.25 L 750.375 425.25 L 750.375 511.433594 C 752.046875 512.023438 753.703125 512.664062 755.339844 513.351562 C 756.972656 514.039062 758.585938 514.773438 760.179688 515.558594 C 761.773438 516.339844 763.34375 517.167969 764.886719 518.039062 C 766.429688 518.914062 767.949219 519.832031 769.4375 520.792969 C 770.929688 521.757812 772.390625 522.761719 773.824219 523.808594 C 775.253906 524.855469 776.65625 525.945312 778.023438 527.074219 C 779.394531 528.203125 780.726562 529.371094 782.027344 530.578125 C 783.328125 531.785156 784.59375 533.03125 785.820312 534.3125 C 787.046875 535.59375 788.238281 536.910156 789.386719 538.257812 C 790.539062 539.609375 791.648438 540.992188 792.71875 542.410156 C 793.789062 543.824219 794.816406 545.269531 795.804688 546.746094 C 796.789062 548.21875 797.730469 549.722656 798.628906 551.253906 C 799.527344 552.785156 800.378906 554.339844 801.1875 555.917969 C 801.992188 557.5 802.753906 559.101562 803.46875 560.726562 C 804.179688 562.351562 804.847656 563.996094 805.464844 565.65625 C 806.082031 567.320312 806.652344 569 807.171875 570.699219 C 807.691406 572.394531 808.160156 574.105469 808.578125 575.828125 C 809 577.554688 809.367188 579.289062 809.6875 581.035156 C 810.003906 582.777344 810.273438 584.53125 810.488281 586.292969 C 810.703125 588.054688 810.867188 589.820312 810.980469 591.589844 C 811.09375 593.363281 811.15625 595.136719 811.164062 596.910156 C 811.171875 598.683594 811.132812 600.457031 811.035156 602.226562 C 810.941406 604 810.796875 605.769531 810.601562 607.53125 C 810.402344 609.292969 810.152344 611.050781 809.855469 612.800781 C 809.554688 614.546875 809.203125 616.285156 808.800781 618.015625 C 808.398438 619.742188 807.949219 621.460938 807.445312 623.160156 C 806.945312 624.863281 806.394531 626.550781 805.792969 628.21875 C 805.195312 629.886719 804.546875 631.539062 803.851562 633.171875 C 803.152344 634.804688 802.410156 636.414062 801.621094 638.003906 C 800.828125 639.589844 799.992188 641.15625 799.113281 642.695312 C 798.230469 644.234375 797.304688 645.746094 796.332031 647.234375 C 795.363281 648.71875 794.351562 650.175781 793.296875 651.601562 C 792.242188 653.027344 791.144531 654.421875 790.007812 655.785156 C 788.871094 657.148438 787.695312 658.476562 786.480469 659.769531 C 785.269531 661.0625 784.015625 662.320312 782.730469 663.542969 C 781.441406 664.761719 780.121094 665.945312 778.765625 667.089844 C 777.40625 668.234375 776.019531 669.335938 774.597656 670.398438 C 773.175781 671.460938 771.726562 672.480469 770.246094 673.460938 C 768.765625 674.4375 767.257812 675.371094 765.722656 676.261719 C 764.1875 677.152344 762.625 677.996094 761.042969 678.792969 C 759.457031 679.59375 757.851562 680.34375 756.222656 681.050781 C 754.59375 681.753906 752.949219 682.414062 751.28125 683.019531 C 749.613281 683.628906 747.929688 684.191406 746.230469 684.699219 C 744.53125 685.210938 742.820312 685.671875 741.09375 686.082031 C 739.367188 686.492188 737.628906 686.851562 735.882812 687.160156 C 734.136719 687.472656 732.382812 687.730469 730.617188 687.933594 C 728.855469 688.140625 727.089844 688.296875 725.320312 688.402344 C 723.546875 688.503906 721.773438 688.554688 720 688.554688 C 718.226562 688.554688 716.453125 688.503906 714.679688 688.402344 C 712.910156 688.296875 711.144531 688.140625 709.382812 687.933594 C 707.617188 687.730469 705.863281 687.472656 704.117188 687.160156 C 702.371094 686.851562 700.632812 686.492188 698.90625 686.082031 C 697.179688 685.671875 695.46875 685.210938 693.769531 684.699219 C 692.070312 684.191406 690.386719 683.628906 688.71875 683.019531 C 687.050781 682.414062 685.40625 681.753906 683.777344 681.050781 C 682.148438 680.34375 680.542969 679.59375 678.957031 678.792969 C 677.375 677.996094 675.8125 677.152344 674.277344 676.261719 C 672.742188 675.371094 671.234375 674.4375 669.753906 673.460938 C 668.273438 672.480469 666.824219 671.460938 665.402344 670.398438 C 663.980469 669.335938 662.59375 668.234375 661.234375 667.089844 C 659.878906 665.945312 658.558594 664.761719 657.269531 663.542969 C 655.984375 662.320312 654.730469 661.0625 653.515625 659.769531 C 652.304688 658.476562 651.128906 657.148438 649.992188 655.785156 C 648.855469 654.421875 647.757812 653.027344 646.703125 651.601562 C 645.648438 650.175781 644.636719 648.71875 643.667969 647.234375 C 642.695312 645.746094 641.769531 644.234375 640.886719 642.695312 C 640.007812 641.15625 639.171875 639.589844 638.378906 638.003906 C 637.589844 636.414062 636.847656 634.804688 636.148438 633.171875 C 635.453125 631.539062 634.804688 629.886719 634.207031 628.21875 C 633.605469 626.550781 633.054688 624.863281 632.550781 623.160156 C 632.050781 621.460938 631.601562 619.742188 631.199219 618.015625 C 630.796875 616.289062 630.445312 614.546875 630.144531 612.800781 C 629.847656 611.050781 629.597656 609.292969 629.398438 607.53125 C 629.203125 605.769531 629.058594 604 628.964844 602.226562 C 628.867188 600.457031 628.828125 598.683594 628.835938 596.910156 C 628.84375 595.132812 628.90625 593.363281 629.019531 591.589844 C 629.132812 589.820312 629.296875 588.054688 629.511719 586.292969 C 629.726562 584.53125 629.996094 582.777344 630.3125 581.035156 C 630.632812 579.289062 631 577.554688 631.421875 575.828125 C 631.839844 574.105469 632.308594 572.394531 632.828125 570.699219 C 633.347656 569 633.917969 567.320312 634.535156 565.65625 C 635.152344 563.996094 635.820312 562.351562 636.53125 560.726562 C 637.246094 559.101562 638.007812 557.5 638.8125 555.917969 C 639.621094 554.339844 640.472656 552.785156 641.371094 551.253906 C 642.269531 549.722656 643.210938 548.21875 644.195312 546.746094 C 645.183594 545.269531 646.210938 543.824219 647.28125 542.410156 C 648.351562 540.992188 649.460938 539.609375 650.613281 538.257812 C 651.761719 536.910156 652.953125 535.59375 654.179688 534.3125 C 655.40625 533.03125 656.671875 531.785156 657.972656 530.578125 C 659.273438 529.371094 660.605469 528.203125 661.976562 527.074219 C 663.34375 525.945312 664.746094 524.855469 666.175781 523.808594 C 667.609375 522.761719 669.070312 521.757812 670.5625 520.792969 C 672.050781 519.832031 673.570312 518.914062 675.113281 518.039062 C 676.65625 517.167969 678.226562 516.339844 679.820312 515.558594 C 681.414062 514.773438 683.027344 514.039062 684.660156 513.351562 C 686.296875 512.664062 687.953125 512.023438 689.625 511.433594 L 689.625 425.25 L 628.875 425.25 C 627.382812 425.25 625.894531 425.214844 624.402344 425.140625 C 622.914062 425.066406 621.425781 424.957031 619.941406 424.8125 C 618.460938 424.664062 616.980469 424.484375 615.503906 424.265625 C 614.027344 424.042969 612.558594 423.789062 611.097656 423.5 C 609.632812 423.207031 608.179688 422.882812 606.734375 422.519531 C 605.285156 422.15625 603.851562 421.757812 602.421875 421.324219 C 600.996094 420.894531 599.578125 420.425781 598.175781 419.921875 C 596.773438 419.421875 595.378906 418.882812 594.003906 418.3125 C 592.625 417.742188 591.261719 417.136719 589.914062 416.5 C 588.566406 415.863281 587.234375 415.191406 585.917969 414.488281 C 584.605469 413.785156 583.304688 413.050781 582.027344 412.285156 C 580.75 411.519531 579.488281 410.722656 578.25 409.894531 C 577.007812 409.0625 575.789062 408.207031 574.59375 407.316406 C 573.394531 406.429688 572.21875 405.511719 571.066406 404.566406 C 569.914062 403.621094 568.785156 402.644531 567.679688 401.644531 C 566.574219 400.644531 565.496094 399.613281 564.441406 398.558594 C 563.386719 397.503906 562.355469 396.425781 561.355469 395.320312 C 560.355469 394.214844 559.378906 393.085938 558.433594 391.933594 C 557.488281 390.78125 556.570312 389.605469 555.683594 388.40625 C 554.792969 387.210938 553.9375 385.992188 553.105469 384.75 C 552.277344 383.511719 551.480469 382.25 550.714844 380.972656 C 549.949219 379.695312 549.210938 378.394531 548.511719 377.082031 C 547.808594 375.765625 547.136719 374.433594 546.5 373.085938 C 545.859375 371.738281 545.257812 370.375 544.6875 368.996094 C 544.117188 367.621094 543.578125 366.226562 543.078125 364.824219 C 542.574219 363.421875 542.105469 362.003906 541.671875 360.578125 C 541.242188 359.148438 540.84375 357.714844 540.480469 356.265625 C 540.117188 354.820312 539.792969 353.367188 539.5 351.902344 C 539.210938 350.441406 538.953125 348.972656 538.734375 347.496094 C 538.515625 346.019531 538.335938 344.539062 538.1875 343.058594 C 538.042969 341.574219 537.933594 340.085938 537.859375 338.597656 C 537.785156 337.105469 537.75 335.617188 537.75 334.125 L 537.75 298.566406 C 536.078125 297.976562 534.425781 297.335938 532.789062 296.648438 C 531.15625 295.960938 529.542969 295.226562 527.949219 294.441406 C 526.359375 293.660156 524.789062 292.832031 523.246094 291.960938 C 521.703125 291.085938 520.1875 290.167969 518.695312 289.207031 C 517.207031 288.246094 515.746094 287.242188 514.316406 286.195312 C 512.882812 285.144531 511.484375 284.058594 510.117188 282.929688 C 508.75 281.800781 507.414062 280.632812 506.117188 279.425781 C 504.816406 278.21875 503.554688 276.976562 502.324219 275.695312 C 501.097656 274.414062 499.910156 273.097656 498.761719 271.75 C 497.609375 270.398438 496.5 269.015625 495.429688 267.601562 C 494.363281 266.1875 493.335938 264.742188 492.347656 263.265625 C 491.363281 261.792969 490.421875 260.289062 489.527344 258.761719 C 488.628906 257.230469 487.777344 255.675781 486.96875 254.097656 C 486.164062 252.515625 485.402344 250.914062 484.691406 249.292969 C 483.976562 247.667969 483.3125 246.023438 482.695312 244.363281 C 482.078125 242.699219 481.507812 241.019531 480.992188 239.324219 C 480.472656 237.628906 480.003906 235.917969 479.582031 234.195312 C 479.164062 232.472656 478.796875 230.738281 478.476562 228.992188 C 478.160156 227.25 477.890625 225.496094 477.675781 223.734375 C 477.460938 221.976562 477.296875 220.210938 477.183594 218.441406 C 477.070312 216.671875 477.011719 214.898438 477 213.125 C 476.992188 211.351562 477.035156 209.578125 477.128906 207.808594 C 477.222656 206.039062 477.367188 204.269531 477.566406 202.507812 C 477.765625 200.746094 478.011719 198.992188 478.3125 197.242188 C 478.613281 195.496094 478.960938 193.757812 479.363281 192.03125 C 479.765625 190.300781 480.21875 188.589844 480.71875 186.886719 C 481.21875 185.1875 481.769531 183.5 482.371094 181.832031 C 482.96875 180.164062 483.617188 178.511719 484.3125 176.882812 C 485.011719 175.25 485.753906 173.640625 486.542969 172.054688 C 487.335938 170.464844 488.167969 168.902344 489.050781 167.363281 C 489.933594 165.824219 490.859375 164.3125 491.828125 162.828125 C 492.796875 161.34375 493.808594 159.886719 494.863281 158.460938 C 495.917969 157.035156 497.015625 155.640625 498.152344 154.28125 C 499.285156 152.917969 500.460938 151.589844 501.675781 150.296875 C 502.886719 149.003906 504.140625 147.746094 505.425781 146.527344 C 506.710938 145.308594 508.035156 144.125 509.390625 142.980469 C 510.746094 141.839844 512.132812 140.738281 513.554688 139.675781 C 514.976562 138.613281 516.425781 137.59375 517.90625 136.613281 C 519.382812 135.636719 520.890625 134.703125 522.425781 133.816406 C 523.960938 132.925781 525.519531 132.082031 527.101562 131.285156 C 528.6875 130.484375 530.292969 129.734375 531.917969 129.027344 C 533.546875 128.324219 535.195312 127.667969 536.859375 127.058594 C 538.527344 126.449219 540.207031 125.890625 541.90625 125.382812 C 543.605469 124.871094 545.316406 124.410156 547.042969 124 C 548.765625 123.589844 550.503906 123.230469 552.25 122.921875 C 553.996094 122.613281 555.75 122.355469 557.511719 122.148438 C 559.273438 121.941406 561.039062 121.785156 562.808594 121.683594 C 564.578125 121.578125 566.351562 121.527344 568.125 121.527344 C 569.898438 121.527344 571.671875 121.578125 573.441406 121.683594 C 575.210938 121.785156 576.976562 121.941406 578.738281 122.148438 C 580.5 122.355469 582.253906 122.613281 584 122.921875 C 585.746094 123.230469 587.484375 123.589844 589.207031 124 C 590.933594 124.410156 592.644531 124.871094 594.34375 125.382812 C 596.042969 125.890625 597.722656 126.449219 599.390625 127.058594 C 601.054688 127.667969 602.703125 128.324219 604.332031 129.027344 C 605.957031 129.734375 607.5625 130.484375 609.148438 131.285156 C 610.730469 132.082031 612.289062 132.925781 613.824219 133.816406 C 615.359375 134.703125 616.867188 135.636719 618.34375 136.613281 C 619.824219 137.59375 621.273438 138.613281 622.695312 139.675781 C 624.117188 140.738281 625.503906 141.839844 626.859375 142.980469 C 628.214844 144.125 629.539062 145.308594 630.824219 146.527344 C 632.109375 147.746094 633.363281 149.003906 634.574219 150.296875 C 635.789062 151.589844 636.964844 152.917969 638.097656 154.28125 C 639.234375 155.640625 640.332031 157.035156 641.386719 158.460938 C 642.441406 159.886719 643.453125 161.34375 644.421875 162.828125 C 645.390625 164.3125 646.316406 165.824219 647.199219 167.363281 C 648.082031 168.902344 648.914062 170.464844 649.707031 172.054688 C 650.496094 173.640625 651.238281 175.25 651.9375 176.882812 C 652.632812 178.511719 653.28125 180.164062 653.878906 181.832031 C 654.480469 183.5 655.03125 185.1875 655.53125 186.886719 C 656.03125 188.589844 656.484375 190.300781 656.886719 192.03125 C 657.285156 193.757812 657.636719 195.496094 657.9375 197.242188 C 658.238281 198.992188 658.484375 200.746094 658.683594 202.507812 C 658.882812 204.269531 659.027344 206.039062 659.121094 207.808594 C 659.214844 209.578125 659.257812 211.351562 659.25 213.125 C 659.238281 214.898438 659.179688 216.671875 659.066406 218.441406 C 658.953125 220.210938 658.789062 221.976562 658.574219 223.734375 C 658.359375 225.496094 658.089844 227.25 657.773438 228.992188 C 657.453125 230.738281 657.085938 232.472656 656.667969 234.195312 C 656.246094 235.917969 655.777344 237.628906 655.257812 239.324219 C 654.742188 241.019531 654.171875 242.699219 653.554688 244.363281 C 652.9375 246.023438 652.273438 247.667969 651.558594 249.292969 C 650.847656 250.914062 650.085938 252.515625 649.28125 254.097656 C 648.472656 255.675781 647.621094 257.230469 646.722656 258.761719 C 645.828125 260.289062 644.886719 261.792969 643.902344 263.265625 C 642.914062 264.742188 641.886719 266.1875 640.820312 267.601562 C 639.75 269.015625 638.640625 270.398438 637.488281 271.75 C 636.339844 273.097656 635.152344 274.414062 633.925781 275.695312 C 632.695312 276.976562 631.433594 278.21875 630.132812 279.425781 C 628.835938 280.632812 627.5 281.800781 626.132812 282.929688 C 624.765625 284.058594 623.367188 285.144531 621.933594 286.195312 C 620.503906 287.242188 619.042969 288.246094 617.554688 289.207031 C 616.0625 290.167969 614.546875 291.085938 613.003906 291.960938 C 611.460938 292.832031 609.890625 293.660156 608.300781 294.441406 C 606.707031 295.226562 605.09375 295.960938 603.460938 296.648438 C 601.824219 297.335938 600.171875 297.976562 598.5 298.566406 Z M 598.5 212.625 C 598.5 211.628906 598.453125 210.636719 598.355469 209.648438 C 598.257812 208.65625 598.109375 207.675781 597.917969 206.699219 C 597.722656 205.722656 597.480469 204.757812 597.191406 203.808594 C 596.902344 202.855469 596.570312 201.921875 596.1875 201 C 595.808594 200.082031 595.382812 199.183594 594.914062 198.304688 C 594.445312 197.429688 593.933594 196.578125 593.378906 195.75 C 592.828125 194.921875 592.234375 194.125 591.605469 193.355469 C 590.972656 192.585938 590.308594 191.851562 589.601562 191.148438 C 588.898438 190.441406 588.164062 189.777344 587.394531 189.144531 C 586.625 188.515625 585.828125 187.921875 585 187.367188 C 584.171875 186.816406 583.320312 186.304688 582.445312 185.835938 C 581.566406 185.367188 580.667969 184.941406 579.75 184.5625 C 578.828125 184.179688 577.894531 183.847656 576.941406 183.558594 C 575.992188 183.269531 575.027344 183.027344 574.050781 182.832031 C 573.074219 182.640625 572.09375 182.492188 571.101562 182.394531 C 570.113281 182.296875 569.121094 182.25 568.125 182.25 C 567.128906 182.25 566.136719 182.296875 565.148438 182.394531 C 564.15625 182.492188 563.175781 182.640625 562.199219 182.832031 C 561.222656 183.027344 560.257812 183.269531 559.308594 183.558594 C 558.355469 183.847656 557.421875 184.179688 556.5 184.5625 C 555.582031 184.941406 554.683594 185.367188 553.804688 185.835938 C 552.929688 186.304688 552.078125 186.816406 551.25 187.367188 C 550.421875 187.921875 549.625 188.515625 548.855469 189.144531 C 548.085938 189.777344 547.351562 190.441406 546.648438 191.148438 C 545.941406 191.851562 545.277344 192.585938 544.644531 193.355469 C 544.011719 194.125 543.421875 194.921875 542.867188 195.75 C 542.316406 196.578125 541.804688 197.429688 541.335938 198.304688 C 540.867188 199.183594 540.441406 200.082031 540.0625 201 C 539.679688 201.921875 539.347656 202.855469 539.058594 203.808594 C 538.769531 204.757812 538.527344 205.722656 538.332031 206.699219 C 538.140625 207.675781 537.992188 208.65625 537.894531 209.648438 C 537.796875 210.636719 537.75 211.628906 537.75 212.625 C 537.75 213.621094 537.796875 214.613281 537.894531 215.601562 C 537.992188 216.59375 538.140625 217.574219 538.332031 218.550781 C 538.527344 219.527344 538.769531 220.492188 539.058594 221.441406 C 539.347656 222.394531 539.679688 223.328125 540.0625 224.25 C 540.441406 225.167969 540.867188 226.066406 541.335938 226.945312 C 541.804688 227.820312 542.316406 228.671875 542.867188 229.5 C 543.421875 230.328125 544.011719 231.125 544.644531 231.894531 C 545.277344 232.664062 545.941406 233.398438 546.648438 234.101562 C 547.351562 234.808594 548.085938 235.472656 548.855469 236.105469 C 549.625 236.734375 550.421875 237.328125 551.25 237.882812 C 552.078125 238.433594 552.929688 238.945312 553.804688 239.414062 C 554.683594 239.882812 555.582031 240.308594 556.5 240.6875 C 557.421875 241.070312 558.355469 241.402344 559.308594 241.691406 C 560.257812 241.980469 561.222656 242.222656 562.199219 242.417969 C 563.175781 242.609375 564.15625 242.757812 565.148438 242.855469 C 566.136719 242.953125 567.128906 243 568.125 243 C 569.121094 243 570.113281 242.953125 571.101562 242.855469 C 572.09375 242.757812 573.074219 242.609375 574.050781 242.417969 C 575.027344 242.222656 575.992188 241.980469 576.941406 241.691406 C 577.894531 241.402344 578.828125 241.070312 579.75 240.6875 C 580.667969 240.308594 581.566406 239.882812 582.445312 239.414062 C 583.320312 238.945312 584.171875 238.433594 585 237.882812 C 585.828125 237.328125 586.625 236.734375 587.394531 236.105469 C 588.164062 235.472656 588.898438 234.808594 589.601562 234.101562 C 590.308594 233.398438 590.972656 232.664062 591.605469 231.894531 C 592.234375 231.125 592.828125 230.328125 593.378906 229.5 C 593.933594 228.671875 594.445312 227.820312 594.914062 226.945312 C 595.382812 226.066406 595.808594 225.167969 596.1875 224.25 C 596.570312 223.328125 596.902344 222.394531 597.191406 221.441406 C 597.480469 220.492188 597.722656 219.527344 597.917969 218.550781 C 598.109375 217.574219 598.257812 216.59375 598.355469 215.601562 C 598.453125 214.613281 598.5 213.621094 598.5 212.625 Z M 871.875 243 C 872.871094 243 873.863281 242.953125 874.851562 242.855469 C 875.84375 242.757812 876.824219 242.609375 877.800781 242.417969 C 878.777344 242.222656 879.742188 241.980469 880.691406 241.691406 C 881.644531 241.402344 882.578125 241.070312 883.5 240.6875 C 884.417969 240.308594 885.316406 239.882812 886.195312 239.414062 C 887.070312 238.945312 887.921875 238.433594 888.75 237.882812 C 889.578125 237.328125 890.375 236.734375 891.144531 236.105469 C 891.914062 235.472656 892.648438 234.808594 893.351562 234.101562 C 894.058594 233.398438 894.722656 232.664062 895.355469 231.894531 C 895.984375 231.125 896.578125 230.328125 897.128906 229.5 C 897.683594 228.671875 898.195312 227.820312 898.664062 226.945312 C 899.132812 226.066406 899.558594 225.167969 899.9375 224.25 C 900.320312 223.328125 900.652344 222.394531 900.941406 221.441406 C 901.230469 220.492188 901.472656 219.527344 901.667969 218.550781 C 901.859375 217.574219 902.007812 216.59375 902.105469 215.601562 C 902.203125 214.613281 902.25 213.621094 902.25 212.625 C 902.25 211.628906 902.203125 210.636719 902.105469 209.648438 C 902.007812 208.65625 901.859375 207.675781 901.667969 206.699219 C 901.472656 205.722656 901.230469 204.757812 900.941406 203.808594 C 900.652344 202.855469 900.320312 201.921875 899.9375 201 C 899.558594 200.082031 899.132812 199.183594 898.664062 198.304688 C 898.195312 197.429688 897.683594 196.578125 897.128906 195.75 C 896.578125 194.921875 895.984375 194.125 895.355469 193.355469 C 894.722656 192.585938 894.058594 191.851562 893.351562 191.148438 C 892.648438 190.441406 891.914062 189.777344 891.144531 189.144531 C 890.375 188.515625 889.578125 187.921875 888.75 187.367188 C 887.921875 186.816406 887.070312 186.304688 886.195312 185.835938 C 885.316406 185.367188 884.417969 184.941406 883.5 184.5625 C 882.578125 184.179688 881.644531 183.847656 880.691406 183.558594 C 879.742188 183.269531 878.777344 183.027344 877.800781 182.832031 C 876.824219 182.640625 875.84375 182.492188 874.851562 182.394531 C 873.863281 182.296875 872.871094 182.25 871.875 182.25 C 870.878906 182.25 869.886719 182.296875 868.898438 182.394531 C 867.90625 182.492188 866.925781 182.640625 865.949219 182.832031 C 864.972656 183.027344 864.007812 183.269531 863.058594 183.558594 C 862.105469 183.847656 861.171875 184.179688 860.25 184.5625 C 859.332031 184.941406 858.433594 185.367188 857.554688 185.835938 C 856.679688 186.304688 855.828125 186.816406 855 187.367188 C 854.171875 187.921875 853.375 188.515625 852.605469 189.144531 C 851.835938 189.777344 851.101562 190.441406 850.398438 191.148438 C 849.691406 191.851562 849.027344 192.585938 848.394531 193.355469 C 847.761719 194.125 847.171875 194.921875 846.617188 195.75 C 846.066406 196.578125 845.554688 197.429688 845.085938 198.304688 C 844.617188 199.183594 844.191406 200.082031 843.8125 201 C 843.429688 201.921875 843.097656 202.855469 842.808594 203.808594 C 842.519531 204.757812 842.277344 205.722656 842.082031 206.699219 C 841.890625 207.675781 841.742188 208.65625 841.644531 209.648438 C 841.546875 210.636719 841.5 211.628906 841.5 212.625 C 841.5 213.621094 841.546875 214.613281 841.644531 215.601562 C 841.742188 216.59375 841.890625 217.574219 842.082031 218.550781 C 842.277344 219.527344 842.519531 220.492188 842.808594 221.441406 C 843.097656 222.394531 843.429688 223.328125 843.8125 224.25 C 844.191406 225.167969 844.617188 226.066406 845.085938 226.945312 C 845.554688 227.820312 846.066406 228.671875 846.617188 229.5 C 847.171875 230.328125 847.761719 231.125 848.394531 231.894531 C 849.027344 232.664062 849.691406 233.398438 850.398438 234.101562 C 851.101562 234.808594 851.835938 235.472656 852.605469 236.105469 C 853.375 236.734375 854.171875 237.328125 855 237.882812 C 855.828125 238.433594 856.679688 238.945312 857.554688 239.414062 C 858.433594 239.882812 859.332031 240.308594 860.25 240.6875 C 861.171875 241.070312 862.105469 241.402344 863.058594 241.691406 C 864.007812 241.980469 864.972656 242.222656 865.949219 242.417969 C 866.925781 242.609375 867.90625 242.757812 868.898438 242.855469 C 869.886719 242.953125 870.878906 243 871.875 243 Z M 750.375 597.375 C 750.375 596.378906 750.328125 595.386719 750.230469 594.398438 C 750.132812 593.40625 749.984375 592.425781 749.792969 591.449219 C 749.597656 590.472656 749.355469 589.507812 749.066406 588.558594 C 748.777344 587.605469 748.445312 586.671875 748.0625 585.75 C 747.683594 584.832031 747.257812 583.933594 746.789062 583.054688 C 746.320312 582.179688 745.808594 581.328125 745.253906 580.5 C 744.703125 579.671875 744.109375 578.875 743.480469 578.105469 C 742.847656 577.335938 742.183594 576.601562 741.476562 575.898438 C 740.773438 575.191406 740.039062 574.527344 739.269531 573.894531 C 738.5 573.265625 737.703125 572.671875 736.875 572.117188 C 736.046875 571.566406 735.195312 571.054688 734.320312 570.585938 C 733.441406 570.117188 732.542969 569.691406 731.625 569.3125 C 730.703125 568.929688 729.769531 568.597656 728.816406 568.308594 C 727.867188 568.019531 726.902344 567.777344 725.925781 567.582031 C 724.949219 567.390625 723.96875 567.242188 722.976562 567.144531 C 721.988281 567.046875 720.996094 567 720 567 C 719.003906 567 718.011719 567.046875 717.023438 567.144531 C 716.03125 567.242188 715.050781 567.390625 714.074219 567.582031 C 713.097656 567.777344 712.132812 568.019531 711.183594 568.308594 C 710.230469 568.597656 709.296875 568.929688 708.375 569.3125 C 707.457031 569.691406 706.558594 570.117188 705.679688 570.585938 C 704.804688 571.054688 703.953125 571.566406 703.125 572.117188 C 702.296875 572.671875 701.5 573.265625 700.730469 573.894531 C 699.960938 574.527344 699.226562 575.191406 698.523438 575.898438 C 697.816406 576.601562 697.152344 577.335938 696.519531 578.105469 C 695.886719 578.875 695.296875 579.671875 694.742188 580.5 C 694.191406 581.328125 693.679688 582.179688 693.210938 583.054688 C 692.742188 583.933594 692.316406 584.832031 691.9375 585.75 C 691.554688 586.671875 691.222656 587.605469 690.933594 588.558594 C 690.644531 589.507812 690.402344 590.472656 690.207031 591.449219 C 690.015625 592.425781 689.867188 593.40625 689.769531 594.398438 C 689.671875 595.386719 689.625 596.378906 689.625 597.375 C 689.625 598.371094 689.671875 599.363281 689.769531 600.351562 C 689.867188 601.34375 690.015625 602.324219 690.207031 603.300781 C 690.402344 604.277344 690.644531 605.242188 690.933594 606.191406 C 691.222656 607.144531 691.554688 608.078125 691.9375 609 C 692.316406 609.917969 692.742188 610.816406 693.210938 611.695312 C 693.679688 612.570312 694.191406 613.421875 694.742188 614.25 C 695.296875 615.078125 695.886719 615.875 696.519531 616.644531 C 697.152344 617.414062 697.816406 618.148438 698.523438 618.851562 C 699.226562 619.558594 699.960938 620.222656 700.730469 620.855469 C 701.5 621.484375 702.296875 622.078125 703.125 622.628906 C 703.953125 623.183594 704.804688 623.695312 705.679688 624.164062 C 706.558594 624.632812 707.457031 625.058594 708.375 625.4375 C 709.296875 625.820312 710.230469 626.152344 711.183594 626.441406 C 712.132812 626.730469 713.097656 626.972656 714.074219 627.167969 C 715.050781 627.359375 716.03125 627.507812 717.023438 627.605469 C 718.011719 627.703125 719.003906 627.75 720 627.75 C 720.996094 627.75 721.988281 627.703125 722.976562 627.605469 C 723.96875 627.507812 724.949219 627.359375 725.925781 627.167969 C 726.902344 626.972656 727.867188 626.730469 728.816406 626.441406 C 729.769531 626.152344 730.703125 625.820312 731.625 625.4375 C 732.542969 625.058594 733.441406 624.632812 734.320312 624.164062 C 735.195312 623.695312 736.046875 623.183594 736.875 622.628906 C 737.703125 622.078125 738.5 621.484375 739.269531 620.855469 C 740.039062 620.222656 740.773438 619.558594 741.476562 618.851562 C 742.183594 618.148438 742.847656 617.414062 743.480469 616.644531 C 744.109375 615.875 744.703125 615.078125 745.253906 614.25 C 745.808594 613.421875 746.320312 612.570312 746.789062 611.695312 C 747.257812 610.816406 747.683594 609.917969 748.0625 609 C 748.445312 608.078125 748.777344 607.144531 749.066406 606.191406 C 749.355469 605.242188 749.597656 604.277344 749.792969 603.300781 C 749.984375 602.324219 750.132812 601.34375 750.230469 600.351562 C 750.328125 599.363281 750.375 598.371094 750.375 597.375 Z M 750.375 597.375 " fill-opacity="1" fill-rule="nonzero"/></svg>