<svg xmlns="http://www.w3.org/2000/svg" xmlns:xlink="http://www.w3.org/1999/xlink" width="1920" zoomAndPan="magnify" viewBox="0 0 1440 809.999993" height="1080" preserveAspectRatio="xMidYMid meet" version="1.0"><defs><clipPath id="e111bcacbf"><path d="M 422.890625 243 L 660.640625 243 L 660.640625 510.75 L 422.890625 510.75 Z M 422.890625 243 " clip-rule="nonzero"/></clipPath><clipPath id="ae6aa35910"><path d="M 81 268.402344 L 341.25 268.402344 L 341.25 485.152344 L 81 485.152344 Z M 81 268.402344 " clip-rule="nonzero"/></clipPath><clipPath id="a4a2d64d3a"><path d="M 81 471 L 341.25 471 L 341.25 485.152344 L 81 485.152344 Z M 81 471 " clip-rule="nonzero"/></clipPath></defs><g clip-path="url(#e111bcacbf)"><path fill="#fdd888" d="M 645 421.039062 C 640.558594 371.816406 616.042969 347.125 616.042969 347.125 L 571.476562 287.625 L 512.050781 287.625 L 467.484375 347.125 C 467.484375 347.125 456.941406 357.78125 448.414062 378.921875 C 433.640625 383.828125 422.914062 397.617188 422.914062 414.0625 C 422.914062 424.832031 427.558594 434.457031 434.867188 441.246094 C 432.074219 446.46875 430.34375 452.34375 430.34375 458.6875 C 430.34375 473.25 438.78125 485.730469 450.957031 491.828125 C 460.484375 506.125 473.21875 510.75 482.339844 510.75 L 601.1875 510.75 C 611.433594 510.75 626.242188 504.957031 635.9375 486.132812 C 650.28125 480.992188 660.613281 467.390625 660.613281 451.25 C 660.613281 438.769531 654.417969 427.792969 645 421.039062 Z M 541.765625 287.625 C 545.847656 287.625 549.621094 286.449219 552.90625 284.53125 C 556.195312 286.449219 559.96875 287.625 564.046875 287.625 C 576.355469 287.625 593.761719 270.191406 593.761719 257.875 C 593.761719 257.875 593.761719 243 578.902344 243 C 573.050781 243 571.476562 250.4375 564.046875 250.4375 C 556.621094 250.4375 556.621094 243 541.765625 243 C 526.90625 243 526.90625 250.4375 519.480469 250.4375 C 512.050781 250.4375 510.484375 243 504.625 243 C 489.765625 243 489.765625 257.875 489.765625 257.875 C 489.765625 270.191406 507.179688 287.625 519.480469 287.625 C 523.558594 287.625 527.332031 286.449219 530.621094 284.53125 C 533.914062 286.449219 537.6875 287.625 541.765625 287.625 Z M 541.765625 287.625 " fill-opacity="1" fill-rule="nonzero"/></g><path fill="#bf6952" d="M 586.332031 287.625 C 586.332031 291.730469 583.011719 295.0625 578.902344 295.0625 L 504.625 295.0625 C 500.523438 295.0625 497.195312 291.730469 497.195312 287.625 C 497.195312 283.519531 500.523438 280.1875 504.625 280.1875 L 578.902344 280.1875 C 583.011719 280.1875 586.332031 283.519531 586.332031 287.625 Z M 586.332031 287.625 " fill-opacity="1" fill-rule="nonzero"/><path fill="#67757f" d="M 585.597656 425.53125 C 585.597656 392.234375 521.855469 394.40625 521.855469 374.316406 C 521.855469 364.589844 531.519531 359.835938 542.738281 359.835938 C 561.589844 359.835938 564.945312 371.503906 573.480469 371.503906 C 579.519531 371.503906 582.433594 367.839844 582.433594 363.726562 C 582.433594 354.175781 567.398438 346.945312 552.980469 344.449219 L 552.980469 335.226562 C 552.980469 329.476562 548.152344 324.8125 542.179688 324.8125 C 536.199219 324.8125 531.363281 329.476562 531.363281 335.226562 L 531.363281 344.765625 C 515.648438 348.210938 502.121094 358.710938 502.121094 375.828125 C 502.121094 407.800781 565.84375 406.507812 565.84375 428.96875 C 565.84375 436.753906 557.09375 444.535156 542.738281 444.535156 C 521.1875 444.535156 514.011719 430.484375 505.261719 430.484375 C 501 430.484375 497.1875 433.933594 497.1875 439.140625 C 497.1875 447.417969 511.582031 457.371094 531.378906 460.144531 L 531.371094 460.21875 L 531.371094 470.617188 C 531.371094 476.359375 536.214844 481.03125 542.1875 481.03125 C 548.160156 481.03125 552.996094 476.359375 552.996094 470.617188 L 552.996094 460.21875 C 552.996094 460.09375 552.9375 459.996094 552.929688 459.886719 C 570.742188 456.6875 585.597656 445.515625 585.597656 425.53125 Z M 585.597656 425.53125 " fill-opacity="1" fill-rule="nonzero"/><g clip-path="url(#ae6aa35910)"><path fill="#ccd6dd" d="M 326.707031 435.269531 C 323.695312 428.3125 320.234375 420.761719 312.257812 420.761719 L 305.035156 420.761719 C 313.011719 420.761719 319.480469 414.265625 319.480469 406.253906 L 319.480469 282.910156 C 319.480469 274.898438 313.011719 268.402344 305.035156 268.402344 L 117.214844 268.402344 C 109.238281 268.402344 102.769531 274.898438 102.769531 282.910156 L 102.769531 406.253906 C 102.769531 414.265625 109.238281 420.761719 117.214844 420.761719 L 109.992188 420.761719 C 102.015625 420.761719 97.949219 428.015625 95.542969 435.269531 L 81.097656 470.636719 C 81.097656 478.65625 87.570312 485.152344 95.542969 485.152344 L 326.707031 485.152344 C 334.679688 485.152344 341.152344 478.65625 341.152344 470.644531 Z M 326.707031 435.269531 " fill-opacity="1" fill-rule="nonzero"/></g><g clip-path="url(#a4a2d64d3a)"><path fill="#9aaab4" d="M 81.152344 471.242188 L 81.199219 471.65625 L 82.425781 476.65625 C 84.707031 481.65625 89.707031 485.152344 95.542969 485.152344 L 326.707031 485.152344 C 334.480469 485.152344 340.769531 478.972656 341.097656 471.242188 Z M 81.152344 471.242188 " fill-opacity="1" fill-rule="nonzero"/></g><path fill="#5dadec" d="M 305.035156 398.992188 C 305.035156 403.003906 301.804688 406.246094 297.8125 406.246094 L 124.4375 406.246094 C 120.453125 406.246094 117.214844 403.003906 117.214844 398.992188 L 117.214844 290.171875 C 117.214844 286.160156 120.453125 282.917969 124.4375 282.917969 L 297.8125 282.917969 C 301.804688 282.917969 305.035156 286.167969 305.035156 290.171875 Z M 305.035156 398.992188 " fill-opacity="1" fill-rule="nonzero"/><path fill="#aebbc1" d="M 318.804688 449.328125 L 313.3125 433.617188 C 311.585938 430.292969 308.726562 427.566406 304.730469 427.566406 L 118.011719 427.566406 C 114.023438 427.566406 111.464844 430.515625 109.660156 435.054688 L 104.6875 449.335938 C 103.105469 453.644531 107.925781 456.589844 111.914062 456.589844 L 166.65625 456.589844 C 166.65625 456.589844 173.425781 456.25 174.621094 452.199219 C 176.011719 447.515625 177.621094 440.464844 177.96875 439.222656 C 178.503906 437.316406 180.769531 435.386719 184.152344 435.386719 L 246.117188 435.386719 C 249.730469 435.386719 251.507812 437.214844 251.976562 439.476562 C 252.277344 440.949219 254.230469 447.71875 255.140625 452.351562 C 255.941406 456.476562 263.960938 456.582031 263.960938 456.582031 L 311.59375 456.582031 C 315.574219 456.582031 320.386719 453.179688 318.804688 449.328125 Z M 318.804688 449.328125 " fill-opacity="1" fill-rule="nonzero"/><path fill="#9aaab4" d="M 242.730469 464.292969 L 186.519531 464.292969 C 183.8125 464.292969 182.632812 461.816406 183.023438 459.414062 C 183.414062 457.023438 185.617188 446.460938 185.792969 445.234375 C 185.957031 443.996094 187.769531 442.523438 189.578125 442.523438 L 240.25 442.523438 C 242.398438 442.523438 243.792969 443.703125 244.222656 446.058594 C 244.652344 448.417969 246.40625 457.914062 246.542969 460.082031 C 246.679688 462.253906 245.324219 464.292969 242.730469 464.292969 Z M 242.730469 464.292969 " fill-opacity="1" fill-rule="nonzero"/></svg>