<svg xmlns="http://www.w3.org/2000/svg" xmlns:xlink="http://www.w3.org/1999/xlink" width="1920" zoomAndPan="magnify" viewBox="0 0 1440 809.999993" height="1080" preserveAspectRatio="xMidYMid meet" version="1.0"><defs><clipPath id="e110921ea2"><path d="M 81 268.402344 L 341.25 268.402344 L 341.25 485.152344 L 81 485.152344 Z M 81 268.402344 " clip-rule="nonzero"/></clipPath><clipPath id="09f2864204"><path d="M 81 471 L 341.25 471 L 341.25 485.152344 L 81 485.152344 Z M 81 471 " clip-rule="nonzero"/></clipPath></defs><g clip-path="url(#e110921ea2)"><path fill="#ccd6dd" d="M 326.707031 435.269531 C 323.695312 428.3125 320.234375 420.761719 312.257812 420.761719 L 305.035156 420.761719 C 313.011719 420.761719 319.480469 414.265625 319.480469 406.253906 L 319.480469 282.910156 C 319.480469 274.898438 313.011719 268.402344 305.035156 268.402344 L 117.214844 268.402344 C 109.238281 268.402344 102.769531 274.898438 102.769531 282.910156 L 102.769531 406.253906 C 102.769531 414.265625 109.238281 420.761719 117.214844 420.761719 L 109.992188 420.761719 C 102.015625 420.761719 97.949219 428.015625 95.542969 435.269531 L 81.097656 470.636719 C 81.097656 478.65625 87.570312 485.152344 95.542969 485.152344 L 326.707031 485.152344 C 334.679688 485.152344 341.152344 478.65625 341.152344 470.644531 Z M 326.707031 435.269531 " fill-opacity="1" fill-rule="nonzero"/></g><g clip-path="url(#09f2864204)"><path fill="#9aaab4" d="M 81.152344 471.242188 L 81.199219 471.65625 L 82.425781 476.65625 C 84.707031 481.65625 89.707031 485.152344 95.542969 485.152344 L 326.707031 485.152344 C 334.480469 485.152344 340.769531 478.972656 341.097656 471.242188 Z M 81.152344 471.242188 " fill-opacity="1" fill-rule="nonzero"/></g><path fill="#5dadec" d="M 305.035156 398.992188 C 305.035156 403.003906 301.804688 406.246094 297.8125 406.246094 L 124.4375 406.246094 C 120.453125 406.246094 117.214844 403.003906 117.214844 398.992188 L 117.214844 290.171875 C 117.214844 286.160156 120.453125 282.917969 124.4375 282.917969 L 297.8125 282.917969 C 301.804688 282.917969 305.035156 286.167969 305.035156 290.171875 Z M 305.035156 398.992188 " fill-opacity="1" fill-rule="nonzero"/><path fill="#aebbc1" d="M 318.804688 449.328125 L 313.3125 433.617188 C 311.585938 430.292969 308.726562 427.566406 304.730469 427.566406 L 118.011719 427.566406 C 114.023438 427.566406 111.464844 430.515625 109.660156 435.054688 L 104.6875 449.335938 C 103.105469 453.644531 107.925781 456.589844 111.914062 456.589844 L 166.65625 456.589844 C 166.65625 456.589844 173.425781 456.25 174.621094 452.199219 C 176.011719 447.515625 177.621094 440.464844 177.96875 439.222656 C 178.503906 437.316406 180.769531 435.386719 184.152344 435.386719 L 246.117188 435.386719 C 249.730469 435.386719 251.507812 437.214844 251.976562 439.476562 C 252.277344 440.949219 254.230469 447.71875 255.140625 452.351562 C 255.941406 456.476562 263.960938 456.582031 263.960938 456.582031 L 311.59375 456.582031 C 315.574219 456.582031 320.386719 453.179688 318.804688 449.328125 Z M 318.804688 449.328125 " fill-opacity="1" fill-rule="nonzero"/><path fill="#9aaab4" d="M 242.730469 464.292969 L 186.519531 464.292969 C 183.8125 464.292969 182.632812 461.816406 183.023438 459.414062 C 183.414062 457.023438 185.617188 446.460938 185.792969 445.234375 C 185.957031 443.996094 187.769531 442.523438 189.578125 442.523438 L 240.25 442.523438 C 242.398438 442.523438 243.792969 443.703125 244.222656 446.058594 C 244.652344 448.417969 246.40625 457.914062 246.542969 460.082031 C 246.679688 462.253906 245.324219 464.292969 242.730469 464.292969 Z M 242.730469 464.292969 " fill-opacity="1" fill-rule="nonzero"/></svg>