<svg xmlns="http://www.w3.org/2000/svg" xmlns:xlink="http://www.w3.org/1999/xlink" width="1920" zoomAndPan="magnify" viewBox="0 0 1440 809.999993" height="1080" preserveAspectRatio="xMidYMid meet" version="1.0"><defs><clipPath id="262e9ce5c7"><path d="M 81 243 L 336 243 L 336 510.75 L 81 510.75 Z M 81 243 " clip-rule="nonzero"/></clipPath></defs><path fill="#66757f" d="M 290.714844 304.425781 C 290.714844 303.339844 289.839844 302.457031 288.75 302.457031 L 285.199219 302.457031 C 284.117188 302.457031 283.234375 303.339844 283.234375 304.425781 L 283.234375 390.246094 C 283.234375 391.332031 284.109375 392.214844 285.199219 392.214844 L 288.75 392.214844 C 289.832031 392.214844 290.714844 391.339844 290.714844 390.246094 Z M 290.714844 304.425781 " fill-opacity="1" fill-rule="nonzero"/><path fill="#f19020" d="M 298.1875 388.46875 C 298.1875 389.203125 298.117188 389.933594 297.972656 390.65625 C 297.828125 391.378906 297.617188 392.082031 297.335938 392.761719 C 297.054688 393.441406 296.707031 394.085938 296.300781 394.699219 C 295.890625 395.3125 295.425781 395.878906 294.90625 396.398438 C 294.386719 396.921875 293.820312 397.386719 293.207031 397.796875 C 292.59375 398.203125 291.949219 398.550781 291.269531 398.832031 C 290.589844 399.113281 289.886719 399.328125 289.164062 399.46875 C 288.445312 399.613281 287.714844 399.6875 286.980469 399.6875 C 286.242188 399.6875 285.511719 399.613281 284.792969 399.46875 C 284.070312 399.328125 283.367188 399.113281 282.6875 398.832031 C 282.007812 398.550781 281.363281 398.203125 280.75 397.796875 C 280.140625 397.386719 279.574219 396.921875 279.050781 396.398438 C 278.53125 395.878906 278.066406 395.3125 277.65625 394.699219 C 277.25 394.085938 276.902344 393.441406 276.621094 392.761719 C 276.339844 392.082031 276.128906 391.378906 275.984375 390.65625 C 275.839844 389.933594 275.769531 389.203125 275.769531 388.46875 C 275.769531 387.730469 275.839844 387 275.984375 386.277344 C 276.128906 385.554688 276.339844 384.855469 276.621094 384.175781 C 276.902344 383.492188 277.25 382.847656 277.65625 382.234375 C 278.066406 381.621094 278.53125 381.054688 279.050781 380.535156 C 279.574219 380.015625 280.140625 379.550781 280.75 379.140625 C 281.363281 378.730469 282.007812 378.386719 282.6875 378.101562 C 283.367188 377.820312 284.070312 377.609375 284.792969 377.464844 C 285.511719 377.320312 286.242188 377.25 286.980469 377.25 C 287.714844 377.25 288.445312 377.320312 289.164062 377.464844 C 289.886719 377.609375 290.589844 377.820312 291.269531 378.101562 C 291.949219 378.386719 292.59375 378.730469 293.207031 379.140625 C 293.820312 379.550781 294.386719 380.015625 294.90625 380.535156 C 295.425781 381.054688 295.890625 381.621094 296.300781 382.234375 C 296.707031 382.847656 297.054688 383.492188 297.335938 384.175781 C 297.617188 384.855469 297.828125 385.554688 297.972656 386.277344 C 298.117188 387 298.1875 387.730469 298.1875 388.46875 Z M 298.1875 388.46875 " fill-opacity="1" fill-rule="nonzero"/><path fill="#f19020" d="M 294.453125 407.164062 C 294.453125 407.65625 294.402344 408.144531 294.308594 408.625 C 294.210938 409.105469 294.070312 409.574219 293.882812 410.027344 C 293.695312 410.480469 293.464844 410.910156 293.191406 411.320312 C 292.917969 411.730469 292.609375 412.105469 292.261719 412.453125 C 291.917969 412.800781 291.539062 413.109375 291.128906 413.382812 C 290.722656 413.65625 290.292969 413.886719 289.839844 414.074219 C 289.386719 414.261719 288.917969 414.40625 288.4375 414.5 C 287.957031 414.597656 287.46875 414.644531 286.980469 414.644531 C 286.488281 414.644531 286.003906 414.597656 285.519531 414.5 C 285.039062 414.40625 284.570312 414.261719 284.117188 414.074219 C 283.664062 413.886719 283.234375 413.65625 282.828125 413.382812 C 282.417969 413.109375 282.042969 412.800781 281.695312 412.453125 C 281.347656 412.105469 281.039062 411.730469 280.765625 411.320312 C 280.492188 410.910156 280.261719 410.480469 280.074219 410.027344 C 279.886719 409.574219 279.746094 409.105469 279.648438 408.625 C 279.554688 408.144531 279.503906 407.65625 279.503906 407.164062 C 279.503906 406.675781 279.554688 406.1875 279.648438 405.707031 C 279.746094 405.222656 279.886719 404.757812 280.074219 404.304688 C 280.261719 403.847656 280.492188 403.417969 280.765625 403.011719 C 281.039062 402.601562 281.347656 402.222656 281.695312 401.875 C 282.042969 401.53125 282.417969 401.21875 282.828125 400.945312 C 283.234375 400.671875 283.664062 400.441406 284.117188 400.253906 C 284.570312 400.066406 285.039062 399.925781 285.519531 399.828125 C 286.003906 399.734375 286.488281 399.6875 286.980469 399.6875 C 287.46875 399.6875 287.957031 399.734375 288.4375 399.828125 C 288.917969 399.925781 289.386719 400.066406 289.839844 400.253906 C 290.292969 400.441406 290.722656 400.671875 291.128906 400.945312 C 291.539062 401.21875 291.917969 401.53125 292.261719 401.875 C 292.609375 402.222656 292.917969 402.601562 293.191406 403.011719 C 293.464844 403.417969 293.695312 403.847656 293.882812 404.304688 C 294.070312 404.757812 294.210938 405.222656 294.308594 405.707031 C 294.402344 406.1875 294.453125 406.675781 294.453125 407.164062 Z M 294.453125 407.164062 " fill-opacity="1" fill-rule="nonzero"/><g clip-path="url(#262e9ce5c7)"><path fill="#bd2032" d="M 328.082031 302.457031 L 297.222656 302.457031 L 153.925781 242.925781 L 153.910156 242.917969 L 153.902344 242.917969 C 153.78125 242.867188 153.664062 242.878906 153.550781 242.84375 C 153.199219 242.738281 152.847656 242.625 152.460938 242.625 L 152.445312 242.625 C 151.953125 242.625 151.472656 242.730469 151.023438 242.910156 C 150.6875 243.058594 150.398438 243.285156 150.113281 243.523438 C 150.023438 243.589844 149.917969 243.628906 149.835938 243.710938 C 149.484375 244.054688 149.203125 244.472656 149.015625 244.9375 L 149.015625 244.945312 C 148.984375 245.011719 148.992188 245.09375 148.96875 245.160156 L 107.558594 303.574219 C 107.539062 303.601562 107.539062 303.648438 107.515625 303.675781 C 105.386719 304.992188 103.882812 307.246094 103.882812 309.9375 L 103.882812 324.894531 C 103.882812 329.023438 107.230469 332.375 111.355469 332.375 L 122.53125 332.375 L 94.773438 495.042969 L 81.464844 495.042969 L 81.464844 510.003906 L 223.140625 510.003906 L 223.140625 495.042969 L 210.136719 495.042969 L 182.390625 332.375 L 328.082031 332.375 C 332.214844 332.375 335.554688 329.023438 335.554688 324.894531 L 335.554688 309.9375 C 335.554688 305.808594 332.214844 302.457031 328.082031 302.457031 Z M 165.394531 332.375 L 152.460938 342.761719 L 139.53125 332.375 Z M 152.460938 400.058594 L 179.863281 418.039062 L 152.460938 432.996094 L 125.054688 418.039062 Z M 125.265625 405.371094 L 128.808594 384.546875 L 142.753906 393.695312 Z M 162.167969 393.695312 L 176.144531 384.535156 L 179.707031 405.394531 Z M 152.460938 387.21875 L 131.324219 373.121094 L 152.460938 355.753906 L 173.59375 373.121094 Z M 133.304688 358.148438 L 136.011719 342.238281 L 144.464844 349.179688 Z M 160.457031 349.1875 L 168.914062 342.238281 L 171.636719 358.167969 Z M 117.507812 302.457031 L 148.722656 258.421875 L 148.722656 287.5 L 133.777344 287.5 C 129.652344 287.5 126.304688 290.851562 126.304688 294.980469 L 126.304688 302.457031 Z M 121.46875 427.644531 L 141.871094 438.777344 L 117.28125 452.195312 Z M 195.003906 495.042969 L 109.988281 495.042969 L 115.117188 464.949219 L 152.460938 444.558594 L 189.871094 464.984375 Z M 183.496094 427.621094 L 187.695312 452.234375 L 163.050781 438.777344 Z M 178.617188 302.457031 L 178.617188 294.980469 C 178.617188 290.851562 175.269531 287.5 171.144531 287.5 L 156.195312 287.5 L 156.195312 251.96875 L 277.734375 302.457031 Z M 193.5625 324.894531 L 184.894531 324.894531 L 184.894531 309.9375 L 193.5625 309.9375 Z M 215.984375 324.894531 L 201.035156 324.894531 L 201.035156 309.9375 L 215.984375 309.9375 Z M 238.402344 324.894531 L 223.457031 324.894531 L 223.457031 309.9375 L 238.402344 309.9375 Z M 260.820312 324.894531 L 245.875 324.894531 L 245.875 309.9375 L 260.820312 309.9375 Z M 283.242188 324.894531 L 268.296875 324.894531 L 268.296875 309.9375 L 283.242188 309.9375 Z M 305.660156 324.894531 L 290.714844 324.894531 L 290.714844 309.9375 L 305.660156 309.9375 Z M 328.082031 321.15625 C 328.082031 323.21875 326.40625 324.894531 324.34375 324.894531 L 313.136719 324.894531 L 313.136719 309.9375 L 324.34375 309.9375 C 326.40625 309.9375 328.082031 311.613281 328.082031 313.675781 Z M 328.082031 321.15625 " fill-opacity="1" fill-rule="nonzero"/></g><path fill="#4b545d" d="M 171.144531 294.980469 L 156.195312 294.980469 C 152.070312 294.980469 148.722656 298.328125 148.722656 302.457031 L 148.722656 317.417969 C 148.722656 321.546875 152.070312 324.894531 156.195312 324.894531 L 178.617188 324.894531 L 178.617188 294.980469 Z M 171.144531 294.980469 " fill-opacity="1" fill-rule="nonzero"/><path fill="#cdd7df" d="M 163.667969 294.980469 L 178.617188 294.980469 L 178.617188 324.894531 L 163.667969 324.894531 Z M 163.667969 294.980469 " fill-opacity="1" fill-rule="nonzero"/><path fill="#66757f" d="M 339.992188 420.253906 L 339.992188 412.773438 L 233.964844 412.773438 L 233.964844 420.253906 L 240.269531 420.253906 L 240.269531 438.71875 L 233.964844 438.71875 L 233.964844 446.199219 L 339.992188 446.199219 L 339.992188 438.71875 L 333.6875 438.71875 L 333.6875 420.253906 Z M 339.992188 420.253906 " fill-opacity="1" fill-rule="nonzero"/></svg>