<svg xmlns="http://www.w3.org/2000/svg" xmlns:xlink="http://www.w3.org/1999/xlink" width="1920" zoomAndPan="magnify" viewBox="0 0 1440 809.999993" height="1080" preserveAspectRatio="xMidYMid meet" version="1.0"><path fill="#171321" d="M 632.910156 381.164062 L 662.304688 381.164062 C 657.40625 349.898438 630.34375 328.125 595.117188 328.125 C 553.4375 328.125 522.179688 358.765625 522.179688 410.097656 C 522.179688 460.492188 552.039062 491.757812 595.972656 491.757812 C 635.398438 491.757812 663.628906 466.402344 663.628906 425.339844 L 663.628906 406.207031 L 599.007812 406.207031 L 599.007812 428.761719 L 635.710938 428.761719 C 635.246094 451.472656 620.082031 465.859375 596.128906 465.859375 C 569.457031 465.859375 551.183594 445.871094 551.183594 409.785156 C 551.183594 373.933594 569.769531 354.023438 595.507812 354.023438 C 614.714844 354.023438 627.777344 364.289062 632.910156 381.164062 Z M 632.910156 381.164062 " fill-opacity="1" fill-rule="nonzero"/><path fill="#171321" d="M 683.054688 489.582031 L 711.207031 489.582031 L 711.207031 370.121094 L 683.054688 370.121094 Z M 697.207031 351.203125 C 706.152344 351.203125 713.460938 344.359375 713.460938 335.960938 C 713.460938 327.484375 706.152344 320.640625 697.207031 320.640625 C 688.1875 320.640625 680.878906 327.484375 680.878906 335.960938 C 680.878906 344.359375 688.1875 351.203125 697.207031 351.203125 Z M 697.207031 351.203125 " fill-opacity="1" fill-rule="nonzero"/><path fill="#171321" d="M 795.5 370.121094 L 771.9375 370.121094 L 771.9375 341.5 L 743.785156 341.5 L 743.785156 370.121094 L 726.835938 370.121094 L 726.835938 391.898438 L 743.785156 391.898438 L 743.785156 458.316406 C 743.632812 480.792969 759.960938 491.835938 781.113281 491.214844 C 789.121094 490.980469 794.644531 489.425781 797.675781 488.414062 L 792.933594 466.402344 C 791.378906 466.792969 788.191406 467.492188 784.691406 467.492188 C 777.613281 467.492188 771.9375 465.003906 771.9375 453.648438 L 771.9375 391.898438 L 795.5 391.898438 Z M 795.5 370.121094 " fill-opacity="1" fill-rule="nonzero"/><path fill="#171321" d="M 817.285156 489.582031 L 916.277344 489.582031 L 916.277344 465.394531 L 846.136719 465.394531 L 846.136719 330.300781 L 817.285156 330.300781 Z M 817.285156 489.582031 " fill-opacity="1" fill-rule="nonzero"/><path fill="#171321" d="M 970.191406 491.992188 C 988.929688 491.992188 1000.128906 483.203125 1005.257812 473.171875 L 1006.191406 473.171875 L 1006.191406 489.582031 L 1033.253906 489.582031 L 1033.253906 409.628906 C 1033.253906 378.054688 1007.515625 368.566406 984.730469 368.566406 C 959.613281 368.566406 940.328125 379.765625 934.109375 401.542969 L 960.390625 405.273438 C 963.191406 397.109375 971.121094 390.109375 984.886719 390.109375 C 997.949219 390.109375 1005.105469 396.796875 1005.105469 408.539062 L 1005.105469 409.007812 C 1005.105469 417.097656 996.628906 417.484375 975.554688 419.738281 C 952.378906 422.230469 930.21875 429.152344 930.21875 456.058594 C 930.21875 479.546875 947.40625 491.992188 970.191406 491.992188 Z M 979.445312 471.304688 C 967.703125 471.304688 959.304688 465.9375 959.304688 455.59375 C 959.304688 444.78125 968.714844 440.273438 981.3125 438.484375 C 988.699219 437.472656 1003.472656 435.605469 1007.128906 432.652344 L 1007.128906 446.726562 C 1007.128906 460.027344 996.394531 471.304688 979.445312 471.304688 Z M 979.445312 471.304688 " fill-opacity="1" fill-rule="nonzero"/><path fill="#171321" d="M 1054.019531 489.582031 L 1081.703125 489.582031 L 1081.703125 470.757812 L 1083.335938 470.757812 C 1087.769531 479.46875 1097.019531 491.679688 1117.550781 491.679688 C 1145.699219 491.679688 1166.773438 469.359375 1166.773438 430.007812 C 1166.773438 390.1875 1145.078125 368.566406 1117.472656 368.566406 C 1096.398438 368.566406 1087.613281 381.242188 1083.335938 389.875 L 1082.167969 389.875 L 1082.167969 330.300781 L 1054.019531 330.300781 Z M 1081.625 429.851562 C 1081.625 406.675781 1091.578125 391.664062 1109.695312 391.664062 C 1128.4375 391.664062 1138.082031 407.609375 1138.082031 429.851562 C 1138.082031 452.25 1128.28125 468.582031 1109.695312 468.582031 C 1091.734375 468.582031 1081.625 453.027344 1081.625 429.851562 Z M 1081.625 429.851562 " fill-opacity="1" fill-rule="nonzero"/><path fill="#e24329" d="M 470.859375 384.863281 L 470.585938 384.140625 L 443.226562 312.75 C 442.679688 311.351562 441.695312 310.171875 440.417969 309.359375 C 439.140625 308.539062 437.644531 308.15625 436.128906 308.234375 C 434.617188 308.316406 433.167969 308.867188 431.988281 309.808594 C 430.8125 310.757812 429.964844 312.042969 429.566406 313.492188 L 411.09375 370.035156 L 336.355469 370.035156 L 317.882812 313.492188 C 317.484375 312.042969 316.636719 310.757812 315.464844 309.808594 C 314.28125 308.867188 312.832031 308.316406 311.324219 308.234375 C 309.804688 308.15625 308.308594 308.539062 307.035156 309.359375 C 305.753906 310.171875 304.769531 311.351562 304.226562 312.75 L 276.867188 384.144531 L 276.589844 384.863281 C 268.484375 406.011719 275.390625 429.921875 293.445312 443.578125 C 293.476562 443.597656 293.507812 443.625 293.542969 443.648438 L 293.78125 443.832031 L 335.457031 475.035156 L 356.070312 490.640625 L 368.613281 500.125 C 371.636719 502.414062 375.8125 502.414062 378.835938 500.125 L 391.378906 490.640625 L 411.988281 475.035156 L 453.910156 443.648438 C 453.949219 443.621094 453.980469 443.59375 454.019531 443.5625 C 472.058594 429.90625 478.964844 406.007812 470.859375 384.863281 Z M 470.859375 384.863281 " fill-opacity="1" fill-rule="nonzero"/><path fill="#fc6d26" d="M 470.859375 384.863281 L 470.585938 384.140625 C 457.011719 386.929688 444.511719 392.671875 433.804688 400.683594 C 433.632812 400.8125 401.273438 425.285156 373.726562 446.117188 C 394.179688 461.585938 411.988281 475.035156 411.988281 475.035156 L 453.910156 443.648438 C 453.949219 443.621094 453.980469 443.59375 454.019531 443.5625 C 472.058594 429.90625 478.964844 406.007812 470.859375 384.863281 Z M 470.859375 384.863281 " fill-opacity="1" fill-rule="nonzero"/><path fill="#fca326" d="M 335.457031 475.035156 L 356.070312 490.640625 L 368.613281 500.125 C 371.636719 502.414062 375.8125 502.414062 378.835938 500.125 L 391.378906 490.640625 L 411.988281 475.035156 C 411.988281 475.035156 394.179688 461.585938 373.726562 446.117188 C 353.265625 461.585938 335.457031 475.035156 335.457031 475.035156 Z M 335.457031 475.035156 " fill-opacity="1" fill-rule="nonzero"/><path fill="#fc6d26" d="M 313.640625 400.683594 C 302.941406 392.675781 290.441406 386.929688 276.867188 384.144531 L 276.589844 384.863281 C 268.484375 406.011719 275.390625 429.921875 293.445312 443.578125 C 293.476562 443.597656 293.507812 443.625 293.542969 443.648438 L 293.78125 443.832031 L 335.457031 475.035156 C 335.457031 475.035156 353.265625 461.585938 373.726562 446.117188 C 346.175781 425.285156 313.816406 400.8125 313.640625 400.683594 Z M 313.640625 400.683594 " fill-opacity="1" fill-rule="nonzero"/></svg>