<svg xmlns="http://www.w3.org/2000/svg" xmlns:xlink="http://www.w3.org/1999/xlink" width="1920" zoomAndPan="magnify" viewBox="0 0 1440 809.999993" height="1080" preserveAspectRatio="xMidYMid meet" version="1.0"><defs><clipPath id="f937d50316"><path d="M 503.804688 81 L 936.554688 81 L 936.554688 729 L 503.804688 729 Z M 503.804688 81 " clip-rule="nonzero"/></clipPath></defs><path fill="#ef9645" d="M 576.058594 170.371094 C 576.058594 145.871094 595.945312 126 620.464844 126 L 621.726562 126 C 646.246094 126 666.132812 145.871094 666.132812 170.371094 L 666.132812 131.488281 C 666.132812 108.574219 684.726562 90 707.65625 90 L 714.703125 90 C 737.617188 90 756.207031 108.574219 756.207031 131.488281 L 756.207031 153 C 756.207031 128.140625 776.367188 108 801.246094 108 C 826.125 108 846.285156 128.140625 846.285156 153 L 846.285156 321.246094 C 846.285156 302.886719 861.183594 288 879.539062 288 L 885.089844 288 C 903.464844 288 918.34375 302.886719 918.34375 321.246094 L 918.34375 497.773438 C 918.34375 516.113281 903.445312 531 885.089844 531 L 882.316406 531 L 882.316406 549 L 843.582031 549 C 831.0625 610.632812 776.546875 657 711.171875 657 C 636.535156 657 576.058594 596.574219 576.058594 522 L 576.058594 414 C 576.058594 410.09375 576.328125 406.242188 576.632812 402.425781 C 576.398438 400.5 576.058594 398.628906 576.058594 396.628906 Z M 576.058594 170.371094 " fill-opacity="1" fill-rule="nonzero"/><g clip-path="url(#f937d50316)"><path fill="#ffdc5d" d="M 503.996094 225 C 503.996094 225 503.996094 189 540.027344 189 C 576.058594 189 576.058594 225 576.058594 225 L 576.058594 392.148438 C 576.058594 389.503906 594.074219 387.089844 594.074219 384.984375 L 594.074219 153 C 594.074219 153 594.074219 117 630.101562 117 C 666.132812 117 666.132812 153 666.132812 153 L 666.132812 371.195312 C 666.132812 370.691406 684.148438 370.261719 684.148438 369.953125 L 684.148438 117 C 684.148438 117 684.148438 81 720.179688 81 C 756.207031 81 756.207031 117 756.207031 117 L 756.207031 369.9375 C 756.207031 370.242188 774.222656 370.890625 774.222656 371.410156 L 774.222656 135 C 774.222656 135 774.222656 99 810.253906 99 C 846.285156 99 846.285156 135 846.285156 135 L 846.285156 423 C 738.195312 423 666.132812 513 666.132812 603 C 666.132812 621 684.148438 621 684.148438 621 C 684.148438 513 756.207031 441 864.300781 441 L 864.300781 315 C 864.300781 315 864.300781 279 900.328125 279 C 936.359375 279 936.359375 315 936.359375 315 L 936.359375 513 C 936.359375 632.285156 839.566406 729 720.179688 729 C 600.792969 729 503.996094 632.285156 503.996094 513 Z M 503.996094 225 " fill-opacity="1" fill-rule="nonzero"/></g></svg>