<svg xmlns="http://www.w3.org/2000/svg" xmlns:xlink="http://www.w3.org/1999/xlink" width="1920" zoomAndPan="magnify" viewBox="0 0 1440 809.999993" height="1080" preserveAspectRatio="xMidYMid meet" version="1.0"><defs><clipPath id="6f34e387ee"><path d="M 81 383 L 282 383 L 282 537.75 L 81 537.75 Z M 81 383 " clip-rule="nonzero"/></clipPath><clipPath id="5f8336434f"><path d="M 212 260.25 L 351 260.25 L 351 537.75 L 212 537.75 Z M 212 260.25 " clip-rule="nonzero"/></clipPath></defs><path fill="#aab8c2" d="M 181.304688 283.375 C 138.71875 283.375 104.199219 317.886719 104.199219 360.457031 L 104.199219 437.542969 L 135.042969 437.542969 L 135.042969 360.457031 C 135.042969 334.921875 155.757812 314.207031 181.304688 314.207031 C 206.847656 314.207031 227.566406 334.921875 227.566406 360.457031 L 227.566406 437.542969 L 258.40625 437.542969 L 258.40625 360.457031 C 258.40625 317.886719 223.886719 283.375 181.304688 283.375 Z M 181.304688 283.375 " fill-opacity="1" fill-rule="nonzero"/><g clip-path="url(#6f34e387ee)"><path fill="#ffac33" d="M 281.539062 506.917969 C 281.539062 523.945312 267.730469 537.75 250.695312 537.75 L 111.910156 537.75 C 94.878906 537.75 81.070312 523.945312 81.070312 506.917969 L 81.070312 414.417969 C 81.070312 397.390625 94.878906 383.582031 111.910156 383.582031 L 250.695312 383.582031 C 267.730469 383.582031 281.539062 397.390625 281.539062 414.417969 Z M 281.539062 506.917969 " fill-opacity="1" fill-rule="nonzero"/></g><g clip-path="url(#5f8336434f)"><path fill="#c1694f" d="M 350.929688 329.625 C 350.929688 291.308594 319.867188 260.25 281.539062 260.25 C 243.210938 260.25 212.144531 291.308594 212.144531 329.625 C 212.144531 359.820312 231.476562 385.433594 258.40625 394.96875 L 258.40625 518.480469 C 258.40625 529.125 267.035156 537.75 277.683594 537.75 C 287.035156 537.75 294.824219 531.089844 296.574219 522.257812 C 296.710938 522.265625 296.820312 522.332031 296.957031 522.332031 C 301.222656 522.332031 304.667969 518.886719 304.667969 514.625 L 304.667969 506.917969 C 304.667969 502.652344 301.222656 499.207031 296.957031 499.207031 L 296.957031 491.5 C 301.222656 491.5 304.667969 488.054688 304.667969 483.792969 L 304.667969 468.375 C 304.667969 464.113281 301.222656 460.667969 296.957031 460.667969 L 296.957031 443.113281 C 301.554688 440.441406 304.667969 435.53125 304.667969 429.832031 L 304.667969 394.96875 C 331.601562 385.441406 350.929688 359.828125 350.929688 329.625 Z M 281.539062 275.667969 C 290.050781 275.667969 296.957031 282.574219 296.957031 291.082031 C 296.957031 299.59375 290.050781 306.5 281.539062 306.5 C 273.027344 306.5 266.117188 299.59375 266.117188 291.082031 C 266.117188 282.574219 273.027344 275.667969 281.539062 275.667969 Z M 281.539062 275.667969 " fill-opacity="1" fill-rule="nonzero"/></g></svg>