<svg xmlns="http://www.w3.org/2000/svg" xmlns:xlink="http://www.w3.org/1999/xlink" width="1920" zoomAndPan="magnify" viewBox="0 0 1440 809.999993" height="1080" preserveAspectRatio="xMidYMid meet" version="1.0"><defs><filter x="0%" y="0%" width="100%" height="100%" id="cb529c34ae"><feColorMatrix values="0 0 0 0 1 0 0 0 0 1 0 0 0 0 1 0 0 0 1 0" color-interpolation-filters="sRGB"/></filter><mask id="91455db45b"><g filter="url(#cb529c34ae)"><rect x="-144" width="1728" fill="#000000" y="-80.999999" height="971.999992" fill-opacity="0.3"/></g></mask><clipPath id="2e6450d0f5"><path d="M 1 123 L 202 123 L 202 277.75 L 1 277.75 Z M 1 123 " clip-rule="nonzero"/></clipPath><clipPath id="b927e52390"><path d="M 132 0.25 L 271 0.25 L 271 277.75 L 132 277.75 Z M 132 0.25 " clip-rule="nonzero"/></clipPath><clipPath id="6fd37b54c1"><rect x="0" width="272" y="0" height="278"/></clipPath><mask id="98b3e95089"><g filter="url(#cb529c34ae)"><rect x="-144" width="1728" fill="#000000" y="-80.999999" height="971.999992" fill-opacity="0.3"/></g></mask><clipPath id="5d42ad7ff0"><rect x="0" width="290" y="0" height="290"/></clipPath><mask id="8e95005b27"><g filter="url(#cb529c34ae)"><rect x="-144" width="1728" fill="#000000" y="-80.999999" height="971.999992" fill-opacity="0.3"/></g></mask><clipPath id="c348dbf65a"><path d="M 0.789062 0.25 L 323.289062 0.25 L 323.289062 277.75 L 0.789062 277.75 Z M 0.789062 0.25 " clip-rule="nonzero"/></clipPath><clipPath id="266c50b29d"><rect x="0" width="325" y="0" height="278"/></clipPath><clipPath id="99b84466dc"><path d="M 215.964844 81 L 1050.714844 81 L 1050.714844 729 L 215.964844 729 Z M 215.964844 81 " clip-rule="nonzero"/></clipPath><clipPath id="cf5deca73b"><path d="M 5 0 L 407 0 L 407 647 L 5 647 Z M 5 0 " clip-rule="nonzero"/></clipPath><clipPath id="35086a957f"><path d="M 429 0 L 831 0 L 831 647 L 429 647 Z M 429 0 " clip-rule="nonzero"/></clipPath><clipPath id="fb6df604ab"><rect x="0" width="836" y="0" height="648"/></clipPath><clipPath id="c99fe9ba10"><path d="M 1214.25 254.25 L 1359 254.25 L 1359 416 L 1214.25 416 Z M 1214.25 254.25 " clip-rule="nonzero"/></clipPath><clipPath id="34a6372f8e"><path d="M 1238 254.25 L 1335 254.25 L 1335 416 L 1238 416 Z M 1238 254.25 " clip-rule="nonzero"/></clipPath><clipPath id="b8041f7263"><path d="M 1254 254.25 L 1319 254.25 L 1319 416 L 1254 416 Z M 1254 254.25 " clip-rule="nonzero"/></clipPath><clipPath id="3a653da4a6"><path d="M 1222 407 L 1351 407 L 1351 543.75 L 1222 543.75 Z M 1222 407 " clip-rule="nonzero"/></clipPath></defs><g mask="url(#91455db45b)"><g transform="matrix(1, 0, 0, 1, 80, 260)"><g clip-path="url(#6fd37b54c1)"><path fill="#aab8c2" d="M 101.304688 23.375 C 58.71875 23.375 24.199219 57.886719 24.199219 100.457031 L 24.199219 177.542969 L 55.042969 177.542969 L 55.042969 100.457031 C 55.042969 74.921875 75.757812 54.207031 101.304688 54.207031 C 126.847656 54.207031 147.566406 74.921875 147.566406 100.457031 L 147.566406 177.542969 L 178.40625 177.542969 L 178.40625 100.457031 C 178.40625 57.886719 143.886719 23.375 101.304688 23.375 Z M 101.304688 23.375 " fill-opacity="1" fill-rule="nonzero"/><g clip-path="url(#2e6450d0f5)"><path fill="#ffac33" d="M 201.539062 246.917969 C 201.539062 263.945312 187.730469 277.75 170.695312 277.75 L 31.910156 277.75 C 14.878906 277.75 1.070312 263.945312 1.070312 246.917969 L 1.070312 154.417969 C 1.070312 137.390625 14.878906 123.582031 31.910156 123.582031 L 170.695312 123.582031 C 187.730469 123.582031 201.539062 137.390625 201.539062 154.417969 Z M 201.539062 246.917969 " fill-opacity="1" fill-rule="nonzero"/></g><g clip-path="url(#b927e52390)"><path fill="#c1694f" d="M 270.929688 69.625 C 270.929688 31.308594 239.867188 0.25 201.539062 0.25 C 163.210938 0.25 132.144531 31.308594 132.144531 69.625 C 132.144531 99.820312 151.476562 125.433594 178.40625 134.96875 L 178.40625 258.480469 C 178.40625 269.125 187.035156 277.75 197.683594 277.75 C 207.035156 277.75 214.824219 271.089844 216.574219 262.257812 C 216.710938 262.265625 216.820312 262.332031 216.957031 262.332031 C 221.222656 262.332031 224.667969 258.886719 224.667969 254.625 L 224.667969 246.917969 C 224.667969 242.652344 221.222656 239.207031 216.957031 239.207031 L 216.957031 231.5 C 221.222656 231.5 224.667969 228.054688 224.667969 223.792969 L 224.667969 208.375 C 224.667969 204.113281 221.222656 200.667969 216.957031 200.667969 L 216.957031 183.113281 C 221.554688 180.441406 224.667969 175.53125 224.667969 169.832031 L 224.667969 134.96875 C 251.601562 125.441406 270.929688 99.828125 270.929688 69.625 Z M 201.539062 15.667969 C 210.050781 15.667969 216.957031 22.574219 216.957031 31.082031 C 216.957031 39.59375 210.050781 46.5 201.539062 46.5 C 193.027344 46.5 186.117188 39.59375 186.117188 31.082031 C 186.117188 22.574219 193.027344 15.667969 201.539062 15.667969 Z M 201.539062 15.667969 " fill-opacity="1" fill-rule="nonzero"/></g></g></g></g><g mask="url(#98b3e95089)"><g transform="matrix(1, 0, 0, 1, 430, 254)"><g clip-path="url(#5d42ad7ff0)"><path fill="#8899a6" d="M 125.355469 83.257812 L 166.515625 42.097656 C 166.515625 42.097656 207.675781 0.9375 248.839844 42.097656 C 290 83.257812 248.839844 124.417969 248.839844 124.417969 L 193.957031 179.300781 C 193.957031 179.300781 152.796875 220.460938 111.636719 179.300781 C 103.917969 171.582031 99.136719 161.328125 99.136719 161.328125 L 122.136719 138.359375 C 122.136719 138.359375 121.210938 147.714844 132.214844 158.71875 C 132.214844 158.71875 152.796875 179.300781 173.375 158.71875 L 228.257812 103.839844 C 228.257812 103.839844 248.839844 83.257812 228.257812 62.679688 C 207.675781 42.097656 187.097656 62.679688 187.097656 62.679688 L 161.515625 88.257812 C 161.515625 88.257812 148.796875 77.824219 122.78125 85.832031 Z M 125.355469 83.257812 " fill-opacity="1" fill-rule="nonzero"/><path fill="#8899a6" d="M 165.453125 206.742188 L 124.292969 247.902344 C 124.292969 247.902344 83.132812 289.0625 41.96875 247.902344 C 0.808594 206.742188 41.96875 165.582031 41.96875 165.582031 L 96.851562 110.699219 C 96.851562 110.699219 138.011719 69.539062 179.171875 110.699219 C 186.890625 118.417969 191.671875 128.671875 191.671875 128.671875 L 168.664062 151.648438 C 168.664062 151.648438 169.589844 142.285156 158.585938 131.28125 C 158.585938 131.28125 138.003906 110.699219 117.425781 131.28125 L 62.542969 186.160156 C 62.542969 186.160156 41.964844 206.742188 62.542969 227.324219 C 83.125 247.902344 103.703125 227.324219 103.703125 227.324219 L 129.285156 201.742188 C 129.285156 201.742188 142.003906 212.175781 168.019531 204.167969 Z M 165.453125 206.742188 " fill-opacity="1" fill-rule="nonzero"/></g></g></g><g mask="url(#8e95005b27)"><g transform="matrix(1, 0, 0, 1, 805, 260)"><g clip-path="url(#266c50b29d)"><g clip-path="url(#c348dbf65a)"><path fill="#d99e82" d="M 162.039062 0.910156 C 72.984375 0.910156 0.789062 62.824219 0.789062 139.1875 C 0.789062 148.742188 1.917969 158.074219 4.074219 167.082031 C 20.011719 194.515625 31.039062 177.199219 81.414062 151.996094 C 132.71875 126.328125 81.414062 187.847656 63.496094 223.699219 C 57.988281 234.722656 60.96875 244.054688 68.511719 251.699219 C 94.902344 267.867188 127.136719 277.476562 162.039062 277.476562 C 251.09375 277.476562 323.289062 215.570312 323.289062 139.1875 C 323.289062 62.824219 251.09375 0.910156 162.039062 0.910156 Z M 187.558594 220.023438 C 184.019531 232.089844 165.523438 237.269531 146.234375 231.59375 C 126.949219 225.929688 114.183594 211.574219 117.722656 199.5 C 121.257812 187.433594 139.757812 182.253906 159.046875 187.9375 C 178.332031 193.59375 191.097656 207.953125 187.558594 220.023438 Z M 187.558594 220.023438 " fill-opacity="1" fill-rule="nonzero"/></g><path fill="#5c913b" d="M 117.246094 71.332031 C 117.246094 72.210938 117.203125 73.089844 117.117188 73.964844 C 117.03125 74.84375 116.902344 75.710938 116.730469 76.574219 C 116.558594 77.441406 116.34375 78.292969 116.089844 79.136719 C 115.832031 79.976562 115.539062 80.804688 115.199219 81.621094 C 114.863281 82.433594 114.488281 83.230469 114.074219 84.003906 C 113.65625 84.78125 113.207031 85.535156 112.714844 86.269531 C 112.226562 87 111.703125 87.707031 111.144531 88.386719 C 110.585938 89.070312 109.996094 89.71875 109.375 90.34375 C 108.753906 90.964844 108.101562 91.558594 107.421875 92.117188 C 106.738281 92.675781 106.035156 93.199219 105.300781 93.6875 C 104.570312 94.175781 103.816406 94.628906 103.039062 95.042969 C 102.261719 95.460938 101.46875 95.835938 100.65625 96.171875 C 99.84375 96.507812 99.015625 96.804688 98.171875 97.0625 C 97.332031 97.316406 96.476562 97.53125 95.613281 97.703125 C 94.75 97.875 93.882812 98.003906 93.003906 98.089844 C 92.128906 98.175781 91.25 98.21875 90.371094 98.21875 C 89.492188 98.21875 88.613281 98.175781 87.738281 98.089844 C 86.859375 98.003906 85.992188 97.875 85.128906 97.703125 C 84.265625 97.53125 83.410156 97.316406 82.570312 97.0625 C 81.726562 96.804688 80.898438 96.507812 80.085938 96.171875 C 79.273438 95.835938 78.476562 95.460938 77.703125 95.042969 C 76.925781 94.628906 76.171875 94.175781 75.441406 93.6875 C 74.707031 93.199219 74.003906 92.675781 73.320312 92.117188 C 72.640625 91.558594 71.988281 90.964844 71.367188 90.34375 C 70.746094 89.71875 70.15625 89.070312 69.597656 88.386719 C 69.039062 87.707031 68.515625 87 68.023438 86.269531 C 67.535156 85.535156 67.085938 84.78125 66.667969 84.003906 C 66.253906 83.230469 65.878906 82.433594 65.542969 81.621094 C 65.203125 80.804688 64.910156 79.976562 64.652344 79.136719 C 64.398438 78.292969 64.183594 77.441406 64.011719 76.574219 C 63.839844 75.710938 63.710938 74.84375 63.625 73.964844 C 63.539062 73.089844 63.496094 72.210938 63.496094 71.332031 C 63.496094 70.449219 63.539062 69.570312 63.625 68.695312 C 63.710938 67.816406 63.839844 66.949219 64.011719 66.085938 C 64.183594 65.222656 64.398438 64.367188 64.652344 63.523438 C 64.910156 62.683594 65.203125 61.855469 65.542969 61.039062 C 65.878906 60.226562 66.253906 59.429688 66.667969 58.65625 C 67.085938 57.878906 67.535156 57.125 68.023438 56.390625 C 68.515625 55.660156 69.039062 54.953125 69.597656 54.273438 C 70.15625 53.589844 70.746094 52.941406 71.367188 52.316406 C 71.988281 51.695312 72.640625 51.105469 73.320312 50.546875 C 74.003906 49.984375 74.707031 49.460938 75.441406 48.972656 C 76.171875 48.484375 76.925781 48.03125 77.703125 47.617188 C 78.476562 47.203125 79.273438 46.824219 80.085938 46.488281 C 80.898438 46.152344 81.726562 45.855469 82.570312 45.597656 C 83.410156 45.34375 84.265625 45.128906 85.128906 44.957031 C 85.992188 44.785156 86.859375 44.65625 87.738281 44.570312 C 88.613281 44.484375 89.492188 44.441406 90.371094 44.441406 C 91.25 44.441406 92.128906 44.484375 93.003906 44.570312 C 93.882812 44.65625 94.75 44.785156 95.613281 44.957031 C 96.476562 45.128906 97.332031 45.34375 98.171875 45.597656 C 99.015625 45.855469 99.84375 46.152344 100.65625 46.488281 C 101.46875 46.824219 102.261719 47.203125 103.039062 47.617188 C 103.816406 48.03125 104.570312 48.484375 105.300781 48.972656 C 106.035156 49.460938 106.738281 49.984375 107.421875 50.546875 C 108.101562 51.105469 108.753906 51.695312 109.375 52.316406 C 109.996094 52.941406 110.585938 53.589844 111.144531 54.273438 C 111.703125 54.953125 112.226562 55.660156 112.714844 56.390625 C 113.207031 57.125 113.65625 57.878906 114.074219 58.65625 C 114.488281 59.429688 114.863281 60.226562 115.199219 61.039062 C 115.539062 61.855469 115.832031 62.683594 116.089844 63.523438 C 116.34375 64.367188 116.558594 65.222656 116.730469 66.085938 C 116.902344 66.949219 117.03125 67.816406 117.117188 68.695312 C 117.203125 69.570312 117.246094 70.449219 117.246094 71.332031 Z M 117.246094 71.332031 " fill-opacity="1" fill-rule="nonzero"/><path fill="#226699" d="M 206.828125 53.40625 C 206.828125 54.285156 206.785156 55.164062 206.699219 56.039062 C 206.613281 56.917969 206.484375 57.785156 206.3125 58.648438 C 206.140625 59.515625 205.925781 60.367188 205.671875 61.210938 C 205.417969 62.050781 205.121094 62.878906 204.785156 63.695312 C 204.445312 64.507812 204.070312 65.304688 203.65625 66.078125 C 203.242188 66.855469 202.789062 67.609375 202.300781 68.34375 C 201.8125 69.074219 201.289062 69.78125 200.730469 70.460938 C 200.171875 71.144531 199.582031 71.792969 198.957031 72.417969 C 198.335938 73.039062 197.683594 73.632812 197.003906 74.191406 C 196.324219 74.75 195.617188 75.273438 194.886719 75.761719 C 194.152344 76.25 193.398438 76.703125 192.625 77.117188 C 191.847656 77.535156 191.050781 77.910156 190.238281 78.246094 C 189.425781 78.582031 188.597656 78.878906 187.753906 79.136719 C 186.914062 79.390625 186.0625 79.605469 185.199219 79.777344 C 184.335938 79.949219 183.464844 80.078125 182.589844 80.164062 C 181.710938 80.25 180.835938 80.292969 179.953125 80.292969 C 179.074219 80.292969 178.195312 80.25 177.320312 80.164062 C 176.445312 80.078125 175.574219 79.949219 174.710938 79.777344 C 173.847656 79.605469 172.996094 79.390625 172.152344 79.136719 C 171.3125 78.878906 170.484375 78.582031 169.667969 78.246094 C 168.855469 77.910156 168.0625 77.535156 167.285156 77.117188 C 166.507812 76.703125 165.753906 76.25 165.023438 75.761719 C 164.292969 75.273438 163.585938 74.75 162.90625 74.191406 C 162.226562 73.632812 161.574219 73.039062 160.949219 72.417969 C 160.328125 71.792969 159.738281 71.144531 159.179688 70.460938 C 158.621094 69.78125 158.097656 69.074219 157.609375 68.34375 C 157.121094 67.609375 156.667969 66.855469 156.253906 66.078125 C 155.835938 65.304688 155.460938 64.507812 155.125 63.695312 C 154.789062 62.878906 154.492188 62.050781 154.238281 61.210938 C 153.980469 60.367188 153.765625 59.515625 153.597656 58.648438 C 153.425781 57.785156 153.296875 56.917969 153.207031 56.039062 C 153.121094 55.164062 153.078125 54.285156 153.078125 53.40625 C 153.078125 52.523438 153.121094 51.644531 153.207031 50.769531 C 153.296875 49.890625 153.425781 49.023438 153.597656 48.160156 C 153.765625 47.296875 153.980469 46.441406 154.238281 45.597656 C 154.492188 44.757812 154.789062 43.929688 155.125 43.113281 C 155.460938 42.300781 155.835938 41.503906 156.253906 40.730469 C 156.667969 39.953125 157.121094 39.199219 157.609375 38.464844 C 158.097656 37.734375 158.621094 37.027344 159.179688 36.347656 C 159.738281 35.664062 160.328125 35.015625 160.949219 34.390625 C 161.574219 33.769531 162.226562 33.179688 162.90625 32.621094 C 163.585938 32.058594 164.292969 31.535156 165.023438 31.046875 C 165.753906 30.558594 166.507812 30.105469 167.285156 29.691406 C 168.0625 29.277344 168.855469 28.898438 169.667969 28.5625 C 170.484375 28.226562 171.3125 27.929688 172.152344 27.671875 C 172.996094 27.417969 173.847656 27.203125 174.710938 27.03125 C 175.574219 26.859375 176.445312 26.730469 177.320312 26.644531 C 178.195312 26.558594 179.074219 26.515625 179.953125 26.515625 C 180.835938 26.515625 181.710938 26.558594 182.589844 26.644531 C 183.464844 26.730469 184.335938 26.859375 185.199219 27.03125 C 186.0625 27.203125 186.914062 27.417969 187.753906 27.671875 C 188.597656 27.929688 189.425781 28.226562 190.238281 28.5625 C 191.050781 28.898438 191.847656 29.277344 192.625 29.691406 C 193.398438 30.105469 194.152344 30.558594 194.886719 31.046875 C 195.617188 31.535156 196.324219 32.058594 197.003906 32.621094 C 197.683594 33.179688 198.335938 33.769531 198.957031 34.390625 C 199.582031 35.015625 200.171875 35.664062 200.730469 36.347656 C 201.289062 37.027344 201.8125 37.734375 202.300781 38.464844 C 202.789062 39.199219 203.242188 39.953125 203.65625 40.730469 C 204.070312 41.503906 204.445312 42.300781 204.785156 43.113281 C 205.121094 43.929688 205.417969 44.757812 205.671875 45.597656 C 205.925781 46.441406 206.140625 47.296875 206.3125 48.160156 C 206.484375 49.023438 206.613281 49.890625 206.699219 50.769531 C 206.785156 51.644531 206.828125 52.523438 206.828125 53.40625 Z M 206.828125 53.40625 " fill-opacity="1" fill-rule="nonzero"/><path fill="#dd2e44" d="M 287.453125 107.183594 C 287.453125 108.0625 287.410156 108.941406 287.324219 109.816406 C 287.238281 110.695312 287.109375 111.5625 286.9375 112.425781 C 286.765625 113.292969 286.550781 114.144531 286.296875 114.988281 C 286.042969 115.828125 285.746094 116.65625 285.410156 117.472656 C 285.070312 118.285156 284.695312 119.082031 284.28125 119.855469 C 283.867188 120.632812 283.414062 121.386719 282.925781 122.121094 C 282.4375 122.851562 281.914062 123.558594 281.355469 124.238281 C 280.796875 124.921875 280.207031 125.570312 279.582031 126.195312 C 278.960938 126.816406 278.308594 127.410156 277.628906 127.96875 C 276.949219 128.527344 276.242188 129.050781 275.511719 129.539062 C 274.777344 130.027344 274.023438 130.480469 273.25 130.894531 C 272.472656 131.308594 271.675781 131.6875 270.863281 132.023438 C 270.050781 132.359375 269.222656 132.65625 268.378906 132.914062 C 267.539062 133.167969 266.6875 133.382812 265.824219 133.554688 C 264.960938 133.726562 264.089844 133.855469 263.214844 133.941406 C 262.335938 134.027344 261.460938 134.070312 260.578125 134.070312 C 259.699219 134.070312 258.820312 134.027344 257.945312 133.941406 C 257.070312 133.855469 256.199219 133.726562 255.335938 133.554688 C 254.472656 133.382812 253.621094 133.167969 252.777344 132.914062 C 251.9375 132.65625 251.109375 132.359375 250.292969 132.023438 C 249.480469 131.6875 248.6875 131.308594 247.910156 130.894531 C 247.132812 130.480469 246.378906 130.027344 245.648438 129.539062 C 244.917969 129.050781 244.210938 128.527344 243.53125 127.96875 C 242.847656 127.410156 242.199219 126.816406 241.574219 126.195312 C 240.953125 125.570312 240.363281 124.921875 239.804688 124.238281 C 239.246094 123.558594 238.722656 122.851562 238.234375 122.121094 C 237.746094 121.386719 237.292969 120.632812 236.878906 119.855469 C 236.460938 119.082031 236.085938 118.285156 235.75 117.472656 C 235.414062 116.65625 235.117188 115.828125 234.863281 114.988281 C 234.605469 114.144531 234.390625 113.292969 234.222656 112.425781 C 234.050781 111.5625 233.921875 110.695312 233.832031 109.816406 C 233.746094 108.941406 233.703125 108.0625 233.703125 107.183594 C 233.703125 106.300781 233.746094 105.421875 233.832031 104.546875 C 233.921875 103.667969 234.050781 102.800781 234.222656 101.9375 C 234.390625 101.074219 234.605469 100.21875 234.863281 99.375 C 235.117188 98.535156 235.414062 97.707031 235.75 96.890625 C 236.085938 96.078125 236.460938 95.28125 236.878906 94.507812 C 237.292969 93.730469 237.746094 92.976562 238.234375 92.242188 C 238.722656 91.511719 239.246094 90.804688 239.804688 90.125 C 240.363281 89.441406 240.953125 88.792969 241.574219 88.167969 C 242.199219 87.546875 242.847656 86.957031 243.53125 86.398438 C 244.210938 85.835938 244.917969 85.3125 245.648438 84.824219 C 246.378906 84.335938 247.132812 83.882812 247.910156 83.46875 C 248.6875 83.054688 249.480469 82.675781 250.292969 82.339844 C 251.109375 82.003906 251.9375 81.707031 252.777344 81.449219 C 253.621094 81.195312 254.472656 80.980469 255.335938 80.808594 C 256.199219 80.636719 257.070312 80.507812 257.945312 80.421875 C 258.820312 80.335938 259.699219 80.292969 260.578125 80.292969 C 261.460938 80.292969 262.335938 80.335938 263.214844 80.421875 C 264.089844 80.507812 264.960938 80.636719 265.824219 80.808594 C 266.6875 80.980469 267.539062 81.195312 268.378906 81.449219 C 269.222656 81.707031 270.050781 82.003906 270.863281 82.339844 C 271.675781 82.675781 272.472656 83.054688 273.25 83.46875 C 274.023438 83.882812 274.777344 84.335938 275.511719 84.824219 C 276.242188 85.3125 276.949219 85.835938 277.628906 86.398438 C 278.308594 86.957031 278.960938 87.546875 279.582031 88.167969 C 280.207031 88.792969 280.796875 89.441406 281.355469 90.125 C 281.914062 90.804688 282.4375 91.511719 282.925781 92.242188 C 283.414062 92.976562 283.867188 93.730469 284.28125 94.507812 C 284.695312 95.28125 285.070312 96.078125 285.410156 96.890625 C 285.746094 97.707031 286.042969 98.535156 286.296875 99.375 C 286.550781 100.21875 286.765625 101.074219 286.9375 101.9375 C 287.109375 102.800781 287.238281 103.667969 287.324219 104.546875 C 287.410156 105.421875 287.453125 106.300781 287.453125 107.183594 Z M 287.453125 107.183594 " fill-opacity="1" fill-rule="nonzero"/><path fill="#ffcc4d" d="M 278.496094 187.847656 C 278.496094 188.726562 278.453125 189.605469 278.367188 190.484375 C 278.28125 191.359375 278.152344 192.230469 277.980469 193.09375 C 277.808594 193.957031 277.59375 194.808594 277.339844 195.652344 C 277.082031 196.496094 276.785156 197.324219 276.449219 198.136719 C 276.113281 198.949219 275.738281 199.746094 275.324219 200.523438 C 274.90625 201.300781 274.457031 202.054688 273.964844 202.785156 C 273.476562 203.519531 272.953125 204.226562 272.394531 204.90625 C 271.835938 205.585938 271.246094 206.238281 270.625 206.859375 C 270.003906 207.484375 269.351562 208.074219 268.671875 208.632812 C 267.988281 209.191406 267.285156 209.714844 266.550781 210.203125 C 265.820312 210.695312 265.066406 211.144531 264.289062 211.5625 C 263.511719 211.976562 262.71875 212.351562 261.90625 212.691406 C 261.09375 213.027344 260.265625 213.324219 259.421875 213.578125 C 258.582031 213.835938 257.726562 214.046875 256.863281 214.21875 C 256 214.390625 255.132812 214.519531 254.253906 214.605469 C 253.378906 214.691406 252.5 214.738281 251.621094 214.738281 C 250.742188 214.738281 249.863281 214.691406 248.988281 214.605469 C 248.109375 214.519531 247.242188 214.390625 246.378906 214.21875 C 245.515625 214.046875 244.660156 213.835938 243.820312 213.578125 C 242.976562 213.324219 242.148438 213.027344 241.335938 212.691406 C 240.523438 212.351562 239.726562 211.976562 238.953125 211.5625 C 238.175781 211.144531 237.421875 210.695312 236.691406 210.203125 C 235.957031 209.714844 235.253906 209.191406 234.570312 208.632812 C 233.890625 208.074219 233.238281 207.484375 232.617188 206.859375 C 231.996094 206.238281 231.40625 205.585938 230.847656 204.90625 C 230.289062 204.226562 229.765625 203.519531 229.273438 202.785156 C 228.785156 202.054688 228.335938 201.300781 227.917969 200.523438 C 227.503906 199.746094 227.128906 198.949219 226.792969 198.136719 C 226.453125 197.324219 226.160156 196.496094 225.902344 195.652344 C 225.648438 194.808594 225.433594 193.957031 225.261719 193.09375 C 225.089844 192.230469 224.960938 191.359375 224.875 190.484375 C 224.789062 189.605469 224.746094 188.726562 224.746094 187.847656 C 224.746094 186.96875 224.789062 186.089844 224.875 185.210938 C 224.960938 184.335938 225.089844 183.464844 225.261719 182.601562 C 225.433594 181.738281 225.648438 180.886719 225.902344 180.042969 C 226.160156 179.199219 226.453125 178.371094 226.792969 177.558594 C 227.128906 176.746094 227.503906 175.949219 227.917969 175.171875 C 228.335938 174.394531 228.785156 173.640625 229.273438 172.910156 C 229.765625 172.175781 230.289062 171.46875 230.847656 170.789062 C 231.40625 170.109375 231.996094 169.457031 232.617188 168.835938 C 233.238281 168.210938 233.890625 167.621094 234.570312 167.0625 C 235.253906 166.503906 235.957031 165.980469 236.691406 165.492188 C 237.421875 165 238.175781 164.550781 238.953125 164.132812 C 239.726562 163.71875 240.523438 163.34375 241.335938 163.003906 C 242.148438 162.667969 242.976562 162.371094 243.820312 162.117188 C 244.660156 161.859375 245.515625 161.648438 246.378906 161.476562 C 247.242188 161.304688 248.109375 161.175781 248.988281 161.089844 C 249.863281 161.003906 250.742188 160.960938 251.621094 160.960938 C 252.5 160.960938 253.378906 161.003906 254.253906 161.089844 C 255.132812 161.175781 256 161.304688 256.863281 161.476562 C 257.726562 161.648438 258.582031 161.859375 259.421875 162.117188 C 260.265625 162.371094 261.09375 162.667969 261.90625 163.003906 C 262.71875 163.34375 263.511719 163.71875 264.289062 164.132812 C 265.066406 164.550781 265.820312 165 266.550781 165.492188 C 267.285156 165.980469 267.988281 166.503906 268.671875 167.0625 C 269.351562 167.621094 270.003906 168.210938 270.625 168.835938 C 271.246094 169.457031 271.835938 170.109375 272.394531 170.789062 C 272.953125 171.46875 273.476562 172.175781 273.964844 172.910156 C 274.457031 173.640625 274.90625 174.394531 275.324219 175.171875 C 275.738281 175.949219 276.113281 176.746094 276.449219 177.558594 C 276.785156 178.371094 277.082031 179.199219 277.339844 180.042969 C 277.59375 180.886719 277.808594 181.738281 277.980469 182.601562 C 278.152344 183.464844 278.28125 184.335938 278.367188 185.210938 C 278.453125 186.089844 278.496094 186.96875 278.496094 187.847656 Z M 278.496094 187.847656 " fill-opacity="1" fill-rule="nonzero"/></g></g></g><g clip-path="url(#99b84466dc)"><g transform="matrix(1, 0, 0, 1, 215, 81)"><g clip-path="url(#fb6df604ab)"><path fill="#f5f8fa" d="M 22.578125 322.847656 C 22.578125 327.859375 22.652344 332.867188 22.796875 337.875 C 22.945312 342.882812 23.164062 347.878906 23.460938 352.867188 C 23.753906 357.855469 24.121094 362.828125 24.5625 367.785156 C 25.003906 372.742188 25.515625 377.679688 26.101562 382.597656 C 26.6875 387.511719 27.34375 392.402344 28.074219 397.261719 C 28.804688 402.125 29.601562 406.953125 30.476562 411.75 C 31.347656 416.546875 32.289062 421.304688 33.300781 426.023438 C 34.308594 430.746094 35.390625 435.417969 36.539062 440.050781 C 37.6875 444.679688 38.902344 449.261719 40.1875 453.792969 C 41.46875 458.324219 42.820312 462.800781 44.234375 467.21875 C 45.648438 471.640625 47.128906 476 48.671875 480.300781 C 50.214844 484.597656 51.820312 488.832031 53.488281 493 C 55.15625 497.167969 56.882812 501.265625 58.671875 505.289062 C 60.460938 509.316406 62.308594 513.265625 64.210938 517.140625 C 66.117188 521.015625 68.074219 524.808594 70.089844 528.523438 C 72.109375 532.238281 74.175781 535.867188 76.300781 539.410156 C 78.421875 542.953125 80.59375 546.410156 82.820312 549.773438 C 85.042969 553.140625 87.316406 556.414062 89.636719 559.59375 C 91.957031 562.773438 94.324219 565.855469 96.734375 568.84375 C 99.144531 571.828125 101.597656 574.714844 104.09375 577.5 C 106.589844 580.28125 109.125 582.964844 111.699219 585.539062 C 114.273438 588.117188 116.886719 590.585938 119.535156 592.949219 C 122.179688 595.3125 124.863281 597.566406 127.574219 599.707031 C 130.289062 601.851562 133.03125 603.882812 135.804688 605.800781 C 138.578125 607.71875 141.378906 609.523438 144.203125 611.210938 C 147.03125 612.898438 149.878906 614.46875 152.753906 615.925781 C 155.625 617.378906 158.519531 618.71875 161.429688 619.933594 C 164.34375 621.152344 167.269531 622.25 170.214844 623.226562 C 173.15625 624.207031 176.113281 625.0625 179.085938 625.796875 C 182.054688 626.535156 185.03125 627.148438 188.019531 627.636719 C 191.007812 628.128906 194 628.5 196.996094 628.746094 C 199.996094 628.992188 202.996094 629.113281 205.996094 629.113281 C 209 629.113281 212 628.992188 214.996094 628.746094 C 217.996094 628.5 220.988281 628.128906 223.976562 627.636719 C 226.964844 627.148438 229.941406 626.535156 232.910156 625.796875 C 235.878906 625.0625 238.835938 624.207031 241.78125 623.226562 C 244.726562 622.25 247.652344 621.152344 250.566406 619.933594 C 253.476562 618.71875 256.371094 617.378906 259.242188 615.925781 C 262.113281 614.46875 264.964844 612.898438 267.789062 611.210938 C 270.617188 609.523438 273.417969 607.71875 276.191406 605.800781 C 278.964844 603.882812 281.707031 601.851562 284.421875 599.707031 C 287.132812 597.566406 289.8125 595.3125 292.460938 592.949219 C 295.109375 590.585938 297.71875 588.117188 300.292969 585.539062 C 302.871094 582.964844 305.40625 580.28125 307.902344 577.5 C 310.398438 574.714844 312.851562 571.828125 315.261719 568.84375 C 317.671875 565.855469 320.039062 562.773438 322.359375 559.59375 C 324.679688 556.414062 326.953125 553.140625 329.175781 549.773438 C 331.398438 546.410156 333.574219 542.953125 335.695312 539.410156 C 337.816406 535.867188 339.886719 532.238281 341.902344 528.523438 C 343.917969 524.808594 345.878906 521.015625 347.785156 517.140625 C 349.6875 513.265625 351.535156 509.316406 353.324219 505.289062 C 355.109375 501.265625 356.839844 497.167969 358.507812 493 C 360.175781 488.832031 361.78125 484.597656 363.324219 480.300781 C 364.867188 476 366.34375 471.640625 367.761719 467.21875 C 369.175781 462.800781 370.523438 458.324219 371.808594 453.792969 C 373.089844 449.261719 374.308594 444.679688 375.457031 440.050781 C 376.605469 435.417969 377.683594 430.746094 378.695312 426.023438 C 379.707031 421.304688 380.648438 416.546875 381.519531 411.75 C 382.390625 406.953125 383.191406 402.125 383.921875 397.261719 C 384.652344 392.402344 385.308594 387.511719 385.894531 382.597656 C 386.480469 377.679688 386.992188 372.742188 387.433594 367.785156 C 387.875 362.828125 388.242188 357.855469 388.535156 352.867188 C 388.828125 347.878906 389.050781 342.882812 389.195312 337.875 C 389.34375 332.867188 389.417969 327.859375 389.417969 322.847656 C 389.417969 317.835938 389.34375 312.824219 389.195312 307.820312 C 389.050781 302.8125 388.828125 297.816406 388.535156 292.828125 C 388.242188 287.839844 387.875 282.867188 387.433594 277.910156 C 386.992188 272.949219 386.480469 268.011719 385.894531 263.097656 C 385.308594 258.179688 384.652344 253.292969 383.921875 248.429688 C 383.191406 243.566406 382.390625 238.738281 381.519531 233.941406 C 380.648438 229.144531 379.707031 224.386719 378.695312 219.667969 C 377.683594 214.949219 376.605469 210.273438 375.457031 205.644531 C 374.308594 201.011719 373.089844 196.433594 371.808594 191.902344 C 370.523438 187.371094 369.175781 182.894531 367.761719 178.472656 C 366.34375 174.054688 364.867188 169.695312 363.324219 165.394531 C 361.78125 161.09375 360.175781 156.863281 358.507812 152.695312 C 356.839844 148.527344 355.109375 144.429688 353.324219 140.402344 C 351.535156 136.378906 349.6875 132.429688 347.785156 128.554688 C 345.878906 124.679688 343.917969 120.886719 341.902344 117.171875 C 339.886719 113.457031 337.816406 109.828125 335.695312 106.285156 C 333.574219 102.738281 331.398438 99.285156 329.175781 95.917969 C 326.953125 92.550781 324.679688 89.28125 322.359375 86.101562 C 320.039062 82.921875 317.671875 79.835938 315.261719 76.851562 C 312.851562 73.867188 310.398438 70.980469 307.902344 68.195312 C 305.40625 65.410156 302.871094 62.730469 300.292969 60.152344 C 297.71875 57.578125 295.109375 55.105469 292.460938 52.742188 C 289.8125 50.382812 287.132812 48.128906 284.421875 45.984375 C 281.707031 43.84375 278.964844 41.8125 276.191406 39.894531 C 273.417969 37.976562 270.617188 36.171875 267.789062 34.484375 C 264.964844 32.796875 262.113281 31.222656 259.242188 29.769531 C 256.371094 28.3125 253.476562 26.976562 250.566406 25.757812 C 247.652344 24.542969 244.726562 23.441406 241.78125 22.464844 C 238.835938 21.488281 235.878906 20.628906 232.910156 19.894531 C 229.941406 19.160156 226.964844 18.546875 223.976562 18.054688 C 220.988281 17.5625 217.996094 17.195312 214.996094 16.949219 C 212 16.703125 209 16.582031 205.996094 16.582031 C 202.996094 16.582031 199.996094 16.703125 196.996094 16.949219 C 194 17.195312 191.007812 17.5625 188.019531 18.054688 C 185.03125 18.546875 182.054688 19.160156 179.085938 19.894531 C 176.113281 20.628906 173.15625 21.488281 170.214844 22.464844 C 167.269531 23.441406 164.34375 24.542969 161.429688 25.757812 C 158.519531 26.976562 155.625 28.3125 152.753906 29.769531 C 149.878906 31.222656 147.03125 32.796875 144.203125 34.484375 C 141.378906 36.171875 138.578125 37.976562 135.804688 39.894531 C 133.03125 41.8125 130.289062 43.84375 127.574219 45.984375 C 124.863281 48.128906 122.179688 50.382812 119.535156 52.742188 C 116.886719 55.105469 114.273438 57.578125 111.699219 60.152344 C 109.125 62.730469 106.589844 65.410156 104.09375 68.195312 C 101.597656 70.980469 99.144531 73.867188 96.734375 76.851562 C 94.324219 79.835938 91.957031 82.921875 89.636719 86.101562 C 87.316406 89.28125 85.042969 92.550781 82.820312 95.917969 C 80.59375 99.285156 78.421875 102.738281 76.300781 106.285156 C 74.175781 109.828125 72.109375 113.457031 70.089844 117.171875 C 68.074219 120.886719 66.117188 124.679688 64.210938 128.554688 C 62.308594 132.429688 60.460938 136.378906 58.671875 140.402344 C 56.882812 144.429688 55.15625 148.527344 53.488281 152.695312 C 51.820312 156.863281 50.214844 161.09375 48.671875 165.394531 C 47.128906 169.695312 45.648438 174.054688 44.234375 178.472656 C 42.820312 182.894531 41.46875 187.371094 40.1875 191.902344 C 38.902344 196.433594 37.6875 201.011719 36.539062 205.644531 C 35.390625 210.273438 34.308594 214.949219 33.300781 219.667969 C 32.289062 224.386719 31.347656 229.144531 30.476562 233.941406 C 29.601562 238.738281 28.804688 243.566406 28.074219 248.429688 C 27.34375 253.292969 26.6875 258.179688 26.101562 263.097656 C 25.515625 268.011719 25.003906 272.949219 24.5625 277.910156 C 24.121094 282.867188 23.753906 287.839844 23.460938 292.828125 C 23.164062 297.816406 22.945312 302.8125 22.796875 307.820312 C 22.652344 312.824219 22.578125 317.835938 22.578125 322.847656 Z M 22.578125 322.847656 " fill-opacity="1" fill-rule="nonzero"/><g clip-path="url(#cf5deca73b)"><path fill="#e1e8ed" d="M 205.996094 646.410156 C 318.546875 646.410156 406.714844 504.285156 406.714844 322.847656 C 406.714844 141.40625 318.546875 -0.714844 205.996094 -0.714844 C 93.449219 -0.714844 5.28125 141.40625 5.28125 322.847656 C 5.28125 504.285156 93.449219 646.410156 205.996094 646.410156 Z M 205.996094 33.875 C 297.605469 33.875 372.121094 163.5 372.121094 322.847656 C 372.121094 482.195312 297.605469 611.816406 205.996094 611.816406 C 114.390625 611.816406 39.875 482.195312 39.875 322.847656 C 39.875 163.5 114.390625 33.875 205.996094 33.875 Z M 205.996094 33.875 " fill-opacity="1" fill-rule="nonzero"/></g><path fill="#8899a6" d="M 187.617188 322.847656 C 187.617188 324.355469 187.652344 325.867188 187.726562 327.371094 C 187.800781 328.878906 187.914062 330.386719 188.058594 331.886719 C 188.207031 333.390625 188.394531 334.886719 188.613281 336.382812 C 188.835938 337.875 189.09375 339.363281 189.390625 340.84375 C 189.683594 342.324219 190.015625 343.796875 190.382812 345.261719 C 190.746094 346.722656 191.148438 348.179688 191.589844 349.625 C 192.027344 351.066406 192.5 352.5 193.007812 353.921875 C 193.519531 355.34375 194.0625 356.75 194.636719 358.144531 C 195.214844 359.542969 195.828125 360.921875 196.472656 362.285156 C 197.117188 363.648438 197.796875 365 198.507812 366.328125 C 199.222656 367.660156 199.964844 368.972656 200.742188 370.269531 C 201.515625 371.5625 202.324219 372.839844 203.164062 374.09375 C 204.003906 375.347656 204.871094 376.582031 205.769531 377.796875 C 206.671875 379.007812 207.597656 380.199219 208.554688 381.363281 C 209.515625 382.53125 210.5 383.675781 211.515625 384.792969 C 212.527344 385.910156 213.570312 387.003906 214.636719 388.070312 C 215.703125 389.140625 216.796875 390.179688 217.914062 391.195312 C 219.035156 392.207031 220.175781 393.191406 221.34375 394.152344 C 222.511719 395.109375 223.703125 396.039062 224.914062 396.9375 C 226.125 397.835938 227.359375 398.703125 228.617188 399.542969 C 229.871094 400.382812 231.148438 401.1875 232.441406 401.964844 C 233.738281 402.742188 235.050781 403.484375 236.382812 404.195312 C 237.710938 404.910156 239.0625 405.585938 240.425781 406.234375 C 241.789062 406.878906 243.171875 407.488281 244.566406 408.066406 C 245.960938 408.644531 247.367188 409.1875 248.789062 409.695312 C 250.210938 410.207031 251.644531 410.679688 253.089844 411.117188 C 254.535156 411.554688 255.988281 411.957031 257.453125 412.324219 C 258.917969 412.691406 260.390625 413.023438 261.871094 413.316406 C 263.351562 413.609375 264.839844 413.867188 266.332031 414.089844 C 267.824219 414.3125 269.324219 414.496094 270.828125 414.644531 C 272.328125 414.792969 273.832031 414.902344 275.34375 414.976562 C 276.851562 415.050781 278.359375 415.089844 279.867188 415.089844 C 281.378906 415.089844 282.886719 415.050781 284.394531 414.976562 C 285.902344 414.902344 287.410156 414.792969 288.910156 414.644531 C 290.414062 414.496094 291.910156 414.3125 293.40625 414.089844 C 294.898438 413.867188 296.386719 413.609375 297.867188 413.316406 C 299.347656 413.023438 300.820312 412.691406 302.285156 412.324219 C 303.75 411.957031 305.203125 411.554688 306.648438 411.117188 C 308.09375 410.679688 309.527344 410.207031 310.949219 409.695312 C 312.367188 409.1875 313.777344 408.644531 315.171875 408.066406 C 316.566406 407.488281 317.945312 406.878906 319.3125 406.234375 C 320.675781 405.585938 322.023438 404.910156 323.355469 404.195312 C 324.6875 403.484375 326 402.742188 327.296875 401.964844 C 328.589844 401.1875 329.867188 400.382812 331.121094 399.542969 C 332.375 398.703125 333.609375 397.835938 334.824219 396.9375 C 336.035156 396.035156 337.226562 395.109375 338.394531 394.152344 C 339.558594 393.191406 340.703125 392.207031 341.820312 391.195312 C 342.941406 390.179688 344.035156 389.140625 345.101562 388.070312 C 346.167969 387.003906 347.210938 385.910156 348.222656 384.792969 C 349.238281 383.675781 350.222656 382.53125 351.179688 381.363281 C 352.136719 380.199219 353.066406 379.007812 353.964844 377.796875 C 354.867188 376.582031 355.734375 375.347656 356.574219 374.09375 C 357.414062 372.839844 358.21875 371.5625 358.996094 370.269531 C 359.773438 368.972656 360.515625 367.660156 361.226562 366.328125 C 361.941406 365 362.617188 363.648438 363.265625 362.285156 C 363.910156 360.921875 364.519531 359.542969 365.097656 358.144531 C 365.675781 356.75 366.21875 355.34375 366.726562 353.921875 C 367.238281 352.5 367.710938 351.066406 368.148438 349.625 C 368.585938 348.179688 368.988281 346.722656 369.355469 345.261719 C 369.722656 343.796875 370.054688 342.324219 370.347656 340.84375 C 370.644531 339.363281 370.902344 337.875 371.121094 336.382812 C 371.34375 334.886719 371.527344 333.390625 371.675781 331.886719 C 371.824219 330.386719 371.9375 328.878906 372.011719 327.371094 C 372.082031 325.867188 372.121094 324.355469 372.121094 322.847656 C 372.121094 321.335938 372.082031 319.828125 372.011719 318.320312 C 371.9375 316.8125 371.824219 315.308594 371.675781 313.804688 C 371.527344 312.304688 371.34375 310.804688 371.121094 309.3125 C 370.902344 307.820312 370.644531 306.332031 370.347656 304.851562 C 370.054688 303.371094 369.722656 301.898438 369.355469 300.433594 C 368.988281 298.96875 368.585938 297.515625 368.148438 296.070312 C 367.710938 294.625 367.238281 293.191406 366.726562 291.773438 C 366.21875 290.351562 365.675781 288.941406 365.097656 287.546875 C 364.519531 286.152344 363.910156 284.773438 363.265625 283.410156 C 362.617188 282.042969 361.941406 280.695312 361.226562 279.363281 C 360.515625 278.03125 359.773438 276.71875 358.996094 275.425781 C 358.21875 274.128906 357.414062 272.855469 356.574219 271.601562 C 355.734375 270.34375 354.867188 269.109375 353.964844 267.898438 C 353.066406 266.6875 352.136719 265.496094 351.179688 264.328125 C 350.222656 263.164062 349.238281 262.019531 348.222656 260.902344 C 347.210938 259.78125 346.167969 258.691406 345.101562 257.621094 C 344.035156 256.554688 342.941406 255.515625 341.820312 254.5 C 340.703125 253.484375 339.558594 252.5 338.394531 251.542969 C 337.226562 250.585938 336.035156 249.65625 334.824219 248.757812 C 333.609375 247.859375 332.375 246.988281 331.121094 246.152344 C 329.867188 245.3125 328.589844 244.503906 327.296875 243.726562 C 326 242.953125 324.6875 242.207031 323.355469 241.496094 C 322.023438 240.785156 320.675781 240.105469 319.3125 239.460938 C 317.945312 238.816406 316.566406 238.203125 315.171875 237.625 C 313.777344 237.046875 312.367188 236.503906 310.949219 235.996094 C 309.527344 235.488281 308.09375 235.015625 306.648438 234.578125 C 305.203125 234.136719 303.75 233.734375 302.285156 233.371094 C 300.820312 233.003906 299.347656 232.671875 297.867188 232.378906 C 296.386719 232.082031 294.898438 231.824219 293.40625 231.601562 C 291.910156 231.382812 290.414062 231.195312 288.910156 231.050781 C 287.410156 230.902344 285.902344 230.789062 284.394531 230.714844 C 282.886719 230.640625 281.378906 230.605469 279.867188 230.605469 C 278.359375 230.605469 276.851562 230.640625 275.34375 230.714844 C 273.832031 230.789062 272.328125 230.902344 270.828125 231.050781 C 269.324219 231.195312 267.824219 231.382812 266.332031 231.601562 C 264.839844 231.824219 263.351562 232.082031 261.871094 232.378906 C 260.390625 232.671875 258.917969 233.003906 257.453125 233.371094 C 255.988281 233.734375 254.535156 234.140625 253.089844 234.578125 C 251.644531 235.015625 250.210938 235.488281 248.789062 235.996094 C 247.367188 236.503906 245.960938 237.046875 244.566406 237.625 C 243.171875 238.203125 241.789062 238.816406 240.425781 239.460938 C 239.0625 240.105469 237.710938 240.785156 236.382812 241.496094 C 235.050781 242.207031 233.738281 242.953125 232.441406 243.726562 C 231.148438 244.503906 229.871094 245.3125 228.617188 246.152344 C 227.359375 246.988281 226.125 247.859375 224.914062 248.757812 C 223.703125 249.65625 222.511719 250.585938 221.34375 251.542969 C 220.175781 252.5 219.035156 253.484375 217.914062 254.5 C 216.796875 255.515625 215.703125 256.554688 214.636719 257.621094 C 213.570312 258.691406 212.527344 259.78125 211.515625 260.902344 C 210.5 262.019531 209.515625 263.164062 208.554688 264.328125 C 207.597656 265.496094 206.671875 266.6875 205.769531 267.898438 C 204.871094 269.109375 204.003906 270.34375 203.164062 271.601562 C 202.324219 272.855469 201.515625 274.128906 200.742188 275.425781 C 199.964844 276.71875 199.222656 278.03125 198.507812 279.363281 C 197.796875 280.695312 197.117188 282.042969 196.472656 283.410156 C 195.828125 284.773438 195.214844 286.152344 194.636719 287.546875 C 194.0625 288.941406 193.519531 290.351562 193.007812 291.773438 C 192.5 293.191406 192.027344 294.625 191.589844 296.070312 C 191.148438 297.515625 190.746094 298.96875 190.382812 300.433594 C 190.015625 301.898438 189.683594 303.371094 189.390625 304.851562 C 189.09375 306.332031 188.835938 307.820312 188.613281 309.3125 C 188.394531 310.804688 188.207031 312.304688 188.058594 313.804688 C 187.914062 315.308594 187.800781 316.8125 187.726562 318.320312 C 187.652344 319.828125 187.617188 321.335938 187.617188 322.847656 Z M 187.617188 322.847656 " fill-opacity="1" fill-rule="nonzero"/><path fill="#292f33" d="M 213.5625 322.847656 C 213.5625 323.933594 213.589844 325.015625 213.640625 326.101562 C 213.695312 327.183594 213.773438 328.265625 213.882812 329.34375 C 213.988281 330.425781 214.121094 331.5 214.28125 332.574219 C 214.4375 333.648438 214.625 334.71875 214.835938 335.78125 C 215.046875 336.84375 215.285156 337.902344 215.550781 338.957031 C 215.8125 340.007812 216.101562 341.054688 216.417969 342.09375 C 216.730469 343.128906 217.074219 344.160156 217.4375 345.183594 C 217.804688 346.203125 218.195312 347.214844 218.609375 348.21875 C 219.023438 349.222656 219.464844 350.210938 219.929688 351.191406 C 220.390625 352.175781 220.878906 353.144531 221.390625 354.101562 C 221.902344 355.058594 222.4375 356 222.996094 356.929688 C 223.554688 357.863281 224.132812 358.777344 224.738281 359.679688 C 225.339844 360.582031 225.964844 361.46875 226.609375 362.339844 C 227.257812 363.210938 227.925781 364.066406 228.613281 364.90625 C 229.300781 365.746094 230.011719 366.566406 230.738281 367.371094 C 231.46875 368.175781 232.214844 368.960938 232.984375 369.726562 C 233.75 370.496094 234.535156 371.242188 235.339844 371.972656 C 236.144531 372.699219 236.964844 373.410156 237.804688 374.097656 C 238.644531 374.785156 239.5 375.453125 240.371094 376.097656 C 241.242188 376.746094 242.128906 377.371094 243.03125 377.972656 C 243.933594 378.574219 244.847656 379.15625 245.78125 379.714844 C 246.710938 380.269531 247.65625 380.804688 248.613281 381.316406 C 249.570312 381.828125 250.539062 382.316406 251.519531 382.78125 C 252.5 383.246094 253.492188 383.683594 254.496094 384.097656 C 255.496094 384.515625 256.507812 384.90625 257.53125 385.269531 C 258.550781 385.636719 259.582031 385.976562 260.621094 386.292969 C 261.660156 386.605469 262.703125 386.894531 263.757812 387.160156 C 264.808594 387.421875 265.867188 387.660156 266.933594 387.871094 C 267.996094 388.082031 269.066406 388.269531 270.140625 388.429688 C 271.210938 388.585938 272.289062 388.71875 273.371094 388.828125 C 274.449219 388.933594 275.53125 389.011719 276.613281 389.066406 C 277.699219 389.121094 278.785156 389.144531 279.867188 389.144531 C 280.953125 389.144531 282.039062 389.121094 283.121094 389.066406 C 284.207031 389.011719 285.289062 388.933594 286.367188 388.828125 C 287.449219 388.71875 288.523438 388.585938 289.597656 388.429688 C 290.671875 388.269531 291.738281 388.082031 292.804688 387.871094 C 293.867188 387.660156 294.925781 387.421875 295.980469 387.160156 C 297.03125 386.894531 298.078125 386.605469 299.117188 386.292969 C 300.15625 385.976562 301.183594 385.636719 302.207031 385.269531 C 303.226562 384.90625 304.242188 384.515625 305.242188 384.097656 C 306.246094 383.683594 307.238281 383.246094 308.21875 382.78125 C 309.199219 382.316406 310.167969 381.828125 311.125 381.316406 C 312.082031 380.804688 313.027344 380.269531 313.957031 379.714844 C 314.886719 379.15625 315.804688 378.574219 316.707031 377.972656 C 317.609375 377.371094 318.496094 376.746094 319.367188 376.097656 C 320.238281 375.453125 321.09375 374.785156 321.933594 374.097656 C 322.773438 373.410156 323.59375 372.699219 324.398438 371.972656 C 325.203125 371.242188 325.988281 370.496094 326.753906 369.726562 C 327.523438 368.960938 328.269531 368.175781 329 367.371094 C 329.726562 366.566406 330.4375 365.746094 331.125 364.90625 C 331.8125 364.066406 332.480469 363.210938 333.125 362.339844 C 333.773438 361.46875 334.398438 360.582031 335 359.679688 C 335.601562 358.777344 336.183594 357.863281 336.742188 356.929688 C 337.300781 356 337.835938 355.058594 338.34375 354.101562 C 338.855469 353.144531 339.34375 352.175781 339.808594 351.191406 C 340.273438 350.210938 340.710938 349.222656 341.128906 348.21875 C 341.542969 347.214844 341.933594 346.203125 342.300781 345.183594 C 342.664062 344.160156 343.003906 343.128906 343.320312 342.09375 C 343.636719 341.054688 343.925781 340.007812 344.1875 338.957031 C 344.453125 337.902344 344.6875 336.84375 344.902344 335.78125 C 345.113281 334.71875 345.296875 333.648438 345.457031 332.574219 C 345.617188 331.5 345.75 330.425781 345.855469 329.34375 C 345.960938 328.265625 346.042969 327.183594 346.09375 326.101562 C 346.148438 325.015625 346.175781 323.933594 346.175781 322.847656 C 346.175781 321.761719 346.148438 320.675781 346.09375 319.59375 C 346.042969 318.511719 345.960938 317.429688 345.855469 316.347656 C 345.75 315.269531 345.617188 314.191406 345.457031 313.117188 C 345.296875 312.046875 345.113281 310.976562 344.902344 309.914062 C 344.6875 308.847656 344.453125 307.789062 344.1875 306.738281 C 343.925781 305.683594 343.636719 304.640625 343.320312 303.601562 C 343.003906 302.5625 342.664062 301.53125 342.300781 300.511719 C 341.933594 299.488281 341.542969 298.476562 341.128906 297.476562 C 340.710938 296.472656 340.273438 295.480469 339.808594 294.5 C 339.34375 293.519531 338.855469 292.550781 338.34375 291.59375 C 337.835938 290.636719 337.300781 289.691406 336.742188 288.761719 C 336.183594 287.832031 335.601562 286.914062 335 286.011719 C 334.398438 285.109375 333.773438 284.222656 333.125 283.351562 C 332.480469 282.480469 331.8125 281.625 331.125 280.789062 C 330.4375 279.949219 329.726562 279.128906 329 278.324219 C 328.269531 277.519531 327.523438 276.734375 326.753906 275.964844 C 325.988281 275.199219 325.203125 274.453125 324.398438 273.722656 C 323.59375 272.992188 322.773438 272.285156 321.933594 271.597656 C 321.09375 270.910156 320.238281 270.242188 319.367188 269.59375 C 318.496094 268.949219 317.609375 268.324219 316.707031 267.722656 C 315.804688 267.117188 314.886719 266.539062 313.957031 265.980469 C 313.027344 265.421875 312.082031 264.886719 311.125 264.375 C 310.167969 263.863281 309.199219 263.378906 308.21875 262.914062 C 307.238281 262.449219 306.246094 262.011719 305.242188 261.59375 C 304.242188 261.179688 303.226562 260.789062 302.207031 260.421875 C 301.183594 260.058594 300.15625 259.71875 299.117188 259.402344 C 298.078125 259.085938 297.03125 258.796875 295.980469 258.535156 C 294.925781 258.269531 293.867188 258.035156 292.804688 257.820312 C 291.738281 257.609375 290.671875 257.425781 289.597656 257.265625 C 288.523438 257.105469 287.449219 256.972656 286.367188 256.867188 C 285.289062 256.761719 284.207031 256.679688 283.121094 256.628906 C 282.039062 256.574219 280.953125 256.546875 279.867188 256.546875 C 278.785156 256.546875 277.699219 256.574219 276.613281 256.628906 C 275.53125 256.679688 274.449219 256.761719 273.371094 256.867188 C 272.289062 256.972656 271.210938 257.105469 270.140625 257.265625 C 269.066406 257.425781 267.996094 257.609375 266.933594 257.820312 C 265.867188 258.035156 264.808594 258.269531 263.757812 258.535156 C 262.703125 258.796875 261.660156 259.085938 260.621094 259.402344 C 259.582031 259.71875 258.550781 260.058594 257.53125 260.421875 C 256.507812 260.789062 255.496094 261.179688 254.496094 261.59375 C 253.492188 262.011719 252.5 262.449219 251.519531 262.914062 C 250.539062 263.378906 249.570312 263.863281 248.613281 264.375 C 247.65625 264.886719 246.710938 265.421875 245.78125 265.980469 C 244.847656 266.539062 243.933594 267.117188 243.03125 267.722656 C 242.128906 268.324219 241.242188 268.949219 240.371094 269.59375 C 239.5 270.242188 238.644531 270.910156 237.804688 271.597656 C 236.964844 272.285156 236.144531 272.992188 235.339844 273.722656 C 234.535156 274.453125 233.75 275.199219 232.984375 275.964844 C 232.214844 276.734375 231.46875 277.519531 230.738281 278.324219 C 230.011719 279.128906 229.300781 279.949219 228.613281 280.789062 C 227.925781 281.625 227.257812 282.480469 226.609375 283.351562 C 225.964844 284.222656 225.339844 285.109375 224.738281 286.011719 C 224.132812 286.914062 223.554688 287.832031 222.996094 288.761719 C 222.4375 289.691406 221.902344 290.636719 221.390625 291.59375 C 220.878906 292.550781 220.390625 293.519531 219.929688 294.5 C 219.464844 295.480469 219.023438 296.472656 218.609375 297.476562 C 218.195312 298.476562 217.804688 299.488281 217.4375 300.511719 C 217.074219 301.53125 216.730469 302.5625 216.417969 303.601562 C 216.101562 304.640625 215.8125 305.683594 215.550781 306.738281 C 215.285156 307.789062 215.046875 308.847656 214.835938 309.914062 C 214.625 310.976562 214.4375 312.046875 214.28125 313.117188 C 214.121094 314.191406 213.988281 315.269531 213.882812 316.347656 C 213.773438 317.429688 213.695312 318.511719 213.640625 319.59375 C 213.589844 320.675781 213.5625 321.761719 213.5625 322.847656 Z M 213.5625 322.847656 " fill-opacity="1" fill-rule="nonzero"/><path fill="#f5f8fa" d="M 226.546875 275.296875 C 226.546875 276.242188 226.59375 277.183594 226.683594 278.121094 C 226.777344 279.0625 226.917969 279.992188 227.101562 280.917969 C 227.285156 281.847656 227.515625 282.761719 227.789062 283.664062 C 228.0625 284.566406 228.378906 285.457031 228.742188 286.328125 C 229.101562 287.199219 229.503906 288.050781 229.949219 288.882812 C 230.394531 289.71875 230.878906 290.527344 231.40625 291.3125 C 231.929688 292.097656 232.492188 292.851562 233.089844 293.582031 C 233.691406 294.3125 234.324219 295.011719 234.992188 295.679688 C 235.65625 296.347656 236.355469 296.980469 237.085938 297.578125 C 237.816406 298.175781 238.574219 298.738281 239.359375 299.265625 C 240.144531 299.789062 240.953125 300.273438 241.785156 300.71875 C 242.617188 301.164062 243.472656 301.566406 244.34375 301.925781 C 245.214844 302.289062 246.101562 302.605469 247.007812 302.878906 C 247.910156 303.15625 248.824219 303.382812 249.75 303.566406 C 250.675781 303.753906 251.609375 303.890625 252.550781 303.984375 C 253.488281 304.074219 254.429688 304.121094 255.375 304.121094 C 256.320312 304.121094 257.261719 304.074219 258.203125 303.984375 C 259.140625 303.890625 260.074219 303.753906 261 303.566406 C 261.925781 303.382812 262.839844 303.15625 263.746094 302.878906 C 264.648438 302.605469 265.535156 302.289062 266.40625 301.925781 C 267.28125 301.566406 268.132812 301.164062 268.964844 300.71875 C 269.796875 300.273438 270.605469 299.789062 271.390625 299.265625 C 272.175781 298.738281 272.933594 298.175781 273.664062 297.578125 C 274.394531 296.980469 275.09375 296.347656 275.761719 295.679688 C 276.429688 295.011719 277.0625 294.3125 277.660156 293.582031 C 278.257812 292.851562 278.820312 292.097656 279.347656 291.3125 C 279.871094 290.527344 280.355469 289.71875 280.800781 288.882812 C 281.246094 288.050781 281.648438 287.199219 282.011719 286.328125 C 282.371094 285.457031 282.6875 284.566406 282.964844 283.664062 C 283.238281 282.761719 283.464844 281.847656 283.652344 280.917969 C 283.835938 279.992188 283.972656 279.0625 284.066406 278.121094 C 284.15625 277.183594 284.203125 276.242188 284.203125 275.296875 C 284.203125 274.351562 284.15625 273.410156 284.066406 272.472656 C 283.972656 271.53125 283.835938 270.597656 283.652344 269.671875 C 283.464844 268.746094 283.238281 267.832031 282.964844 266.929688 C 282.6875 266.023438 282.371094 265.136719 282.011719 264.265625 C 281.648438 263.394531 281.246094 262.539062 280.800781 261.707031 C 280.355469 260.875 279.871094 260.066406 279.347656 259.28125 C 278.820312 258.496094 278.257812 257.738281 277.660156 257.007812 C 277.0625 256.28125 276.429688 255.582031 275.761719 254.914062 C 275.09375 254.246094 274.394531 253.613281 273.664062 253.015625 C 272.933594 252.414062 272.175781 251.851562 271.390625 251.328125 C 270.605469 250.804688 269.796875 250.320312 268.964844 249.875 C 268.132812 249.429688 267.28125 249.027344 266.40625 248.664062 C 265.535156 248.304688 264.648438 247.984375 263.746094 247.710938 C 262.839844 247.4375 261.925781 247.207031 261 247.023438 C 260.074219 246.839844 259.140625 246.703125 258.203125 246.609375 C 257.261719 246.515625 256.320312 246.46875 255.375 246.46875 C 254.429688 246.46875 253.488281 246.515625 252.550781 246.609375 C 251.609375 246.703125 250.675781 246.839844 249.75 247.023438 C 248.824219 247.207031 247.910156 247.4375 247.007812 247.710938 C 246.101562 247.984375 245.214844 248.304688 244.34375 248.664062 C 243.472656 249.027344 242.617188 249.429688 241.785156 249.875 C 240.953125 250.320312 240.144531 250.804688 239.359375 251.328125 C 238.574219 251.851562 237.816406 252.414062 237.085938 253.015625 C 236.355469 253.613281 235.65625 254.246094 234.992188 254.914062 C 234.324219 255.582031 233.691406 256.28125 233.089844 257.007812 C 232.492188 257.738281 231.929688 258.496094 231.40625 259.28125 C 230.878906 260.066406 230.394531 260.875 229.949219 261.707031 C 229.503906 262.539062 229.101562 263.394531 228.742188 264.265625 C 228.378906 265.136719 228.0625 266.023438 227.789062 266.929688 C 227.515625 267.832031 227.285156 268.746094 227.101562 269.671875 C 226.917969 270.597656 226.777344 271.53125 226.683594 272.472656 C 226.59375 273.410156 226.546875 274.351562 226.546875 275.296875 Z M 226.546875 275.296875 " fill-opacity="1" fill-rule="nonzero"/><path fill="#f5f8fa" d="M 446.359375 322.847656 C 446.359375 327.859375 446.433594 332.867188 446.582031 337.875 C 446.730469 342.882812 446.949219 347.878906 447.246094 352.867188 C 447.539062 357.855469 447.90625 362.828125 448.347656 367.785156 C 448.785156 372.742188 449.300781 377.679688 449.886719 382.597656 C 450.472656 387.511719 451.128906 392.402344 451.859375 397.261719 C 452.585938 402.125 453.386719 406.953125 454.257812 411.75 C 455.128906 416.546875 456.070312 421.304688 457.082031 426.023438 C 458.09375 430.746094 459.175781 435.417969 460.324219 440.050781 C 461.472656 444.679688 462.6875 449.261719 463.972656 453.792969 C 465.253906 458.324219 466.605469 462.800781 468.019531 467.21875 C 469.433594 471.640625 470.914062 476 472.457031 480.300781 C 474 484.597656 475.605469 488.832031 477.273438 493 C 478.941406 497.167969 480.667969 501.265625 482.457031 505.289062 C 484.246094 509.316406 486.089844 513.265625 487.996094 517.140625 C 489.898438 521.015625 491.859375 524.808594 493.875 528.523438 C 495.890625 532.238281 497.960938 535.867188 500.082031 539.410156 C 502.207031 542.953125 504.378906 546.410156 506.605469 549.773438 C 508.828125 553.140625 511.101562 556.414062 513.421875 559.59375 C 515.742188 562.773438 518.105469 565.855469 520.519531 568.84375 C 522.929688 571.828125 525.382812 574.714844 527.878906 577.5 C 530.375 580.28125 532.910156 582.964844 535.484375 585.539062 C 538.058594 588.117188 540.671875 590.585938 543.316406 592.949219 C 545.964844 595.3125 548.644531 597.566406 551.359375 599.707031 C 554.074219 601.851562 556.816406 603.882812 559.589844 605.800781 C 562.363281 607.71875 565.164062 609.523438 567.988281 611.210938 C 570.816406 612.898438 573.664062 614.46875 576.539062 615.925781 C 579.410156 617.378906 582.300781 618.71875 585.214844 619.933594 C 588.125 621.152344 591.054688 622.25 594 623.226562 C 596.941406 624.207031 599.898438 625.0625 602.867188 625.796875 C 605.835938 626.535156 608.816406 627.148438 611.804688 627.636719 C 614.789062 628.128906 617.785156 628.5 620.78125 628.746094 C 623.78125 628.992188 626.78125 629.113281 629.78125 629.113281 C 632.785156 629.113281 635.785156 628.992188 638.78125 628.746094 C 641.78125 628.5 644.773438 628.128906 647.761719 627.636719 C 650.746094 627.148438 653.726562 626.535156 656.695312 625.796875 C 659.664062 625.0625 662.621094 624.207031 665.566406 623.226562 C 668.507812 622.25 671.4375 621.152344 674.347656 619.933594 C 677.261719 618.71875 680.152344 617.378906 683.027344 615.925781 C 685.898438 614.46875 688.746094 612.898438 691.574219 611.210938 C 694.402344 609.523438 697.199219 607.71875 699.972656 605.800781 C 702.746094 603.882812 705.492188 601.851562 708.203125 599.707031 C 710.917969 597.566406 713.597656 595.3125 716.246094 592.949219 C 718.894531 590.585938 721.503906 588.117188 724.078125 585.539062 C 726.652344 582.964844 729.1875 580.28125 731.683594 577.5 C 734.179688 574.714844 736.632812 571.828125 739.046875 568.84375 C 741.457031 565.855469 743.820312 562.773438 746.144531 559.59375 C 748.464844 556.414062 750.734375 553.140625 752.960938 549.773438 C 755.183594 546.410156 757.355469 542.953125 759.480469 539.410156 C 761.601562 535.867188 763.671875 532.238281 765.6875 528.523438 C 767.703125 524.808594 769.664062 521.015625 771.566406 517.140625 C 773.472656 513.265625 775.320312 509.316406 777.105469 505.289062 C 778.894531 501.265625 780.621094 497.167969 782.289062 493 C 783.957031 488.832031 785.5625 484.597656 787.105469 480.300781 C 788.648438 476 790.128906 471.640625 791.542969 467.21875 C 792.960938 462.800781 794.308594 458.324219 795.59375 453.792969 C 796.875 449.261719 798.089844 444.679688 799.242188 440.050781 C 800.390625 435.417969 801.46875 430.746094 802.480469 426.023438 C 803.492188 421.304688 804.433594 416.546875 805.304688 411.75 C 806.175781 406.953125 806.976562 402.125 807.707031 397.261719 C 808.433594 392.402344 809.09375 387.511719 809.679688 382.597656 C 810.265625 377.679688 810.777344 372.742188 811.21875 367.785156 C 811.65625 362.828125 812.023438 357.855469 812.320312 352.867188 C 812.613281 347.878906 812.835938 342.882812 812.980469 337.875 C 813.128906 332.867188 813.203125 327.859375 813.203125 322.847656 C 813.203125 317.835938 813.128906 312.824219 812.980469 307.820312 C 812.835938 302.8125 812.613281 297.816406 812.320312 292.828125 C 812.023438 287.839844 811.65625 282.867188 811.21875 277.910156 C 810.777344 272.949219 810.265625 268.011719 809.679688 263.097656 C 809.09375 258.179688 808.433594 253.292969 807.707031 248.429688 C 806.976562 243.566406 806.175781 238.738281 805.304688 233.941406 C 804.433594 229.144531 803.492188 224.386719 802.480469 219.667969 C 801.46875 214.949219 800.390625 210.273438 799.242188 205.644531 C 798.089844 201.011719 796.875 196.433594 795.59375 191.902344 C 794.308594 187.371094 792.960938 182.894531 791.542969 178.472656 C 790.128906 174.054688 788.648438 169.695312 787.105469 165.394531 C 785.5625 161.09375 783.957031 156.863281 782.289062 152.695312 C 780.621094 148.527344 778.894531 144.429688 777.105469 140.402344 C 775.320312 136.378906 773.472656 132.429688 771.566406 128.554688 C 769.664062 124.679688 767.703125 120.886719 765.6875 117.171875 C 763.671875 113.457031 761.601562 109.828125 759.480469 106.285156 C 757.355469 102.738281 755.183594 99.285156 752.960938 95.917969 C 750.734375 92.550781 748.464844 89.28125 746.144531 86.101562 C 743.820312 82.921875 741.457031 79.835938 739.046875 76.851562 C 736.632812 73.867188 734.179688 70.980469 731.683594 68.195312 C 729.1875 65.410156 726.652344 62.730469 724.078125 60.152344 C 721.503906 57.578125 718.894531 55.105469 716.246094 52.742188 C 713.597656 50.382812 710.917969 48.128906 708.203125 45.984375 C 705.492188 43.84375 702.746094 41.8125 699.972656 39.894531 C 697.199219 37.976562 694.402344 36.171875 691.574219 34.484375 C 688.746094 32.796875 685.898438 31.222656 683.027344 29.769531 C 680.152344 28.3125 677.261719 26.976562 674.347656 25.757812 C 671.4375 24.542969 668.507812 23.441406 665.566406 22.464844 C 662.621094 21.488281 659.664062 20.628906 656.695312 19.894531 C 653.726562 19.160156 650.746094 18.546875 647.761719 18.054688 C 644.773438 17.5625 641.78125 17.195312 638.78125 16.949219 C 635.785156 16.703125 632.785156 16.582031 629.78125 16.582031 C 626.78125 16.582031 623.78125 16.703125 620.78125 16.949219 C 617.785156 17.195312 614.789062 17.5625 611.804688 18.054688 C 608.816406 18.546875 605.835938 19.160156 602.867188 19.894531 C 599.898438 20.628906 596.941406 21.488281 594 22.464844 C 591.054688 23.441406 588.125 24.542969 585.214844 25.757812 C 582.300781 26.976562 579.410156 28.3125 576.539062 29.769531 C 573.664062 31.222656 570.816406 32.796875 567.988281 34.484375 C 565.164062 36.171875 562.363281 37.976562 559.589844 39.894531 C 556.816406 41.8125 554.074219 43.84375 551.359375 45.984375 C 548.644531 48.128906 545.964844 50.382812 543.316406 52.742188 C 540.671875 55.105469 538.058594 57.578125 535.484375 60.152344 C 532.910156 62.730469 530.375 65.410156 527.878906 68.195312 C 525.382812 70.980469 522.929688 73.867188 520.519531 76.851562 C 518.105469 79.835938 515.742188 82.921875 513.421875 86.101562 C 511.101562 89.28125 508.828125 92.550781 506.605469 95.917969 C 504.378906 99.285156 502.207031 102.738281 500.082031 106.285156 C 497.960938 109.828125 495.890625 113.457031 493.875 117.171875 C 491.859375 120.886719 489.898438 124.679688 487.996094 128.554688 C 486.089844 132.429688 484.246094 136.378906 482.457031 140.402344 C 480.667969 144.429688 478.941406 148.527344 477.273438 152.695312 C 475.605469 156.863281 474 161.09375 472.457031 165.394531 C 470.914062 169.695312 469.433594 174.054688 468.019531 178.472656 C 466.605469 182.894531 465.253906 187.371094 463.972656 191.902344 C 462.6875 196.433594 461.472656 201.011719 460.324219 205.644531 C 459.175781 210.273438 458.09375 214.949219 457.082031 219.667969 C 456.070312 224.386719 455.128906 229.144531 454.257812 233.941406 C 453.386719 238.738281 452.585938 243.566406 451.859375 248.429688 C 451.128906 253.292969 450.472656 258.179688 449.886719 263.097656 C 449.300781 268.011719 448.785156 272.949219 448.347656 277.910156 C 447.90625 282.867188 447.539062 287.839844 447.246094 292.828125 C 446.949219 297.816406 446.730469 302.8125 446.582031 307.820312 C 446.433594 312.824219 446.359375 317.835938 446.359375 322.847656 Z M 446.359375 322.847656 " fill-opacity="1" fill-rule="nonzero"/><g clip-path="url(#35086a957f)"><path fill="#e1e8ed" d="M 629.78125 646.410156 C 742.328125 646.410156 830.5 504.285156 830.5 322.847656 C 830.5 141.40625 742.328125 -0.714844 629.78125 -0.714844 C 517.234375 -0.714844 429.0625 141.40625 429.0625 322.847656 C 429.0625 504.285156 517.234375 646.410156 629.78125 646.410156 Z M 629.78125 33.875 C 721.386719 33.875 795.90625 163.5 795.90625 322.847656 C 795.90625 482.195312 721.386719 611.816406 629.78125 611.816406 C 538.175781 611.816406 463.660156 482.195312 463.660156 322.847656 C 463.660156 163.5 538.175781 33.875 629.78125 33.875 Z M 629.78125 33.875 " fill-opacity="1" fill-rule="nonzero"/></g><path fill="#8899a6" d="M 611.402344 322.847656 C 611.402344 324.355469 611.4375 325.867188 611.511719 327.371094 C 611.585938 328.878906 611.695312 330.386719 611.84375 331.886719 C 611.992188 333.390625 612.175781 334.886719 612.398438 336.382812 C 612.621094 337.875 612.878906 339.363281 613.171875 340.84375 C 613.46875 342.324219 613.796875 343.796875 614.164062 345.261719 C 614.53125 346.722656 614.933594 348.179688 615.371094 349.625 C 615.8125 351.066406 616.285156 352.5 616.792969 353.921875 C 617.300781 355.34375 617.84375 356.75 618.421875 358.144531 C 619 359.542969 619.613281 360.921875 620.257812 362.285156 C 620.902344 363.648438 621.582031 365 622.292969 366.328125 C 623.003906 367.660156 623.75 368.972656 624.523438 370.269531 C 625.300781 371.5625 626.109375 372.839844 626.949219 374.09375 C 627.785156 375.347656 628.65625 376.582031 629.554688 377.796875 C 630.453125 379.007812 631.382812 380.199219 632.339844 381.363281 C 633.296875 382.53125 634.285156 383.675781 635.296875 384.792969 C 636.3125 385.910156 637.351562 387.003906 638.421875 388.070312 C 639.488281 389.140625 640.582031 390.179688 641.699219 391.195312 C 642.820312 392.207031 643.960938 393.191406 645.128906 394.152344 C 646.296875 395.109375 647.484375 396.039062 648.699219 396.9375 C 649.910156 397.835938 651.144531 398.703125 652.398438 399.542969 C 653.65625 400.382812 654.929688 401.1875 656.226562 401.964844 C 657.519531 402.742188 658.832031 403.484375 660.164062 404.195312 C 661.496094 404.910156 662.84375 405.585938 664.210938 406.234375 C 665.574219 406.878906 666.953125 407.488281 668.347656 408.066406 C 669.746094 408.644531 671.152344 409.1875 672.574219 409.695312 C 673.996094 410.207031 675.429688 410.679688 676.875 411.117188 C 678.316406 411.554688 679.773438 411.957031 681.238281 412.324219 C 682.703125 412.691406 684.175781 413.023438 685.65625 413.316406 C 687.136719 413.609375 688.625 413.867188 690.117188 414.089844 C 691.609375 414.3125 693.109375 414.496094 694.609375 414.644531 C 696.113281 414.792969 697.617188 414.902344 699.125 414.976562 C 700.632812 415.050781 702.144531 415.089844 703.652344 415.089844 C 705.164062 415.089844 706.671875 415.050781 708.179688 414.976562 C 709.6875 414.902344 711.191406 414.792969 712.695312 414.644531 C 714.199219 414.496094 715.695312 414.3125 717.1875 414.089844 C 718.683594 413.867188 720.167969 413.609375 721.648438 413.316406 C 723.132812 413.023438 724.605469 412.691406 726.066406 412.324219 C 727.53125 411.957031 728.988281 411.554688 730.433594 411.117188 C 731.878906 410.679688 733.308594 410.207031 734.730469 409.695312 C 736.152344 409.1875 737.5625 408.644531 738.957031 408.066406 C 740.351562 407.488281 741.730469 406.878906 743.097656 406.234375 C 744.460938 405.585938 745.808594 404.910156 747.140625 404.195312 C 748.472656 403.484375 749.785156 402.742188 751.078125 401.964844 C 752.375 401.1875 753.648438 400.382812 754.90625 399.542969 C 756.160156 398.703125 757.394531 397.835938 758.609375 396.9375 C 759.820312 396.035156 761.011719 395.109375 762.175781 394.152344 C 763.34375 393.191406 764.488281 392.207031 765.605469 391.195312 C 766.722656 390.179688 767.816406 389.140625 768.886719 388.070312 C 769.953125 387.003906 770.992188 385.910156 772.007812 384.792969 C 773.019531 383.675781 774.007812 382.53125 774.964844 381.363281 C 775.921875 380.199219 776.851562 379.007812 777.75 377.796875 C 778.648438 376.582031 779.519531 375.347656 780.359375 374.09375 C 781.195312 372.839844 782.003906 371.5625 782.78125 370.269531 C 783.554688 368.972656 784.300781 367.660156 785.011719 366.328125 C 785.722656 365 786.402344 363.648438 787.046875 362.285156 C 787.695312 360.921875 788.304688 359.542969 788.882812 358.144531 C 789.460938 356.75 790.003906 355.34375 790.511719 353.921875 C 791.019531 352.5 791.496094 351.066406 791.933594 349.625 C 792.371094 348.179688 792.773438 346.722656 793.140625 345.261719 C 793.507812 343.796875 793.839844 342.324219 794.132812 340.84375 C 794.425781 339.363281 794.683594 337.875 794.90625 336.382812 C 795.128906 334.886719 795.3125 333.390625 795.460938 331.886719 C 795.609375 330.386719 795.71875 328.878906 795.792969 327.371094 C 795.867188 325.867188 795.90625 324.355469 795.90625 322.847656 C 795.90625 321.335938 795.867188 319.828125 795.792969 318.320312 C 795.71875 316.8125 795.609375 315.308594 795.460938 313.804688 C 795.3125 312.304688 795.128906 310.804688 794.90625 309.3125 C 794.683594 307.820312 794.425781 306.332031 794.132812 304.851562 C 793.839844 303.371094 793.507812 301.898438 793.140625 300.433594 C 792.773438 298.96875 792.371094 297.515625 791.933594 296.070312 C 791.496094 294.625 791.019531 293.191406 790.511719 291.773438 C 790.003906 290.351562 789.460938 288.941406 788.882812 287.546875 C 788.304688 286.152344 787.695312 284.773438 787.046875 283.410156 C 786.402344 282.042969 785.722656 280.695312 785.011719 279.363281 C 784.300781 278.03125 783.554688 276.71875 782.78125 275.425781 C 782.003906 274.128906 781.195312 272.855469 780.359375 271.601562 C 779.519531 270.34375 778.648438 269.109375 777.75 267.898438 C 776.851562 266.6875 775.921875 265.496094 774.964844 264.328125 C 774.007812 263.164062 773.019531 262.019531 772.007812 260.902344 C 770.992188 259.78125 769.953125 258.691406 768.886719 257.621094 C 767.816406 256.554688 766.722656 255.515625 765.605469 254.5 C 764.488281 253.484375 763.34375 252.5 762.175781 251.542969 C 761.011719 250.585938 759.820312 249.65625 758.609375 248.757812 C 757.394531 247.859375 756.160156 246.988281 754.90625 246.152344 C 753.648438 245.3125 752.375 244.503906 751.078125 243.726562 C 749.785156 242.953125 748.472656 242.207031 747.140625 241.496094 C 745.808594 240.785156 744.460938 240.105469 743.097656 239.460938 C 741.730469 238.816406 740.351562 238.203125 738.957031 237.625 C 737.5625 237.046875 736.152344 236.503906 734.730469 235.996094 C 733.308594 235.488281 731.878906 235.015625 730.433594 234.578125 C 728.988281 234.136719 727.53125 233.734375 726.066406 233.371094 C 724.605469 233.003906 723.132812 232.671875 721.648438 232.378906 C 720.167969 232.082031 718.683594 231.824219 717.1875 231.601562 C 715.695312 231.382812 714.199219 231.195312 712.695312 231.050781 C 711.191406 230.902344 709.6875 230.789062 708.179688 230.714844 C 706.671875 230.640625 705.164062 230.605469 703.652344 230.605469 C 702.144531 230.605469 700.632812 230.640625 699.125 230.714844 C 697.617188 230.789062 696.113281 230.902344 694.609375 231.050781 C 693.109375 231.195312 691.609375 231.382812 690.117188 231.601562 C 688.625 231.824219 687.136719 232.082031 685.65625 232.378906 C 684.175781 232.671875 682.703125 233.003906 681.238281 233.371094 C 679.773438 233.734375 678.316406 234.140625 676.875 234.578125 C 675.429688 235.015625 673.996094 235.488281 672.574219 235.996094 C 671.152344 236.503906 669.746094 237.046875 668.347656 237.625 C 666.953125 238.203125 665.574219 238.816406 664.210938 239.460938 C 662.84375 240.105469 661.496094 240.785156 660.164062 241.496094 C 658.832031 242.207031 657.519531 242.953125 656.226562 243.726562 C 654.929688 244.503906 653.65625 245.3125 652.398438 246.152344 C 651.144531 246.988281 649.910156 247.859375 648.699219 248.757812 C 647.484375 249.65625 646.296875 250.585938 645.128906 251.542969 C 643.960938 252.5 642.820312 253.484375 641.699219 254.5 C 640.582031 255.515625 639.488281 256.554688 638.421875 257.621094 C 637.351562 258.691406 636.3125 259.78125 635.296875 260.902344 C 634.285156 262.019531 633.296875 263.164062 632.339844 264.328125 C 631.382812 265.496094 630.453125 266.6875 629.554688 267.898438 C 628.65625 269.109375 627.785156 270.34375 626.949219 271.601562 C 626.109375 272.855469 625.300781 274.128906 624.523438 275.425781 C 623.75 276.71875 623.003906 278.03125 622.292969 279.363281 C 621.582031 280.695312 620.902344 282.042969 620.257812 283.410156 C 619.613281 284.773438 619 286.152344 618.421875 287.546875 C 617.84375 288.941406 617.300781 290.351562 616.792969 291.773438 C 616.285156 293.191406 615.8125 294.625 615.371094 296.070312 C 614.933594 297.515625 614.53125 298.96875 614.164062 300.433594 C 613.796875 301.898438 613.46875 303.371094 613.171875 304.851562 C 612.878906 306.332031 612.621094 307.820312 612.398438 309.3125 C 612.175781 310.804688 611.992188 312.304688 611.84375 313.804688 C 611.695312 315.308594 611.585938 316.8125 611.511719 318.320312 C 611.4375 319.828125 611.402344 321.335938 611.402344 322.847656 Z M 611.402344 322.847656 " fill-opacity="1" fill-rule="nonzero"/><path fill="#292f33" d="M 637.347656 322.847656 C 637.347656 323.933594 637.371094 325.015625 637.425781 326.101562 C 637.480469 327.183594 637.558594 328.265625 637.664062 329.34375 C 637.773438 330.425781 637.90625 331.5 638.0625 332.574219 C 638.222656 333.648438 638.410156 334.71875 638.621094 335.78125 C 638.832031 336.84375 639.070312 337.902344 639.332031 338.957031 C 639.597656 340.007812 639.886719 341.054688 640.203125 342.09375 C 640.515625 343.128906 640.855469 344.160156 641.222656 345.183594 C 641.589844 346.203125 641.976562 347.214844 642.394531 348.21875 C 642.808594 349.222656 643.25 350.210938 643.710938 351.191406 C 644.175781 352.175781 644.664062 353.144531 645.175781 354.101562 C 645.6875 355.058594 646.222656 356 646.78125 356.929688 C 647.335938 357.863281 647.917969 358.777344 648.519531 359.679688 C 649.125 360.582031 649.75 361.46875 650.394531 362.339844 C 651.042969 363.210938 651.707031 364.066406 652.398438 364.90625 C 653.085938 365.746094 653.792969 366.566406 654.523438 367.371094 C 655.25 368.175781 656 368.960938 656.765625 369.726562 C 657.535156 370.496094 658.320312 371.242188 659.125 371.972656 C 659.929688 372.699219 660.75 373.410156 661.589844 374.097656 C 662.425781 374.785156 663.28125 375.453125 664.152344 376.097656 C 665.027344 376.746094 665.914062 377.371094 666.816406 377.972656 C 667.71875 378.574219 668.632812 379.15625 669.566406 379.714844 C 670.496094 380.269531 671.4375 380.804688 672.394531 381.316406 C 673.351562 381.828125 674.320312 382.316406 675.304688 382.78125 C 676.285156 383.246094 677.277344 383.683594 678.277344 384.097656 C 679.28125 384.515625 680.292969 384.90625 681.316406 385.269531 C 682.335938 385.636719 683.367188 385.976562 684.40625 386.292969 C 685.445312 386.605469 686.488281 386.894531 687.542969 387.160156 C 688.59375 387.421875 689.652344 387.660156 690.71875 387.871094 C 691.78125 388.082031 692.851562 388.269531 693.921875 388.429688 C 694.996094 388.585938 696.074219 388.71875 697.152344 388.828125 C 698.234375 388.933594 699.316406 389.011719 700.398438 389.066406 C 701.484375 389.121094 702.566406 389.144531 703.652344 389.144531 C 704.738281 389.144531 705.824219 389.121094 706.90625 389.066406 C 707.988281 389.011719 709.070312 388.933594 710.152344 388.828125 C 711.230469 388.71875 712.308594 388.585938 713.382812 388.429688 C 714.457031 388.269531 715.523438 388.082031 716.589844 387.871094 C 717.652344 387.660156 718.710938 387.421875 719.765625 387.160156 C 720.816406 386.894531 721.863281 386.605469 722.902344 386.292969 C 723.9375 385.976562 724.96875 385.636719 725.992188 385.269531 C 727.011719 384.90625 728.023438 384.515625 729.027344 384.097656 C 730.03125 383.683594 731.019531 383.246094 732.003906 382.78125 C 732.984375 382.316406 733.953125 381.828125 734.910156 381.316406 C 735.867188 380.804688 736.808594 380.269531 737.742188 379.714844 C 738.671875 379.15625 739.589844 378.574219 740.492188 377.972656 C 741.394531 377.371094 742.28125 376.746094 743.152344 376.097656 C 744.023438 375.453125 744.878906 374.785156 745.71875 374.097656 C 746.554688 373.410156 747.378906 372.699219 748.179688 371.972656 C 748.984375 371.242188 749.769531 370.496094 750.539062 369.726562 C 751.304688 368.960938 752.054688 368.175781 752.78125 367.371094 C 753.511719 366.566406 754.21875 365.746094 754.910156 364.90625 C 755.597656 364.066406 756.265625 363.210938 756.910156 362.339844 C 757.558594 361.46875 758.179688 360.582031 758.785156 359.679688 C 759.386719 358.777344 759.96875 357.863281 760.527344 356.929688 C 761.082031 356 761.617188 355.058594 762.128906 354.101562 C 762.640625 353.144531 763.128906 352.175781 763.59375 351.191406 C 764.058594 350.210938 764.496094 349.222656 764.910156 348.21875 C 765.328125 347.214844 765.71875 346.203125 766.082031 345.183594 C 766.449219 344.160156 766.789062 343.128906 767.105469 342.09375 C 767.417969 341.054688 767.707031 340.007812 767.972656 338.957031 C 768.234375 337.902344 768.472656 336.84375 768.683594 335.78125 C 768.898438 334.71875 769.082031 333.648438 769.242188 332.574219 C 769.402344 331.5 769.535156 330.425781 769.640625 329.34375 C 769.746094 328.265625 769.824219 327.183594 769.878906 326.101562 C 769.933594 325.015625 769.960938 323.933594 769.960938 322.847656 C 769.960938 321.761719 769.933594 320.675781 769.878906 319.59375 C 769.824219 318.511719 769.746094 317.429688 769.640625 316.347656 C 769.535156 315.269531 769.402344 314.191406 769.242188 313.117188 C 769.082031 312.046875 768.898438 310.976562 768.683594 309.914062 C 768.472656 308.847656 768.234375 307.789062 767.972656 306.738281 C 767.707031 305.683594 767.417969 304.640625 767.105469 303.601562 C 766.789062 302.5625 766.449219 301.53125 766.082031 300.511719 C 765.71875 299.488281 765.328125 298.476562 764.910156 297.476562 C 764.496094 296.472656 764.058594 295.480469 763.59375 294.5 C 763.128906 293.519531 762.640625 292.550781 762.128906 291.59375 C 761.617188 290.636719 761.082031 289.691406 760.527344 288.761719 C 759.96875 287.832031 759.386719 286.914062 758.785156 286.011719 C 758.179688 285.109375 757.558594 284.222656 756.910156 283.351562 C 756.265625 282.480469 755.597656 281.625 754.910156 280.789062 C 754.21875 279.949219 753.511719 279.128906 752.78125 278.324219 C 752.054688 277.519531 751.304688 276.734375 750.539062 275.964844 C 749.769531 275.199219 748.984375 274.453125 748.179688 273.722656 C 747.378906 272.992188 746.554688 272.285156 745.71875 271.597656 C 744.878906 270.910156 744.023438 270.242188 743.152344 269.59375 C 742.28125 268.949219 741.394531 268.324219 740.492188 267.722656 C 739.589844 267.117188 738.671875 266.539062 737.742188 265.980469 C 736.808594 265.421875 735.867188 264.886719 734.910156 264.375 C 733.953125 263.863281 732.984375 263.378906 732.003906 262.914062 C 731.019531 262.449219 730.03125 262.011719 729.027344 261.59375 C 728.023438 261.179688 727.011719 260.789062 725.992188 260.421875 C 724.96875 260.058594 723.9375 259.71875 722.902344 259.402344 C 721.863281 259.085938 720.816406 258.796875 719.765625 258.535156 C 718.710938 258.269531 717.652344 258.035156 716.589844 257.820312 C 715.523438 257.609375 714.457031 257.425781 713.382812 257.265625 C 712.308594 257.105469 711.230469 256.972656 710.152344 256.867188 C 709.070312 256.761719 707.988281 256.679688 706.90625 256.628906 C 705.824219 256.574219 704.738281 256.546875 703.652344 256.546875 C 702.566406 256.546875 701.484375 256.574219 700.398438 256.628906 C 699.316406 256.679688 698.234375 256.761719 697.152344 256.867188 C 696.074219 256.972656 694.996094 257.105469 693.921875 257.265625 C 692.851562 257.425781 691.78125 257.609375 690.71875 257.820312 C 689.652344 258.035156 688.59375 258.269531 687.542969 258.535156 C 686.488281 258.796875 685.445312 259.085938 684.40625 259.402344 C 683.367188 259.71875 682.335938 260.058594 681.316406 260.421875 C 680.292969 260.789062 679.28125 261.179688 678.277344 261.59375 C 677.277344 262.011719 676.285156 262.449219 675.304688 262.914062 C 674.320312 263.378906 673.351562 263.863281 672.394531 264.375 C 671.4375 264.886719 670.496094 265.421875 669.566406 265.980469 C 668.632812 266.539062 667.71875 267.117188 666.816406 267.722656 C 665.914062 268.324219 665.027344 268.949219 664.152344 269.59375 C 663.28125 270.242188 662.425781 270.910156 661.589844 271.597656 C 660.75 272.285156 659.929688 272.992188 659.125 273.722656 C 658.320312 274.453125 657.535156 275.199219 656.765625 275.964844 C 656 276.734375 655.25 277.519531 654.523438 278.324219 C 653.792969 279.128906 653.085938 279.949219 652.398438 280.789062 C 651.707031 281.625 651.042969 282.480469 650.394531 283.351562 C 649.75 284.222656 649.125 285.109375 648.519531 286.011719 C 647.917969 286.914062 647.335938 287.832031 646.78125 288.761719 C 646.222656 289.691406 645.6875 290.636719 645.175781 291.59375 C 644.664062 292.550781 644.175781 293.519531 643.710938 294.5 C 643.25 295.480469 642.808594 296.472656 642.394531 297.476562 C 641.976562 298.476562 641.589844 299.488281 641.222656 300.511719 C 640.855469 301.53125 640.515625 302.5625 640.203125 303.601562 C 639.886719 304.640625 639.597656 305.683594 639.332031 306.738281 C 639.070312 307.789062 638.832031 308.847656 638.621094 309.914062 C 638.410156 310.976562 638.222656 312.046875 638.0625 313.117188 C 637.90625 314.191406 637.773438 315.269531 637.664062 316.347656 C 637.558594 317.429688 637.480469 318.511719 637.425781 319.59375 C 637.371094 320.675781 637.347656 321.761719 637.347656 322.847656 Z M 637.347656 322.847656 " fill-opacity="1" fill-rule="nonzero"/><path fill="#f5f8fa" d="M 650.308594 275.296875 C 650.308594 276.242188 650.355469 277.183594 650.445312 278.121094 C 650.539062 279.0625 650.675781 279.992188 650.863281 280.917969 C 651.046875 281.847656 651.273438 282.761719 651.550781 283.664062 C 651.824219 284.566406 652.140625 285.457031 652.503906 286.328125 C 652.863281 287.199219 653.265625 288.050781 653.710938 288.882812 C 654.15625 289.71875 654.640625 290.527344 655.167969 291.3125 C 655.691406 292.097656 656.253906 292.851562 656.851562 293.582031 C 657.449219 294.3125 658.085938 295.011719 658.75 295.679688 C 659.417969 296.347656 660.117188 296.980469 660.847656 297.578125 C 661.578125 298.175781 662.335938 298.738281 663.121094 299.265625 C 663.90625 299.789062 664.714844 300.273438 665.546875 300.71875 C 666.378906 301.164062 667.230469 301.566406 668.105469 301.925781 C 668.976562 302.289062 669.863281 302.605469 670.769531 302.878906 C 671.671875 303.15625 672.585938 303.382812 673.511719 303.566406 C 674.4375 303.753906 675.371094 303.890625 676.3125 303.984375 C 677.25 304.074219 678.191406 304.121094 679.136719 304.121094 C 680.082031 304.121094 681.023438 304.074219 681.960938 303.984375 C 682.902344 303.890625 683.835938 303.753906 684.761719 303.566406 C 685.6875 303.382812 686.601562 303.15625 687.503906 302.878906 C 688.410156 302.605469 689.296875 302.289062 690.167969 301.925781 C 691.042969 301.566406 691.894531 301.164062 692.726562 300.71875 C 693.558594 300.273438 694.367188 299.789062 695.152344 299.265625 C 695.9375 298.738281 696.695312 298.175781 697.425781 297.578125 C 698.15625 296.980469 698.855469 296.347656 699.523438 295.679688 C 700.1875 295.011719 700.824219 294.3125 701.421875 293.582031 C 702.019531 292.851562 702.582031 292.097656 703.105469 291.3125 C 703.632812 290.527344 704.117188 289.71875 704.5625 288.882812 C 705.007812 288.050781 705.410156 287.199219 705.769531 286.328125 C 706.132812 285.457031 706.449219 284.566406 706.722656 283.664062 C 707 282.761719 707.226562 281.847656 707.410156 280.917969 C 707.597656 279.992188 707.734375 279.0625 707.828125 278.121094 C 707.917969 277.183594 707.964844 276.242188 707.964844 275.296875 C 707.964844 274.351562 707.917969 273.410156 707.828125 272.472656 C 707.734375 271.53125 707.597656 270.597656 707.410156 269.671875 C 707.226562 268.746094 707 267.832031 706.722656 266.929688 C 706.449219 266.023438 706.132812 265.136719 705.769531 264.265625 C 705.410156 263.394531 705.007812 262.539062 704.5625 261.707031 C 704.117188 260.875 703.632812 260.066406 703.105469 259.28125 C 702.582031 258.496094 702.019531 257.738281 701.421875 257.007812 C 700.824219 256.28125 700.1875 255.582031 699.523438 254.914062 C 698.855469 254.246094 698.15625 253.613281 697.425781 253.015625 C 696.695312 252.414062 695.9375 251.851562 695.152344 251.328125 C 694.367188 250.804688 693.558594 250.320312 692.726562 249.875 C 691.894531 249.429688 691.042969 249.027344 690.167969 248.664062 C 689.296875 248.304688 688.410156 247.984375 687.503906 247.710938 C 686.601562 247.4375 685.6875 247.207031 684.761719 247.023438 C 683.835938 246.839844 682.902344 246.703125 681.960938 246.609375 C 681.023438 246.515625 680.082031 246.46875 679.136719 246.46875 C 678.191406 246.46875 677.25 246.515625 676.3125 246.609375 C 675.371094 246.703125 674.4375 246.839844 673.511719 247.023438 C 672.585938 247.207031 671.671875 247.4375 670.769531 247.710938 C 669.863281 247.984375 668.976562 248.304688 668.105469 248.664062 C 667.230469 249.027344 666.378906 249.429688 665.546875 249.875 C 664.714844 250.320312 663.90625 250.804688 663.121094 251.328125 C 662.335938 251.851562 661.578125 252.414062 660.847656 253.015625 C 660.117188 253.613281 659.417969 254.246094 658.75 254.914062 C 658.085938 255.582031 657.449219 256.28125 656.851562 257.007812 C 656.253906 257.738281 655.691406 258.496094 655.167969 259.28125 C 654.640625 260.066406 654.15625 260.875 653.710938 261.707031 C 653.265625 262.539062 652.863281 263.394531 652.503906 264.265625 C 652.140625 265.136719 651.824219 266.023438 651.550781 266.929688 C 651.273438 267.832031 651.046875 268.746094 650.863281 269.671875 C 650.675781 270.597656 650.539062 271.53125 650.445312 272.472656 C 650.355469 273.410156 650.308594 274.351562 650.308594 275.296875 Z M 650.308594 275.296875 " fill-opacity="1" fill-rule="nonzero"/></g></g></g><g clip-path="url(#c99fe9ba10)"><path fill="#55acee" d="M 1342.917969 254.25 L 1230.332031 254.25 C 1221.457031 254.25 1214.25 261.457031 1214.25 270.332031 L 1214.25 358.792969 C 1214.25 358.792969 1214.25 366.832031 1222.292969 374.875 L 1273.992188 415.082031 L 1299.257812 415.082031 L 1350.957031 374.875 C 1359 366.832031 1359 358.792969 1359 358.792969 L 1359 270.332031 C 1359 261.457031 1351.792969 254.25 1342.917969 254.25 Z M 1342.917969 254.25 " fill-opacity="1" fill-rule="nonzero"/></g><g clip-path="url(#34a6372f8e)"><path fill="#e1e8ed" d="M 1238.375 254.25 L 1238.375 387.378906 L 1273.992188 415.082031 L 1299.257812 415.082031 L 1334.875 387.378906 L 1334.875 254.25 Z M 1238.375 254.25 " fill-opacity="1" fill-rule="nonzero"/></g><g clip-path="url(#b8041f7263)"><path fill="#dd2e44" d="M 1254.457031 254.25 L 1254.457031 399.894531 L 1273.992188 415.082031 L 1299.257812 415.082031 L 1318.792969 399.894531 L 1318.792969 254.25 Z M 1254.457031 254.25 " fill-opacity="1" fill-rule="nonzero"/></g><g clip-path="url(#3a653da4a6)"><path fill="#ffac33" d="M 1318.003906 423.285156 C 1318.484375 421.976562 1318.792969 420.574219 1318.792969 419.105469 C 1318.792969 412.445312 1313.386719 407.042969 1306.730469 407.042969 L 1266.519531 407.042969 C 1259.855469 407.042969 1254.457031 412.445312 1254.457031 419.105469 C 1254.457031 420.574219 1254.765625 421.976562 1255.246094 423.285156 C 1235.59375 434.292969 1222.292969 455.292969 1222.292969 479.417969 C 1222.292969 514.945312 1251.089844 543.75 1286.625 543.75 C 1322.152344 543.75 1350.957031 514.945312 1350.957031 479.417969 C 1350.957031 455.292969 1337.65625 434.292969 1318.003906 423.285156 Z M 1318.003906 423.285156 " fill-opacity="1" fill-rule="nonzero"/></g><path fill="#ffd983" d="M 1334.875 479.417969 C 1334.875 480.996094 1334.796875 482.574219 1334.644531 484.144531 C 1334.488281 485.71875 1334.257812 487.28125 1333.949219 488.828125 C 1333.640625 490.378906 1333.257812 491.910156 1332.796875 493.421875 C 1332.339844 494.933594 1331.808594 496.421875 1331.203125 497.882812 C 1330.597656 499.339844 1329.921875 500.769531 1329.175781 502.160156 C 1328.433594 503.554688 1327.621094 504.910156 1326.742188 506.222656 C 1325.867188 507.535156 1324.925781 508.804688 1323.921875 510.027344 C 1322.921875 511.246094 1321.859375 512.417969 1320.742188 513.535156 C 1319.625 514.652344 1318.457031 515.710938 1317.234375 516.714844 C 1316.011719 517.71875 1314.746094 518.65625 1313.429688 519.535156 C 1312.117188 520.414062 1310.761719 521.222656 1309.371094 521.96875 C 1307.976562 522.714844 1306.550781 523.390625 1305.089844 523.992188 C 1303.628906 524.597656 1302.144531 525.128906 1300.632812 525.589844 C 1299.117188 526.046875 1297.589844 526.429688 1296.039062 526.738281 C 1294.488281 527.046875 1292.925781 527.28125 1291.355469 527.433594 C 1289.78125 527.589844 1288.207031 527.667969 1286.625 527.667969 C 1285.042969 527.667969 1283.46875 527.589844 1281.894531 527.433594 C 1280.324219 527.28125 1278.761719 527.046875 1277.210938 526.738281 C 1275.660156 526.429688 1274.132812 526.046875 1272.617188 525.589844 C 1271.105469 525.128906 1269.621094 524.597656 1268.160156 523.992188 C 1266.699219 523.390625 1265.273438 522.714844 1263.878906 521.96875 C 1262.488281 521.222656 1261.132812 520.414062 1259.820312 519.535156 C 1258.503906 518.65625 1257.238281 517.71875 1256.015625 516.714844 C 1254.792969 515.710938 1253.625 514.652344 1252.507812 513.535156 C 1251.390625 512.417969 1250.328125 511.246094 1249.328125 510.027344 C 1248.324219 508.804688 1247.382812 507.535156 1246.507812 506.222656 C 1245.628906 504.910156 1244.816406 503.554688 1244.070312 502.160156 C 1243.328125 500.769531 1242.652344 499.339844 1242.046875 497.882812 C 1241.441406 496.421875 1240.910156 494.933594 1240.453125 493.421875 C 1239.992188 491.910156 1239.609375 490.378906 1239.300781 488.828125 C 1238.992188 487.28125 1238.761719 485.71875 1238.605469 484.144531 C 1238.453125 482.574219 1238.375 480.996094 1238.375 479.417969 C 1238.375 477.835938 1238.453125 476.261719 1238.605469 474.6875 C 1238.761719 473.113281 1238.992188 471.554688 1239.300781 470.003906 C 1239.609375 468.453125 1239.992188 466.921875 1240.453125 465.410156 C 1240.910156 463.898438 1241.441406 462.414062 1242.046875 460.953125 C 1242.652344 459.492188 1243.328125 458.066406 1244.070312 456.671875 C 1244.816406 455.277344 1245.628906 453.925781 1246.507812 452.609375 C 1247.382812 451.296875 1248.324219 450.027344 1249.328125 448.808594 C 1250.328125 447.585938 1251.390625 446.417969 1252.507812 445.296875 C 1253.625 444.179688 1254.792969 443.121094 1256.015625 442.117188 C 1257.238281 441.117188 1258.503906 440.175781 1259.820312 439.296875 C 1261.132812 438.421875 1262.488281 437.609375 1263.878906 436.863281 C 1265.273438 436.117188 1266.699219 435.445312 1268.160156 434.839844 C 1269.621094 434.234375 1271.105469 433.703125 1272.617188 433.246094 C 1274.132812 432.785156 1275.660156 432.402344 1277.210938 432.09375 C 1278.761719 431.785156 1280.324219 431.554688 1281.894531 431.398438 C 1283.46875 431.242188 1285.042969 431.167969 1286.625 431.167969 C 1288.207031 431.167969 1289.78125 431.242188 1291.355469 431.398438 C 1292.925781 431.554688 1294.488281 431.785156 1296.039062 432.09375 C 1297.589844 432.402344 1299.117188 432.785156 1300.632812 433.246094 C 1302.144531 433.703125 1303.628906 434.234375 1305.089844 434.839844 C 1306.550781 435.445312 1307.976562 436.117188 1309.371094 436.863281 C 1310.761719 437.609375 1312.117188 438.421875 1313.429688 439.296875 C 1314.746094 440.175781 1316.011719 441.117188 1317.234375 442.117188 C 1318.457031 443.121094 1319.625 444.179688 1320.742188 445.296875 C 1321.859375 446.417969 1322.921875 447.585938 1323.921875 448.808594 C 1324.925781 450.027344 1325.867188 451.296875 1326.742188 452.609375 C 1327.621094 453.925781 1328.433594 455.277344 1329.175781 456.671875 C 1329.921875 458.066406 1330.597656 459.492188 1331.203125 460.953125 C 1331.808594 462.414062 1332.339844 463.898438 1332.796875 465.410156 C 1333.257812 466.921875 1333.640625 468.453125 1333.949219 470.003906 C 1334.257812 471.554688 1334.488281 473.113281 1334.644531 474.6875 C 1334.796875 476.261719 1334.875 477.835938 1334.875 479.417969 Z M 1334.875 479.417969 " fill-opacity="1" fill-rule="nonzero"/></svg>