<svg xmlns="http://www.w3.org/2000/svg" xmlns:xlink="http://www.w3.org/1999/xlink" width="1920" zoomAndPan="magnify" viewBox="0 0 1440 809.999993" height="1080" preserveAspectRatio="xMidYMid meet" version="1.0"><defs><filter x="0%" y="0%" width="100%" height="100%" id="868dd4de03"><feColorMatrix values="0 0 0 0 1 0 0 0 0 1 0 0 0 0 1 0 0 0 1 0" color-interpolation-filters="sRGB"/></filter><mask id="7ebaa595b8"><g filter="url(#868dd4de03)"><rect x="-144" width="1728" fill="#000000" y="-80.999999" height="971.999992" fill-opacity="0.3"/></g></mask><clipPath id="8ee074dffa"><path d="M 1 123 L 202 123 L 202 277.75 L 1 277.75 Z M 1 123 " clip-rule="nonzero"/></clipPath><clipPath id="6b760e33ab"><path d="M 132 0.25 L 271 0.25 L 271 277.75 L 132 277.75 Z M 132 0.25 " clip-rule="nonzero"/></clipPath><clipPath id="4dfc193e1b"><rect x="0" width="272" y="0" height="278"/></clipPath><mask id="2b29c44e41"><g filter="url(#868dd4de03)"><rect x="-144" width="1728" fill="#000000" y="-80.999999" height="971.999992" fill-opacity="0.3"/></g></mask><clipPath id="60c8d344fc"><rect x="0" width="290" y="0" height="290"/></clipPath><clipPath id="a7f5abf31c"><path d="M 805.789062 260.25 L 1128.289062 260.25 L 1128.289062 537.75 L 805.789062 537.75 Z M 805.789062 260.25 " clip-rule="nonzero"/></clipPath></defs><g mask="url(#7ebaa595b8)"><g transform="matrix(1, 0, 0, 1, 80, 260)"><g clip-path="url(#4dfc193e1b)"><path fill="#aab8c2" d="M 101.304688 23.375 C 58.71875 23.375 24.199219 57.886719 24.199219 100.457031 L 24.199219 177.542969 L 55.042969 177.542969 L 55.042969 100.457031 C 55.042969 74.921875 75.757812 54.207031 101.304688 54.207031 C 126.847656 54.207031 147.566406 74.921875 147.566406 100.457031 L 147.566406 177.542969 L 178.40625 177.542969 L 178.40625 100.457031 C 178.40625 57.886719 143.886719 23.375 101.304688 23.375 Z M 101.304688 23.375 " fill-opacity="1" fill-rule="nonzero"/><g clip-path="url(#8ee074dffa)"><path fill="#ffac33" d="M 201.539062 246.917969 C 201.539062 263.945312 187.730469 277.75 170.695312 277.75 L 31.910156 277.75 C 14.878906 277.75 1.070312 263.945312 1.070312 246.917969 L 1.070312 154.417969 C 1.070312 137.390625 14.878906 123.582031 31.910156 123.582031 L 170.695312 123.582031 C 187.730469 123.582031 201.539062 137.390625 201.539062 154.417969 Z M 201.539062 246.917969 " fill-opacity="1" fill-rule="nonzero"/></g><g clip-path="url(#6b760e33ab)"><path fill="#c1694f" d="M 270.929688 69.625 C 270.929688 31.308594 239.867188 0.25 201.539062 0.25 C 163.210938 0.25 132.144531 31.308594 132.144531 69.625 C 132.144531 99.820312 151.476562 125.433594 178.40625 134.96875 L 178.40625 258.480469 C 178.40625 269.125 187.035156 277.75 197.683594 277.75 C 207.035156 277.75 214.824219 271.089844 216.574219 262.257812 C 216.710938 262.265625 216.820312 262.332031 216.957031 262.332031 C 221.222656 262.332031 224.667969 258.886719 224.667969 254.625 L 224.667969 246.917969 C 224.667969 242.652344 221.222656 239.207031 216.957031 239.207031 L 216.957031 231.5 C 221.222656 231.5 224.667969 228.054688 224.667969 223.792969 L 224.667969 208.375 C 224.667969 204.113281 221.222656 200.667969 216.957031 200.667969 L 216.957031 183.113281 C 221.554688 180.441406 224.667969 175.53125 224.667969 169.832031 L 224.667969 134.96875 C 251.601562 125.441406 270.929688 99.828125 270.929688 69.625 Z M 201.539062 15.667969 C 210.050781 15.667969 216.957031 22.574219 216.957031 31.082031 C 216.957031 39.59375 210.050781 46.5 201.539062 46.5 C 193.027344 46.5 186.117188 39.59375 186.117188 31.082031 C 186.117188 22.574219 193.027344 15.667969 201.539062 15.667969 Z M 201.539062 15.667969 " fill-opacity="1" fill-rule="nonzero"/></g></g></g></g><g mask="url(#2b29c44e41)"><g transform="matrix(1, 0, 0, 1, 430, 254)"><g clip-path="url(#60c8d344fc)"><path fill="#8899a6" d="M 125.355469 83.257812 L 166.515625 42.097656 C 166.515625 42.097656 207.675781 0.9375 248.839844 42.097656 C 290 83.257812 248.839844 124.417969 248.839844 124.417969 L 193.957031 179.300781 C 193.957031 179.300781 152.796875 220.460938 111.636719 179.300781 C 103.917969 171.582031 99.136719 161.328125 99.136719 161.328125 L 122.136719 138.359375 C 122.136719 138.359375 121.210938 147.714844 132.214844 158.71875 C 132.214844 158.71875 152.796875 179.300781 173.375 158.71875 L 228.257812 103.839844 C 228.257812 103.839844 248.839844 83.257812 228.257812 62.679688 C 207.675781 42.097656 187.097656 62.679688 187.097656 62.679688 L 161.515625 88.257812 C 161.515625 88.257812 148.796875 77.824219 122.78125 85.832031 Z M 125.355469 83.257812 " fill-opacity="1" fill-rule="nonzero"/><path fill="#8899a6" d="M 165.453125 206.742188 L 124.292969 247.902344 C 124.292969 247.902344 83.132812 289.0625 41.96875 247.902344 C 0.808594 206.742188 41.96875 165.582031 41.96875 165.582031 L 96.851562 110.699219 C 96.851562 110.699219 138.011719 69.539062 179.171875 110.699219 C 186.890625 118.417969 191.671875 128.671875 191.671875 128.671875 L 168.664062 151.648438 C 168.664062 151.648438 169.589844 142.285156 158.585938 131.28125 C 158.585938 131.28125 138.003906 110.699219 117.425781 131.28125 L 62.542969 186.160156 C 62.542969 186.160156 41.964844 206.742188 62.542969 227.324219 C 83.125 247.902344 103.703125 227.324219 103.703125 227.324219 L 129.285156 201.742188 C 129.285156 201.742188 142.003906 212.175781 168.019531 204.167969 Z M 165.453125 206.742188 " fill-opacity="1" fill-rule="nonzero"/></g></g></g><g clip-path="url(#a7f5abf31c)"><path fill="#d99e82" d="M 967.039062 260.910156 C 877.984375 260.910156 805.789062 322.824219 805.789062 399.1875 C 805.789062 408.742188 806.917969 418.074219 809.074219 427.082031 C 825.011719 454.515625 836.039062 437.199219 886.414062 411.996094 C 937.71875 386.328125 886.414062 447.847656 868.496094 483.699219 C 862.988281 494.722656 865.96875 504.054688 873.511719 511.699219 C 899.902344 527.867188 932.136719 537.476562 967.039062 537.476562 C 1056.09375 537.476562 1128.289062 475.570312 1128.289062 399.1875 C 1128.289062 322.824219 1056.09375 260.910156 967.039062 260.910156 Z M 992.558594 480.023438 C 989.019531 492.089844 970.523438 497.269531 951.234375 491.59375 C 931.949219 485.929688 919.183594 471.574219 922.722656 459.5 C 926.257812 447.433594 944.757812 442.253906 964.046875 447.9375 C 983.332031 453.59375 996.097656 467.953125 992.558594 480.023438 Z M 992.558594 480.023438 " fill-opacity="1" fill-rule="nonzero"/></g><path fill="#5c913b" d="M 922.246094 331.332031 C 922.246094 332.210938 922.203125 333.089844 922.117188 333.964844 C 922.03125 334.84375 921.902344 335.710938 921.730469 336.574219 C 921.558594 337.441406 921.34375 338.292969 921.089844 339.136719 C 920.832031 339.976562 920.539062 340.804688 920.199219 341.621094 C 919.863281 342.433594 919.488281 343.230469 919.074219 344.003906 C 918.65625 344.78125 918.207031 345.535156 917.714844 346.269531 C 917.226562 347 916.703125 347.707031 916.144531 348.386719 C 915.585938 349.070312 914.996094 349.71875 914.375 350.34375 C 913.753906 350.964844 913.101562 351.558594 912.421875 352.117188 C 911.738281 352.675781 911.035156 353.199219 910.300781 353.6875 C 909.570312 354.175781 908.816406 354.628906 908.039062 355.042969 C 907.261719 355.460938 906.46875 355.835938 905.65625 356.171875 C 904.84375 356.507812 904.015625 356.804688 903.171875 357.0625 C 902.332031 357.316406 901.476562 357.53125 900.613281 357.703125 C 899.75 357.875 898.882812 358.003906 898.003906 358.089844 C 897.128906 358.175781 896.25 358.21875 895.371094 358.21875 C 894.492188 358.21875 893.613281 358.175781 892.738281 358.089844 C 891.859375 358.003906 890.992188 357.875 890.128906 357.703125 C 889.265625 357.53125 888.410156 357.316406 887.570312 357.0625 C 886.726562 356.804688 885.898438 356.507812 885.085938 356.171875 C 884.273438 355.835938 883.476562 355.460938 882.703125 355.042969 C 881.925781 354.628906 881.171875 354.175781 880.441406 353.6875 C 879.707031 353.199219 879.003906 352.675781 878.320312 352.117188 C 877.640625 351.558594 876.988281 350.964844 876.367188 350.34375 C 875.746094 349.71875 875.15625 349.070312 874.597656 348.386719 C 874.039062 347.707031 873.515625 347 873.023438 346.269531 C 872.535156 345.535156 872.085938 344.78125 871.667969 344.003906 C 871.253906 343.230469 870.878906 342.433594 870.542969 341.621094 C 870.203125 340.804688 869.910156 339.976562 869.652344 339.136719 C 869.398438 338.292969 869.183594 337.441406 869.011719 336.574219 C 868.839844 335.710938 868.710938 334.84375 868.625 333.964844 C 868.539062 333.089844 868.496094 332.210938 868.496094 331.332031 C 868.496094 330.449219 868.539062 329.570312 868.625 328.695312 C 868.710938 327.816406 868.839844 326.949219 869.011719 326.085938 C 869.183594 325.222656 869.398438 324.367188 869.652344 323.523438 C 869.910156 322.683594 870.203125 321.855469 870.542969 321.039062 C 870.878906 320.226562 871.253906 319.429688 871.667969 318.65625 C 872.085938 317.878906 872.535156 317.125 873.023438 316.390625 C 873.515625 315.660156 874.039062 314.953125 874.597656 314.273438 C 875.15625 313.589844 875.746094 312.941406 876.367188 312.316406 C 876.988281 311.695312 877.640625 311.105469 878.320312 310.546875 C 879.003906 309.984375 879.707031 309.460938 880.441406 308.972656 C 881.171875 308.484375 881.925781 308.03125 882.703125 307.617188 C 883.476562 307.203125 884.273438 306.824219 885.085938 306.488281 C 885.898438 306.152344 886.726562 305.855469 887.570312 305.597656 C 888.410156 305.34375 889.265625 305.128906 890.128906 304.957031 C 890.992188 304.785156 891.859375 304.65625 892.738281 304.570312 C 893.613281 304.484375 894.492188 304.441406 895.371094 304.441406 C 896.25 304.441406 897.128906 304.484375 898.003906 304.570312 C 898.882812 304.65625 899.75 304.785156 900.613281 304.957031 C 901.476562 305.128906 902.332031 305.34375 903.171875 305.597656 C 904.015625 305.855469 904.84375 306.152344 905.65625 306.488281 C 906.46875 306.824219 907.261719 307.203125 908.039062 307.617188 C 908.816406 308.03125 909.570312 308.484375 910.300781 308.972656 C 911.035156 309.460938 911.738281 309.984375 912.421875 310.546875 C 913.101562 311.105469 913.753906 311.695312 914.375 312.316406 C 914.996094 312.941406 915.585938 313.589844 916.144531 314.273438 C 916.703125 314.953125 917.226562 315.660156 917.714844 316.390625 C 918.207031 317.125 918.65625 317.878906 919.074219 318.65625 C 919.488281 319.429688 919.863281 320.226562 920.199219 321.039062 C 920.539062 321.855469 920.832031 322.683594 921.089844 323.523438 C 921.34375 324.367188 921.558594 325.222656 921.730469 326.085938 C 921.902344 326.949219 922.03125 327.816406 922.117188 328.695312 C 922.203125 329.570312 922.246094 330.449219 922.246094 331.332031 Z M 922.246094 331.332031 " fill-opacity="1" fill-rule="nonzero"/><path fill="#226699" d="M 1011.828125 313.40625 C 1011.828125 314.285156 1011.785156 315.164062 1011.699219 316.039062 C 1011.613281 316.917969 1011.484375 317.785156 1011.3125 318.648438 C 1011.140625 319.515625 1010.925781 320.367188 1010.671875 321.210938 C 1010.417969 322.050781 1010.121094 322.878906 1009.785156 323.695312 C 1009.445312 324.507812 1009.070312 325.304688 1008.65625 326.078125 C 1008.242188 326.855469 1007.789062 327.609375 1007.300781 328.34375 C 1006.8125 329.074219 1006.289062 329.78125 1005.730469 330.460938 C 1005.171875 331.144531 1004.582031 331.792969 1003.957031 332.417969 C 1003.335938 333.039062 1002.683594 333.632812 1002.003906 334.191406 C 1001.324219 334.75 1000.617188 335.273438 999.886719 335.761719 C 999.152344 336.25 998.398438 336.703125 997.625 337.117188 C 996.847656 337.535156 996.050781 337.910156 995.238281 338.246094 C 994.425781 338.582031 993.597656 338.878906 992.753906 339.136719 C 991.914062 339.390625 991.0625 339.605469 990.199219 339.777344 C 989.335938 339.949219 988.464844 340.078125 987.589844 340.164062 C 986.710938 340.25 985.835938 340.292969 984.953125 340.292969 C 984.074219 340.292969 983.195312 340.25 982.320312 340.164062 C 981.445312 340.078125 980.574219 339.949219 979.710938 339.777344 C 978.847656 339.605469 977.996094 339.390625 977.152344 339.136719 C 976.3125 338.878906 975.484375 338.582031 974.667969 338.246094 C 973.855469 337.910156 973.0625 337.535156 972.285156 337.117188 C 971.507812 336.703125 970.753906 336.25 970.023438 335.761719 C 969.292969 335.273438 968.585938 334.75 967.90625 334.191406 C 967.226562 333.632812 966.574219 333.039062 965.949219 332.417969 C 965.328125 331.792969 964.738281 331.144531 964.179688 330.460938 C 963.621094 329.78125 963.097656 329.074219 962.609375 328.34375 C 962.121094 327.609375 961.667969 326.855469 961.253906 326.078125 C 960.835938 325.304688 960.460938 324.507812 960.125 323.695312 C 959.789062 322.878906 959.492188 322.050781 959.238281 321.210938 C 958.980469 320.367188 958.765625 319.515625 958.597656 318.648438 C 958.425781 317.785156 958.296875 316.917969 958.207031 316.039062 C 958.121094 315.164062 958.078125 314.285156 958.078125 313.40625 C 958.078125 312.523438 958.121094 311.644531 958.207031 310.769531 C 958.296875 309.890625 958.425781 309.023438 958.597656 308.160156 C 958.765625 307.296875 958.980469 306.441406 959.238281 305.597656 C 959.492188 304.757812 959.789062 303.929688 960.125 303.113281 C 960.460938 302.300781 960.835938 301.503906 961.253906 300.730469 C 961.667969 299.953125 962.121094 299.199219 962.609375 298.464844 C 963.097656 297.734375 963.621094 297.027344 964.179688 296.347656 C 964.738281 295.664062 965.328125 295.015625 965.949219 294.390625 C 966.574219 293.769531 967.226562 293.179688 967.90625 292.621094 C 968.585938 292.058594 969.292969 291.535156 970.023438 291.046875 C 970.753906 290.558594 971.507812 290.105469 972.285156 289.691406 C 973.0625 289.277344 973.855469 288.898438 974.667969 288.5625 C 975.484375 288.226562 976.3125 287.929688 977.152344 287.671875 C 977.996094 287.417969 978.847656 287.203125 979.710938 287.03125 C 980.574219 286.859375 981.445312 286.730469 982.320312 286.644531 C 983.195312 286.558594 984.074219 286.515625 984.953125 286.515625 C 985.835938 286.515625 986.710938 286.558594 987.589844 286.644531 C 988.464844 286.730469 989.335938 286.859375 990.199219 287.03125 C 991.0625 287.203125 991.914062 287.417969 992.753906 287.671875 C 993.597656 287.929688 994.425781 288.226562 995.238281 288.5625 C 996.050781 288.898438 996.847656 289.277344 997.625 289.691406 C 998.398438 290.105469 999.152344 290.558594 999.886719 291.046875 C 1000.617188 291.535156 1001.324219 292.058594 1002.003906 292.621094 C 1002.683594 293.179688 1003.335938 293.769531 1003.957031 294.390625 C 1004.582031 295.015625 1005.171875 295.664062 1005.730469 296.347656 C 1006.289062 297.027344 1006.8125 297.734375 1007.300781 298.464844 C 1007.789062 299.199219 1008.242188 299.953125 1008.65625 300.730469 C 1009.070312 301.503906 1009.445312 302.300781 1009.785156 303.113281 C 1010.121094 303.929688 1010.417969 304.757812 1010.671875 305.597656 C 1010.925781 306.441406 1011.140625 307.296875 1011.3125 308.160156 C 1011.484375 309.023438 1011.613281 309.890625 1011.699219 310.769531 C 1011.785156 311.644531 1011.828125 312.523438 1011.828125 313.40625 Z M 1011.828125 313.40625 " fill-opacity="1" fill-rule="nonzero"/><path fill="#dd2e44" d="M 1092.453125 367.183594 C 1092.453125 368.0625 1092.410156 368.941406 1092.324219 369.816406 C 1092.238281 370.695312 1092.109375 371.5625 1091.9375 372.425781 C 1091.765625 373.292969 1091.550781 374.144531 1091.296875 374.988281 C 1091.042969 375.828125 1090.746094 376.65625 1090.410156 377.472656 C 1090.070312 378.285156 1089.695312 379.082031 1089.28125 379.855469 C 1088.867188 380.632812 1088.414062 381.386719 1087.925781 382.121094 C 1087.4375 382.851562 1086.914062 383.558594 1086.355469 384.238281 C 1085.796875 384.921875 1085.207031 385.570312 1084.582031 386.195312 C 1083.960938 386.816406 1083.308594 387.410156 1082.628906 387.96875 C 1081.949219 388.527344 1081.242188 389.050781 1080.511719 389.539062 C 1079.777344 390.027344 1079.023438 390.480469 1078.25 390.894531 C 1077.472656 391.308594 1076.675781 391.6875 1075.863281 392.023438 C 1075.050781 392.359375 1074.222656 392.65625 1073.378906 392.914062 C 1072.539062 393.167969 1071.6875 393.382812 1070.824219 393.554688 C 1069.960938 393.726562 1069.089844 393.855469 1068.214844 393.941406 C 1067.335938 394.027344 1066.460938 394.070312 1065.578125 394.070312 C 1064.699219 394.070312 1063.820312 394.027344 1062.945312 393.941406 C 1062.070312 393.855469 1061.199219 393.726562 1060.335938 393.554688 C 1059.472656 393.382812 1058.621094 393.167969 1057.777344 392.914062 C 1056.9375 392.65625 1056.109375 392.359375 1055.292969 392.023438 C 1054.480469 391.6875 1053.6875 391.308594 1052.910156 390.894531 C 1052.132812 390.480469 1051.378906 390.027344 1050.648438 389.539062 C 1049.917969 389.050781 1049.210938 388.527344 1048.53125 387.96875 C 1047.851562 387.410156 1047.199219 386.816406 1046.574219 386.195312 C 1045.953125 385.570312 1045.363281 384.921875 1044.804688 384.238281 C 1044.246094 383.558594 1043.722656 382.851562 1043.234375 382.121094 C 1042.746094 381.386719 1042.292969 380.632812 1041.878906 379.855469 C 1041.460938 379.082031 1041.085938 378.285156 1040.75 377.472656 C 1040.414062 376.65625 1040.117188 375.828125 1039.863281 374.988281 C 1039.605469 374.144531 1039.390625 373.292969 1039.222656 372.425781 C 1039.050781 371.5625 1038.921875 370.695312 1038.832031 369.816406 C 1038.746094 368.941406 1038.703125 368.0625 1038.703125 367.183594 C 1038.703125 366.300781 1038.746094 365.421875 1038.832031 364.546875 C 1038.921875 363.667969 1039.050781 362.800781 1039.222656 361.9375 C 1039.390625 361.074219 1039.605469 360.21875 1039.863281 359.375 C 1040.117188 358.535156 1040.414062 357.707031 1040.75 356.890625 C 1041.085938 356.078125 1041.460938 355.28125 1041.878906 354.507812 C 1042.292969 353.730469 1042.746094 352.976562 1043.234375 352.242188 C 1043.722656 351.511719 1044.246094 350.804688 1044.804688 350.125 C 1045.363281 349.441406 1045.953125 348.792969 1046.574219 348.167969 C 1047.199219 347.546875 1047.851562 346.957031 1048.53125 346.398438 C 1049.210938 345.835938 1049.917969 345.3125 1050.648438 344.824219 C 1051.378906 344.335938 1052.132812 343.882812 1052.910156 343.46875 C 1053.6875 343.054688 1054.480469 342.675781 1055.292969 342.339844 C 1056.109375 342.003906 1056.9375 341.707031 1057.777344 341.449219 C 1058.621094 341.195312 1059.472656 340.980469 1060.335938 340.808594 C 1061.199219 340.636719 1062.070312 340.507812 1062.945312 340.421875 C 1063.820312 340.335938 1064.699219 340.292969 1065.578125 340.292969 C 1066.460938 340.292969 1067.335938 340.335938 1068.214844 340.421875 C 1069.089844 340.507812 1069.960938 340.636719 1070.824219 340.808594 C 1071.6875 340.980469 1072.539062 341.195312 1073.378906 341.449219 C 1074.222656 341.707031 1075.050781 342.003906 1075.863281 342.339844 C 1076.675781 342.675781 1077.472656 343.054688 1078.25 343.46875 C 1079.023438 343.882812 1079.777344 344.335938 1080.511719 344.824219 C 1081.242188 345.3125 1081.949219 345.835938 1082.628906 346.398438 C 1083.308594 346.957031 1083.960938 347.546875 1084.582031 348.167969 C 1085.207031 348.792969 1085.796875 349.441406 1086.355469 350.125 C 1086.914062 350.804688 1087.4375 351.511719 1087.925781 352.242188 C 1088.414062 352.976562 1088.867188 353.730469 1089.28125 354.507812 C 1089.695312 355.28125 1090.070312 356.078125 1090.410156 356.890625 C 1090.746094 357.707031 1091.042969 358.535156 1091.296875 359.375 C 1091.550781 360.21875 1091.765625 361.074219 1091.9375 361.9375 C 1092.109375 362.800781 1092.238281 363.667969 1092.324219 364.546875 C 1092.410156 365.421875 1092.453125 366.300781 1092.453125 367.183594 Z M 1092.453125 367.183594 " fill-opacity="1" fill-rule="nonzero"/><path fill="#ffcc4d" d="M 1083.496094 447.847656 C 1083.496094 448.726562 1083.453125 449.605469 1083.367188 450.484375 C 1083.28125 451.359375 1083.152344 452.230469 1082.980469 453.09375 C 1082.808594 453.957031 1082.59375 454.808594 1082.339844 455.652344 C 1082.082031 456.496094 1081.785156 457.324219 1081.449219 458.136719 C 1081.113281 458.949219 1080.738281 459.746094 1080.324219 460.523438 C 1079.90625 461.300781 1079.457031 462.054688 1078.964844 462.785156 C 1078.476562 463.519531 1077.953125 464.226562 1077.394531 464.90625 C 1076.835938 465.585938 1076.246094 466.238281 1075.625 466.859375 C 1075.003906 467.484375 1074.351562 468.074219 1073.671875 468.632812 C 1072.988281 469.191406 1072.285156 469.714844 1071.550781 470.203125 C 1070.820312 470.695312 1070.066406 471.144531 1069.289062 471.5625 C 1068.511719 471.976562 1067.71875 472.351562 1066.90625 472.691406 C 1066.09375 473.027344 1065.265625 473.324219 1064.421875 473.578125 C 1063.582031 473.835938 1062.726562 474.046875 1061.863281 474.21875 C 1061 474.390625 1060.132812 474.519531 1059.253906 474.605469 C 1058.378906 474.691406 1057.5 474.738281 1056.621094 474.738281 C 1055.742188 474.738281 1054.863281 474.691406 1053.988281 474.605469 C 1053.109375 474.519531 1052.242188 474.390625 1051.378906 474.21875 C 1050.515625 474.046875 1049.660156 473.835938 1048.820312 473.578125 C 1047.976562 473.324219 1047.148438 473.027344 1046.335938 472.691406 C 1045.523438 472.351562 1044.726562 471.976562 1043.953125 471.5625 C 1043.175781 471.144531 1042.421875 470.695312 1041.691406 470.203125 C 1040.957031 469.714844 1040.253906 469.191406 1039.570312 468.632812 C 1038.890625 468.074219 1038.238281 467.484375 1037.617188 466.859375 C 1036.996094 466.238281 1036.40625 465.585938 1035.847656 464.90625 C 1035.289062 464.226562 1034.765625 463.519531 1034.273438 462.785156 C 1033.785156 462.054688 1033.335938 461.300781 1032.917969 460.523438 C 1032.503906 459.746094 1032.128906 458.949219 1031.792969 458.136719 C 1031.453125 457.324219 1031.160156 456.496094 1030.902344 455.652344 C 1030.648438 454.808594 1030.433594 453.957031 1030.261719 453.09375 C 1030.089844 452.230469 1029.960938 451.359375 1029.875 450.484375 C 1029.789062 449.605469 1029.746094 448.726562 1029.746094 447.847656 C 1029.746094 446.96875 1029.789062 446.089844 1029.875 445.210938 C 1029.960938 444.335938 1030.089844 443.464844 1030.261719 442.601562 C 1030.433594 441.738281 1030.648438 440.886719 1030.902344 440.042969 C 1031.160156 439.199219 1031.453125 438.371094 1031.792969 437.558594 C 1032.128906 436.746094 1032.503906 435.949219 1032.917969 435.171875 C 1033.335938 434.394531 1033.785156 433.640625 1034.273438 432.910156 C 1034.765625 432.175781 1035.289062 431.46875 1035.847656 430.789062 C 1036.40625 430.109375 1036.996094 429.457031 1037.617188 428.835938 C 1038.238281 428.210938 1038.890625 427.621094 1039.570312 427.0625 C 1040.253906 426.503906 1040.957031 425.980469 1041.691406 425.492188 C 1042.421875 425 1043.175781 424.550781 1043.953125 424.132812 C 1044.726562 423.71875 1045.523438 423.34375 1046.335938 423.003906 C 1047.148438 422.667969 1047.976562 422.371094 1048.820312 422.117188 C 1049.660156 421.859375 1050.515625 421.648438 1051.378906 421.476562 C 1052.242188 421.304688 1053.109375 421.175781 1053.988281 421.089844 C 1054.863281 421.003906 1055.742188 420.960938 1056.621094 420.960938 C 1057.5 420.960938 1058.378906 421.003906 1059.253906 421.089844 C 1060.132812 421.175781 1061 421.304688 1061.863281 421.476562 C 1062.726562 421.648438 1063.582031 421.859375 1064.421875 422.117188 C 1065.265625 422.371094 1066.09375 422.667969 1066.90625 423.003906 C 1067.71875 423.34375 1068.511719 423.71875 1069.289062 424.132812 C 1070.066406 424.550781 1070.820312 425 1071.550781 425.492188 C 1072.285156 425.980469 1072.988281 426.503906 1073.671875 427.0625 C 1074.351562 427.621094 1075.003906 428.210938 1075.625 428.835938 C 1076.246094 429.457031 1076.835938 430.109375 1077.394531 430.789062 C 1077.953125 431.46875 1078.476562 432.175781 1078.964844 432.910156 C 1079.457031 433.640625 1079.90625 434.394531 1080.324219 435.171875 C 1080.738281 435.949219 1081.113281 436.746094 1081.449219 437.558594 C 1081.785156 438.371094 1082.082031 439.199219 1082.339844 440.042969 C 1082.59375 440.886719 1082.808594 441.738281 1082.980469 442.601562 C 1083.152344 443.464844 1083.28125 444.335938 1083.367188 445.210938 C 1083.453125 446.089844 1083.496094 446.96875 1083.496094 447.847656 Z M 1083.496094 447.847656 " fill-opacity="1" fill-rule="nonzero"/></svg>