<svg xmlns="http://www.w3.org/2000/svg" xmlns:xlink="http://www.w3.org/1999/xlink" width="1920" zoomAndPan="magnify" viewBox="0 0 1440 809.999993" height="1080" preserveAspectRatio="xMidYMid meet" version="1.0"><defs><filter x="0%" y="0%" width="100%" height="100%" id="dd1caba588"><feColorMatrix values="0 0 0 0 1 0 0 0 0 1 0 0 0 0 1 0 0 0 1 0" color-interpolation-filters="sRGB"/></filter><mask id="59ec1a02d2"><g filter="url(#dd1caba588)"><rect x="-144" width="1728" fill="#000000" y="-80.999999" height="971.999992" fill-opacity="0.3"/></g></mask><clipPath id="b6addc27f5"><path d="M 1 123 L 202 123 L 202 277.75 L 1 277.75 Z M 1 123 " clip-rule="nonzero"/></clipPath><clipPath id="d496c4d83d"><path d="M 132 0.25 L 271 0.25 L 271 277.75 L 132 277.75 Z M 132 0.25 " clip-rule="nonzero"/></clipPath><clipPath id="a07b98e9eb"><rect x="0" width="272" y="0" height="278"/></clipPath></defs><g mask="url(#59ec1a02d2)"><g transform="matrix(1, 0, 0, 1, 80, 260)"><g clip-path="url(#a07b98e9eb)"><path fill="#aab8c2" d="M 101.304688 23.375 C 58.71875 23.375 24.199219 57.886719 24.199219 100.457031 L 24.199219 177.542969 L 55.042969 177.542969 L 55.042969 100.457031 C 55.042969 74.921875 75.757812 54.207031 101.304688 54.207031 C 126.847656 54.207031 147.566406 74.921875 147.566406 100.457031 L 147.566406 177.542969 L 178.40625 177.542969 L 178.40625 100.457031 C 178.40625 57.886719 143.886719 23.375 101.304688 23.375 Z M 101.304688 23.375 " fill-opacity="1" fill-rule="nonzero"/><g clip-path="url(#b6addc27f5)"><path fill="#ffac33" d="M 201.539062 246.917969 C 201.539062 263.945312 187.730469 277.75 170.695312 277.75 L 31.910156 277.75 C 14.878906 277.75 1.070312 263.945312 1.070312 246.917969 L 1.070312 154.417969 C 1.070312 137.390625 14.878906 123.582031 31.910156 123.582031 L 170.695312 123.582031 C 187.730469 123.582031 201.539062 137.390625 201.539062 154.417969 Z M 201.539062 246.917969 " fill-opacity="1" fill-rule="nonzero"/></g><g clip-path="url(#d496c4d83d)"><path fill="#c1694f" d="M 270.929688 69.625 C 270.929688 31.308594 239.867188 0.25 201.539062 0.25 C 163.210938 0.25 132.144531 31.308594 132.144531 69.625 C 132.144531 99.820312 151.476562 125.433594 178.40625 134.96875 L 178.40625 258.480469 C 178.40625 269.125 187.035156 277.75 197.683594 277.75 C 207.035156 277.75 214.824219 271.089844 216.574219 262.257812 C 216.710938 262.265625 216.820312 262.332031 216.957031 262.332031 C 221.222656 262.332031 224.667969 258.886719 224.667969 254.625 L 224.667969 246.917969 C 224.667969 242.652344 221.222656 239.207031 216.957031 239.207031 L 216.957031 231.5 C 221.222656 231.5 224.667969 228.054688 224.667969 223.792969 L 224.667969 208.375 C 224.667969 204.113281 221.222656 200.667969 216.957031 200.667969 L 216.957031 183.113281 C 221.554688 180.441406 224.667969 175.53125 224.667969 169.832031 L 224.667969 134.96875 C 251.601562 125.441406 270.929688 99.828125 270.929688 69.625 Z M 201.539062 15.667969 C 210.050781 15.667969 216.957031 22.574219 216.957031 31.082031 C 216.957031 39.59375 210.050781 46.5 201.539062 46.5 C 193.027344 46.5 186.117188 39.59375 186.117188 31.082031 C 186.117188 22.574219 193.027344 15.667969 201.539062 15.667969 Z M 201.539062 15.667969 " fill-opacity="1" fill-rule="nonzero"/></g></g></g></g><path fill="#8899a6" d="M 555.355469 337.257812 L 596.515625 296.097656 C 596.515625 296.097656 637.675781 254.9375 678.839844 296.097656 C 720 337.257812 678.839844 378.417969 678.839844 378.417969 L 623.957031 433.300781 C 623.957031 433.300781 582.796875 474.460938 541.636719 433.300781 C 533.917969 425.582031 529.136719 415.328125 529.136719 415.328125 L 552.136719 392.359375 C 552.136719 392.359375 551.210938 401.714844 562.214844 412.71875 C 562.214844 412.71875 582.796875 433.300781 603.375 412.71875 L 658.257812 357.839844 C 658.257812 357.839844 678.839844 337.257812 658.257812 316.679688 C 637.675781 296.097656 617.097656 316.679688 617.097656 316.679688 L 591.515625 342.257812 C 591.515625 342.257812 578.796875 331.824219 552.78125 339.832031 Z M 555.355469 337.257812 " fill-opacity="1" fill-rule="nonzero"/><path fill="#8899a6" d="M 595.453125 460.742188 L 554.292969 501.902344 C 554.292969 501.902344 513.132812 543.0625 471.96875 501.902344 C 430.808594 460.742188 471.96875 419.582031 471.96875 419.582031 L 526.851562 364.699219 C 526.851562 364.699219 568.011719 323.539062 609.171875 364.699219 C 616.890625 372.417969 621.671875 382.671875 621.671875 382.671875 L 598.664062 405.648438 C 598.664062 405.648438 599.589844 396.285156 588.585938 385.28125 C 588.585938 385.28125 568.003906 364.699219 547.425781 385.28125 L 492.542969 440.160156 C 492.542969 440.160156 471.964844 460.742188 492.542969 481.324219 C 513.125 501.902344 533.703125 481.324219 533.703125 481.324219 L 559.285156 455.742188 C 559.285156 455.742188 572.003906 466.175781 598.019531 458.167969 Z M 595.453125 460.742188 " fill-opacity="1" fill-rule="nonzero"/></svg>