<svg xmlns="http://www.w3.org/2000/svg" xmlns:xlink="http://www.w3.org/1999/xlink" width="1920" zoomAndPan="magnify" viewBox="0 0 1440 809.999993" height="1080" preserveAspectRatio="xMidYMid meet" version="1.0"><defs><filter x="0%" y="0%" width="100%" height="100%" id="b649897077"><feColorMatrix values="0 0 0 0 1 0 0 0 0 1 0 0 0 0 1 0 0 0 1 0" color-interpolation-filters="sRGB"/></filter><clipPath id="2099d6eb77"><path d="M 81 383 L 282 383 L 282 537.75 L 81 537.75 Z M 81 383 " clip-rule="nonzero"/></clipPath><clipPath id="6a52239f29"><path d="M 212 260.25 L 351 260.25 L 351 537.75 L 212 537.75 Z M 212 260.25 " clip-rule="nonzero"/></clipPath><mask id="9c6bd7f22f"><g filter="url(#b649897077)"><rect x="-144" width="1728" fill="#000000" y="-80.999999" height="971.999992" fill-opacity="0.3"/></g></mask><clipPath id="09cbdaea8b"><rect x="0" width="290" y="0" height="290"/></clipPath><mask id="1ab9f5d3a3"><g filter="url(#b649897077)"><rect x="-144" width="1728" fill="#000000" y="-80.999999" height="971.999992" fill-opacity="0.3"/></g></mask><clipPath id="a9e166bec1"><path d="M 0.789062 0.25 L 323.289062 0.25 L 323.289062 277.75 L 0.789062 277.75 Z M 0.789062 0.25 " clip-rule="nonzero"/></clipPath><clipPath id="dea48af84f"><rect x="0" width="325" y="0" height="278"/></clipPath><mask id="40d3ae3efc"><g filter="url(#b649897077)"><rect x="-144" width="1728" fill="#000000" y="-80.999999" height="971.999992" fill-opacity="0.3"/></g></mask><clipPath id="d15f0fb370"><path d="M 0.25 0.25 L 145 0.25 L 145 162 L 0.25 162 Z M 0.25 0.25 " clip-rule="nonzero"/></clipPath><clipPath id="b5e3585b5b"><path d="M 24 0.25 L 121 0.25 L 121 162 L 24 162 Z M 24 0.25 " clip-rule="nonzero"/></clipPath><clipPath id="a5e52a7939"><path d="M 40 0.25 L 105 0.25 L 105 162 L 40 162 Z M 40 0.25 " clip-rule="nonzero"/></clipPath><clipPath id="f00ed2998b"><path d="M 8 153 L 137 153 L 137 289.75 L 8 289.75 Z M 8 153 " clip-rule="nonzero"/></clipPath><clipPath id="d9e805602d"><rect x="0" width="146" y="0" height="290"/></clipPath></defs><path fill="#aab8c2" d="M 181.304688 283.375 C 138.71875 283.375 104.199219 317.886719 104.199219 360.457031 L 104.199219 437.542969 L 135.042969 437.542969 L 135.042969 360.457031 C 135.042969 334.921875 155.757812 314.207031 181.304688 314.207031 C 206.847656 314.207031 227.566406 334.921875 227.566406 360.457031 L 227.566406 437.542969 L 258.40625 437.542969 L 258.40625 360.457031 C 258.40625 317.886719 223.886719 283.375 181.304688 283.375 Z M 181.304688 283.375 " fill-opacity="1" fill-rule="nonzero"/><g clip-path="url(#2099d6eb77)"><path fill="#ffac33" d="M 281.539062 506.917969 C 281.539062 523.945312 267.730469 537.75 250.695312 537.75 L 111.910156 537.75 C 94.878906 537.75 81.070312 523.945312 81.070312 506.917969 L 81.070312 414.417969 C 81.070312 397.390625 94.878906 383.582031 111.910156 383.582031 L 250.695312 383.582031 C 267.730469 383.582031 281.539062 397.390625 281.539062 414.417969 Z M 281.539062 506.917969 " fill-opacity="1" fill-rule="nonzero"/></g><g clip-path="url(#6a52239f29)"><path fill="#c1694f" d="M 350.929688 329.625 C 350.929688 291.308594 319.867188 260.25 281.539062 260.25 C 243.210938 260.25 212.144531 291.308594 212.144531 329.625 C 212.144531 359.820312 231.476562 385.433594 258.40625 394.96875 L 258.40625 518.480469 C 258.40625 529.125 267.035156 537.75 277.683594 537.75 C 287.035156 537.75 294.824219 531.089844 296.574219 522.257812 C 296.710938 522.265625 296.820312 522.332031 296.957031 522.332031 C 301.222656 522.332031 304.667969 518.886719 304.667969 514.625 L 304.667969 506.917969 C 304.667969 502.652344 301.222656 499.207031 296.957031 499.207031 L 296.957031 491.5 C 301.222656 491.5 304.667969 488.054688 304.667969 483.792969 L 304.667969 468.375 C 304.667969 464.113281 301.222656 460.667969 296.957031 460.667969 L 296.957031 443.113281 C 301.554688 440.441406 304.667969 435.53125 304.667969 429.832031 L 304.667969 394.96875 C 331.601562 385.441406 350.929688 359.828125 350.929688 329.625 Z M 281.539062 275.667969 C 290.050781 275.667969 296.957031 282.574219 296.957031 291.082031 C 296.957031 299.59375 290.050781 306.5 281.539062 306.5 C 273.027344 306.5 266.117188 299.59375 266.117188 291.082031 C 266.117188 282.574219 273.027344 275.667969 281.539062 275.667969 Z M 281.539062 275.667969 " fill-opacity="1" fill-rule="nonzero"/></g><g mask="url(#9c6bd7f22f)"><g transform="matrix(1, 0, 0, 1, 430, 254)"><g clip-path="url(#09cbdaea8b)"><path fill="#8899a6" d="M 125.355469 83.257812 L 166.515625 42.097656 C 166.515625 42.097656 207.675781 0.9375 248.839844 42.097656 C 290 83.257812 248.839844 124.417969 248.839844 124.417969 L 193.957031 179.300781 C 193.957031 179.300781 152.796875 220.460938 111.636719 179.300781 C 103.917969 171.582031 99.136719 161.328125 99.136719 161.328125 L 122.136719 138.359375 C 122.136719 138.359375 121.210938 147.714844 132.214844 158.71875 C 132.214844 158.71875 152.796875 179.300781 173.375 158.71875 L 228.257812 103.839844 C 228.257812 103.839844 248.839844 83.257812 228.257812 62.679688 C 207.675781 42.097656 187.097656 62.679688 187.097656 62.679688 L 161.515625 88.257812 C 161.515625 88.257812 148.796875 77.824219 122.78125 85.832031 Z M 125.355469 83.257812 " fill-opacity="1" fill-rule="nonzero"/><path fill="#8899a6" d="M 165.453125 206.742188 L 124.292969 247.902344 C 124.292969 247.902344 83.132812 289.0625 41.96875 247.902344 C 0.808594 206.742188 41.96875 165.582031 41.96875 165.582031 L 96.851562 110.699219 C 96.851562 110.699219 138.011719 69.539062 179.171875 110.699219 C 186.890625 118.417969 191.671875 128.671875 191.671875 128.671875 L 168.664062 151.648438 C 168.664062 151.648438 169.589844 142.285156 158.585938 131.28125 C 158.585938 131.28125 138.003906 110.699219 117.425781 131.28125 L 62.542969 186.160156 C 62.542969 186.160156 41.964844 206.742188 62.542969 227.324219 C 83.125 247.902344 103.703125 227.324219 103.703125 227.324219 L 129.285156 201.742188 C 129.285156 201.742188 142.003906 212.175781 168.019531 204.167969 Z M 165.453125 206.742188 " fill-opacity="1" fill-rule="nonzero"/></g></g></g><g mask="url(#1ab9f5d3a3)"><g transform="matrix(1, 0, 0, 1, 805, 260)"><g clip-path="url(#dea48af84f)"><g clip-path="url(#a9e166bec1)"><path fill="#d99e82" d="M 162.039062 0.910156 C 72.984375 0.910156 0.789062 62.824219 0.789062 139.1875 C 0.789062 148.742188 1.917969 158.074219 4.074219 167.082031 C 20.011719 194.515625 31.039062 177.199219 81.414062 151.996094 C 132.71875 126.328125 81.414062 187.847656 63.496094 223.699219 C 57.988281 234.722656 60.96875 244.054688 68.511719 251.699219 C 94.902344 267.867188 127.136719 277.476562 162.039062 277.476562 C 251.09375 277.476562 323.289062 215.570312 323.289062 139.1875 C 323.289062 62.824219 251.09375 0.910156 162.039062 0.910156 Z M 187.558594 220.023438 C 184.019531 232.089844 165.523438 237.269531 146.234375 231.59375 C 126.949219 225.929688 114.183594 211.574219 117.722656 199.5 C 121.257812 187.433594 139.757812 182.253906 159.046875 187.9375 C 178.332031 193.59375 191.097656 207.953125 187.558594 220.023438 Z M 187.558594 220.023438 " fill-opacity="1" fill-rule="nonzero"/></g><path fill="#5c913b" d="M 117.246094 71.332031 C 117.246094 72.210938 117.203125 73.089844 117.117188 73.964844 C 117.03125 74.84375 116.902344 75.710938 116.730469 76.574219 C 116.558594 77.441406 116.34375 78.292969 116.089844 79.136719 C 115.832031 79.976562 115.539062 80.804688 115.199219 81.621094 C 114.863281 82.433594 114.488281 83.230469 114.074219 84.003906 C 113.65625 84.78125 113.207031 85.535156 112.714844 86.269531 C 112.226562 87 111.703125 87.707031 111.144531 88.386719 C 110.585938 89.070312 109.996094 89.71875 109.375 90.34375 C 108.753906 90.964844 108.101562 91.558594 107.421875 92.117188 C 106.738281 92.675781 106.035156 93.199219 105.300781 93.6875 C 104.570312 94.175781 103.816406 94.628906 103.039062 95.042969 C 102.261719 95.460938 101.46875 95.835938 100.65625 96.171875 C 99.84375 96.507812 99.015625 96.804688 98.171875 97.0625 C 97.332031 97.316406 96.476562 97.53125 95.613281 97.703125 C 94.75 97.875 93.882812 98.003906 93.003906 98.089844 C 92.128906 98.175781 91.25 98.21875 90.371094 98.21875 C 89.492188 98.21875 88.613281 98.175781 87.738281 98.089844 C 86.859375 98.003906 85.992188 97.875 85.128906 97.703125 C 84.265625 97.53125 83.410156 97.316406 82.570312 97.0625 C 81.726562 96.804688 80.898438 96.507812 80.085938 96.171875 C 79.273438 95.835938 78.476562 95.460938 77.703125 95.042969 C 76.925781 94.628906 76.171875 94.175781 75.441406 93.6875 C 74.707031 93.199219 74.003906 92.675781 73.320312 92.117188 C 72.640625 91.558594 71.988281 90.964844 71.367188 90.34375 C 70.746094 89.71875 70.15625 89.070312 69.597656 88.386719 C 69.039062 87.707031 68.515625 87 68.023438 86.269531 C 67.535156 85.535156 67.085938 84.78125 66.667969 84.003906 C 66.253906 83.230469 65.878906 82.433594 65.542969 81.621094 C 65.203125 80.804688 64.910156 79.976562 64.652344 79.136719 C 64.398438 78.292969 64.183594 77.441406 64.011719 76.574219 C 63.839844 75.710938 63.710938 74.84375 63.625 73.964844 C 63.539062 73.089844 63.496094 72.210938 63.496094 71.332031 C 63.496094 70.449219 63.539062 69.570312 63.625 68.695312 C 63.710938 67.816406 63.839844 66.949219 64.011719 66.085938 C 64.183594 65.222656 64.398438 64.367188 64.652344 63.523438 C 64.910156 62.683594 65.203125 61.855469 65.542969 61.039062 C 65.878906 60.226562 66.253906 59.429688 66.667969 58.65625 C 67.085938 57.878906 67.535156 57.125 68.023438 56.390625 C 68.515625 55.660156 69.039062 54.953125 69.597656 54.273438 C 70.15625 53.589844 70.746094 52.941406 71.367188 52.316406 C 71.988281 51.695312 72.640625 51.105469 73.320312 50.546875 C 74.003906 49.984375 74.707031 49.460938 75.441406 48.972656 C 76.171875 48.484375 76.925781 48.03125 77.703125 47.617188 C 78.476562 47.203125 79.273438 46.824219 80.085938 46.488281 C 80.898438 46.152344 81.726562 45.855469 82.570312 45.597656 C 83.410156 45.34375 84.265625 45.128906 85.128906 44.957031 C 85.992188 44.785156 86.859375 44.65625 87.738281 44.570312 C 88.613281 44.484375 89.492188 44.441406 90.371094 44.441406 C 91.25 44.441406 92.128906 44.484375 93.003906 44.570312 C 93.882812 44.65625 94.75 44.785156 95.613281 44.957031 C 96.476562 45.128906 97.332031 45.34375 98.171875 45.597656 C 99.015625 45.855469 99.84375 46.152344 100.65625 46.488281 C 101.46875 46.824219 102.261719 47.203125 103.039062 47.617188 C 103.816406 48.03125 104.570312 48.484375 105.300781 48.972656 C 106.035156 49.460938 106.738281 49.984375 107.421875 50.546875 C 108.101562 51.105469 108.753906 51.695312 109.375 52.316406 C 109.996094 52.941406 110.585938 53.589844 111.144531 54.273438 C 111.703125 54.953125 112.226562 55.660156 112.714844 56.390625 C 113.207031 57.125 113.65625 57.878906 114.074219 58.65625 C 114.488281 59.429688 114.863281 60.226562 115.199219 61.039062 C 115.539062 61.855469 115.832031 62.683594 116.089844 63.523438 C 116.34375 64.367188 116.558594 65.222656 116.730469 66.085938 C 116.902344 66.949219 117.03125 67.816406 117.117188 68.695312 C 117.203125 69.570312 117.246094 70.449219 117.246094 71.332031 Z M 117.246094 71.332031 " fill-opacity="1" fill-rule="nonzero"/><path fill="#226699" d="M 206.828125 53.40625 C 206.828125 54.285156 206.785156 55.164062 206.699219 56.039062 C 206.613281 56.917969 206.484375 57.785156 206.3125 58.648438 C 206.140625 59.515625 205.925781 60.367188 205.671875 61.210938 C 205.417969 62.050781 205.121094 62.878906 204.785156 63.695312 C 204.445312 64.507812 204.070312 65.304688 203.65625 66.078125 C 203.242188 66.855469 202.789062 67.609375 202.300781 68.34375 C 201.8125 69.074219 201.289062 69.78125 200.730469 70.460938 C 200.171875 71.144531 199.582031 71.792969 198.957031 72.417969 C 198.335938 73.039062 197.683594 73.632812 197.003906 74.191406 C 196.324219 74.75 195.617188 75.273438 194.886719 75.761719 C 194.152344 76.25 193.398438 76.703125 192.625 77.117188 C 191.847656 77.535156 191.050781 77.910156 190.238281 78.246094 C 189.425781 78.582031 188.597656 78.878906 187.753906 79.136719 C 186.914062 79.390625 186.0625 79.605469 185.199219 79.777344 C 184.335938 79.949219 183.464844 80.078125 182.589844 80.164062 C 181.710938 80.25 180.835938 80.292969 179.953125 80.292969 C 179.074219 80.292969 178.195312 80.25 177.320312 80.164062 C 176.445312 80.078125 175.574219 79.949219 174.710938 79.777344 C 173.847656 79.605469 172.996094 79.390625 172.152344 79.136719 C 171.3125 78.878906 170.484375 78.582031 169.667969 78.246094 C 168.855469 77.910156 168.0625 77.535156 167.285156 77.117188 C 166.507812 76.703125 165.753906 76.25 165.023438 75.761719 C 164.292969 75.273438 163.585938 74.75 162.90625 74.191406 C 162.226562 73.632812 161.574219 73.039062 160.949219 72.417969 C 160.328125 71.792969 159.738281 71.144531 159.179688 70.460938 C 158.621094 69.78125 158.097656 69.074219 157.609375 68.34375 C 157.121094 67.609375 156.667969 66.855469 156.253906 66.078125 C 155.835938 65.304688 155.460938 64.507812 155.125 63.695312 C 154.789062 62.878906 154.492188 62.050781 154.238281 61.210938 C 153.980469 60.367188 153.765625 59.515625 153.597656 58.648438 C 153.425781 57.785156 153.296875 56.917969 153.207031 56.039062 C 153.121094 55.164062 153.078125 54.285156 153.078125 53.40625 C 153.078125 52.523438 153.121094 51.644531 153.207031 50.769531 C 153.296875 49.890625 153.425781 49.023438 153.597656 48.160156 C 153.765625 47.296875 153.980469 46.441406 154.238281 45.597656 C 154.492188 44.757812 154.789062 43.929688 155.125 43.113281 C 155.460938 42.300781 155.835938 41.503906 156.253906 40.730469 C 156.667969 39.953125 157.121094 39.199219 157.609375 38.464844 C 158.097656 37.734375 158.621094 37.027344 159.179688 36.347656 C 159.738281 35.664062 160.328125 35.015625 160.949219 34.390625 C 161.574219 33.769531 162.226562 33.179688 162.90625 32.621094 C 163.585938 32.058594 164.292969 31.535156 165.023438 31.046875 C 165.753906 30.558594 166.507812 30.105469 167.285156 29.691406 C 168.0625 29.277344 168.855469 28.898438 169.667969 28.5625 C 170.484375 28.226562 171.3125 27.929688 172.152344 27.671875 C 172.996094 27.417969 173.847656 27.203125 174.710938 27.03125 C 175.574219 26.859375 176.445312 26.730469 177.320312 26.644531 C 178.195312 26.558594 179.074219 26.515625 179.953125 26.515625 C 180.835938 26.515625 181.710938 26.558594 182.589844 26.644531 C 183.464844 26.730469 184.335938 26.859375 185.199219 27.03125 C 186.0625 27.203125 186.914062 27.417969 187.753906 27.671875 C 188.597656 27.929688 189.425781 28.226562 190.238281 28.5625 C 191.050781 28.898438 191.847656 29.277344 192.625 29.691406 C 193.398438 30.105469 194.152344 30.558594 194.886719 31.046875 C 195.617188 31.535156 196.324219 32.058594 197.003906 32.621094 C 197.683594 33.179688 198.335938 33.769531 198.957031 34.390625 C 199.582031 35.015625 200.171875 35.664062 200.730469 36.347656 C 201.289062 37.027344 201.8125 37.734375 202.300781 38.464844 C 202.789062 39.199219 203.242188 39.953125 203.65625 40.730469 C 204.070312 41.503906 204.445312 42.300781 204.785156 43.113281 C 205.121094 43.929688 205.417969 44.757812 205.671875 45.597656 C 205.925781 46.441406 206.140625 47.296875 206.3125 48.160156 C 206.484375 49.023438 206.613281 49.890625 206.699219 50.769531 C 206.785156 51.644531 206.828125 52.523438 206.828125 53.40625 Z M 206.828125 53.40625 " fill-opacity="1" fill-rule="nonzero"/><path fill="#dd2e44" d="M 287.453125 107.183594 C 287.453125 108.0625 287.410156 108.941406 287.324219 109.816406 C 287.238281 110.695312 287.109375 111.5625 286.9375 112.425781 C 286.765625 113.292969 286.550781 114.144531 286.296875 114.988281 C 286.042969 115.828125 285.746094 116.65625 285.410156 117.472656 C 285.070312 118.285156 284.695312 119.082031 284.28125 119.855469 C 283.867188 120.632812 283.414062 121.386719 282.925781 122.121094 C 282.4375 122.851562 281.914062 123.558594 281.355469 124.238281 C 280.796875 124.921875 280.207031 125.570312 279.582031 126.195312 C 278.960938 126.816406 278.308594 127.410156 277.628906 127.96875 C 276.949219 128.527344 276.242188 129.050781 275.511719 129.539062 C 274.777344 130.027344 274.023438 130.480469 273.25 130.894531 C 272.472656 131.308594 271.675781 131.6875 270.863281 132.023438 C 270.050781 132.359375 269.222656 132.65625 268.378906 132.914062 C 267.539062 133.167969 266.6875 133.382812 265.824219 133.554688 C 264.960938 133.726562 264.089844 133.855469 263.214844 133.941406 C 262.335938 134.027344 261.460938 134.070312 260.578125 134.070312 C 259.699219 134.070312 258.820312 134.027344 257.945312 133.941406 C 257.070312 133.855469 256.199219 133.726562 255.335938 133.554688 C 254.472656 133.382812 253.621094 133.167969 252.777344 132.914062 C 251.9375 132.65625 251.109375 132.359375 250.292969 132.023438 C 249.480469 131.6875 248.6875 131.308594 247.910156 130.894531 C 247.132812 130.480469 246.378906 130.027344 245.648438 129.539062 C 244.917969 129.050781 244.210938 128.527344 243.53125 127.96875 C 242.847656 127.410156 242.199219 126.816406 241.574219 126.195312 C 240.953125 125.570312 240.363281 124.921875 239.804688 124.238281 C 239.246094 123.558594 238.722656 122.851562 238.234375 122.121094 C 237.746094 121.386719 237.292969 120.632812 236.878906 119.855469 C 236.460938 119.082031 236.085938 118.285156 235.75 117.472656 C 235.414062 116.65625 235.117188 115.828125 234.863281 114.988281 C 234.605469 114.144531 234.390625 113.292969 234.222656 112.425781 C 234.050781 111.5625 233.921875 110.695312 233.832031 109.816406 C 233.746094 108.941406 233.703125 108.0625 233.703125 107.183594 C 233.703125 106.300781 233.746094 105.421875 233.832031 104.546875 C 233.921875 103.667969 234.050781 102.800781 234.222656 101.9375 C 234.390625 101.074219 234.605469 100.21875 234.863281 99.375 C 235.117188 98.535156 235.414062 97.707031 235.75 96.890625 C 236.085938 96.078125 236.460938 95.28125 236.878906 94.507812 C 237.292969 93.730469 237.746094 92.976562 238.234375 92.242188 C 238.722656 91.511719 239.246094 90.804688 239.804688 90.125 C 240.363281 89.441406 240.953125 88.792969 241.574219 88.167969 C 242.199219 87.546875 242.847656 86.957031 243.53125 86.398438 C 244.210938 85.835938 244.917969 85.3125 245.648438 84.824219 C 246.378906 84.335938 247.132812 83.882812 247.910156 83.46875 C 248.6875 83.054688 249.480469 82.675781 250.292969 82.339844 C 251.109375 82.003906 251.9375 81.707031 252.777344 81.449219 C 253.621094 81.195312 254.472656 80.980469 255.335938 80.808594 C 256.199219 80.636719 257.070312 80.507812 257.945312 80.421875 C 258.820312 80.335938 259.699219 80.292969 260.578125 80.292969 C 261.460938 80.292969 262.335938 80.335938 263.214844 80.421875 C 264.089844 80.507812 264.960938 80.636719 265.824219 80.808594 C 266.6875 80.980469 267.539062 81.195312 268.378906 81.449219 C 269.222656 81.707031 270.050781 82.003906 270.863281 82.339844 C 271.675781 82.675781 272.472656 83.054688 273.25 83.46875 C 274.023438 83.882812 274.777344 84.335938 275.511719 84.824219 C 276.242188 85.3125 276.949219 85.835938 277.628906 86.398438 C 278.308594 86.957031 278.960938 87.546875 279.582031 88.167969 C 280.207031 88.792969 280.796875 89.441406 281.355469 90.125 C 281.914062 90.804688 282.4375 91.511719 282.925781 92.242188 C 283.414062 92.976562 283.867188 93.730469 284.28125 94.507812 C 284.695312 95.28125 285.070312 96.078125 285.410156 96.890625 C 285.746094 97.707031 286.042969 98.535156 286.296875 99.375 C 286.550781 100.21875 286.765625 101.074219 286.9375 101.9375 C 287.109375 102.800781 287.238281 103.667969 287.324219 104.546875 C 287.410156 105.421875 287.453125 106.300781 287.453125 107.183594 Z M 287.453125 107.183594 " fill-opacity="1" fill-rule="nonzero"/><path fill="#ffcc4d" d="M 278.496094 187.847656 C 278.496094 188.726562 278.453125 189.605469 278.367188 190.484375 C 278.28125 191.359375 278.152344 192.230469 277.980469 193.09375 C 277.808594 193.957031 277.59375 194.808594 277.339844 195.652344 C 277.082031 196.496094 276.785156 197.324219 276.449219 198.136719 C 276.113281 198.949219 275.738281 199.746094 275.324219 200.523438 C 274.90625 201.300781 274.457031 202.054688 273.964844 202.785156 C 273.476562 203.519531 272.953125 204.226562 272.394531 204.90625 C 271.835938 205.585938 271.246094 206.238281 270.625 206.859375 C 270.003906 207.484375 269.351562 208.074219 268.671875 208.632812 C 267.988281 209.191406 267.285156 209.714844 266.550781 210.203125 C 265.820312 210.695312 265.066406 211.144531 264.289062 211.5625 C 263.511719 211.976562 262.71875 212.351562 261.90625 212.691406 C 261.09375 213.027344 260.265625 213.324219 259.421875 213.578125 C 258.582031 213.835938 257.726562 214.046875 256.863281 214.21875 C 256 214.390625 255.132812 214.519531 254.253906 214.605469 C 253.378906 214.691406 252.5 214.738281 251.621094 214.738281 C 250.742188 214.738281 249.863281 214.691406 248.988281 214.605469 C 248.109375 214.519531 247.242188 214.390625 246.378906 214.21875 C 245.515625 214.046875 244.660156 213.835938 243.820312 213.578125 C 242.976562 213.324219 242.148438 213.027344 241.335938 212.691406 C 240.523438 212.351562 239.726562 211.976562 238.953125 211.5625 C 238.175781 211.144531 237.421875 210.695312 236.691406 210.203125 C 235.957031 209.714844 235.253906 209.191406 234.570312 208.632812 C 233.890625 208.074219 233.238281 207.484375 232.617188 206.859375 C 231.996094 206.238281 231.40625 205.585938 230.847656 204.90625 C 230.289062 204.226562 229.765625 203.519531 229.273438 202.785156 C 228.785156 202.054688 228.335938 201.300781 227.917969 200.523438 C 227.503906 199.746094 227.128906 198.949219 226.792969 198.136719 C 226.453125 197.324219 226.160156 196.496094 225.902344 195.652344 C 225.648438 194.808594 225.433594 193.957031 225.261719 193.09375 C 225.089844 192.230469 224.960938 191.359375 224.875 190.484375 C 224.789062 189.605469 224.746094 188.726562 224.746094 187.847656 C 224.746094 186.96875 224.789062 186.089844 224.875 185.210938 C 224.960938 184.335938 225.089844 183.464844 225.261719 182.601562 C 225.433594 181.738281 225.648438 180.886719 225.902344 180.042969 C 226.160156 179.199219 226.453125 178.371094 226.792969 177.558594 C 227.128906 176.746094 227.503906 175.949219 227.917969 175.171875 C 228.335938 174.394531 228.785156 173.640625 229.273438 172.910156 C 229.765625 172.175781 230.289062 171.46875 230.847656 170.789062 C 231.40625 170.109375 231.996094 169.457031 232.617188 168.835938 C 233.238281 168.210938 233.890625 167.621094 234.570312 167.0625 C 235.253906 166.503906 235.957031 165.980469 236.691406 165.492188 C 237.421875 165 238.175781 164.550781 238.953125 164.132812 C 239.726562 163.71875 240.523438 163.34375 241.335938 163.003906 C 242.148438 162.667969 242.976562 162.371094 243.820312 162.117188 C 244.660156 161.859375 245.515625 161.648438 246.378906 161.476562 C 247.242188 161.304688 248.109375 161.175781 248.988281 161.089844 C 249.863281 161.003906 250.742188 160.960938 251.621094 160.960938 C 252.5 160.960938 253.378906 161.003906 254.253906 161.089844 C 255.132812 161.175781 256 161.304688 256.863281 161.476562 C 257.726562 161.648438 258.582031 161.859375 259.421875 162.117188 C 260.265625 162.371094 261.09375 162.667969 261.90625 163.003906 C 262.71875 163.34375 263.511719 163.71875 264.289062 164.132812 C 265.066406 164.550781 265.820312 165 266.550781 165.492188 C 267.285156 165.980469 267.988281 166.503906 268.671875 167.0625 C 269.351562 167.621094 270.003906 168.210938 270.625 168.835938 C 271.246094 169.457031 271.835938 170.109375 272.394531 170.789062 C 272.953125 171.46875 273.476562 172.175781 273.964844 172.910156 C 274.457031 173.640625 274.90625 174.394531 275.324219 175.171875 C 275.738281 175.949219 276.113281 176.746094 276.449219 177.558594 C 276.785156 178.371094 277.082031 179.199219 277.339844 180.042969 C 277.59375 180.886719 277.808594 181.738281 277.980469 182.601562 C 278.152344 183.464844 278.28125 184.335938 278.367188 185.210938 C 278.453125 186.089844 278.496094 186.96875 278.496094 187.847656 Z M 278.496094 187.847656 " fill-opacity="1" fill-rule="nonzero"/></g></g></g><g mask="url(#40d3ae3efc)"><g transform="matrix(1, 0, 0, 1, 1214, 254)"><g clip-path="url(#d9e805602d)"><g clip-path="url(#d15f0fb370)"><path fill="#55acee" d="M 128.917969 0.25 L 16.332031 0.25 C 7.457031 0.25 0.25 7.457031 0.25 16.332031 L 0.25 104.792969 C 0.25 104.792969 0.25 112.832031 8.292969 120.875 L 59.992188 161.082031 L 85.257812 161.082031 L 136.957031 120.875 C 145 112.832031 145 104.792969 145 104.792969 L 145 16.332031 C 145 7.457031 137.792969 0.25 128.917969 0.25 Z M 128.917969 0.25 " fill-opacity="1" fill-rule="nonzero"/></g><g clip-path="url(#b5e3585b5b)"><path fill="#e1e8ed" d="M 24.375 0.25 L 24.375 133.378906 L 59.992188 161.082031 L 85.257812 161.082031 L 120.875 133.378906 L 120.875 0.25 Z M 24.375 0.25 " fill-opacity="1" fill-rule="nonzero"/></g><g clip-path="url(#a5e52a7939)"><path fill="#dd2e44" d="M 40.457031 0.25 L 40.457031 145.894531 L 59.992188 161.082031 L 85.257812 161.082031 L 104.792969 145.894531 L 104.792969 0.25 Z M 40.457031 0.25 " fill-opacity="1" fill-rule="nonzero"/></g><g clip-path="url(#f00ed2998b)"><path fill="#ffac33" d="M 104.003906 169.285156 C 104.484375 167.976562 104.792969 166.574219 104.792969 165.105469 C 104.792969 158.445312 99.386719 153.042969 92.730469 153.042969 L 52.519531 153.042969 C 45.855469 153.042969 40.457031 158.445312 40.457031 165.105469 C 40.457031 166.574219 40.765625 167.976562 41.246094 169.285156 C 21.59375 180.292969 8.292969 201.292969 8.292969 225.417969 C 8.292969 260.945312 37.089844 289.75 72.625 289.75 C 108.152344 289.75 136.957031 260.945312 136.957031 225.417969 C 136.957031 201.292969 123.65625 180.292969 104.003906 169.285156 Z M 104.003906 169.285156 " fill-opacity="1" fill-rule="nonzero"/></g><path fill="#ffd983" d="M 120.875 225.417969 C 120.875 226.996094 120.796875 228.574219 120.644531 230.144531 C 120.488281 231.71875 120.257812 233.28125 119.949219 234.828125 C 119.640625 236.378906 119.257812 237.910156 118.796875 239.421875 C 118.339844 240.933594 117.808594 242.421875 117.203125 243.882812 C 116.597656 245.339844 115.921875 246.769531 115.175781 248.160156 C 114.433594 249.554688 113.621094 250.910156 112.742188 252.222656 C 111.867188 253.535156 110.925781 254.804688 109.921875 256.027344 C 108.921875 257.246094 107.859375 258.417969 106.742188 259.535156 C 105.625 260.652344 104.457031 261.710938 103.234375 262.714844 C 102.011719 263.71875 100.746094 264.65625 99.429688 265.535156 C 98.117188 266.414062 96.761719 267.222656 95.371094 267.96875 C 93.976562 268.714844 92.550781 269.390625 91.089844 269.992188 C 89.628906 270.597656 88.144531 271.128906 86.632812 271.589844 C 85.117188 272.046875 83.589844 272.429688 82.039062 272.738281 C 80.488281 273.046875 78.925781 273.28125 77.355469 273.433594 C 75.78125 273.589844 74.207031 273.667969 72.625 273.667969 C 71.042969 273.667969 69.46875 273.589844 67.894531 273.433594 C 66.324219 273.28125 64.761719 273.046875 63.210938 272.738281 C 61.660156 272.429688 60.132812 272.046875 58.617188 271.589844 C 57.105469 271.128906 55.621094 270.597656 54.160156 269.992188 C 52.699219 269.390625 51.273438 268.714844 49.878906 267.96875 C 48.488281 267.222656 47.132812 266.414062 45.820312 265.535156 C 44.503906 264.65625 43.238281 263.71875 42.015625 262.714844 C 40.792969 261.710938 39.625 260.652344 38.507812 259.535156 C 37.390625 258.417969 36.328125 257.246094 35.328125 256.027344 C 34.324219 254.804688 33.382812 253.535156 32.507812 252.222656 C 31.628906 250.910156 30.816406 249.554688 30.070312 248.160156 C 29.328125 246.769531 28.652344 245.339844 28.046875 243.882812 C 27.441406 242.421875 26.910156 240.933594 26.453125 239.421875 C 25.992188 237.910156 25.609375 236.378906 25.300781 234.828125 C 24.992188 233.28125 24.761719 231.71875 24.605469 230.144531 C 24.453125 228.574219 24.375 226.996094 24.375 225.417969 C 24.375 223.835938 24.453125 222.261719 24.605469 220.6875 C 24.761719 219.113281 24.992188 217.554688 25.300781 216.003906 C 25.609375 214.453125 25.992188 212.921875 26.453125 211.410156 C 26.910156 209.898438 27.441406 208.414062 28.046875 206.953125 C 28.652344 205.492188 29.328125 204.066406 30.070312 202.671875 C 30.816406 201.277344 31.628906 199.925781 32.507812 198.609375 C 33.382812 197.296875 34.324219 196.027344 35.328125 194.808594 C 36.328125 193.585938 37.390625 192.417969 38.507812 191.296875 C 39.625 190.179688 40.792969 189.121094 42.015625 188.117188 C 43.238281 187.117188 44.503906 186.175781 45.820312 185.296875 C 47.132812 184.421875 48.488281 183.609375 49.878906 182.863281 C 51.273438 182.117188 52.699219 181.445312 54.160156 180.839844 C 55.621094 180.234375 57.105469 179.703125 58.617188 179.246094 C 60.132812 178.785156 61.660156 178.402344 63.210938 178.09375 C 64.761719 177.785156 66.324219 177.554688 67.894531 177.398438 C 69.46875 177.242188 71.042969 177.167969 72.625 177.167969 C 74.207031 177.167969 75.78125 177.242188 77.355469 177.398438 C 78.925781 177.554688 80.488281 177.785156 82.039062 178.09375 C 83.589844 178.402344 85.117188 178.785156 86.632812 179.246094 C 88.144531 179.703125 89.628906 180.234375 91.089844 180.839844 C 92.550781 181.445312 93.976562 182.117188 95.371094 182.863281 C 96.761719 183.609375 98.117188 184.421875 99.429688 185.296875 C 100.746094 186.175781 102.011719 187.117188 103.234375 188.117188 C 104.457031 189.121094 105.625 190.179688 106.742188 191.296875 C 107.859375 192.417969 108.921875 193.585938 109.921875 194.808594 C 110.925781 196.027344 111.867188 197.296875 112.742188 198.609375 C 113.621094 199.925781 114.433594 201.277344 115.175781 202.671875 C 115.921875 204.066406 116.597656 205.492188 117.203125 206.953125 C 117.808594 208.414062 118.339844 209.898438 118.796875 211.410156 C 119.257812 212.921875 119.640625 214.453125 119.949219 216.003906 C 120.257812 217.554688 120.488281 219.113281 120.644531 220.6875 C 120.796875 222.261719 120.875 223.835938 120.875 225.417969 Z M 120.875 225.417969 " fill-opacity="1" fill-rule="nonzero"/></g></g></g></svg>