<svg xmlns="http://www.w3.org/2000/svg" xmlns:xlink="http://www.w3.org/1999/xlink" width="1920" zoomAndPan="magnify" viewBox="0 0 1440 809.999993" height="1080" preserveAspectRatio="xMidYMid meet" version="1.0"><defs><clipPath id="8ca6c8def5"><path d="M 81 383 L 282 383 L 282 537.75 L 81 537.75 Z M 81 383 " clip-rule="nonzero"/></clipPath><clipPath id="6907f6934b"><path d="M 212 260.25 L 351 260.25 L 351 537.75 L 212 537.75 Z M 212 260.25 " clip-rule="nonzero"/></clipPath><clipPath id="a615d80e98"><path d="M 805.789062 260.25 L 1128.289062 260.25 L 1128.289062 537.75 L 805.789062 537.75 Z M 805.789062 260.25 " clip-rule="nonzero"/></clipPath><clipPath id="87613ee5ca"><path d="M 1214.25 254.25 L 1359 254.25 L 1359 416 L 1214.25 416 Z M 1214.25 254.25 " clip-rule="nonzero"/></clipPath><clipPath id="214e19bd59"><path d="M 1238 254.25 L 1335 254.25 L 1335 416 L 1238 416 Z M 1238 254.25 " clip-rule="nonzero"/></clipPath><clipPath id="060553e2ff"><path d="M 1254 254.25 L 1319 254.25 L 1319 416 L 1254 416 Z M 1254 254.25 " clip-rule="nonzero"/></clipPath><clipPath id="25c123d6fa"><path d="M 1222 407 L 1351 407 L 1351 543.75 L 1222 543.75 Z M 1222 407 " clip-rule="nonzero"/></clipPath></defs><path fill="#aab8c2" d="M 181.304688 283.375 C 138.71875 283.375 104.199219 317.886719 104.199219 360.457031 L 104.199219 437.542969 L 135.042969 437.542969 L 135.042969 360.457031 C 135.042969 334.921875 155.757812 314.207031 181.304688 314.207031 C 206.847656 314.207031 227.566406 334.921875 227.566406 360.457031 L 227.566406 437.542969 L 258.40625 437.542969 L 258.40625 360.457031 C 258.40625 317.886719 223.886719 283.375 181.304688 283.375 Z M 181.304688 283.375 " fill-opacity="1" fill-rule="nonzero"/><g clip-path="url(#8ca6c8def5)"><path fill="#ffac33" d="M 281.539062 506.917969 C 281.539062 523.945312 267.730469 537.75 250.695312 537.75 L 111.910156 537.75 C 94.878906 537.75 81.070312 523.945312 81.070312 506.917969 L 81.070312 414.417969 C 81.070312 397.390625 94.878906 383.582031 111.910156 383.582031 L 250.695312 383.582031 C 267.730469 383.582031 281.539062 397.390625 281.539062 414.417969 Z M 281.539062 506.917969 " fill-opacity="1" fill-rule="nonzero"/></g><g clip-path="url(#6907f6934b)"><path fill="#c1694f" d="M 350.929688 329.625 C 350.929688 291.308594 319.867188 260.25 281.539062 260.25 C 243.210938 260.25 212.144531 291.308594 212.144531 329.625 C 212.144531 359.820312 231.476562 385.433594 258.40625 394.96875 L 258.40625 518.480469 C 258.40625 529.125 267.035156 537.75 277.683594 537.75 C 287.035156 537.75 294.824219 531.089844 296.574219 522.257812 C 296.710938 522.265625 296.820312 522.332031 296.957031 522.332031 C 301.222656 522.332031 304.667969 518.886719 304.667969 514.625 L 304.667969 506.917969 C 304.667969 502.652344 301.222656 499.207031 296.957031 499.207031 L 296.957031 491.5 C 301.222656 491.5 304.667969 488.054688 304.667969 483.792969 L 304.667969 468.375 C 304.667969 464.113281 301.222656 460.667969 296.957031 460.667969 L 296.957031 443.113281 C 301.554688 440.441406 304.667969 435.53125 304.667969 429.832031 L 304.667969 394.96875 C 331.601562 385.441406 350.929688 359.828125 350.929688 329.625 Z M 281.539062 275.667969 C 290.050781 275.667969 296.957031 282.574219 296.957031 291.082031 C 296.957031 299.59375 290.050781 306.5 281.539062 306.5 C 273.027344 306.5 266.117188 299.59375 266.117188 291.082031 C 266.117188 282.574219 273.027344 275.667969 281.539062 275.667969 Z M 281.539062 275.667969 " fill-opacity="1" fill-rule="nonzero"/></g><path fill="#8899a6" d="M 555.355469 337.257812 L 596.515625 296.097656 C 596.515625 296.097656 637.675781 254.9375 678.839844 296.097656 C 720 337.257812 678.839844 378.417969 678.839844 378.417969 L 623.957031 433.300781 C 623.957031 433.300781 582.796875 474.460938 541.636719 433.300781 C 533.917969 425.582031 529.136719 415.328125 529.136719 415.328125 L 552.136719 392.359375 C 552.136719 392.359375 551.210938 401.714844 562.214844 412.71875 C 562.214844 412.71875 582.796875 433.300781 603.375 412.71875 L 658.257812 357.839844 C 658.257812 357.839844 678.839844 337.257812 658.257812 316.679688 C 637.675781 296.097656 617.097656 316.679688 617.097656 316.679688 L 591.515625 342.257812 C 591.515625 342.257812 578.796875 331.824219 552.78125 339.832031 Z M 555.355469 337.257812 " fill-opacity="1" fill-rule="nonzero"/><path fill="#8899a6" d="M 595.453125 460.742188 L 554.292969 501.902344 C 554.292969 501.902344 513.132812 543.0625 471.96875 501.902344 C 430.808594 460.742188 471.96875 419.582031 471.96875 419.582031 L 526.851562 364.699219 C 526.851562 364.699219 568.011719 323.539062 609.171875 364.699219 C 616.890625 372.417969 621.671875 382.671875 621.671875 382.671875 L 598.664062 405.648438 C 598.664062 405.648438 599.589844 396.285156 588.585938 385.28125 C 588.585938 385.28125 568.003906 364.699219 547.425781 385.28125 L 492.542969 440.160156 C 492.542969 440.160156 471.964844 460.742188 492.542969 481.324219 C 513.125 501.902344 533.703125 481.324219 533.703125 481.324219 L 559.285156 455.742188 C 559.285156 455.742188 572.003906 466.175781 598.019531 458.167969 Z M 595.453125 460.742188 " fill-opacity="1" fill-rule="nonzero"/><g clip-path="url(#a615d80e98)"><path fill="#d99e82" d="M 967.039062 260.910156 C 877.984375 260.910156 805.789062 322.824219 805.789062 399.1875 C 805.789062 408.742188 806.917969 418.074219 809.074219 427.082031 C 825.011719 454.515625 836.039062 437.199219 886.414062 411.996094 C 937.71875 386.328125 886.414062 447.847656 868.496094 483.699219 C 862.988281 494.722656 865.96875 504.054688 873.511719 511.699219 C 899.902344 527.867188 932.136719 537.476562 967.039062 537.476562 C 1056.09375 537.476562 1128.289062 475.570312 1128.289062 399.1875 C 1128.289062 322.824219 1056.09375 260.910156 967.039062 260.910156 Z M 992.558594 480.023438 C 989.019531 492.089844 970.523438 497.269531 951.234375 491.59375 C 931.949219 485.929688 919.183594 471.574219 922.722656 459.5 C 926.257812 447.433594 944.757812 442.253906 964.046875 447.9375 C 983.332031 453.59375 996.097656 467.953125 992.558594 480.023438 Z M 992.558594 480.023438 " fill-opacity="1" fill-rule="nonzero"/></g><path fill="#5c913b" d="M 922.246094 331.332031 C 922.246094 332.210938 922.203125 333.089844 922.117188 333.964844 C 922.03125 334.84375 921.902344 335.710938 921.730469 336.574219 C 921.558594 337.441406 921.34375 338.292969 921.089844 339.136719 C 920.832031 339.976562 920.539062 340.804688 920.199219 341.621094 C 919.863281 342.433594 919.488281 343.230469 919.074219 344.003906 C 918.65625 344.78125 918.207031 345.535156 917.714844 346.269531 C 917.226562 347 916.703125 347.707031 916.144531 348.386719 C 915.585938 349.070312 914.996094 349.71875 914.375 350.34375 C 913.753906 350.964844 913.101562 351.558594 912.421875 352.117188 C 911.738281 352.675781 911.035156 353.199219 910.300781 353.6875 C 909.570312 354.175781 908.816406 354.628906 908.039062 355.042969 C 907.261719 355.460938 906.46875 355.835938 905.65625 356.171875 C 904.84375 356.507812 904.015625 356.804688 903.171875 357.0625 C 902.332031 357.316406 901.476562 357.53125 900.613281 357.703125 C 899.75 357.875 898.882812 358.003906 898.003906 358.089844 C 897.128906 358.175781 896.25 358.21875 895.371094 358.21875 C 894.492188 358.21875 893.613281 358.175781 892.738281 358.089844 C 891.859375 358.003906 890.992188 357.875 890.128906 357.703125 C 889.265625 357.53125 888.410156 357.316406 887.570312 357.0625 C 886.726562 356.804688 885.898438 356.507812 885.085938 356.171875 C 884.273438 355.835938 883.476562 355.460938 882.703125 355.042969 C 881.925781 354.628906 881.171875 354.175781 880.441406 353.6875 C 879.707031 353.199219 879.003906 352.675781 878.320312 352.117188 C 877.640625 351.558594 876.988281 350.964844 876.367188 350.34375 C 875.746094 349.71875 875.15625 349.070312 874.597656 348.386719 C 874.039062 347.707031 873.515625 347 873.023438 346.269531 C 872.535156 345.535156 872.085938 344.78125 871.667969 344.003906 C 871.253906 343.230469 870.878906 342.433594 870.542969 341.621094 C 870.203125 340.804688 869.910156 339.976562 869.652344 339.136719 C 869.398438 338.292969 869.183594 337.441406 869.011719 336.574219 C 868.839844 335.710938 868.710938 334.84375 868.625 333.964844 C 868.539062 333.089844 868.496094 332.210938 868.496094 331.332031 C 868.496094 330.449219 868.539062 329.570312 868.625 328.695312 C 868.710938 327.816406 868.839844 326.949219 869.011719 326.085938 C 869.183594 325.222656 869.398438 324.367188 869.652344 323.523438 C 869.910156 322.683594 870.203125 321.855469 870.542969 321.039062 C 870.878906 320.226562 871.253906 319.429688 871.667969 318.65625 C 872.085938 317.878906 872.535156 317.125 873.023438 316.390625 C 873.515625 315.660156 874.039062 314.953125 874.597656 314.273438 C 875.15625 313.589844 875.746094 312.941406 876.367188 312.316406 C 876.988281 311.695312 877.640625 311.105469 878.320312 310.546875 C 879.003906 309.984375 879.707031 309.460938 880.441406 308.972656 C 881.171875 308.484375 881.925781 308.03125 882.703125 307.617188 C 883.476562 307.203125 884.273438 306.824219 885.085938 306.488281 C 885.898438 306.152344 886.726562 305.855469 887.570312 305.597656 C 888.410156 305.34375 889.265625 305.128906 890.128906 304.957031 C 890.992188 304.785156 891.859375 304.65625 892.738281 304.570312 C 893.613281 304.484375 894.492188 304.441406 895.371094 304.441406 C 896.25 304.441406 897.128906 304.484375 898.003906 304.570312 C 898.882812 304.65625 899.75 304.785156 900.613281 304.957031 C 901.476562 305.128906 902.332031 305.34375 903.171875 305.597656 C 904.015625 305.855469 904.84375 306.152344 905.65625 306.488281 C 906.46875 306.824219 907.261719 307.203125 908.039062 307.617188 C 908.816406 308.03125 909.570312 308.484375 910.300781 308.972656 C 911.035156 309.460938 911.738281 309.984375 912.421875 310.546875 C 913.101562 311.105469 913.753906 311.695312 914.375 312.316406 C 914.996094 312.941406 915.585938 313.589844 916.144531 314.273438 C 916.703125 314.953125 917.226562 315.660156 917.714844 316.390625 C 918.207031 317.125 918.65625 317.878906 919.074219 318.65625 C 919.488281 319.429688 919.863281 320.226562 920.199219 321.039062 C 920.539062 321.855469 920.832031 322.683594 921.089844 323.523438 C 921.34375 324.367188 921.558594 325.222656 921.730469 326.085938 C 921.902344 326.949219 922.03125 327.816406 922.117188 328.695312 C 922.203125 329.570312 922.246094 330.449219 922.246094 331.332031 Z M 922.246094 331.332031 " fill-opacity="1" fill-rule="nonzero"/><path fill="#226699" d="M 1011.828125 313.40625 C 1011.828125 314.285156 1011.785156 315.164062 1011.699219 316.039062 C 1011.613281 316.917969 1011.484375 317.785156 1011.3125 318.648438 C 1011.140625 319.515625 1010.925781 320.367188 1010.671875 321.210938 C 1010.417969 322.050781 1010.121094 322.878906 1009.785156 323.695312 C 1009.445312 324.507812 1009.070312 325.304688 1008.65625 326.078125 C 1008.242188 326.855469 1007.789062 327.609375 1007.300781 328.34375 C 1006.8125 329.074219 1006.289062 329.78125 1005.730469 330.460938 C 1005.171875 331.144531 1004.582031 331.792969 1003.957031 332.417969 C 1003.335938 333.039062 1002.683594 333.632812 1002.003906 334.191406 C 1001.324219 334.75 1000.617188 335.273438 999.886719 335.761719 C 999.152344 336.25 998.398438 336.703125 997.625 337.117188 C 996.847656 337.535156 996.050781 337.910156 995.238281 338.246094 C 994.425781 338.582031 993.597656 338.878906 992.753906 339.136719 C 991.914062 339.390625 991.0625 339.605469 990.199219 339.777344 C 989.335938 339.949219 988.464844 340.078125 987.589844 340.164062 C 986.710938 340.25 985.835938 340.292969 984.953125 340.292969 C 984.074219 340.292969 983.195312 340.25 982.320312 340.164062 C 981.445312 340.078125 980.574219 339.949219 979.710938 339.777344 C 978.847656 339.605469 977.996094 339.390625 977.152344 339.136719 C 976.3125 338.878906 975.484375 338.582031 974.667969 338.246094 C 973.855469 337.910156 973.0625 337.535156 972.285156 337.117188 C 971.507812 336.703125 970.753906 336.25 970.023438 335.761719 C 969.292969 335.273438 968.585938 334.75 967.90625 334.191406 C 967.226562 333.632812 966.574219 333.039062 965.949219 332.417969 C 965.328125 331.792969 964.738281 331.144531 964.179688 330.460938 C 963.621094 329.78125 963.097656 329.074219 962.609375 328.34375 C 962.121094 327.609375 961.667969 326.855469 961.253906 326.078125 C 960.835938 325.304688 960.460938 324.507812 960.125 323.695312 C 959.789062 322.878906 959.492188 322.050781 959.238281 321.210938 C 958.980469 320.367188 958.765625 319.515625 958.597656 318.648438 C 958.425781 317.785156 958.296875 316.917969 958.207031 316.039062 C 958.121094 315.164062 958.078125 314.285156 958.078125 313.40625 C 958.078125 312.523438 958.121094 311.644531 958.207031 310.769531 C 958.296875 309.890625 958.425781 309.023438 958.597656 308.160156 C 958.765625 307.296875 958.980469 306.441406 959.238281 305.597656 C 959.492188 304.757812 959.789062 303.929688 960.125 303.113281 C 960.460938 302.300781 960.835938 301.503906 961.253906 300.730469 C 961.667969 299.953125 962.121094 299.199219 962.609375 298.464844 C 963.097656 297.734375 963.621094 297.027344 964.179688 296.347656 C 964.738281 295.664062 965.328125 295.015625 965.949219 294.390625 C 966.574219 293.769531 967.226562 293.179688 967.90625 292.621094 C 968.585938 292.058594 969.292969 291.535156 970.023438 291.046875 C 970.753906 290.558594 971.507812 290.105469 972.285156 289.691406 C 973.0625 289.277344 973.855469 288.898438 974.667969 288.5625 C 975.484375 288.226562 976.3125 287.929688 977.152344 287.671875 C 977.996094 287.417969 978.847656 287.203125 979.710938 287.03125 C 980.574219 286.859375 981.445312 286.730469 982.320312 286.644531 C 983.195312 286.558594 984.074219 286.515625 984.953125 286.515625 C 985.835938 286.515625 986.710938 286.558594 987.589844 286.644531 C 988.464844 286.730469 989.335938 286.859375 990.199219 287.03125 C 991.0625 287.203125 991.914062 287.417969 992.753906 287.671875 C 993.597656 287.929688 994.425781 288.226562 995.238281 288.5625 C 996.050781 288.898438 996.847656 289.277344 997.625 289.691406 C 998.398438 290.105469 999.152344 290.558594 999.886719 291.046875 C 1000.617188 291.535156 1001.324219 292.058594 1002.003906 292.621094 C 1002.683594 293.179688 1003.335938 293.769531 1003.957031 294.390625 C 1004.582031 295.015625 1005.171875 295.664062 1005.730469 296.347656 C 1006.289062 297.027344 1006.8125 297.734375 1007.300781 298.464844 C 1007.789062 299.199219 1008.242188 299.953125 1008.65625 300.730469 C 1009.070312 301.503906 1009.445312 302.300781 1009.785156 303.113281 C 1010.121094 303.929688 1010.417969 304.757812 1010.671875 305.597656 C 1010.925781 306.441406 1011.140625 307.296875 1011.3125 308.160156 C 1011.484375 309.023438 1011.613281 309.890625 1011.699219 310.769531 C 1011.785156 311.644531 1011.828125 312.523438 1011.828125 313.40625 Z M 1011.828125 313.40625 " fill-opacity="1" fill-rule="nonzero"/><path fill="#dd2e44" d="M 1092.453125 367.183594 C 1092.453125 368.0625 1092.410156 368.941406 1092.324219 369.816406 C 1092.238281 370.695312 1092.109375 371.5625 1091.9375 372.425781 C 1091.765625 373.292969 1091.550781 374.144531 1091.296875 374.988281 C 1091.042969 375.828125 1090.746094 376.65625 1090.410156 377.472656 C 1090.070312 378.285156 1089.695312 379.082031 1089.28125 379.855469 C 1088.867188 380.632812 1088.414062 381.386719 1087.925781 382.121094 C 1087.4375 382.851562 1086.914062 383.558594 1086.355469 384.238281 C 1085.796875 384.921875 1085.207031 385.570312 1084.582031 386.195312 C 1083.960938 386.816406 1083.308594 387.410156 1082.628906 387.96875 C 1081.949219 388.527344 1081.242188 389.050781 1080.511719 389.539062 C 1079.777344 390.027344 1079.023438 390.480469 1078.25 390.894531 C 1077.472656 391.308594 1076.675781 391.6875 1075.863281 392.023438 C 1075.050781 392.359375 1074.222656 392.65625 1073.378906 392.914062 C 1072.539062 393.167969 1071.6875 393.382812 1070.824219 393.554688 C 1069.960938 393.726562 1069.089844 393.855469 1068.214844 393.941406 C 1067.335938 394.027344 1066.460938 394.070312 1065.578125 394.070312 C 1064.699219 394.070312 1063.820312 394.027344 1062.945312 393.941406 C 1062.070312 393.855469 1061.199219 393.726562 1060.335938 393.554688 C 1059.472656 393.382812 1058.621094 393.167969 1057.777344 392.914062 C 1056.9375 392.65625 1056.109375 392.359375 1055.292969 392.023438 C 1054.480469 391.6875 1053.6875 391.308594 1052.910156 390.894531 C 1052.132812 390.480469 1051.378906 390.027344 1050.648438 389.539062 C 1049.917969 389.050781 1049.210938 388.527344 1048.53125 387.96875 C 1047.851562 387.410156 1047.199219 386.816406 1046.574219 386.195312 C 1045.953125 385.570312 1045.363281 384.921875 1044.804688 384.238281 C 1044.246094 383.558594 1043.722656 382.851562 1043.234375 382.121094 C 1042.746094 381.386719 1042.292969 380.632812 1041.878906 379.855469 C 1041.460938 379.082031 1041.085938 378.285156 1040.75 377.472656 C 1040.414062 376.65625 1040.117188 375.828125 1039.863281 374.988281 C 1039.605469 374.144531 1039.390625 373.292969 1039.222656 372.425781 C 1039.050781 371.5625 1038.921875 370.695312 1038.832031 369.816406 C 1038.746094 368.941406 1038.703125 368.0625 1038.703125 367.183594 C 1038.703125 366.300781 1038.746094 365.421875 1038.832031 364.546875 C 1038.921875 363.667969 1039.050781 362.800781 1039.222656 361.9375 C 1039.390625 361.074219 1039.605469 360.21875 1039.863281 359.375 C 1040.117188 358.535156 1040.414062 357.707031 1040.75 356.890625 C 1041.085938 356.078125 1041.460938 355.28125 1041.878906 354.507812 C 1042.292969 353.730469 1042.746094 352.976562 1043.234375 352.242188 C 1043.722656 351.511719 1044.246094 350.804688 1044.804688 350.125 C 1045.363281 349.441406 1045.953125 348.792969 1046.574219 348.167969 C 1047.199219 347.546875 1047.851562 346.957031 1048.53125 346.398438 C 1049.210938 345.835938 1049.917969 345.3125 1050.648438 344.824219 C 1051.378906 344.335938 1052.132812 343.882812 1052.910156 343.46875 C 1053.6875 343.054688 1054.480469 342.675781 1055.292969 342.339844 C 1056.109375 342.003906 1056.9375 341.707031 1057.777344 341.449219 C 1058.621094 341.195312 1059.472656 340.980469 1060.335938 340.808594 C 1061.199219 340.636719 1062.070312 340.507812 1062.945312 340.421875 C 1063.820312 340.335938 1064.699219 340.292969 1065.578125 340.292969 C 1066.460938 340.292969 1067.335938 340.335938 1068.214844 340.421875 C 1069.089844 340.507812 1069.960938 340.636719 1070.824219 340.808594 C 1071.6875 340.980469 1072.539062 341.195312 1073.378906 341.449219 C 1074.222656 341.707031 1075.050781 342.003906 1075.863281 342.339844 C 1076.675781 342.675781 1077.472656 343.054688 1078.25 343.46875 C 1079.023438 343.882812 1079.777344 344.335938 1080.511719 344.824219 C 1081.242188 345.3125 1081.949219 345.835938 1082.628906 346.398438 C 1083.308594 346.957031 1083.960938 347.546875 1084.582031 348.167969 C 1085.207031 348.792969 1085.796875 349.441406 1086.355469 350.125 C 1086.914062 350.804688 1087.4375 351.511719 1087.925781 352.242188 C 1088.414062 352.976562 1088.867188 353.730469 1089.28125 354.507812 C 1089.695312 355.28125 1090.070312 356.078125 1090.410156 356.890625 C 1090.746094 357.707031 1091.042969 358.535156 1091.296875 359.375 C 1091.550781 360.21875 1091.765625 361.074219 1091.9375 361.9375 C 1092.109375 362.800781 1092.238281 363.667969 1092.324219 364.546875 C 1092.410156 365.421875 1092.453125 366.300781 1092.453125 367.183594 Z M 1092.453125 367.183594 " fill-opacity="1" fill-rule="nonzero"/><path fill="#ffcc4d" d="M 1083.496094 447.847656 C 1083.496094 448.726562 1083.453125 449.605469 1083.367188 450.484375 C 1083.28125 451.359375 1083.152344 452.230469 1082.980469 453.09375 C 1082.808594 453.957031 1082.59375 454.808594 1082.339844 455.652344 C 1082.082031 456.496094 1081.785156 457.324219 1081.449219 458.136719 C 1081.113281 458.949219 1080.738281 459.746094 1080.324219 460.523438 C 1079.90625 461.300781 1079.457031 462.054688 1078.964844 462.785156 C 1078.476562 463.519531 1077.953125 464.226562 1077.394531 464.90625 C 1076.835938 465.585938 1076.246094 466.238281 1075.625 466.859375 C 1075.003906 467.484375 1074.351562 468.074219 1073.671875 468.632812 C 1072.988281 469.191406 1072.285156 469.714844 1071.550781 470.203125 C 1070.820312 470.695312 1070.066406 471.144531 1069.289062 471.5625 C 1068.511719 471.976562 1067.71875 472.351562 1066.90625 472.691406 C 1066.09375 473.027344 1065.265625 473.324219 1064.421875 473.578125 C 1063.582031 473.835938 1062.726562 474.046875 1061.863281 474.21875 C 1061 474.390625 1060.132812 474.519531 1059.253906 474.605469 C 1058.378906 474.691406 1057.5 474.738281 1056.621094 474.738281 C 1055.742188 474.738281 1054.863281 474.691406 1053.988281 474.605469 C 1053.109375 474.519531 1052.242188 474.390625 1051.378906 474.21875 C 1050.515625 474.046875 1049.660156 473.835938 1048.820312 473.578125 C 1047.976562 473.324219 1047.148438 473.027344 1046.335938 472.691406 C 1045.523438 472.351562 1044.726562 471.976562 1043.953125 471.5625 C 1043.175781 471.144531 1042.421875 470.695312 1041.691406 470.203125 C 1040.957031 469.714844 1040.253906 469.191406 1039.570312 468.632812 C 1038.890625 468.074219 1038.238281 467.484375 1037.617188 466.859375 C 1036.996094 466.238281 1036.40625 465.585938 1035.847656 464.90625 C 1035.289062 464.226562 1034.765625 463.519531 1034.273438 462.785156 C 1033.785156 462.054688 1033.335938 461.300781 1032.917969 460.523438 C 1032.503906 459.746094 1032.128906 458.949219 1031.792969 458.136719 C 1031.453125 457.324219 1031.160156 456.496094 1030.902344 455.652344 C 1030.648438 454.808594 1030.433594 453.957031 1030.261719 453.09375 C 1030.089844 452.230469 1029.960938 451.359375 1029.875 450.484375 C 1029.789062 449.605469 1029.746094 448.726562 1029.746094 447.847656 C 1029.746094 446.96875 1029.789062 446.089844 1029.875 445.210938 C 1029.960938 444.335938 1030.089844 443.464844 1030.261719 442.601562 C 1030.433594 441.738281 1030.648438 440.886719 1030.902344 440.042969 C 1031.160156 439.199219 1031.453125 438.371094 1031.792969 437.558594 C 1032.128906 436.746094 1032.503906 435.949219 1032.917969 435.171875 C 1033.335938 434.394531 1033.785156 433.640625 1034.273438 432.910156 C 1034.765625 432.175781 1035.289062 431.46875 1035.847656 430.789062 C 1036.40625 430.109375 1036.996094 429.457031 1037.617188 428.835938 C 1038.238281 428.210938 1038.890625 427.621094 1039.570312 427.0625 C 1040.253906 426.503906 1040.957031 425.980469 1041.691406 425.492188 C 1042.421875 425 1043.175781 424.550781 1043.953125 424.132812 C 1044.726562 423.71875 1045.523438 423.34375 1046.335938 423.003906 C 1047.148438 422.667969 1047.976562 422.371094 1048.820312 422.117188 C 1049.660156 421.859375 1050.515625 421.648438 1051.378906 421.476562 C 1052.242188 421.304688 1053.109375 421.175781 1053.988281 421.089844 C 1054.863281 421.003906 1055.742188 420.960938 1056.621094 420.960938 C 1057.5 420.960938 1058.378906 421.003906 1059.253906 421.089844 C 1060.132812 421.175781 1061 421.304688 1061.863281 421.476562 C 1062.726562 421.648438 1063.582031 421.859375 1064.421875 422.117188 C 1065.265625 422.371094 1066.09375 422.667969 1066.90625 423.003906 C 1067.71875 423.34375 1068.511719 423.71875 1069.289062 424.132812 C 1070.066406 424.550781 1070.820312 425 1071.550781 425.492188 C 1072.285156 425.980469 1072.988281 426.503906 1073.671875 427.0625 C 1074.351562 427.621094 1075.003906 428.210938 1075.625 428.835938 C 1076.246094 429.457031 1076.835938 430.109375 1077.394531 430.789062 C 1077.953125 431.46875 1078.476562 432.175781 1078.964844 432.910156 C 1079.457031 433.640625 1079.90625 434.394531 1080.324219 435.171875 C 1080.738281 435.949219 1081.113281 436.746094 1081.449219 437.558594 C 1081.785156 438.371094 1082.082031 439.199219 1082.339844 440.042969 C 1082.59375 440.886719 1082.808594 441.738281 1082.980469 442.601562 C 1083.152344 443.464844 1083.28125 444.335938 1083.367188 445.210938 C 1083.453125 446.089844 1083.496094 446.96875 1083.496094 447.847656 Z M 1083.496094 447.847656 " fill-opacity="1" fill-rule="nonzero"/><g clip-path="url(#87613ee5ca)"><path fill="#55acee" d="M 1342.917969 254.25 L 1230.332031 254.25 C 1221.457031 254.25 1214.25 261.457031 1214.25 270.332031 L 1214.25 358.792969 C 1214.25 358.792969 1214.25 366.832031 1222.292969 374.875 L 1273.992188 415.082031 L 1299.257812 415.082031 L 1350.957031 374.875 C 1359 366.832031 1359 358.792969 1359 358.792969 L 1359 270.332031 C 1359 261.457031 1351.792969 254.25 1342.917969 254.25 Z M 1342.917969 254.25 " fill-opacity="1" fill-rule="nonzero"/></g><g clip-path="url(#214e19bd59)"><path fill="#e1e8ed" d="M 1238.375 254.25 L 1238.375 387.378906 L 1273.992188 415.082031 L 1299.257812 415.082031 L 1334.875 387.378906 L 1334.875 254.25 Z M 1238.375 254.25 " fill-opacity="1" fill-rule="nonzero"/></g><g clip-path="url(#060553e2ff)"><path fill="#dd2e44" d="M 1254.457031 254.25 L 1254.457031 399.894531 L 1273.992188 415.082031 L 1299.257812 415.082031 L 1318.792969 399.894531 L 1318.792969 254.25 Z M 1254.457031 254.25 " fill-opacity="1" fill-rule="nonzero"/></g><g clip-path="url(#25c123d6fa)"><path fill="#ffac33" d="M 1318.003906 423.285156 C 1318.484375 421.976562 1318.792969 420.574219 1318.792969 419.105469 C 1318.792969 412.445312 1313.386719 407.042969 1306.730469 407.042969 L 1266.519531 407.042969 C 1259.855469 407.042969 1254.457031 412.445312 1254.457031 419.105469 C 1254.457031 420.574219 1254.765625 421.976562 1255.246094 423.285156 C 1235.59375 434.292969 1222.292969 455.292969 1222.292969 479.417969 C 1222.292969 514.945312 1251.089844 543.75 1286.625 543.75 C 1322.152344 543.75 1350.957031 514.945312 1350.957031 479.417969 C 1350.957031 455.292969 1337.65625 434.292969 1318.003906 423.285156 Z M 1318.003906 423.285156 " fill-opacity="1" fill-rule="nonzero"/></g><path fill="#ffd983" d="M 1334.875 479.417969 C 1334.875 480.996094 1334.796875 482.574219 1334.644531 484.144531 C 1334.488281 485.71875 1334.257812 487.28125 1333.949219 488.828125 C 1333.640625 490.378906 1333.257812 491.910156 1332.796875 493.421875 C 1332.339844 494.933594 1331.808594 496.421875 1331.203125 497.882812 C 1330.597656 499.339844 1329.921875 500.769531 1329.175781 502.160156 C 1328.433594 503.554688 1327.621094 504.910156 1326.742188 506.222656 C 1325.867188 507.535156 1324.925781 508.804688 1323.921875 510.027344 C 1322.921875 511.246094 1321.859375 512.417969 1320.742188 513.535156 C 1319.625 514.652344 1318.457031 515.710938 1317.234375 516.714844 C 1316.011719 517.71875 1314.746094 518.65625 1313.429688 519.535156 C 1312.117188 520.414062 1310.761719 521.222656 1309.371094 521.96875 C 1307.976562 522.714844 1306.550781 523.390625 1305.089844 523.992188 C 1303.628906 524.597656 1302.144531 525.128906 1300.632812 525.589844 C 1299.117188 526.046875 1297.589844 526.429688 1296.039062 526.738281 C 1294.488281 527.046875 1292.925781 527.28125 1291.355469 527.433594 C 1289.78125 527.589844 1288.207031 527.667969 1286.625 527.667969 C 1285.042969 527.667969 1283.46875 527.589844 1281.894531 527.433594 C 1280.324219 527.28125 1278.761719 527.046875 1277.210938 526.738281 C 1275.660156 526.429688 1274.132812 526.046875 1272.617188 525.589844 C 1271.105469 525.128906 1269.621094 524.597656 1268.160156 523.992188 C 1266.699219 523.390625 1265.273438 522.714844 1263.878906 521.96875 C 1262.488281 521.222656 1261.132812 520.414062 1259.820312 519.535156 C 1258.503906 518.65625 1257.238281 517.71875 1256.015625 516.714844 C 1254.792969 515.710938 1253.625 514.652344 1252.507812 513.535156 C 1251.390625 512.417969 1250.328125 511.246094 1249.328125 510.027344 C 1248.324219 508.804688 1247.382812 507.535156 1246.507812 506.222656 C 1245.628906 504.910156 1244.816406 503.554688 1244.070312 502.160156 C 1243.328125 500.769531 1242.652344 499.339844 1242.046875 497.882812 C 1241.441406 496.421875 1240.910156 494.933594 1240.453125 493.421875 C 1239.992188 491.910156 1239.609375 490.378906 1239.300781 488.828125 C 1238.992188 487.28125 1238.761719 485.71875 1238.605469 484.144531 C 1238.453125 482.574219 1238.375 480.996094 1238.375 479.417969 C 1238.375 477.835938 1238.453125 476.261719 1238.605469 474.6875 C 1238.761719 473.113281 1238.992188 471.554688 1239.300781 470.003906 C 1239.609375 468.453125 1239.992188 466.921875 1240.453125 465.410156 C 1240.910156 463.898438 1241.441406 462.414062 1242.046875 460.953125 C 1242.652344 459.492188 1243.328125 458.066406 1244.070312 456.671875 C 1244.816406 455.277344 1245.628906 453.925781 1246.507812 452.609375 C 1247.382812 451.296875 1248.324219 450.027344 1249.328125 448.808594 C 1250.328125 447.585938 1251.390625 446.417969 1252.507812 445.296875 C 1253.625 444.179688 1254.792969 443.121094 1256.015625 442.117188 C 1257.238281 441.117188 1258.503906 440.175781 1259.820312 439.296875 C 1261.132812 438.421875 1262.488281 437.609375 1263.878906 436.863281 C 1265.273438 436.117188 1266.699219 435.445312 1268.160156 434.839844 C 1269.621094 434.234375 1271.105469 433.703125 1272.617188 433.246094 C 1274.132812 432.785156 1275.660156 432.402344 1277.210938 432.09375 C 1278.761719 431.785156 1280.324219 431.554688 1281.894531 431.398438 C 1283.46875 431.242188 1285.042969 431.167969 1286.625 431.167969 C 1288.207031 431.167969 1289.78125 431.242188 1291.355469 431.398438 C 1292.925781 431.554688 1294.488281 431.785156 1296.039062 432.09375 C 1297.589844 432.402344 1299.117188 432.785156 1300.632812 433.246094 C 1302.144531 433.703125 1303.628906 434.234375 1305.089844 434.839844 C 1306.550781 435.445312 1307.976562 436.117188 1309.371094 436.863281 C 1310.761719 437.609375 1312.117188 438.421875 1313.429688 439.296875 C 1314.746094 440.175781 1316.011719 441.117188 1317.234375 442.117188 C 1318.457031 443.121094 1319.625 444.179688 1320.742188 445.296875 C 1321.859375 446.417969 1322.921875 447.585938 1323.921875 448.808594 C 1324.925781 450.027344 1325.867188 451.296875 1326.742188 452.609375 C 1327.621094 453.925781 1328.433594 455.277344 1329.175781 456.671875 C 1329.921875 458.066406 1330.597656 459.492188 1331.203125 460.953125 C 1331.808594 462.414062 1332.339844 463.898438 1332.796875 465.410156 C 1333.257812 466.921875 1333.640625 468.453125 1333.949219 470.003906 C 1334.257812 471.554688 1334.488281 473.113281 1334.644531 474.6875 C 1334.796875 476.261719 1334.875 477.835938 1334.875 479.417969 Z M 1334.875 479.417969 " fill-opacity="1" fill-rule="nonzero"/></svg>