<svg xmlns="http://www.w3.org/2000/svg" xmlns:xlink="http://www.w3.org/1999/xlink" width="1920" zoomAndPan="magnify" viewBox="0 0 1440 809.999993" height="1080" preserveAspectRatio="xMidYMid meet" version="1.0"><path fill="#000000" d="M 922.5 537.890625 C 922.5 537.890625 922.5 344.25 922.5 283.5 C 922.5 222.75 861.75 162 801 162 C 760.5 162 760.5 162 760.5 162 L 760.5 81 L 639 202.5 L 760.5 324 L 760.5 243 C 760.5 243 780.75 243 801 243 C 821.25 243 841.5 263.25 841.5 283.5 C 841.5 303.75 841.5 537.890625 841.5 537.890625 C 817.453125 551.8125 801 577.757812 801 607.5 C 801 652.429688 837.070312 688.5 882 688.5 C 926.929688 688.5 963 652.429688 963 607.5 C 963 577.757812 946.546875 551.8125 922.5 537.890625 Z M 882 648 C 859.851562 648 841.5 629.648438 841.5 607.5 C 841.5 585.351562 859.851562 567 882 567 C 904.148438 567 922.5 585.351562 922.5 607.5 C 922.5 629.648438 904.148438 648 882 648 Z M 558 121.5 C 513.070312 121.5 477 157.570312 477 202.5 C 477 232.242188 493.453125 258.1875 517.5 272.109375 L 517.5 537.257812 C 493.453125 551.179688 477 577.125 477 606.867188 C 477 651.796875 513.070312 687.867188 558 687.867188 C 602.929688 687.867188 639 651.796875 639 606.867188 C 639 577.125 622.546875 551.179688 598.5 537.257812 L 598.5 272.109375 C 622.546875 258.1875 639 232.242188 639 202.5 C 639 157.570312 602.929688 121.5 558 121.5 Z M 558 648 C 535.851562 648 517.5 629.648438 517.5 607.5 C 517.5 585.351562 535.851562 567 558 567 C 580.148438 567 598.5 585.351562 598.5 607.5 C 598.5 629.648438 580.148438 648 558 648 Z M 558 243 C 535.851562 243 517.5 224.648438 517.5 202.5 C 517.5 180.351562 535.851562 162 558 162 C 580.148438 162 598.5 180.351562 598.5 202.5 C 598.5 224.648438 580.148438 243 558 243 Z M 558 243 " fill-opacity="1" fill-rule="nonzero"/></svg>