<svg xmlns="http://www.w3.org/2000/svg" xmlns:xlink="http://www.w3.org/1999/xlink" width="1920" zoomAndPan="magnify" viewBox="0 0 1440 809.999993" height="1080" preserveAspectRatio="xMidYMid meet" version="1.0"><path fill="#86061d" d="M 527.625 121.5 C 530.289062 121.496094 532.945312 121.613281 535.597656 121.84375 C 538.25 122.074219 540.890625 122.417969 543.511719 122.882812 C 546.132812 123.34375 548.730469 123.917969 551.304688 124.609375 C 553.875 125.296875 556.414062 126.097656 558.914062 127.011719 C 561.414062 127.921875 563.871094 128.945312 566.285156 130.070312 C 568.699219 131.199219 571.054688 132.429688 573.359375 133.761719 C 575.664062 135.097656 577.90625 136.53125 580.085938 138.0625 C 582.265625 139.589844 584.371094 141.214844 586.410156 142.929688 C 588.445312 144.644531 590.402344 146.445312 592.28125 148.335938 C 594.160156 150.222656 595.953125 152.1875 597.660156 154.230469 C 599.367188 156.277344 600.980469 158.390625 602.5 160.578125 C 604.023438 162.761719 605.445312 165.011719 606.769531 167.320312 C 608.09375 169.632812 609.3125 171.996094 610.429688 174.414062 C 611.546875 176.828125 612.554688 179.292969 613.457031 181.796875 C 614.355469 184.304688 615.144531 186.84375 615.824219 189.417969 C 616.5 191.992188 617.066406 194.59375 617.515625 197.21875 C 617.964844 199.84375 618.300781 202.480469 618.519531 205.136719 C 618.738281 207.789062 618.839844 210.449219 618.828125 213.109375 C 618.8125 215.773438 618.683594 218.429688 618.433594 221.082031 C 618.1875 223.734375 617.824219 226.367188 617.347656 228.988281 C 616.867188 231.609375 616.277344 234.203125 615.570312 236.769531 C 614.867188 239.335938 614.050781 241.867188 613.121094 244.363281 C 612.195312 246.859375 611.160156 249.3125 610.015625 251.71875 C 608.875 254.121094 607.628906 256.472656 606.28125 258.769531 C 604.933594 261.066406 603.484375 263.296875 601.941406 265.46875 C 600.398438 267.636719 598.761719 269.734375 597.035156 271.761719 C 595.304688 273.785156 593.492188 275.734375 591.59375 277.601562 C 589.695312 279.46875 587.71875 281.246094 585.664062 282.941406 C 583.609375 284.636719 581.484375 286.234375 579.289062 287.742188 C 577.09375 289.25 574.835938 290.660156 572.519531 291.96875 C 570.199219 293.277344 567.828125 294.484375 565.402344 295.585938 C 562.980469 296.6875 560.511719 297.679688 558 298.566406 L 558 511.433594 C 559.671875 512.023438 561.328125 512.664062 562.964844 513.351562 C 564.597656 514.039062 566.210938 514.773438 567.804688 515.558594 C 569.398438 516.339844 570.96875 517.167969 572.511719 518.039062 C 574.054688 518.914062 575.574219 519.832031 577.0625 520.792969 C 578.554688 521.757812 580.015625 522.761719 581.449219 523.808594 C 582.878906 524.855469 584.28125 525.945312 585.648438 527.074219 C 587.019531 528.203125 588.351562 529.371094 589.652344 530.578125 C 590.953125 531.785156 592.21875 533.03125 593.445312 534.3125 C 594.671875 535.59375 595.863281 536.910156 597.011719 538.257812 C 598.164062 539.609375 599.273438 540.992188 600.34375 542.410156 C 601.414062 543.824219 602.441406 545.269531 603.429688 546.746094 C 604.414062 548.21875 605.355469 549.722656 606.253906 551.253906 C 607.152344 552.785156 608.003906 554.339844 608.8125 555.917969 C 609.617188 557.5 610.378906 559.101562 611.09375 560.726562 C 611.804688 562.351562 612.472656 563.996094 613.089844 565.65625 C 613.707031 567.320312 614.277344 569 614.796875 570.699219 C 615.316406 572.394531 615.785156 574.105469 616.203125 575.828125 C 616.625 577.554688 616.992188 579.289062 617.3125 581.035156 C 617.628906 582.777344 617.898438 584.53125 618.113281 586.292969 C 618.328125 588.054688 618.492188 589.820312 618.605469 591.589844 C 618.71875 593.363281 618.78125 595.136719 618.789062 596.910156 C 618.796875 598.683594 618.757812 600.457031 618.660156 602.226562 C 618.566406 604 618.421875 605.769531 618.226562 607.53125 C 618.027344 609.292969 617.777344 611.050781 617.480469 612.800781 C 617.179688 614.546875 616.828125 616.285156 616.425781 618.015625 C 616.023438 619.742188 615.574219 621.460938 615.070312 623.160156 C 614.570312 624.863281 614.019531 626.550781 613.417969 628.21875 C 612.820312 629.886719 612.171875 631.539062 611.476562 633.171875 C 610.777344 634.804688 610.035156 636.414062 609.246094 638.003906 C 608.453125 639.589844 607.617188 641.15625 606.738281 642.695312 C 605.855469 644.234375 604.929688 645.746094 603.957031 647.234375 C 602.988281 648.71875 601.976562 650.175781 600.921875 651.601562 C 599.867188 653.027344 598.769531 654.421875 597.632812 655.785156 C 596.496094 657.148438 595.320312 658.476562 594.105469 659.769531 C 592.894531 661.0625 591.640625 662.320312 590.355469 663.542969 C 589.066406 664.761719 587.746094 665.945312 586.390625 667.089844 C 585.03125 668.234375 583.644531 669.335938 582.222656 670.398438 C 580.800781 671.460938 579.351562 672.480469 577.871094 673.460938 C 576.390625 674.4375 574.882812 675.371094 573.347656 676.261719 C 571.8125 677.152344 570.25 677.996094 568.667969 678.792969 C 567.082031 679.59375 565.476562 680.34375 563.847656 681.050781 C 562.21875 681.753906 560.574219 682.414062 558.90625 683.019531 C 557.238281 683.628906 555.554688 684.191406 553.855469 684.699219 C 552.15625 685.210938 550.445312 685.671875 548.71875 686.082031 C 546.992188 686.492188 545.253906 686.851562 543.507812 687.160156 C 541.761719 687.472656 540.007812 687.730469 538.242188 687.933594 C 536.480469 688.140625 534.714844 688.296875 532.945312 688.402344 C 531.171875 688.503906 529.398438 688.554688 527.625 688.554688 C 525.851562 688.554688 524.078125 688.503906 522.304688 688.402344 C 520.535156 688.296875 518.769531 688.140625 517.007812 687.933594 C 515.242188 687.730469 513.488281 687.472656 511.742188 687.160156 C 509.996094 686.851562 508.257812 686.492188 506.53125 686.082031 C 504.804688 685.671875 503.09375 685.210938 501.394531 684.699219 C 499.695312 684.191406 498.011719 683.628906 496.34375 683.019531 C 494.675781 682.414062 493.03125 681.753906 491.402344 681.050781 C 489.773438 680.34375 488.167969 679.59375 486.582031 678.792969 C 485 677.996094 483.4375 677.152344 481.902344 676.261719 C 480.367188 675.371094 478.859375 674.4375 477.378906 673.460938 C 475.898438 672.480469 474.449219 671.460938 473.027344 670.398438 C 471.605469 669.335938 470.21875 668.234375 468.859375 667.089844 C 467.503906 665.945312 466.183594 664.761719 464.894531 663.542969 C 463.609375 662.320312 462.355469 661.0625 461.140625 659.769531 C 459.929688 658.476562 458.753906 657.148438 457.617188 655.785156 C 456.480469 654.421875 455.382812 653.027344 454.328125 651.601562 C 453.273438 650.175781 452.261719 648.71875 451.292969 647.234375 C 450.320312 645.746094 449.394531 644.234375 448.511719 642.695312 C 447.632812 641.15625 446.796875 639.589844 446.003906 638.003906 C 445.214844 636.414062 444.472656 634.804688 443.773438 633.171875 C 443.078125 631.539062 442.429688 629.886719 441.832031 628.21875 C 441.230469 626.550781 440.679688 624.863281 440.175781 623.160156 C 439.675781 621.460938 439.226562 619.742188 438.824219 618.015625 C 438.421875 616.289062 438.070312 614.546875 437.769531 612.800781 C 437.472656 611.050781 437.222656 609.292969 437.023438 607.53125 C 436.828125 605.769531 436.683594 604 436.589844 602.226562 C 436.492188 600.457031 436.453125 598.683594 436.460938 596.910156 C 436.46875 595.132812 436.53125 593.363281 436.644531 591.589844 C 436.757812 589.820312 436.921875 588.054688 437.136719 586.292969 C 437.351562 584.53125 437.621094 582.777344 437.9375 581.035156 C 438.257812 579.289062 438.625 577.554688 439.046875 575.828125 C 439.464844 574.105469 439.933594 572.394531 440.453125 570.699219 C 440.972656 569 441.542969 567.320312 442.160156 565.65625 C 442.777344 563.996094 443.445312 562.351562 444.15625 560.726562 C 444.871094 559.101562 445.632812 557.5 446.4375 555.917969 C 447.246094 554.339844 448.097656 552.785156 448.996094 551.253906 C 449.894531 549.722656 450.835938 548.21875 451.820312 546.746094 C 452.808594 545.269531 453.835938 543.824219 454.90625 542.410156 C 455.976562 540.992188 457.085938 539.609375 458.238281 538.257812 C 459.386719 536.910156 460.578125 535.59375 461.804688 534.3125 C 463.03125 533.03125 464.296875 531.785156 465.597656 530.578125 C 466.898438 529.371094 468.230469 528.203125 469.601562 527.074219 C 470.96875 525.945312 472.371094 524.855469 473.800781 523.808594 C 475.234375 522.761719 476.695312 521.757812 478.1875 520.792969 C 479.675781 519.832031 481.195312 518.914062 482.738281 518.039062 C 484.28125 517.167969 485.851562 516.339844 487.445312 515.558594 C 489.039062 514.773438 490.652344 514.039062 492.285156 513.351562 C 493.921875 512.664062 495.578125 512.023438 497.25 511.433594 L 497.25 298.566406 C 494.746094 297.675781 492.28125 296.675781 489.863281 295.570312 C 487.445312 294.464844 485.082031 293.253906 482.769531 291.941406 C 480.457031 290.628906 478.207031 289.21875 476.015625 287.707031 C 473.828125 286.199219 471.710938 284.597656 469.660156 282.902344 C 467.613281 281.207031 465.640625 279.421875 463.75 277.554688 C 461.855469 275.6875 460.046875 273.742188 458.324219 271.714844 C 456.601562 269.691406 454.972656 267.59375 453.433594 265.421875 C 451.894531 263.253906 450.453125 261.023438 449.109375 258.730469 C 447.765625 256.433594 446.527344 254.085938 445.386719 251.679688 C 444.25 249.277344 443.21875 246.828125 442.296875 244.335938 C 441.371094 241.84375 440.558594 239.3125 439.855469 236.75 C 439.152344 234.183594 438.5625 231.59375 438.089844 228.976562 C 437.613281 226.363281 437.25 223.730469 437.007812 221.082031 C 436.761719 218.433594 436.632812 215.78125 436.617188 213.121094 C 436.605469 210.460938 436.707031 207.808594 436.925781 205.15625 C 437.144531 202.507812 437.480469 199.871094 437.929688 197.25 C 438.378906 194.628906 438.941406 192.035156 439.617188 189.460938 C 440.296875 186.890625 441.082031 184.355469 441.980469 181.851562 C 442.882812 179.347656 443.886719 176.890625 445 174.476562 C 446.117188 172.0625 447.332031 169.699219 448.652344 167.390625 C 449.972656 165.082031 451.390625 162.835938 452.910156 160.652344 C 454.425781 158.46875 456.035156 156.355469 457.738281 154.3125 C 459.441406 152.269531 461.226562 150.304688 463.101562 148.417969 C 464.976562 146.53125 466.929688 144.730469 468.960938 143.015625 C 470.992188 141.300781 473.09375 139.675781 475.269531 138.144531 C 477.441406 136.613281 479.679688 135.179688 481.976562 133.84375 C 484.277344 132.507812 486.628906 131.273438 489.035156 130.144531 C 491.445312 129.011719 493.894531 127.988281 496.390625 127.074219 C 498.886719 126.160156 501.421875 125.355469 503.988281 124.660156 C 506.554688 123.964844 509.144531 123.386719 511.765625 122.917969 C 514.382812 122.449219 517.015625 122.097656 519.664062 121.863281 C 522.3125 121.625 524.964844 121.503906 527.625 121.5 Z M 912.375 344.25 C 913.371094 344.25 914.363281 344.296875 915.351562 344.394531 C 916.34375 344.492188 917.324219 344.640625 918.300781 344.832031 C 919.277344 345.027344 920.242188 345.269531 921.191406 345.558594 C 922.144531 345.847656 923.078125 346.179688 924 346.5625 C 924.917969 346.941406 925.816406 347.367188 926.695312 347.835938 C 927.570312 348.304688 928.421875 348.816406 929.25 349.367188 C 930.078125 349.921875 930.875 350.511719 931.644531 351.144531 C 932.414062 351.777344 933.148438 352.441406 933.851562 353.148438 C 934.558594 353.851562 935.222656 354.585938 935.855469 355.355469 C 936.484375 356.125 937.078125 356.921875 937.628906 357.75 C 938.183594 358.578125 938.695312 359.429688 939.164062 360.304688 C 939.632812 361.183594 940.058594 362.082031 940.4375 363 C 940.820312 363.921875 941.152344 364.855469 941.441406 365.808594 C 941.730469 366.757812 941.972656 367.722656 942.167969 368.699219 C 942.359375 369.675781 942.507812 370.65625 942.605469 371.648438 C 942.703125 372.636719 942.75 373.628906 942.75 374.625 L 942.75 511.433594 C 944.421875 512.023438 946.078125 512.664062 947.714844 513.351562 C 949.347656 514.039062 950.960938 514.773438 952.554688 515.558594 C 954.148438 516.339844 955.71875 517.167969 957.261719 518.039062 C 958.804688 518.914062 960.324219 519.832031 961.8125 520.792969 C 963.304688 521.757812 964.765625 522.761719 966.199219 523.808594 C 967.628906 524.855469 969.03125 525.945312 970.398438 527.074219 C 971.769531 528.203125 973.101562 529.371094 974.402344 530.578125 C 975.703125 531.785156 976.96875 533.03125 978.195312 534.3125 C 979.421875 535.59375 980.613281 536.910156 981.761719 538.257812 C 982.914062 539.609375 984.023438 540.992188 985.09375 542.410156 C 986.164062 543.824219 987.191406 545.269531 988.179688 546.746094 C 989.164062 548.21875 990.105469 549.722656 991.003906 551.253906 C 991.902344 552.785156 992.753906 554.339844 993.5625 555.917969 C 994.367188 557.5 995.128906 559.101562 995.84375 560.726562 C 996.554688 562.351562 997.222656 563.996094 997.839844 565.65625 C 998.457031 567.320312 999.027344 569 999.546875 570.699219 C 1000.066406 572.394531 1000.535156 574.105469 1000.953125 575.828125 C 1001.375 577.554688 1001.742188 579.289062 1002.0625 581.035156 C 1002.378906 582.777344 1002.648438 584.53125 1002.863281 586.292969 C 1003.078125 588.054688 1003.242188 589.820312 1003.355469 591.589844 C 1003.46875 593.363281 1003.53125 595.136719 1003.539062 596.910156 C 1003.546875 598.683594 1003.507812 600.457031 1003.410156 602.226562 C 1003.316406 604 1003.171875 605.769531 1002.976562 607.53125 C 1002.777344 609.292969 1002.527344 611.050781 1002.230469 612.800781 C 1001.929688 614.546875 1001.578125 616.285156 1001.175781 618.015625 C 1000.773438 619.742188 1000.324219 621.460938 999.820312 623.160156 C 999.320312 624.863281 998.769531 626.550781 998.167969 628.21875 C 997.570312 629.886719 996.921875 631.539062 996.226562 633.171875 C 995.527344 634.804688 994.785156 636.414062 993.996094 638.003906 C 993.203125 639.589844 992.367188 641.15625 991.488281 642.695312 C 990.605469 644.234375 989.679688 645.746094 988.707031 647.234375 C 987.738281 648.71875 986.726562 650.175781 985.671875 651.601562 C 984.617188 653.027344 983.519531 654.421875 982.382812 655.785156 C 981.246094 657.148438 980.070312 658.476562 978.855469 659.769531 C 977.644531 661.0625 976.390625 662.320312 975.105469 663.542969 C 973.816406 664.761719 972.496094 665.945312 971.140625 667.089844 C 969.78125 668.234375 968.394531 669.335938 966.972656 670.398438 C 965.550781 671.460938 964.101562 672.480469 962.621094 673.460938 C 961.140625 674.4375 959.632812 675.371094 958.097656 676.261719 C 956.5625 677.152344 955 677.996094 953.417969 678.792969 C 951.832031 679.59375 950.226562 680.34375 948.597656 681.050781 C 946.96875 681.753906 945.324219 682.414062 943.65625 683.019531 C 941.988281 683.628906 940.304688 684.191406 938.605469 684.699219 C 936.90625 685.210938 935.195312 685.671875 933.46875 686.082031 C 931.742188 686.492188 930.003906 686.851562 928.257812 687.160156 C 926.511719 687.472656 924.757812 687.730469 922.992188 687.933594 C 921.230469 688.140625 919.464844 688.296875 917.695312 688.402344 C 915.921875 688.503906 914.148438 688.554688 912.375 688.554688 C 910.601562 688.554688 908.828125 688.503906 907.054688 688.402344 C 905.285156 688.296875 903.519531 688.140625 901.757812 687.933594 C 899.992188 687.730469 898.238281 687.472656 896.492188 687.160156 C 894.746094 686.851562 893.007812 686.492188 891.28125 686.082031 C 889.554688 685.671875 887.84375 685.210938 886.144531 684.699219 C 884.445312 684.191406 882.761719 683.628906 881.09375 683.019531 C 879.425781 682.414062 877.78125 681.753906 876.152344 681.050781 C 874.523438 680.34375 872.917969 679.59375 871.332031 678.792969 C 869.75 677.996094 868.1875 677.152344 866.652344 676.261719 C 865.117188 675.371094 863.609375 674.4375 862.128906 673.460938 C 860.648438 672.480469 859.199219 671.460938 857.777344 670.398438 C 856.355469 669.335938 854.96875 668.234375 853.609375 667.089844 C 852.253906 665.945312 850.933594 664.761719 849.644531 663.542969 C 848.359375 662.320312 847.105469 661.0625 845.890625 659.769531 C 844.679688 658.476562 843.503906 657.148438 842.367188 655.785156 C 841.230469 654.421875 840.132812 653.027344 839.078125 651.601562 C 838.023438 650.175781 837.011719 648.71875 836.042969 647.234375 C 835.070312 645.746094 834.144531 644.234375 833.261719 642.695312 C 832.382812 641.15625 831.546875 639.589844 830.753906 638.003906 C 829.964844 636.414062 829.222656 634.804688 828.523438 633.171875 C 827.828125 631.539062 827.179688 629.886719 826.582031 628.21875 C 825.980469 626.550781 825.429688 624.863281 824.925781 623.160156 C 824.425781 621.460938 823.972656 619.742188 823.574219 618.015625 C 823.171875 616.289062 822.820312 614.546875 822.519531 612.800781 C 822.222656 611.050781 821.972656 609.292969 821.773438 607.53125 C 821.578125 605.769531 821.433594 604 821.339844 602.226562 C 821.242188 600.457031 821.203125 598.683594 821.210938 596.910156 C 821.21875 595.132812 821.28125 593.363281 821.394531 591.589844 C 821.507812 589.820312 821.671875 588.054688 821.886719 586.292969 C 822.101562 584.53125 822.371094 582.777344 822.6875 581.035156 C 823.007812 579.289062 823.375 577.554688 823.796875 575.828125 C 824.214844 574.105469 824.683594 572.394531 825.203125 570.699219 C 825.722656 569 826.292969 567.320312 826.910156 565.65625 C 827.527344 563.996094 828.195312 562.351562 828.90625 560.726562 C 829.621094 559.101562 830.382812 557.5 831.1875 555.917969 C 831.996094 554.339844 832.847656 552.785156 833.746094 551.253906 C 834.644531 549.722656 835.585938 548.21875 836.570312 546.746094 C 837.558594 545.269531 838.585938 543.824219 839.65625 542.410156 C 840.726562 540.992188 841.835938 539.609375 842.988281 538.257812 C 844.136719 536.910156 845.328125 535.59375 846.554688 534.3125 C 847.78125 533.03125 849.046875 531.785156 850.347656 530.578125 C 851.648438 529.371094 852.980469 528.203125 854.351562 527.074219 C 855.71875 525.945312 857.121094 524.855469 858.550781 523.808594 C 859.984375 522.761719 861.445312 521.757812 862.9375 520.792969 C 864.425781 519.832031 865.945312 518.914062 867.488281 518.039062 C 869.03125 517.167969 870.601562 516.339844 872.195312 515.558594 C 873.789062 514.773438 875.402344 514.039062 877.035156 513.351562 C 878.671875 512.664062 880.328125 512.023438 882 511.433594 L 882 374.625 C 882 373.628906 882.046875 372.636719 882.144531 371.648438 C 882.242188 370.65625 882.390625 369.675781 882.582031 368.699219 C 882.777344 367.722656 883.019531 366.757812 883.308594 365.808594 C 883.597656 364.855469 883.929688 363.921875 884.3125 363 C 884.691406 362.082031 885.117188 361.183594 885.585938 360.304688 C 886.054688 359.429688 886.566406 358.578125 887.117188 357.75 C 887.671875 356.921875 888.265625 356.125 888.894531 355.355469 C 889.527344 354.585938 890.191406 353.851562 890.898438 353.148438 C 891.601562 352.441406 892.335938 351.777344 893.105469 351.144531 C 893.875 350.515625 894.671875 349.921875 895.5 349.367188 C 896.328125 348.816406 897.179688 348.304688 898.054688 347.835938 C 898.933594 347.367188 899.832031 346.941406 900.75 346.5625 C 901.671875 346.179688 902.605469 345.847656 903.558594 345.558594 C 904.507812 345.269531 905.472656 345.027344 906.449219 344.832031 C 907.425781 344.640625 908.40625 344.492188 909.398438 344.394531 C 910.386719 344.296875 911.378906 344.25 912.375 344.25 Z M 830.160156 130.695312 C 830.863281 129.992188 831.597656 129.324219 832.367188 128.695312 C 833.136719 128.0625 833.933594 127.472656 834.761719 126.921875 C 835.589844 126.371094 836.441406 125.859375 837.316406 125.390625 C 838.195312 124.921875 839.089844 124.5 840.007812 124.117188 C 840.929688 123.738281 841.863281 123.40625 842.8125 123.117188 C 843.765625 122.828125 844.730469 122.585938 845.703125 122.394531 C 846.679688 122.199219 847.660156 122.054688 848.648438 121.957031 C 849.640625 121.859375 850.632812 121.808594 851.625 121.808594 C 852.617188 121.808594 853.609375 121.859375 854.601562 121.957031 C 855.589844 122.054688 856.570312 122.199219 857.546875 122.394531 C 858.519531 122.585938 859.484375 122.828125 860.4375 123.117188 C 861.386719 123.40625 862.320312 123.738281 863.242188 124.117188 C 864.160156 124.5 865.054688 124.921875 865.933594 125.390625 C 866.808594 125.859375 867.660156 126.371094 868.488281 126.921875 C 869.316406 127.472656 870.113281 128.0625 870.882812 128.695312 C 871.652344 129.324219 872.386719 129.992188 873.089844 130.695312 L 912.375 169.980469 L 951.660156 130.695312 C 952.589844 129.722656 953.582031 128.816406 954.628906 127.976562 C 955.679688 127.136719 956.78125 126.371094 957.9375 125.679688 C 959.089844 124.984375 960.28125 124.371094 961.515625 123.839844 C 962.75 123.304688 964.015625 122.855469 965.308594 122.488281 C 966.601562 122.125 967.914062 121.847656 969.246094 121.65625 C 970.578125 121.464844 971.917969 121.363281 973.261719 121.351562 C 974.605469 121.335938 975.945312 121.414062 977.28125 121.582031 C 978.613281 121.746094 979.933594 122 981.234375 122.339844 C 982.535156 122.683594 983.804688 123.109375 985.050781 123.621094 C 986.292969 124.128906 987.5 124.722656 988.664062 125.394531 C 989.828125 126.0625 990.945312 126.808594 992.011719 127.628906 C 993.078125 128.449219 994.082031 129.335938 995.03125 130.289062 C 995.980469 131.246094 996.859375 132.257812 997.671875 133.328125 C 998.484375 134.398438 999.226562 135.519531 999.886719 136.6875 C 1000.550781 137.859375 1001.136719 139.066406 1001.636719 140.3125 C 1002.140625 141.5625 1002.558594 142.835938 1002.890625 144.140625 C 1003.230469 145.4375 1003.480469 146.753906 1003.648438 148.082031 C 1003.8125 149.414062 1003.886719 150.75 1003.875 152.09375 C 1003.859375 153.433594 1003.761719 154.769531 1003.570312 156.097656 C 1003.378906 157.425781 1003.105469 158.734375 1002.742188 160.027344 C 1002.378906 161.316406 1001.929688 162.578125 1001.402344 163.8125 C 1000.871094 165.042969 1000.261719 166.234375 999.574219 167.386719 C 998.886719 168.539062 998.125 169.640625 997.289062 170.691406 C 996.457031 171.742188 995.554688 172.734375 994.589844 173.664062 L 955.304688 212.949219 L 994.589844 252.234375 C 995.253906 252.945312 995.878906 253.6875 996.472656 254.460938 C 997.0625 255.230469 997.617188 256.03125 998.128906 256.855469 C 998.644531 257.679688 999.121094 258.527344 999.554688 259.398438 C 999.984375 260.269531 1000.378906 261.160156 1000.726562 262.066406 C 1001.074219 262.976562 1001.378906 263.898438 1001.636719 264.835938 C 1001.898438 265.773438 1002.109375 266.71875 1002.28125 267.675781 C 1002.449219 268.636719 1002.570312 269.597656 1002.648438 270.570312 C 1002.722656 271.539062 1002.753906 272.507812 1002.738281 273.480469 C 1002.71875 274.453125 1002.65625 275.421875 1002.546875 276.390625 C 1002.4375 277.355469 1002.28125 278.316406 1002.078125 279.265625 C 1001.878906 280.21875 1001.632812 281.15625 1001.339844 282.085938 C 1001.046875 283.011719 1000.710938 283.925781 1000.332031 284.820312 C 999.953125 285.714844 999.53125 286.589844 999.066406 287.445312 C 998.605469 288.300781 998.101562 289.132812 997.558594 289.9375 C 997.015625 290.746094 996.433594 291.523438 995.816406 292.273438 C 995.199219 293.027344 994.546875 293.746094 993.859375 294.433594 C 993.171875 295.121094 992.453125 295.773438 991.703125 296.390625 C 990.949219 297.007812 990.171875 297.589844 989.363281 298.132812 C 988.558594 298.675781 987.726562 299.179688 986.871094 299.640625 C 986.015625 300.105469 985.140625 300.527344 984.246094 300.90625 C 983.351562 301.285156 982.4375 301.621094 981.511719 301.914062 C 980.582031 302.203125 979.644531 302.453125 978.691406 302.652344 C 977.742188 302.855469 976.78125 303.011719 975.816406 303.121094 C 974.847656 303.230469 973.878906 303.292969 972.90625 303.3125 C 971.933594 303.328125 970.964844 303.296875 969.996094 303.222656 C 969.023438 303.144531 968.0625 303.023438 967.105469 302.855469 C 966.144531 302.683594 965.199219 302.472656 964.261719 302.210938 C 963.324219 301.953125 962.402344 301.648438 961.492188 301.300781 C 960.585938 300.949219 959.695312 300.558594 958.824219 300.125 C 957.953125 299.691406 957.105469 299.21875 956.28125 298.703125 C 955.457031 298.191406 954.65625 297.636719 953.886719 297.046875 C 953.113281 296.453125 952.371094 295.828125 951.660156 295.164062 L 912.375 255.878906 L 873.089844 295.164062 C 872.167969 296.160156 871.179688 297.089844 870.132812 297.949219 C 869.082031 298.8125 867.980469 299.601562 866.824219 300.316406 C 865.671875 301.03125 864.472656 301.664062 863.234375 302.21875 C 861.996094 302.773438 860.722656 303.242188 859.421875 303.625 C 858.117188 304.007812 856.796875 304.300781 855.453125 304.507812 C 854.109375 304.714844 852.761719 304.828125 851.402344 304.851562 C 850.046875 304.875 848.691406 304.808594 847.34375 304.652344 C 845.996094 304.496094 844.664062 304.25 843.347656 303.910156 C 842.03125 303.574219 840.742188 303.152344 839.484375 302.644531 C 838.226562 302.132812 837.007812 301.542969 835.828125 300.871094 C 834.648438 300.199219 833.519531 299.449219 832.441406 298.625 C 831.359375 297.800781 830.34375 296.90625 829.382812 295.945312 C 828.425781 294.984375 827.535156 293.960938 826.710938 292.882812 C 825.890625 291.800781 825.144531 290.667969 824.476562 289.488281 C 823.804688 288.308594 823.21875 287.085938 822.710938 285.824219 C 822.203125 284.566406 821.785156 283.277344 821.453125 281.960938 C 821.117188 280.648438 820.867188 279.316406 820.710938 277.96875 C 820.550781 276.621094 820.484375 275.269531 820.507812 273.914062 C 820.53125 272.558594 820.644531 271.207031 820.847656 269.867188 C 821.050781 268.527344 821.34375 267.203125 821.726562 265.902344 C 822.105469 264.601562 822.574219 263.328125 823.125 262.089844 C 823.675781 260.851562 824.308594 259.65625 825.023438 258.5 C 825.734375 257.34375 826.519531 256.242188 827.378906 255.195312 C 828.242188 254.144531 829.167969 253.160156 830.160156 252.234375 L 869.445312 212.949219 L 830.160156 173.664062 C 829.457031 172.960938 828.792969 172.226562 828.160156 171.457031 C 827.53125 170.6875 826.941406 169.890625 826.386719 169.0625 C 825.835938 168.234375 825.324219 167.382812 824.859375 166.507812 C 824.390625 165.628906 823.964844 164.734375 823.585938 163.8125 C 823.207031 162.894531 822.871094 161.960938 822.582031 161.007812 C 822.292969 160.058594 822.054688 159.09375 821.859375 158.121094 C 821.664062 157.144531 821.519531 156.164062 821.421875 155.175781 C 821.324219 154.183594 821.277344 153.191406 821.277344 152.199219 C 821.277344 151.203125 821.324219 150.214844 821.421875 149.222656 C 821.519531 148.234375 821.664062 147.253906 821.859375 146.277344 C 822.054688 145.304688 822.292969 144.339844 822.582031 143.386719 C 822.871094 142.4375 823.207031 141.503906 823.585938 140.582031 C 823.964844 139.664062 824.390625 138.769531 824.859375 137.890625 C 825.324219 137.015625 825.835938 136.164062 826.386719 135.335938 C 826.941406 134.507812 827.53125 133.710938 828.160156 132.941406 C 828.792969 132.171875 829.457031 131.4375 830.160156 130.734375 Z M 497.25 212.625 C 497.25 213.621094 497.296875 214.613281 497.394531 215.601562 C 497.492188 216.59375 497.640625 217.574219 497.832031 218.550781 C 498.027344 219.527344 498.269531 220.492188 498.558594 221.441406 C 498.847656 222.394531 499.179688 223.328125 499.5625 224.25 C 499.941406 225.167969 500.367188 226.066406 500.835938 226.945312 C 501.304688 227.820312 501.816406 228.671875 502.367188 229.5 C 502.921875 230.328125 503.515625 231.125 504.144531 231.894531 C 504.777344 232.664062 505.441406 233.398438 506.148438 234.101562 C 506.851562 234.808594 507.585938 235.472656 508.355469 236.105469 C 509.125 236.734375 509.921875 237.328125 510.75 237.882812 C 511.578125 238.433594 512.429688 238.945312 513.304688 239.414062 C 514.183594 239.882812 515.082031 240.308594 516 240.6875 C 516.921875 241.070312 517.855469 241.402344 518.808594 241.691406 C 519.757812 241.980469 520.722656 242.222656 521.699219 242.417969 C 522.675781 242.609375 523.65625 242.757812 524.648438 242.855469 C 525.636719 242.953125 526.628906 243 527.625 243 C 528.621094 243 529.613281 242.953125 530.601562 242.855469 C 531.59375 242.757812 532.574219 242.609375 533.550781 242.417969 C 534.527344 242.222656 535.492188 241.980469 536.441406 241.691406 C 537.394531 241.402344 538.328125 241.070312 539.25 240.6875 C 540.167969 240.308594 541.066406 239.882812 541.945312 239.414062 C 542.820312 238.945312 543.671875 238.433594 544.5 237.882812 C 545.328125 237.328125 546.125 236.734375 546.894531 236.105469 C 547.664062 235.472656 548.398438 234.808594 549.101562 234.101562 C 549.808594 233.398438 550.472656 232.664062 551.105469 231.894531 C 551.734375 231.125 552.328125 230.328125 552.878906 229.5 C 553.433594 228.671875 553.945312 227.820312 554.414062 226.945312 C 554.882812 226.066406 555.308594 225.167969 555.6875 224.25 C 556.070312 223.328125 556.402344 222.394531 556.691406 221.441406 C 556.980469 220.492188 557.222656 219.527344 557.417969 218.550781 C 557.609375 217.574219 557.757812 216.59375 557.855469 215.601562 C 557.953125 214.613281 558 213.621094 558 212.625 C 558 211.628906 557.953125 210.636719 557.855469 209.648438 C 557.757812 208.65625 557.609375 207.675781 557.417969 206.699219 C 557.222656 205.722656 556.980469 204.757812 556.691406 203.808594 C 556.402344 202.855469 556.070312 201.921875 555.6875 201 C 555.308594 200.082031 554.882812 199.183594 554.414062 198.304688 C 553.945312 197.429688 553.433594 196.578125 552.878906 195.75 C 552.328125 194.921875 551.734375 194.125 551.105469 193.355469 C 550.472656 192.585938 549.808594 191.851562 549.101562 191.148438 C 548.398438 190.441406 547.664062 189.777344 546.894531 189.144531 C 546.125 188.515625 545.328125 187.921875 544.5 187.367188 C 543.671875 186.816406 542.820312 186.304688 541.945312 185.835938 C 541.066406 185.367188 540.167969 184.941406 539.25 184.5625 C 538.328125 184.179688 537.394531 183.847656 536.441406 183.558594 C 535.492188 183.269531 534.527344 183.027344 533.550781 182.832031 C 532.574219 182.640625 531.59375 182.492188 530.601562 182.394531 C 529.613281 182.296875 528.621094 182.25 527.625 182.25 C 526.628906 182.25 525.636719 182.296875 524.648438 182.394531 C 523.65625 182.492188 522.675781 182.640625 521.699219 182.832031 C 520.722656 183.027344 519.757812 183.269531 518.808594 183.558594 C 517.855469 183.847656 516.921875 184.179688 516 184.5625 C 515.082031 184.941406 514.183594 185.367188 513.304688 185.835938 C 512.429688 186.304688 511.578125 186.816406 510.75 187.367188 C 509.921875 187.921875 509.125 188.515625 508.355469 189.144531 C 507.585938 189.777344 506.851562 190.441406 506.148438 191.148438 C 505.441406 191.851562 504.777344 192.585938 504.144531 193.355469 C 503.515625 194.125 502.921875 194.921875 502.367188 195.75 C 501.816406 196.578125 501.304688 197.429688 500.835938 198.304688 C 500.367188 199.183594 499.941406 200.082031 499.5625 201 C 499.179688 201.921875 498.847656 202.855469 498.558594 203.808594 C 498.269531 204.757812 498.027344 205.722656 497.832031 206.699219 C 497.640625 207.675781 497.492188 208.65625 497.394531 209.648438 C 497.296875 210.636719 497.25 211.628906 497.25 212.625 Z M 527.625 567 C 526.628906 567 525.636719 567.046875 524.648438 567.144531 C 523.65625 567.242188 522.675781 567.390625 521.699219 567.582031 C 520.722656 567.777344 519.757812 568.019531 518.808594 568.308594 C 517.855469 568.597656 516.921875 568.929688 516 569.3125 C 515.082031 569.691406 514.183594 570.117188 513.304688 570.585938 C 512.429688 571.054688 511.578125 571.566406 510.75 572.117188 C 509.921875 572.671875 509.125 573.265625 508.355469 573.894531 C 507.585938 574.527344 506.851562 575.191406 506.148438 575.898438 C 505.441406 576.601562 504.777344 577.335938 504.144531 578.105469 C 503.515625 578.875 502.921875 579.671875 502.367188 580.5 C 501.816406 581.328125 501.304688 582.179688 500.835938 583.054688 C 500.367188 583.933594 499.941406 584.832031 499.5625 585.75 C 499.179688 586.671875 498.847656 587.605469 498.558594 588.558594 C 498.269531 589.507812 498.027344 590.472656 497.832031 591.449219 C 497.640625 592.425781 497.492188 593.40625 497.394531 594.398438 C 497.296875 595.386719 497.25 596.378906 497.25 597.375 C 497.25 598.371094 497.296875 599.363281 497.394531 600.351562 C 497.492188 601.34375 497.640625 602.324219 497.832031 603.300781 C 498.027344 604.277344 498.269531 605.242188 498.558594 606.191406 C 498.847656 607.144531 499.179688 608.078125 499.5625 609 C 499.941406 609.917969 500.367188 610.816406 500.835938 611.695312 C 501.304688 612.570312 501.816406 613.421875 502.367188 614.25 C 502.921875 615.078125 503.515625 615.875 504.144531 616.644531 C 504.777344 617.414062 505.441406 618.148438 506.148438 618.851562 C 506.851562 619.558594 507.585938 620.222656 508.355469 620.855469 C 509.125 621.484375 509.921875 622.078125 510.75 622.628906 C 511.578125 623.183594 512.429688 623.695312 513.304688 624.164062 C 514.183594 624.632812 515.082031 625.058594 516 625.4375 C 516.921875 625.820312 517.855469 626.152344 518.808594 626.441406 C 519.757812 626.730469 520.722656 626.972656 521.699219 627.167969 C 522.675781 627.359375 523.65625 627.507812 524.648438 627.605469 C 525.636719 627.703125 526.628906 627.75 527.625 627.75 C 528.621094 627.75 529.613281 627.703125 530.601562 627.605469 C 531.59375 627.507812 532.574219 627.359375 533.550781 627.167969 C 534.527344 626.972656 535.492188 626.730469 536.441406 626.441406 C 537.394531 626.152344 538.328125 625.820312 539.25 625.4375 C 540.167969 625.058594 541.066406 624.632812 541.945312 624.164062 C 542.820312 623.695312 543.671875 623.183594 544.5 622.628906 C 545.328125 622.078125 546.125 621.484375 546.894531 620.855469 C 547.664062 620.222656 548.398438 619.558594 549.101562 618.851562 C 549.808594 618.148438 550.472656 617.414062 551.105469 616.644531 C 551.734375 615.875 552.328125 615.078125 552.878906 614.25 C 553.433594 613.421875 553.945312 612.570312 554.414062 611.695312 C 554.882812 610.816406 555.308594 609.917969 555.6875 609 C 556.070312 608.078125 556.402344 607.144531 556.691406 606.191406 C 556.980469 605.242188 557.222656 604.277344 557.417969 603.300781 C 557.609375 602.324219 557.757812 601.34375 557.855469 600.351562 C 557.953125 599.363281 558 598.371094 558 597.375 C 558 596.378906 557.953125 595.386719 557.855469 594.398438 C 557.757812 593.40625 557.609375 592.425781 557.417969 591.449219 C 557.222656 590.472656 556.980469 589.507812 556.691406 588.558594 C 556.402344 587.605469 556.070312 586.671875 555.6875 585.75 C 555.308594 584.832031 554.882812 583.933594 554.414062 583.054688 C 553.945312 582.179688 553.433594 581.328125 552.878906 580.5 C 552.328125 579.671875 551.734375 578.875 551.105469 578.105469 C 550.472656 577.335938 549.808594 576.601562 549.101562 575.898438 C 548.398438 575.191406 547.664062 574.527344 546.894531 573.894531 C 546.125 573.265625 545.328125 572.671875 544.5 572.117188 C 543.671875 571.566406 542.820312 571.054688 541.945312 570.585938 C 541.066406 570.117188 540.167969 569.691406 539.25 569.3125 C 538.328125 568.929688 537.394531 568.597656 536.441406 568.308594 C 535.492188 568.019531 534.527344 567.777344 533.550781 567.582031 C 532.574219 567.390625 531.59375 567.242188 530.601562 567.144531 C 529.613281 567.046875 528.621094 567 527.625 567 Z M 912.375 567 C 911.378906 567 910.386719 567.046875 909.398438 567.144531 C 908.40625 567.242188 907.425781 567.390625 906.449219 567.582031 C 905.472656 567.777344 904.507812 568.019531 903.558594 568.308594 C 902.605469 568.597656 901.671875 568.929688 900.75 569.3125 C 899.832031 569.691406 898.933594 570.117188 898.054688 570.585938 C 897.179688 571.054688 896.328125 571.566406 895.5 572.117188 C 894.671875 572.671875 893.875 573.265625 893.105469 573.894531 C 892.335938 574.527344 891.601562 575.191406 890.898438 575.898438 C 890.191406 576.601562 889.527344 577.335938 888.894531 578.105469 C 888.261719 578.875 887.671875 579.671875 887.117188 580.5 C 886.566406 581.328125 886.054688 582.179688 885.585938 583.054688 C 885.117188 583.933594 884.691406 584.832031 884.3125 585.75 C 883.929688 586.671875 883.597656 587.605469 883.308594 588.558594 C 883.019531 589.507812 882.777344 590.472656 882.582031 591.449219 C 882.390625 592.425781 882.242188 593.40625 882.144531 594.398438 C 882.046875 595.386719 882 596.378906 882 597.375 C 882 598.371094 882.046875 599.363281 882.144531 600.351562 C 882.242188 601.34375 882.390625 602.324219 882.582031 603.300781 C 882.777344 604.277344 883.019531 605.242188 883.308594 606.191406 C 883.597656 607.144531 883.929688 608.078125 884.3125 609 C 884.691406 609.917969 885.117188 610.816406 885.585938 611.695312 C 886.054688 612.570312 886.566406 613.421875 887.117188 614.25 C 887.671875 615.078125 888.261719 615.875 888.894531 616.644531 C 889.527344 617.414062 890.191406 618.148438 890.898438 618.851562 C 891.601562 619.558594 892.335938 620.222656 893.105469 620.855469 C 893.875 621.484375 894.671875 622.078125 895.5 622.628906 C 896.328125 623.183594 897.179688 623.695312 898.054688 624.164062 C 898.933594 624.632812 899.832031 625.058594 900.75 625.4375 C 901.671875 625.820312 902.605469 626.152344 903.558594 626.441406 C 904.507812 626.730469 905.472656 626.972656 906.449219 627.167969 C 907.425781 627.359375 908.40625 627.507812 909.398438 627.605469 C 910.386719 627.703125 911.378906 627.75 912.375 627.75 C 913.371094 627.75 914.363281 627.703125 915.351562 627.605469 C 916.34375 627.507812 917.324219 627.359375 918.300781 627.167969 C 919.277344 626.972656 920.242188 626.730469 921.191406 626.441406 C 922.144531 626.152344 923.078125 625.820312 924 625.4375 C 924.917969 625.058594 925.816406 624.632812 926.695312 624.164062 C 927.570312 623.695312 928.421875 623.183594 929.25 622.628906 C 930.078125 622.078125 930.875 621.484375 931.644531 620.855469 C 932.414062 620.222656 933.148438 619.558594 933.851562 618.851562 C 934.558594 618.148438 935.222656 617.414062 935.855469 616.644531 C 936.484375 615.875 937.078125 615.078125 937.628906 614.25 C 938.183594 613.421875 938.695312 612.570312 939.164062 611.695312 C 939.632812 610.816406 940.058594 609.917969 940.4375 609 C 940.820312 608.078125 941.152344 607.144531 941.441406 606.191406 C 941.730469 605.242188 941.972656 604.277344 942.167969 603.300781 C 942.359375 602.324219 942.507812 601.34375 942.605469 600.351562 C 942.703125 599.363281 942.75 598.371094 942.75 597.375 C 942.75 596.378906 942.703125 595.386719 942.605469 594.398438 C 942.507812 593.40625 942.359375 592.425781 942.167969 591.449219 C 941.972656 590.472656 941.730469 589.507812 941.441406 588.558594 C 941.152344 587.605469 940.820312 586.671875 940.4375 585.75 C 940.058594 584.832031 939.632812 583.933594 939.164062 583.054688 C 938.695312 582.179688 938.183594 581.328125 937.628906 580.5 C 937.078125 579.671875 936.484375 578.875 935.855469 578.105469 C 935.222656 577.335938 934.558594 576.601562 933.851562 575.898438 C 933.148438 575.191406 932.414062 574.527344 931.644531 573.894531 C 930.875 573.265625 930.078125 572.671875 929.25 572.117188 C 928.421875 571.566406 927.570312 571.054688 926.695312 570.585938 C 925.816406 570.117188 924.917969 569.691406 924 569.3125 C 923.078125 568.929688 922.144531 568.597656 921.191406 568.308594 C 920.242188 568.019531 919.277344 567.777344 918.300781 567.582031 C 917.324219 567.390625 916.34375 567.242188 915.351562 567.144531 C 914.363281 567.046875 913.371094 567 912.375 567 Z M 912.375 567 " fill-opacity="1" fill-rule="nonzero"/></svg>