<svg xmlns="http://www.w3.org/2000/svg" xmlns:xlink="http://www.w3.org/1999/xlink" width="1920" zoomAndPan="magnify" viewBox="0 0 1440 809.999993" height="1080" preserveAspectRatio="xMidYMid meet" version="1.0"><defs><clipPath id="81a0c1fcb3"><path d="M 513.816406 81 L 926.316406 81 L 926.316406 572 L 513.816406 572 Z M 513.816406 81 " clip-rule="nonzero"/></clipPath></defs><g clip-path="url(#81a0c1fcb3)"><path fill="#be1931" d="M 690.605469 571.90625 C 658.054688 571.90625 631.675781 545.535156 631.675781 513 L 631.675781 434.453125 C 631.675781 401.917969 658.054688 375.546875 690.605469 375.546875 C 702.449219 375.429688 808.460938 355.910156 808.460938 277.363281 C 808.460938 238.09375 769.175781 198.820312 710.246094 198.820312 C 662.296875 198.820312 631.675781 238.09375 631.675781 257.730469 C 631.675781 290.265625 605.292969 316.636719 572.746094 316.636719 C 540.199219 316.636719 513.816406 290.265625 513.816406 257.730469 C 513.816406 161.945312 603.78125 81.003906 710.246094 81.003906 C 867.390625 81.003906 926.316406 198.46875 926.316406 297 C 926.316406 378.394531 881.589844 440.601562 800.347656 472.15625 C 782.667969 479.046875 765.1875 483.683594 749.53125 486.824219 L 749.53125 513 C 749.53125 545.535156 723.152344 571.90625 690.605469 571.90625 Z M 690.605469 571.90625 " fill-opacity="1" fill-rule="nonzero"/></g><path fill="#be1931" d="M 749.53125 670.089844 C 749.53125 672.015625 749.4375 673.941406 749.25 675.863281 C 749.058594 677.78125 748.777344 679.6875 748.398438 681.582031 C 748.023438 683.472656 747.554688 685.34375 746.996094 687.1875 C 746.433594 689.035156 745.785156 690.847656 745.046875 692.632812 C 744.308594 694.414062 743.484375 696.15625 742.574219 697.859375 C 741.664062 699.558594 740.671875 701.210938 739.601562 702.816406 C 738.527344 704.421875 737.378906 705.96875 736.15625 707.460938 C 734.933594 708.949219 733.636719 710.378906 732.273438 711.742188 C 730.90625 713.105469 729.480469 714.402344 727.988281 715.625 C 726.496094 716.847656 724.949219 717.996094 723.34375 719.070312 C 721.738281 720.140625 720.085938 721.132812 718.382812 722.039062 C 716.679688 722.949219 714.9375 723.773438 713.15625 724.511719 C 711.371094 725.25 709.558594 725.898438 707.710938 726.460938 C 705.863281 727.019531 703.992188 727.488281 702.101562 727.863281 C 700.207031 728.242188 698.300781 728.523438 696.378906 728.714844 C 694.460938 728.902344 692.535156 728.996094 690.605469 728.996094 C 688.675781 728.996094 686.75 728.902344 684.828125 728.714844 C 682.90625 728.523438 681 728.242188 679.105469 727.863281 C 677.214844 727.488281 675.34375 727.019531 673.496094 726.460938 C 671.652344 725.898438 669.835938 725.25 668.054688 724.511719 C 666.269531 723.773438 664.527344 722.949219 662.824219 722.039062 C 661.121094 721.132812 659.46875 720.140625 657.863281 719.070312 C 656.261719 717.996094 654.710938 716.847656 653.21875 715.625 C 651.726562 714.402344 650.300781 713.105469 648.933594 711.742188 C 647.570312 710.378906 646.277344 708.949219 645.050781 707.460938 C 643.828125 705.96875 642.679688 704.421875 641.605469 702.816406 C 640.535156 701.210938 639.542969 699.558594 638.632812 697.859375 C 637.722656 696.15625 636.898438 694.414062 636.160156 692.632812 C 635.421875 690.847656 634.773438 689.035156 634.210938 687.1875 C 633.652344 685.34375 633.183594 683.472656 632.808594 681.582031 C 632.429688 679.6875 632.148438 677.78125 631.960938 675.863281 C 631.769531 673.941406 631.675781 672.015625 631.675781 670.089844 C 631.675781 668.160156 631.769531 666.234375 631.960938 664.3125 C 632.148438 662.394531 632.429688 660.488281 632.808594 658.59375 C 633.183594 656.703125 633.652344 654.835938 634.210938 652.988281 C 634.773438 651.140625 635.421875 649.328125 636.160156 647.542969 C 636.898438 645.761719 637.722656 644.019531 638.632812 642.320312 C 639.542969 640.617188 640.535156 638.964844 641.605469 637.359375 C 642.679688 635.757812 643.828125 634.207031 645.050781 632.71875 C 646.277344 631.226562 647.570312 629.796875 648.933594 628.433594 C 650.300781 627.070312 651.726562 625.773438 653.21875 624.550781 C 654.710938 623.328125 656.261719 622.179688 657.863281 621.109375 C 659.46875 620.035156 661.121094 619.046875 662.824219 618.136719 C 664.527344 617.226562 666.269531 616.402344 668.054688 615.664062 C 669.835938 614.925781 671.652344 614.277344 673.496094 613.714844 C 675.34375 613.15625 677.214844 612.6875 679.109375 612.3125 C 681 611.933594 682.90625 611.652344 684.828125 611.464844 C 686.75 611.273438 688.675781 611.179688 690.605469 611.179688 C 692.535156 611.179688 694.460938 611.273438 696.378906 611.464844 C 698.300781 611.652344 700.207031 611.933594 702.101562 612.3125 C 703.992188 612.6875 705.863281 613.15625 707.710938 613.714844 C 709.558594 614.277344 711.371094 614.925781 713.15625 615.664062 C 714.9375 616.402344 716.679688 617.226562 718.382812 618.136719 C 720.085938 619.046875 721.738281 620.035156 723.34375 621.109375 C 724.949219 622.179688 726.496094 623.328125 727.988281 624.550781 C 729.480469 625.773438 730.90625 627.070312 732.273438 628.433594 C 733.636719 629.796875 734.933594 631.226562 736.15625 632.71875 C 737.378906 634.207031 738.527344 635.757812 739.601562 637.359375 C 740.671875 638.964844 741.664062 640.617188 742.574219 642.320312 C 743.484375 644.019531 744.308594 645.761719 745.046875 647.542969 C 745.785156 649.328125 746.433594 651.140625 746.996094 652.988281 C 747.554688 654.835938 748.023438 656.703125 748.398438 658.59375 C 748.777344 660.488281 749.058594 662.394531 749.25 664.3125 C 749.4375 666.234375 749.53125 668.160156 749.53125 670.089844 Z M 749.53125 670.089844 " fill-opacity="1" fill-rule="nonzero"/></svg>