<svg xmlns="http://www.w3.org/2000/svg" xmlns:xlink="http://www.w3.org/1999/xlink" width="1920" zoomAndPan="magnify" viewBox="0 0 1440 809.999993" height="1080" preserveAspectRatio="xMidYMid meet" version="1.0"><defs><clipPath id="dd53c147ac"><path d="M 373.011719 104 L 1066.761719 104 L 1066.761719 706 L 373.011719 706 Z M 373.011719 104 " clip-rule="nonzero"/></clipPath></defs><path fill="#53c1de" d="M 781.835938 404.441406 C 781.835938 371.261719 754.101562 344.359375 719.886719 344.359375 C 685.675781 344.359375 657.9375 371.261719 657.9375 404.441406 C 657.9375 437.628906 685.675781 464.527344 719.886719 464.527344 C 754.101562 464.527344 781.835938 437.628906 781.835938 404.441406 Z M 781.835938 404.441406 " fill-opacity="1" fill-rule="nonzero"/><g clip-path="url(#dd53c147ac)"><path fill="#53c1de" d="M 921.082031 292.894531 C 934.164062 241.332031 950.609375 145.71875 892.640625 113.304688 C 834.941406 81.027344 759.855469 142.875 720.207031 179.996094 C 680.675781 143.242188 603.484375 81.664062 545.5625 114.183594 C 487.886719 146.566406 505.671875 240.59375 519.042969 292.476562 C 465.242188 307.296875 373.011719 339.21875 373.011719 404.441406 C 373.011719 469.480469 465.144531 504.210938 518.628906 519.015625 C 505.207031 571.1875 488.3125 663.871094 546.0625 696.183594 C 604.199219 728.695312 681.152344 668.582031 721.167969 631.054688 C 761.070312 668.394531 835.433594 728.902344 893.144531 696.5 C 951.035156 663.996094 935.957031 569.664062 922.585938 517.480469 C 974.429688 502.640625 1066.761719 468.667969 1066.761719 404.441406 C 1066.761719 339.847656 974.039062 307.664062 921.082031 292.894531 Z M 914.511719 489.828125 C 905.730469 462.867188 893.878906 434.199219 879.382812 404.585938 C 893.21875 375.671875 904.613281 347.371094 913.148438 320.585938 C 951.96875 331.503906 1037.128906 356.453125 1037.128906 404.441406 C 1037.128906 452.882812 955.40625 478.070312 914.511719 489.828125 Z M 878.292969 671.625 C 835.234375 695.796875 771.273438 637.933594 741.804688 610.4375 C 761.355469 589.699219 780.890625 565.589844 799.957031 538.820312 C 833.496094 535.933594 865.179688 531.214844 893.917969 524.773438 C 903.328125 561.683594 921.542969 647.34375 878.292969 671.625 Z M 560.871094 671.28125 C 517.808594 647.195312 537.492188 564.488281 547.363281 526.058594 C 575.78125 532.15625 607.234375 536.542969 640.855469 539.1875 C 660.046875 565.382812 680.148438 589.460938 700.40625 610.546875 C 675.378906 634.03125 604.136719 695.472656 560.871094 671.28125 Z M 402.648438 404.441406 C 402.648438 355.820312 487.296875 331.050781 527.003906 320.164062 C 535.683594 347.550781 547.074219 376.1875 560.816406 405.144531 C 546.894531 434.53125 535.34375 463.621094 526.582031 491.332031 C 488.722656 480.820312 402.648438 453.09375 402.648438 404.441406 Z M 560.410156 139.058594 C 603.648438 114.785156 670.738281 173.902344 699.441406 200.511719 C 679.289062 221.503906 659.371094 245.398438 640.34375 271.445312 C 607.71875 274.378906 576.484375 279.089844 547.769531 285.398438 C 536.996094 243.550781 517.21875 163.308594 560.410156 139.058594 Z M 821.160156 302.6875 C 843.292969 305.394531 864.5 309 884.414062 313.410156 C 878.4375 331.992188 870.984375 351.425781 862.210938 371.347656 C 849.488281 347.9375 835.832031 325 821.160156 302.6875 Z M 720.21875 221.054688 C 733.886719 235.414062 747.578125 251.453125 761.046875 268.855469 C 733.726562 267.601562 706.367188 267.597656 679.046875 268.835938 C 692.527344 251.597656 706.335938 235.582031 720.21875 221.054688 Z M 577.820312 371.328125 C 569.1875 351.476562 561.804688 331.957031 555.773438 313.105469 C 575.566406 308.8125 596.675781 305.300781 618.667969 302.632812 C 603.953125 324.898438 590.320312 347.828125 577.820312 371.328125 Z M 619.300781 508.300781 C 596.582031 505.84375 575.152344 502.511719 555.367188 498.332031 C 561.492188 479.152344 569.039062 459.210938 577.851562 438.929688 C 590.527344 462.675781 604.367188 485.828125 619.300781 508.300781 Z M 721.039062 589.863281 C 706.992188 575.164062 692.980469 558.902344 679.296875 541.414062 C 706.769531 542.460938 734.296875 542.460938 761.765625 541.273438 C 748.257812 559.082031 734.617188 575.363281 721.039062 589.863281 Z M 862.492188 437.898438 C 871.765625 458.398438 879.582031 478.230469 885.789062 497.085938 C 865.675781 501.539062 843.957031 505.125 821.074219 507.789062 C 835.859375 485.054688 849.730469 461.757812 862.492188 437.898438 Z M 783.417969 511.273438 C 741.394531 514.183594 699.113281 514.152344 657.074219 511.511719 C 633.1875 477.671875 611.925781 442.082031 593.570312 405.132812 C 611.835938 368.261719 632.945312 332.742188 656.71875 298.957031 C 698.785156 295.871094 741.109375 295.863281 783.179688 298.976562 C 806.746094 332.761719 827.824219 368.1875 846.511719 404.726562 C 828.046875 441.578125 806.824219 477.167969 783.417969 511.273438 Z M 877.835938 138.203125 C 921.089844 162.398438 901.835938 248.332031 892.386719 285.695312 C 863.605469 279.253906 832.351562 274.460938 799.628906 271.480469 C 780.566406 245.15625 760.8125 221.21875 740.984375 200.496094 C 770.058594 173.316406 835.003906 114.246094 877.835938 138.203125 Z M 877.835938 138.203125 " fill-opacity="1" fill-rule="evenodd"/></g></svg>