<svg xmlns="http://www.w3.org/2000/svg" xmlns:xlink="http://www.w3.org/1999/xlink" width="1920" zoomAndPan="magnify" viewBox="0 0 1440 809.999993" height="1080" preserveAspectRatio="xMidYMid meet" version="1.0"><defs><clipPath id="9e718ecbbe"><rect x="0" width="620" y="0" height="620"/></clipPath></defs><rect x="-144" width="1728" fill="#ffffff" y="-80.999999" height="971.999992" fill-opacity="1"/><rect x="-144" width="1728" fill="#ffffff" y="-80.999999" height="971.999992" fill-opacity="1"/><path fill="#88c9f9" d="M 1044 405 C 1044 410.300781 1043.871094 415.601562 1043.609375 420.898438 C 1043.347656 426.195312 1042.960938 431.480469 1042.441406 436.757812 C 1041.921875 442.035156 1041.269531 447.296875 1040.492188 452.539062 C 1039.714844 457.785156 1038.808594 463.007812 1037.773438 468.210938 C 1036.738281 473.410156 1035.578125 478.582031 1034.289062 483.726562 C 1033 488.871094 1031.585938 493.976562 1030.046875 499.050781 C 1028.507812 504.125 1026.847656 509.160156 1025.058594 514.152344 C 1023.273438 519.144531 1021.367188 524.089844 1019.335938 528.988281 C 1017.308594 533.886719 1015.160156 538.734375 1012.890625 543.527344 C 1010.625 548.320312 1008.242188 553.054688 1005.742188 557.734375 C 1003.242188 562.410156 1000.628906 567.019531 997.902344 571.570312 C 995.179688 576.117188 992.34375 580.597656 989.394531 585.003906 C 986.449219 589.414062 983.398438 593.746094 980.238281 598.007812 C 977.082031 602.265625 973.820312 606.445312 970.457031 610.542969 C 967.089844 614.640625 963.628906 618.65625 960.066406 622.585938 C 956.507812 626.515625 952.851562 630.351562 949.101562 634.101562 C 945.351562 637.851562 941.515625 641.507812 937.585938 645.066406 C 933.65625 648.628906 929.640625 652.089844 925.542969 655.457031 C 921.445312 658.820312 917.265625 662.082031 913.007812 665.238281 C 908.746094 668.398438 904.414062 671.449219 900.003906 674.394531 C 895.597656 677.34375 891.117188 680.179688 886.570312 682.902344 C 882.019531 685.628906 877.410156 688.242188 872.734375 690.742188 C 868.054688 693.242188 863.320312 695.625 858.527344 697.890625 C 853.734375 700.160156 848.886719 702.308594 843.988281 704.335938 C 839.089844 706.367188 834.144531 708.273438 829.152344 710.058594 C 824.160156 711.847656 819.125 713.507812 814.050781 715.046875 C 808.976562 716.585938 803.871094 718 798.726562 719.289062 C 793.582031 720.578125 788.410156 721.738281 783.210938 722.773438 C 778.007812 723.808594 772.785156 724.714844 767.539062 725.492188 C 762.296875 726.269531 757.035156 726.921875 751.757812 727.441406 C 746.480469 727.960938 741.195312 728.347656 735.898438 728.609375 C 730.601562 728.871094 725.300781 729 720 729 C 714.699219 729 709.398438 728.871094 704.101562 728.609375 C 698.804688 728.347656 693.519531 727.960938 688.242188 727.441406 C 682.964844 726.921875 677.703125 726.269531 672.460938 725.492188 C 667.214844 724.714844 661.992188 723.808594 656.789062 722.773438 C 651.589844 721.738281 646.417969 720.578125 641.273438 719.289062 C 636.128906 718 631.023438 716.585938 625.949219 715.046875 C 620.875 713.507812 615.839844 711.847656 610.847656 710.058594 C 605.855469 708.273438 600.910156 706.367188 596.011719 704.335938 C 591.113281 702.308594 586.265625 700.160156 581.472656 697.890625 C 576.679688 695.625 571.945312 693.242188 567.265625 690.742188 C 562.589844 688.242188 557.980469 685.628906 553.429688 682.902344 C 548.882812 680.179688 544.402344 677.34375 539.996094 674.394531 C 535.585938 671.449219 531.253906 668.398438 526.992188 665.238281 C 522.734375 662.082031 518.554688 658.820312 514.457031 655.457031 C 510.359375 652.089844 506.34375 648.628906 502.414062 645.066406 C 498.484375 641.507812 494.648438 637.851562 490.898438 634.101562 C 487.148438 630.351562 483.492188 626.515625 479.933594 622.585938 C 476.371094 618.65625 472.910156 614.640625 469.542969 610.542969 C 466.179688 606.445312 462.917969 602.265625 459.761719 598.007812 C 456.601562 593.746094 453.550781 589.414062 450.605469 585.003906 C 447.65625 580.597656 444.820312 576.117188 442.097656 571.570312 C 439.371094 567.019531 436.757812 562.410156 434.257812 557.734375 C 431.757812 553.054688 429.375 548.320312 427.109375 543.527344 C 424.839844 538.734375 422.691406 533.886719 420.664062 528.988281 C 418.632812 524.089844 416.726562 519.144531 414.941406 514.152344 C 413.152344 509.160156 411.492188 504.125 409.953125 499.050781 C 408.410156 493.976562 407 488.871094 405.710938 483.726562 C 404.421875 478.582031 403.261719 473.410156 402.226562 468.210938 C 401.191406 463.007812 400.285156 457.785156 399.507812 452.539062 C 398.730469 447.296875 398.078125 442.035156 397.558594 436.757812 C 397.039062 431.480469 396.652344 426.195312 396.390625 420.898438 C 396.128906 415.601562 396 410.300781 396 405 C 396 399.699219 396.128906 394.398438 396.390625 389.101562 C 396.652344 383.804688 397.039062 378.519531 397.558594 373.242188 C 398.078125 367.964844 398.730469 362.703125 399.507812 357.460938 C 400.285156 352.214844 401.191406 346.992188 402.226562 341.789062 C 403.261719 336.589844 404.421875 331.417969 405.710938 326.273438 C 407 321.128906 408.410156 316.023438 409.953125 310.949219 C 411.492188 305.875 413.152344 300.839844 414.941406 295.847656 C 416.726562 290.855469 418.632812 285.910156 420.664062 281.011719 C 422.691406 276.113281 424.839844 271.265625 427.109375 266.472656 C 429.375 261.679688 431.757812 256.945312 434.257812 252.265625 C 436.757812 247.589844 439.371094 242.980469 442.097656 238.429688 C 444.820312 233.882812 447.65625 229.402344 450.605469 224.996094 C 453.550781 220.585938 456.601562 216.253906 459.761719 211.992188 C 462.917969 207.734375 466.179688 203.554688 469.542969 199.457031 C 472.910156 195.359375 476.371094 191.34375 479.933594 187.414062 C 483.492188 183.484375 487.148438 179.648438 490.898438 175.898438 C 494.648438 172.148438 498.484375 168.492188 502.414062 164.933594 C 506.34375 161.371094 510.359375 157.910156 514.457031 154.542969 C 518.554688 151.179688 522.734375 147.917969 526.992188 144.761719 C 531.253906 141.601562 535.585938 138.550781 539.996094 135.605469 C 544.402344 132.65625 548.882812 129.820312 553.429688 127.097656 C 557.980469 124.371094 562.589844 121.757812 567.265625 119.257812 C 571.945312 116.757812 576.679688 114.375 581.472656 112.109375 C 586.265625 109.839844 591.113281 107.691406 596.011719 105.664062 C 600.910156 103.632812 605.855469 101.726562 610.847656 99.941406 C 615.839844 98.152344 620.875 96.492188 625.949219 94.953125 C 631.023438 93.410156 636.128906 92 641.273438 90.710938 C 646.417969 89.421875 651.589844 88.261719 656.789062 87.226562 C 661.992188 86.191406 667.214844 85.285156 672.460938 84.507812 C 677.703125 83.730469 682.964844 83.078125 688.242188 82.558594 C 693.519531 82.039062 698.804688 81.652344 704.101562 81.390625 C 709.398438 81.128906 714.699219 81 720 81 C 725.300781 81 730.601562 81.128906 735.898438 81.390625 C 741.195312 81.652344 746.480469 82.039062 751.757812 82.558594 C 757.035156 83.078125 762.296875 83.730469 767.539062 84.507812 C 772.785156 85.285156 778.007812 86.191406 783.210938 87.226562 C 788.410156 88.261719 793.582031 89.421875 798.726562 90.710938 C 803.867188 92 808.976562 93.414062 814.050781 94.953125 C 819.125 96.492188 824.160156 98.152344 829.152344 99.941406 C 834.144531 101.726562 839.089844 103.632812 843.988281 105.664062 C 848.886719 107.691406 853.734375 109.839844 858.527344 112.109375 C 863.320312 114.375 868.054688 116.757812 872.734375 119.257812 C 877.410156 121.757812 882.019531 124.371094 886.570312 127.097656 C 891.117188 129.820312 895.597656 132.65625 900.003906 135.605469 C 904.414062 138.550781 908.746094 141.601562 913.007812 144.761719 C 917.265625 147.917969 921.445312 151.179688 925.542969 154.542969 C 929.640625 157.910156 933.65625 161.371094 937.585938 164.933594 C 941.515625 168.492188 945.351562 172.148438 949.101562 175.898438 C 952.851562 179.648438 956.507812 183.484375 960.066406 187.414062 C 963.628906 191.34375 967.089844 195.359375 970.457031 199.457031 C 973.820312 203.554688 977.082031 207.734375 980.238281 211.992188 C 983.398438 216.253906 986.449219 220.585938 989.394531 224.996094 C 992.34375 229.402344 995.179688 233.882812 997.902344 238.429688 C 1000.628906 242.980469 1003.242188 247.589844 1005.742188 252.265625 C 1008.242188 256.945312 1010.625 261.679688 1012.890625 266.472656 C 1015.160156 271.265625 1017.308594 276.113281 1019.335938 281.011719 C 1021.367188 285.910156 1023.273438 290.855469 1025.058594 295.847656 C 1026.847656 300.839844 1028.507812 305.875 1030.046875 310.949219 C 1031.585938 316.023438 1033 321.128906 1034.289062 326.273438 C 1035.578125 331.417969 1036.738281 336.589844 1037.773438 341.789062 C 1038.808594 346.992188 1039.714844 352.214844 1040.492188 357.460938 C 1041.269531 362.703125 1041.921875 367.964844 1042.441406 373.242188 C 1042.960938 378.519531 1043.347656 383.804688 1043.609375 389.101562 C 1043.871094 394.398438 1044 399.699219 1044 405 Z M 1044 405 " fill-opacity="1" fill-rule="nonzero"/><path fill="#5c913b" d="M 446.617188 537.75 C 445.5 519.75 445.5 516.382812 445.5 495 C 445.5 473.617188 455.617188 477 465.75 466.882812 C 475.882812 456.769531 473.632812 455.632812 490.5 444.546875 C 507.367188 433.457031 498.382812 420.769531 497.25 414.019531 C 496.117188 407.269531 486 412.882812 469.117188 415.117188 C 452.230469 417.347656 457.882812 409.5 447.75 405 C 437.617188 400.5 433.132812 393.75 426.367188 373.5 C 419.597656 353.25 418.480469 347.617188 420.75 330.75 C 423.019531 313.882812 430.882812 329.617188 432 347.617188 C 433.117188 365.617188 448.882812 358.867188 448.882812 370.117188 C 448.882812 381.367188 471.382812 393.730469 477 397.117188 C 482.617188 400.5 498.382812 380.230469 504 374.617188 C 509.617188 369 516.382812 361.117188 518.617188 356.617188 C 520.847656 352.117188 549 348.730469 554.617188 348.730469 C 560.230469 348.730469 573.730469 365.617188 573.730469 373.480469 C 573.730469 381.347656 580.480469 402.730469 586.117188 415.097656 C 591.75 427.464844 604.117188 429.714844 615.367188 438.714844 C 626.617188 447.714844 632.25 439.828125 632.25 439.828125 C 632.25 439.828125 627.75 420.714844 627.75 404.945312 C 627.75 389.179688 641.25 375.695312 641.25 375.695312 C 641.25 375.695312 662.632812 391.445312 663.75 395.945312 C 664.867188 400.445312 681.75 416.195312 682.867188 424.0625 C 683.980469 431.929688 692.980469 442.0625 709.558594 444.3125 C 726.136719 446.5625 714.367188 425.195312 719.980469 410.5625 C 725.597656 395.929688 733.480469 393.679688 743.597656 391.445312 C 753.714844 389.214844 761.597656 380.195312 768.347656 371.195312 C 775.097656 362.195312 787.464844 349.8125 786.347656 339.695312 C 785.230469 329.578125 781.847656 322.8125 777.347656 310.445312 C 772.847656 298.078125 790.847656 293.5625 798.730469 278.945312 C 806.617188 264.328125 798.730469 278.945312 816.730469 274.445312 C 834.730469 269.945312 826.847656 269.945312 830.230469 263.195312 C 833.617188 256.445312 835.847656 249.695312 832.480469 237.3125 C 829.117188 224.929688 816.730469 237.3125 804.367188 237.3125 C 792 237.3125 808.882812 220.5 810 207 C 811.117188 193.5 826.882812 196.882812 838.117188 195.75 C 849.347656 194.617188 852.730469 210.367188 856.117188 213.75 C 859.5 217.132812 894.367188 191.25 903.367188 178.867188 C 912.367188 166.480469 895.5 169.882812 900 164.664062 C 904.5 159.445312 873 158.382812 860.617188 156.382812 C 848.230469 154.386719 816.75 153 804.382812 145.367188 C 792.019531 137.734375 744.769531 143.496094 732.382812 149.632812 C 720 155.773438 712.132812 149.113281 706.5 140.632812 C 700.867188 132.15625 677.25 136.402344 670.5 131.632812 C 663.75 126.863281 657 139.5 648 142.882812 C 639 146.269531 635.617188 147.382812 624.382812 140.632812 C 613.152344 133.882812 627.75 126 612 120.382812 C 601.453125 116.621094 588.816406 118.816406 569.160156 118.386719 C 466.234375 172.65625 396 280.566406 396 405 C 396 466.558594 413.476562 523.890625 443.285156 572.886719 C 448.828125 563.5625 447.445312 550.980469 446.617188 537.75 Z M 707.617188 516.382812 C 715.5 517.5 738 516.382812 720 501.769531 C 702 487.152344 691.882812 498.382812 694.117188 481.519531 C 696.347656 464.652344 682.867188 464.632812 682.867188 464.632812 C 682.867188 477.019531 673.867188 490.519531 682.867188 502.882812 C 691.867188 515.25 699.75 515.25 707.617188 516.382812 Z M 707.617188 516.382812 " fill-opacity="1" fill-rule="nonzero"/><path fill="#5c913b" d="M 822.382812 328.5 C 804.382812 313.882812 817.882812 318.382812 820.132812 301.5 C 822.382812 284.617188 808.882812 284.617188 808.882812 284.617188 C 808.882812 297 799.882812 310.5 808.882812 322.867188 C 817.882812 335.230469 790.882812 345.367188 798.769531 346.480469 C 806.652344 347.597656 840.382812 343.117188 822.382812 328.5 Z M 752.542969 504 C 763.703125 516.382812 759.382812 504 774 498.382812 C 788.617188 492.769531 761.617188 480.382812 752.617188 473.632812 C 743.617188 466.882812 734.671875 466.632812 726.804688 481.519531 C 717.875 498.382812 741.382812 491.617188 752.542969 504 Z M 884.25 526.5 C 878.632812 519.75 866.25 516.382812 852.75 516.691406 C 839.25 517.015625 840.367188 501.75 826.867188 502.867188 C 813.367188 503.980469 803.71875 493.792969 797.617188 490.644531 C 784.351562 483.804688 793.117188 499.480469 797.617188 516.671875 C 802.117188 533.863281 819 520.847656 834.730469 529.847656 C 850.464844 538.847656 851.617188 526.464844 866.230469 530.964844 C 880.847656 535.464844 886.480469 545.578125 900.503906 544.464844 C 914.527344 543.347656 889.882812 533.25 884.25 526.5 Z M 855 576 C 849.382812 564.75 832.933594 554.617188 826.183594 548.910156 C 819.433594 543.203125 808.867188 541.277344 799.867188 544.589844 C 790.867188 547.902344 785.25 544.589844 780.75 535.679688 C 776.25 526.769531 768.367188 529.882812 761.632812 531 C 754.902344 532.117188 727.882812 543.382812 712.132812 551.25 C 696.382812 559.117188 689.21875 565.957031 678.886719 576 C 662.722656 591.730469 671.632812 581.617188 678.886719 591.75 C 686.140625 601.867188 670.933594 633.367188 669.816406 651.367188 C 668.699219 669.367188 698.652344 645.75 709.902344 643.480469 C 721.152344 641.214844 717.839844 634.480469 726.839844 627.730469 C 735.839844 620.980469 741.691406 619.398438 751.570312 628.398438 C 761.453125 637.398438 774.394531 645.730469 774.394531 655.847656 C 774.394531 665.964844 810.019531 682.847656 823.519531 676.097656 C 837.019531 669.347656 844.902344 655.847656 857.269531 644.597656 C 869.632812 633.347656 865.152344 611.980469 868.519531 598.480469 C 871.882812 584.980469 860.617188 587.25 855 576 Z M 855 576 " fill-opacity="1" fill-rule="nonzero"/><g transform="matrix(1, 0, 0, 1, 420, 105)"><g clip-path="url(#9e718ecbbe)"><path fill="#9f5538" d="M 602.304688 523.390625 L 492.082031 413.417969 C 491.523438 412.867188 490.871094 412.460938 490.285156 412.0625 C 480.382812 427.289062 468.542969 441.765625 455.179688 455.128906 C 441.828125 468.492188 427.328125 480.335938 411.9375 490.265625 C 412.480469 490.832031 412.894531 491.5 413.445312 492.039062 L 523.449219 602.25 C 545.226562 623.992188 580.582031 623.960938 602.277344 602.25 C 624.007812 580.523438 624.019531 545.152344 602.304688 523.390625 Z M 602.304688 523.390625 " fill-opacity="1" fill-rule="nonzero"/><path fill="#774822" d="M 455.183594 455.121094 L 455.179688 455.128906 C 441.828125 468.492188 427.328125 480.335938 411.9375 490.265625 C 412.480469 490.832031 412.894531 491.5 413.445312 492.039062 L 523.449219 602.25 C 545.226562 623.992188 580.582031 623.960938 602.277344 602.25 Z M 455.183594 455.121094 " fill-opacity="1" fill-rule="nonzero"/><path fill="#545454" d="M 439.46875 76.117188 C 339.335938 -24 176.4375 -24 76.289062 76.140625 C -23.957031 176.25 -23.972656 339.273438 76.214844 439.417969 C 176.398438 539.519531 339.328125 539.519531 439.46875 439.410156 C 539.601562 339.273438 539.59375 176.234375 439.46875 76.117188 Z M 123.414062 392.265625 C 49.277344 318.125 49.300781 197.433594 123.441406 123.363281 C 197.582031 49.238281 318.203125 49.238281 392.316406 123.328125 C 466.402344 197.429688 466.378906 317.992188 392.316406 392.238281 C 318.191406 466.148438 197.582031 466.417969 123.414062 392.265625 Z M 123.414062 392.265625 " fill-opacity="1" fill-rule="nonzero"/><path fill="#000000" d="M 76.289062 76.140625 C -23.957031 176.25 -23.972656 339.273438 76.214844 439.417969 C 176.398438 539.519531 339.328125 539.519531 439.46875 439.410156 L 392.3125 392.238281 C 318.1875 466.148438 197.582031 466.417969 123.414062 392.265625 C 49.277344 318.125 49.300781 197.433594 123.441406 123.363281 L 123.472656 123.335938 Z M 76.289062 76.140625 " fill-opacity="1" fill-rule="nonzero"/><path fill="#e1e8ed" d="M 343.566406 223.171875 C 350.378906 245.171875 374.679688 274.78125 392.898438 263.746094 C 407.355469 255.210938 401 220.535156 392.6875 200.308594 C 355.4375 108.304688 239.808594 95.5 228.644531 108.113281 C 217.667969 120.523438 316.566406 136.101562 343.566406 223.171875 Z M 343.566406 223.171875 " fill-opacity="1" fill-rule="nonzero"/></g></g></svg>