<svg xmlns="http://www.w3.org/2000/svg" xmlns:xlink="http://www.w3.org/1999/xlink" width="1920" zoomAndPan="magnify" viewBox="0 0 1440 809.999993" height="1080" preserveAspectRatio="xMidYMid meet" version="1.0"><defs><clipPath id="b8acfed601"><path d="M 375.984375 82 L 1063.734375 82 L 1063.734375 611 L 375.984375 611 Z M 375.984375 82 " clip-rule="nonzero"/></clipPath></defs><g clip-path="url(#b8acfed601)"><path fill="#bdddf4" d="M 1063.734375 295.898438 C 1063.734375 219.902344 1002.152344 158.296875 926.183594 158.296875 C 903.253906 158.296875 881.675781 163.996094 862.675781 173.902344 C 821.765625 118.332031 756.074219 82.121094 681.796875 82.121094 C 580.953125 82.121094 495.613281 148.566406 467.160156 240.089844 C 414.929688 252.21875 375.984375 298.945312 375.984375 354.871094 C 375.984375 413.433594 418.703125 461.910156 474.648438 471.109375 C 478.890625 548.738281 542.96875 610.421875 621.609375 610.421875 C 664.367188 610.421875 702.765625 592.082031 729.683594 562.988281 C 756.605469 592.082031 794.980469 610.421875 837.757812 610.421875 C 919.167969 610.421875 985.132812 544.433594 985.132812 462.988281 C 985.132812 449.035156 983.070312 435.585938 979.457031 422.789062 C 1028.953125 401.972656 1063.734375 353.003906 1063.734375 295.898438 Z M 1063.734375 295.898438 " fill-opacity="1" fill-rule="nonzero"/></g><path fill="#bdddf4" d="M 513.535156 669.394531 C 513.535156 671.328125 513.441406 673.253906 513.25 675.175781 C 513.0625 677.097656 512.777344 679.007812 512.402344 680.902344 C 512.023438 682.796875 511.554688 684.667969 510.996094 686.515625 C 510.4375 688.363281 509.785156 690.179688 509.046875 691.964844 C 508.308594 693.75 507.484375 695.492188 506.574219 697.195312 C 505.664062 698.898438 504.671875 700.554688 503.601562 702.160156 C 502.527344 703.765625 501.378906 705.316406 500.152344 706.808594 C 498.929688 708.300781 497.632812 709.730469 496.269531 711.097656 C 494.902344 712.460938 493.472656 713.757812 491.980469 714.984375 C 490.488281 716.207031 488.941406 717.355469 487.335938 718.429688 C 485.730469 719.503906 484.074219 720.496094 482.375 721.40625 C 480.671875 722.316406 478.925781 723.140625 477.144531 723.878906 C 475.359375 724.621094 473.542969 725.269531 471.695312 725.828125 C 469.847656 726.390625 467.980469 726.859375 466.085938 727.234375 C 464.191406 727.613281 462.285156 727.894531 460.363281 728.085938 C 458.441406 728.273438 456.515625 728.371094 454.585938 728.371094 C 452.652344 728.371094 450.726562 728.273438 448.804688 728.085938 C 446.886719 727.894531 444.976562 727.613281 443.082031 727.234375 C 441.191406 726.859375 439.320312 726.390625 437.472656 725.828125 C 435.625 725.269531 433.808594 724.621094 432.023438 723.878906 C 430.242188 723.140625 428.5 722.316406 426.796875 721.40625 C 425.09375 720.496094 423.4375 719.503906 421.832031 718.429688 C 420.226562 717.355469 418.679688 716.207031 417.1875 714.984375 C 415.695312 713.757812 414.265625 712.460938 412.902344 711.097656 C 411.535156 709.730469 410.242188 708.300781 409.015625 706.808594 C 407.789062 705.316406 406.640625 703.765625 405.570312 702.160156 C 404.496094 700.554688 403.503906 698.898438 402.59375 697.195312 C 401.683594 695.492188 400.859375 693.75 400.121094 691.964844 C 399.382812 690.179688 398.734375 688.363281 398.171875 686.515625 C 397.613281 684.667969 397.144531 682.796875 396.765625 680.902344 C 396.390625 679.007812 396.109375 677.097656 395.917969 675.175781 C 395.730469 673.253906 395.632812 671.328125 395.632812 669.394531 C 395.632812 667.464844 395.730469 665.539062 395.917969 663.617188 C 396.109375 661.695312 396.390625 659.785156 396.765625 657.890625 C 397.144531 655.996094 397.613281 654.125 398.171875 652.277344 C 398.734375 650.429688 399.382812 648.613281 400.121094 646.828125 C 400.859375 645.042969 401.683594 643.300781 402.59375 641.597656 C 403.503906 639.894531 404.496094 638.238281 405.570312 636.632812 C 406.640625 635.027344 407.789062 633.476562 409.015625 631.984375 C 410.242188 630.492188 411.535156 629.0625 412.902344 627.695312 C 414.265625 626.328125 415.695312 625.035156 417.1875 623.808594 C 418.679688 622.582031 420.226562 621.433594 421.832031 620.363281 C 423.4375 619.289062 425.09375 618.296875 426.796875 617.386719 C 428.5 616.476562 430.242188 615.652344 432.023438 614.910156 C 433.808594 614.171875 435.625 613.523438 437.472656 612.960938 C 439.320312 612.402344 441.191406 611.933594 443.082031 611.554688 C 444.976562 611.179688 446.886719 610.894531 448.804688 610.707031 C 450.726562 610.519531 452.652344 610.421875 454.585938 610.421875 C 456.515625 610.421875 458.441406 610.519531 460.363281 610.707031 C 462.285156 610.894531 464.191406 611.179688 466.085938 611.554688 C 467.980469 611.933594 469.847656 612.402344 471.695312 612.960938 C 473.542969 613.523438 475.359375 614.171875 477.144531 614.910156 C 478.925781 615.652344 480.671875 616.476562 482.375 617.386719 C 484.074219 618.296875 485.730469 619.289062 487.335938 620.363281 C 488.941406 621.433594 490.488281 622.582031 491.980469 623.808594 C 493.472656 625.035156 494.902344 626.328125 496.269531 627.695312 C 497.632812 629.0625 498.929688 630.492188 500.152344 631.984375 C 501.378906 633.476562 502.527344 635.027344 503.601562 636.632812 C 504.671875 638.238281 505.664062 639.894531 506.574219 641.597656 C 507.484375 643.300781 508.308594 645.042969 509.046875 646.828125 C 509.785156 648.613281 510.4375 650.429688 510.996094 652.277344 C 511.554688 654.125 512.023438 655.996094 512.402344 657.890625 C 512.777344 659.785156 513.0625 661.695312 513.25 663.617188 C 513.441406 665.539062 513.535156 667.464844 513.535156 669.394531 Z M 513.535156 669.394531 " fill-opacity="1" fill-rule="nonzero"/></svg>