<svg xmlns="http://www.w3.org/2000/svg" xmlns:xlink="http://www.w3.org/1999/xlink" width="1920" zoomAndPan="magnify" viewBox="0 0 1440 809.999993" height="1080" preserveAspectRatio="xMidYMid meet" version="1.0"><defs><clipPath id="c086e763fd"><path d="M 81 355 L 339.75 355 L 339.75 550 L 81 550 Z M 81 355 " clip-rule="nonzero"/></clipPath><clipPath id="3a1591f928"><path d="M 81 291 L 339.75 291 L 339.75 364 L 81 364 Z M 81 291 " clip-rule="nonzero"/></clipPath><clipPath id="af85279ff3"><path d="M 420.8125 275.71875 L 679.5625 275.71875 L 679.5625 534.46875 L 420.8125 534.46875 Z M 420.8125 275.71875 " clip-rule="nonzero"/></clipPath></defs><path fill="#66757f" d="M 297.824219 291.078125 L 313.964844 291.078125 L 313.964844 299.160156 L 297.824219 299.160156 Z M 297.824219 291.078125 " fill-opacity="1" fill-rule="nonzero"/><g clip-path="url(#c086e763fd)"><path fill="#ccd6dd" d="M 81 355.734375 L 81 517.375 C 81 535.226562 95.480469 549.703125 113.34375 549.703125 L 307.40625 549.703125 C 325.269531 549.703125 339.75 535.226562 339.75 517.375 L 339.75 355.734375 Z M 81 355.734375 " fill-opacity="1" fill-rule="nonzero"/></g><g clip-path="url(#3a1591f928)"><path fill="#dd2e44" d="M 307.40625 291.078125 L 113.34375 291.078125 C 95.480469 291.078125 81 305.554688 81 323.40625 L 81 363.816406 L 339.75 363.816406 L 339.75 323.40625 C 339.75 305.554688 325.269531 291.078125 307.40625 291.078125 Z M 307.40625 291.078125 " fill-opacity="1" fill-rule="nonzero"/></g><path fill="#292f33" d="M 136.277344 329.3125 C 130.597656 329.3125 126 323.929688 126 317.28125 C 126 310.636719 130.597656 305.246094 136.277344 305.246094 C 141.945312 305.246094 146.542969 310.636719 146.542969 317.28125 C 146.542969 323.921875 141.945312 329.3125 136.277344 329.3125 Z M 184.792969 329.3125 C 179.113281 329.3125 174.515625 323.929688 174.515625 317.28125 C 174.515625 310.636719 179.113281 305.246094 184.792969 305.246094 C 190.460938 305.246094 195.058594 310.636719 195.058594 317.28125 C 195.058594 323.921875 190.460938 329.3125 184.792969 329.3125 Z M 233.308594 329.3125 C 227.628906 329.3125 223.03125 323.929688 223.03125 317.28125 C 223.03125 310.636719 227.628906 305.246094 233.308594 305.246094 C 238.976562 305.246094 243.582031 310.636719 243.582031 317.28125 C 243.574219 323.921875 238.976562 329.3125 233.308594 329.3125 Z M 281.824219 329.3125 C 276.144531 329.3125 271.546875 323.929688 271.546875 317.28125 C 271.546875 310.636719 276.144531 305.246094 281.824219 305.246094 C 287.492188 305.246094 292.097656 310.636719 292.097656 317.28125 C 292.089844 323.921875 287.492188 329.3125 281.824219 329.3125 Z M 281.824219 329.3125 " fill-opacity="1" fill-rule="nonzero"/><path fill="#66757f" d="M 285.695312 260.195312 C 275.371094 260.195312 266.425781 266.679688 261.484375 276.117188 C 256.585938 266.878906 247.601562 260.195312 237.179688 260.195312 C 226.855469 260.195312 217.910156 266.679688 212.96875 276.117188 C 208.070312 266.878906 199.085938 260.195312 188.664062 260.195312 C 178.339844 260.195312 169.394531 266.679688 164.453125 276.117188 C 159.554688 266.878906 150.570312 260.195312 140.148438 260.195312 C 124.511719 260.195312 111.847656 274.898438 111.847656 292.566406 C 111.847656 307.550781 120.296875 319.808594 132.621094 324.296875 C 138.757812 326.515625 142.519531 320.683594 141.992188 316.003906 C 141.546875 312.125 138.96875 309.59375 136.097656 307.773438 C 132.175781 305.292969 128.011719 299.628906 128.011719 292.605469 C 128.011719 283.683594 133.4375 275.671875 140.140625 275.671875 C 146.84375 275.671875 152.269531 282.988281 152.269531 291.070312 L 160.484375 291.070312 C 160.460938 291.570312 160.355469 292.046875 160.355469 292.558594 C 160.355469 307.539062 168.804688 319.800781 181.128906 324.285156 C 187.265625 326.507812 191.023438 320.675781 190.5 315.996094 C 190.054688 312.125 187.476562 309.59375 184.605469 307.773438 C 180.683594 305.292969 176.519531 299.628906 176.519531 292.605469 C 176.519531 283.683594 181.945312 275.671875 188.648438 275.671875 C 195.351562 275.671875 200.792969 282.996094 200.792969 291.078125 L 209.007812 291.078125 C 208.984375 291.578125 208.878906 292.054688 208.878906 292.566406 C 208.878906 307.550781 217.328125 319.808594 229.652344 324.296875 C 235.789062 326.515625 239.550781 320.683594 239.023438 316.003906 C 238.578125 312.132812 236 309.601562 233.128906 307.785156 C 229.207031 305.300781 225.042969 299.636719 225.042969 292.613281 C 225.042969 283.691406 230.46875 275.679688 237.171875 275.679688 C 243.875 275.679688 249.308594 282.996094 249.308594 291.078125 L 257.523438 291.078125 C 257.5 291.578125 257.394531 292.054688 257.394531 292.566406 C 257.394531 307.550781 265.84375 319.808594 278.167969 324.296875 C 284.304688 326.515625 288.066406 320.683594 287.539062 316.003906 C 287.09375 312.132812 284.515625 309.601562 281.644531 307.785156 C 277.722656 305.300781 273.558594 299.636719 273.558594 292.613281 C 273.558594 283.691406 278.984375 275.679688 285.6875 275.679688 C 292.390625 275.679688 297.824219 282.996094 297.824219 291.078125 L 313.964844 291.078125 C 313.792969 274.914062 301.21875 260.195312 285.695312 260.195312 Z M 285.695312 260.195312 " fill-opacity="1" fill-rule="nonzero"/><path fill="#ffffff" d="M 153.773438 379.980469 L 186.117188 379.980469 L 186.117188 412.308594 L 153.773438 412.308594 Z M 194.203125 379.980469 L 226.546875 379.980469 L 226.546875 412.308594 L 194.203125 412.308594 Z M 234.632812 379.980469 L 266.976562 379.980469 L 266.976562 412.308594 L 234.632812 412.308594 Z M 275.0625 379.980469 L 307.40625 379.980469 L 307.40625 412.308594 L 275.0625 412.308594 Z M 113.34375 420.390625 L 145.6875 420.390625 L 145.6875 452.71875 L 113.34375 452.71875 Z M 153.773438 420.390625 L 186.117188 420.390625 L 186.117188 452.71875 L 153.773438 452.71875 Z M 194.203125 420.390625 L 226.546875 420.390625 L 226.546875 452.71875 L 194.203125 452.71875 Z M 234.632812 420.390625 L 266.976562 420.390625 L 266.976562 452.71875 L 234.632812 452.71875 Z M 275.0625 420.390625 L 307.40625 420.390625 L 307.40625 452.71875 L 275.0625 452.71875 Z M 113.34375 460.800781 L 145.6875 460.800781 L 145.6875 493.128906 L 113.34375 493.128906 Z M 153.773438 460.800781 L 186.117188 460.800781 L 186.117188 493.128906 L 153.773438 493.128906 Z M 194.203125 460.800781 L 226.546875 460.800781 L 226.546875 493.128906 L 194.203125 493.128906 Z M 234.632812 460.800781 L 266.976562 460.800781 L 266.976562 493.128906 L 234.632812 493.128906 Z M 275.0625 460.800781 L 307.40625 460.800781 L 307.40625 493.128906 L 275.0625 493.128906 Z M 113.34375 501.210938 L 145.6875 501.210938 L 145.6875 533.539062 L 113.34375 533.539062 Z M 153.773438 501.210938 L 186.117188 501.210938 L 186.117188 533.539062 L 153.773438 533.539062 Z M 194.203125 501.210938 L 226.546875 501.210938 L 226.546875 533.539062 L 194.203125 533.539062 Z M 194.203125 501.210938 " fill-opacity="1" fill-rule="nonzero"/><g clip-path="url(#af85279ff3)"><path fill="#8899a6" d="M 621.984375 419.300781 C 617.511719 419.300781 613.179688 419.863281 609.003906 420.832031 L 534.453125 346.285156 C 535.417969 342.109375 535.976562 337.773438 535.976562 333.304688 C 535.976562 301.5 510.195312 275.71875 478.398438 275.71875 C 471.914062 275.71875 463.289062 282.300781 470.46875 289.480469 L 492.011719 311.023438 C 492.011719 311.023438 499.191406 325.382812 484.832031 339.738281 C 470.46875 354.089844 456.109375 346.910156 456.109375 346.910156 L 434.574219 325.375 C 427.394531 318.195312 420.8125 326.785156 420.8125 333.304688 C 420.8125 365.109375 446.59375 390.890625 478.398438 390.890625 C 482.867188 390.890625 487.203125 390.328125 491.378906 389.367188 L 565.921875 463.90625 C 564.949219 468.082031 564.390625 472.417969 564.390625 476.886719 C 564.390625 508.691406 590.179688 534.46875 621.976562 534.46875 C 628.453125 534.46875 637.078125 527.882812 629.894531 520.703125 L 608.355469 499.164062 C 608.355469 499.164062 601.175781 484.800781 615.535156 470.449219 C 629.894531 456.09375 644.25 463.269531 644.25 463.269531 L 665.789062 484.808594 C 672.976562 491.988281 679.5625 483.398438 679.5625 476.886719 C 679.5625 445.082031 653.78125 419.300781 621.984375 419.300781 Z M 621.984375 419.300781 " fill-opacity="1" fill-rule="nonzero"/></g><path fill="#3e721d" d="M 831.191406 381.859375 L 830.757812 381.5625 C 830.199219 381.144531 774.902344 339.160156 796.105469 284.929688 C 797.628906 281.023438 802.03125 279.101562 805.929688 280.625 C 809.863281 282.136719 811.757812 286.554688 810.242188 290.453125 C 793.207031 334.03125 839.355469 369.042969 839.828125 369.390625 C 843.1875 371.894531 843.886719 376.644531 841.382812 380.015625 C 838.976562 383.222656 834.515625 383.996094 831.191406 381.859375 Z M 943.320312 378.703125 L 942.886719 378.40625 C 942.324219 377.988281 887.03125 336.003906 908.230469 281.773438 C 909.757812 277.863281 914.160156 275.945312 918.058594 277.46875 C 921.988281 278.980469 923.886719 283.398438 922.367188 287.296875 C 905.332031 330.875 951.484375 365.886719 951.953125 366.234375 C 955.316406 368.738281 956.015625 373.488281 953.507812 376.859375 C 951.113281 380.066406 946.644531 380.839844 943.320312 378.703125 Z M 943.320312 378.703125 " fill-opacity="1" fill-rule="nonzero"/><path fill="#3e721d" d="M 837.324219 378.703125 L 837.753906 378.40625 C 838.316406 377.988281 893.609375 336.003906 872.410156 281.773438 C 870.882812 277.863281 866.484375 275.945312 862.582031 277.46875 C 858.652344 278.980469 856.753906 283.398438 858.273438 287.296875 C 875.308594 330.875 829.15625 365.886719 828.6875 366.234375 C 825.324219 368.738281 824.628906 373.488281 827.132812 376.859375 C 829.53125 380.066406 834 380.839844 837.324219 378.703125 Z M 767.914062 438.265625 C 766.859375 438.0625 765.828125 437.621094 764.902344 436.953125 C 761.519531 434.480469 760.773438 429.738281 763.242188 426.347656 C 796.660156 380.523438 856.671875 384.894531 859.214844 385.097656 C 863.378906 385.476562 866.484375 389.097656 866.148438 393.269531 C 865.816406 397.445312 862.15625 400.554688 857.984375 400.230469 C 857.445312 400.183594 803.84375 396.433594 775.503906 435.285156 C 773.710938 437.75 770.714844 438.8125 767.914062 438.265625 Z M 796.644531 529.148438 C 795.703125 529.679688 794.640625 530.019531 793.503906 530.113281 C 789.320312 530.4375 785.671875 527.328125 785.335938 523.144531 C 780.84375 466.609375 829.21875 430.832031 831.28125 429.335938 C 834.691406 426.914062 839.402344 427.636719 841.867188 431.019531 C 844.332031 434.40625 843.582031 439.148438 840.207031 441.621094 C 839.765625 441.941406 796.652344 474.015625 800.46875 521.949219 C 800.703125 524.988281 799.125 527.746094 796.644531 529.148438 Z M 949.238281 381.859375 L 949.671875 381.5625 C 950.230469 381.144531 1005.523438 339.160156 984.324219 284.929688 C 982.800781 281.023438 978.398438 279.09375 974.496094 280.621094 C 970.566406 282.128906 968.671875 286.546875 970.1875 290.445312 C 987.222656 334.023438 941.074219 369.035156 940.601562 369.382812 C 937.242188 371.886719 936.542969 376.636719 939.046875 380.007812 C 941.453125 383.222656 945.914062 383.996094 949.238281 381.859375 Z M 949.238281 381.859375 " fill-opacity="1" fill-rule="nonzero"/><path fill="#3e721d" d="M 1012.515625 438.265625 C 1013.570312 438.0625 1014.601562 437.621094 1015.527344 436.953125 C 1018.910156 434.480469 1019.652344 429.738281 1017.1875 426.347656 C 983.769531 380.523438 923.757812 384.894531 921.214844 385.097656 C 917.050781 385.476562 913.945312 389.097656 914.28125 393.269531 C 914.613281 397.445312 918.269531 400.554688 922.445312 400.230469 C 922.984375 400.183594 976.585938 396.433594 1004.925781 435.285156 C 1006.714844 437.75 1009.714844 438.8125 1012.515625 438.265625 Z M 983.785156 529.148438 C 984.726562 529.679688 985.789062 530.019531 986.925781 530.113281 C 991.109375 530.4375 994.757812 527.328125 995.089844 523.144531 C 999.582031 466.609375 951.210938 430.832031 949.148438 429.335938 C 945.738281 426.914062 941.027344 427.636719 938.5625 431.019531 C 936.09375 434.40625 936.847656 439.148438 940.222656 441.621094 C 940.664062 441.941406 983.777344 474.015625 979.960938 521.949219 C 979.726562 524.988281 981.304688 527.746094 983.785156 529.148438 Z M 983.785156 529.148438 " fill-opacity="1" fill-rule="nonzero"/><path fill="#77b255" d="M 937.726562 327.4375 C 937.25 307.511719 920.828125 291.273438 890.300781 291.273438 C 860.429688 291.273438 843.355469 307.511719 842.878906 327.4375 C 822.3125 340.980469 808.875 364.585938 808.875 397.503906 C 808.875 451.828125 845.328125 525.914062 890.300781 525.914062 C 935.277344 525.914062 971.726562 451.828125 971.726562 397.503906 C 971.722656 364.585938 958.28125 340.972656 937.726562 327.4375 Z M 937.726562 327.4375 " fill-opacity="1" fill-rule="nonzero"/><path fill="#5c913b" d="M 821.851562 348.964844 C 813.703125 361.789062 808.875 377.964844 808.875 397.503906 C 808.875 451.828125 845.328125 525.914062 890.300781 525.914062 C 935.277344 525.914062 971.726562 451.828125 971.726562 397.503906 C 971.726562 377.941406 966.902344 361.757812 958.738281 348.933594 C 940.472656 345.9375 917.710938 344.390625 890.378906 344.390625 C 862.953125 344.390625 840.136719 345.945312 821.851562 348.964844 Z M 821.851562 348.964844 " fill-opacity="1" fill-rule="nonzero"/><path fill="#3e721d" d="M 842.878906 327.4375 C 842.878906 327.4375 865.011719 321.617188 891.304688 321.617188 C 917.597656 321.617188 937.726562 327.4375 937.726562 327.4375 C 937.726562 327.4375 938.546875 291.273438 890.300781 291.273438 C 842.058594 291.273438 842.878906 327.4375 842.878906 327.4375 Z M 842.878906 327.4375 " fill-opacity="1" fill-rule="nonzero"/><path fill="#77b255" d="M 876.734375 533.777344 C 833.058594 529.261719 798.699219 481.457031 798.699219 423.136719 C 798.699219 364.824219 832.070312 362.410156 867.554688 362.410156 C 878.433594 362.410156 883.519531 366.8125 883.519531 384.566406 L 883.519531 525.253906 C 883.511719 534.132812 878.972656 534.019531 876.734375 533.777344 Z M 902.519531 533.777344 C 946.195312 529.261719 980.554688 481.457031 980.554688 423.136719 C 980.554688 364.824219 947.179688 362.410156 911.699219 362.410156 C 900.820312 362.410156 895.734375 366.8125 895.734375 384.566406 L 895.734375 525.253906 C 895.742188 534.132812 900.28125 534.019531 902.519531 533.777344 Z M 902.519531 533.777344 " fill-opacity="1" fill-rule="nonzero"/><path fill="#5c913b" d="M 866.96875 521.796875 C 864.464844 521.796875 862.015625 520.558594 860.566406 518.289062 C 815.742188 448.085938 836.410156 367.8125 838.917969 358.890625 C 840.046875 354.859375 844.199219 352.476562 848.273438 353.636719 C 852.308594 354.769531 854.652344 358.964844 853.523438 362.996094 C 851.199219 371.242188 832.078125 445.484375 873.34375 510.125 C 875.597656 513.660156 874.5625 518.351562 871.027344 520.605469 C 869.785156 521.410156 868.363281 521.796875 866.96875 521.796875 Z M 912.367188 521.796875 C 910.964844 521.796875 909.558594 521.410156 908.292969 520.605469 C 904.757812 518.351562 903.726562 513.660156 905.980469 510.125 C 939.503906 457.617188 934.214844 392.9375 925.796875 362.996094 C 924.667969 358.957031 927.019531 354.769531 931.050781 353.636719 C 935.09375 352.53125 939.273438 354.859375 940.40625 358.890625 C 942.910156 367.8125 963.59375 448.070312 918.757812 518.289062 C 917.332031 520.558594 914.878906 521.796875 912.367188 521.796875 Z M 912.367188 521.796875 " fill-opacity="1" fill-rule="nonzero"/><path fill="#5c913b" d="M 829.675781 350.703125 L 951.082031 350.703125 L 951.082031 373.464844 L 829.675781 373.464844 Z M 829.675781 350.703125 " fill-opacity="1" fill-rule="nonzero"/><path fill="#77b255" d="M 802.5625 393.847656 C 805.945312 383.367188 813.480469 372.28125 822.335938 365.953125 C 830.546875 360.097656 838.378906 360.332031 836.023438 371.023438 C 828.761719 404.160156 797.902344 408.292969 802.5625 393.847656 Z M 851.582031 371.707031 C 856.027344 358.578125 878.796875 357.507812 882.175781 372.214844 C 885.558594 386.917969 874.398438 387.9375 865.269531 387.59375 C 856.140625 387.253906 847.863281 382.691406 851.582031 371.707031 Z M 976.472656 393.847656 C 973.085938 383.367188 965.550781 372.28125 956.695312 365.953125 C 948.488281 360.097656 940.65625 360.332031 943.007812 371.023438 C 950.269531 404.160156 981.128906 408.292969 976.472656 393.847656 Z M 927.445312 371.707031 C 923 358.578125 900.226562 357.507812 896.851562 372.214844 C 893.464844 386.917969 904.628906 387.9375 913.757812 387.59375 C 922.882812 387.253906 931.164062 382.691406 927.445312 371.707031 Z M 927.445312 371.707031 " fill-opacity="1" fill-rule="nonzero"/><path fill="#662113" d="M 1102.257812 339.96875 L 1102.257812 452.710938 C 1102.257812 471.3125 1112.214844 475.339844 1112.214844 475.339844 L 1217.664062 558.234375 C 1234.265625 571.28125 1229.808594 543.8125 1229.808594 543.8125 L 1229.808594 440.183594 Z M 1102.257812 339.96875 " fill-opacity="1" fill-rule="nonzero"/><path fill="#c1694f" d="M 1357.363281 339.96875 L 1357.363281 452.710938 C 1357.363281 471.3125 1347.675781 475.339844 1347.675781 475.339844 C 1347.675781 475.339844 1258.691406 545.1875 1242.101562 558.234375 C 1225.492188 571.28125 1229.808594 543.8125 1229.808594 543.8125 L 1229.808594 440.183594 Z M 1357.363281 339.96875 " fill-opacity="1" fill-rule="nonzero"/><path fill="#d99e82" d="M 1241.554688 244.3125 C 1234.691406 238.753906 1223.441406 238.753906 1216.570312 244.3125 L 1107.40625 331.125 C 1100.535156 336.679688 1100.535156 345.765625 1107.40625 351.3125 L 1216.945312 439.191406 C 1223.816406 444.738281 1235.066406 444.738281 1241.9375 439.191406 L 1352.214844 350.546875 C 1359.085938 345 1359.085938 335.917969 1352.214844 330.359375 Z M 1241.554688 244.3125 " fill-opacity="1" fill-rule="nonzero"/><path fill="#d99e82" d="M 1229.808594 565.449219 C 1224.78125 565.449219 1220.699219 561.058594 1220.699219 555.628906 L 1220.699219 437.859375 C 1220.699219 432.429688 1224.78125 428.039062 1229.808594 428.039062 C 1234.847656 428.039062 1238.921875 432.429688 1238.921875 437.859375 L 1238.921875 555.628906 C 1238.921875 561.058594 1234.847656 565.449219 1229.808594 565.449219 Z M 1229.808594 565.449219 " fill-opacity="1" fill-rule="nonzero"/><path fill="#99aab5" d="M 1320.917969 411.359375 C 1320.917969 421.414062 1321.867188 426.355469 1311.808594 433.605469 L 1289.3125 450.714844 C 1279.253906 457.976562 1275.363281 451.742188 1275.363281 441.675781 L 1275.363281 414.703125 C 1275.363281 412.941406 1275.128906 411.058594 1272.832031 409.164062 C 1249.34375 389.804688 1158.144531 317.367188 1141.523438 303.992188 L 1183.664062 270.484375 C 1195.199219 278.921875 1281.632812 345.664062 1317.792969 374.132812 C 1319.589844 375.554688 1320.917969 377.121094 1320.917969 378.835938 Z M 1320.917969 411.359375 " fill-opacity="1" fill-rule="nonzero"/><path fill="#ccd6dd" d="M 1317.785156 374.132812 C 1281.632812 345.664062 1195.199219 278.921875 1183.664062 270.484375 L 1167.984375 282.949219 L 1141.523438 303.992188 C 1158.152344 317.367188 1249.34375 389.804688 1272.832031 409.164062 C 1274.207031 410.300781 1274.808594 411.441406 1275.089844 412.542969 L 1320.035156 376.410156 C 1319.488281 375.617188 1318.703125 374.851562 1317.785156 374.132812 Z M 1317.785156 374.132812 " fill-opacity="1" fill-rule="nonzero"/><path fill="#ccd6dd" d="M 1320.917969 411.359375 L 1320.917969 378.835938 C 1320.917969 377.121094 1319.589844 375.5625 1317.785156 374.132812 C 1281.632812 345.664062 1195.199219 278.921875 1183.664062 270.484375 L 1164.777344 285.507812 C 1195.691406 309.824219 1278.488281 373.707031 1300.164062 390.941406 C 1302.496094 392.800781 1302.695312 394.722656 1302.695312 396.480469 L 1302.695312 440.539062 L 1311.808594 433.605469 C 1321.867188 426.34375 1320.917969 421.414062 1320.917969 411.359375 Z M 1320.917969 411.359375 " fill-opacity="1" fill-rule="nonzero"/><path fill="#e1e8ed" d="M 1317.785156 374.132812 C 1281.632812 345.664062 1195.199219 278.921875 1183.664062 270.484375 L 1164.777344 285.507812 C 1195.691406 309.824219 1278.488281 373.707031 1300.164062 390.941406 C 1300.5 391.207031 1300.710938 391.480469 1300.957031 391.742188 L 1320.035156 376.410156 C 1319.488281 375.617188 1318.703125 374.851562 1317.785156 374.132812 Z M 1317.785156 374.132812 " fill-opacity="1" fill-rule="nonzero"/></svg>