<svg xmlns="http://www.w3.org/2000/svg" xmlns:xlink="http://www.w3.org/1999/xlink" width="1920" zoomAndPan="magnify" viewBox="0 0 1440 809.999993" height="1080" preserveAspectRatio="xMidYMid meet" version="1.0"><defs><clipPath id="44ba479dc6"><path d="M 81 355 L 339.75 355 L 339.75 550 L 81 550 Z M 81 355 " clip-rule="nonzero"/></clipPath><clipPath id="aae4f3b556"><path d="M 81 291 L 339.75 291 L 339.75 364 L 81 364 Z M 81 291 " clip-rule="nonzero"/></clipPath><clipPath id="a146e90f18"><path d="M 420.8125 275.71875 L 679.5625 275.71875 L 679.5625 534.46875 L 420.8125 534.46875 Z M 420.8125 275.71875 " clip-rule="nonzero"/></clipPath></defs><path fill="#66757f" d="M 297.824219 291.078125 L 313.964844 291.078125 L 313.964844 299.160156 L 297.824219 299.160156 Z M 297.824219 291.078125 " fill-opacity="1" fill-rule="nonzero"/><g clip-path="url(#44ba479dc6)"><path fill="#ccd6dd" d="M 81 355.734375 L 81 517.375 C 81 535.226562 95.480469 549.703125 113.34375 549.703125 L 307.40625 549.703125 C 325.269531 549.703125 339.75 535.226562 339.75 517.375 L 339.75 355.734375 Z M 81 355.734375 " fill-opacity="1" fill-rule="nonzero"/></g><g clip-path="url(#aae4f3b556)"><path fill="#dd2e44" d="M 307.40625 291.078125 L 113.34375 291.078125 C 95.480469 291.078125 81 305.554688 81 323.40625 L 81 363.816406 L 339.75 363.816406 L 339.75 323.40625 C 339.75 305.554688 325.269531 291.078125 307.40625 291.078125 Z M 307.40625 291.078125 " fill-opacity="1" fill-rule="nonzero"/></g><path fill="#292f33" d="M 136.277344 329.3125 C 130.597656 329.3125 126 323.929688 126 317.28125 C 126 310.636719 130.597656 305.246094 136.277344 305.246094 C 141.945312 305.246094 146.542969 310.636719 146.542969 317.28125 C 146.542969 323.921875 141.945312 329.3125 136.277344 329.3125 Z M 184.792969 329.3125 C 179.113281 329.3125 174.515625 323.929688 174.515625 317.28125 C 174.515625 310.636719 179.113281 305.246094 184.792969 305.246094 C 190.460938 305.246094 195.058594 310.636719 195.058594 317.28125 C 195.058594 323.921875 190.460938 329.3125 184.792969 329.3125 Z M 233.308594 329.3125 C 227.628906 329.3125 223.03125 323.929688 223.03125 317.28125 C 223.03125 310.636719 227.628906 305.246094 233.308594 305.246094 C 238.976562 305.246094 243.582031 310.636719 243.582031 317.28125 C 243.574219 323.921875 238.976562 329.3125 233.308594 329.3125 Z M 281.824219 329.3125 C 276.144531 329.3125 271.546875 323.929688 271.546875 317.28125 C 271.546875 310.636719 276.144531 305.246094 281.824219 305.246094 C 287.492188 305.246094 292.097656 310.636719 292.097656 317.28125 C 292.089844 323.921875 287.492188 329.3125 281.824219 329.3125 Z M 281.824219 329.3125 " fill-opacity="1" fill-rule="nonzero"/><path fill="#66757f" d="M 285.695312 260.195312 C 275.371094 260.195312 266.425781 266.679688 261.484375 276.117188 C 256.585938 266.878906 247.601562 260.195312 237.179688 260.195312 C 226.855469 260.195312 217.910156 266.679688 212.96875 276.117188 C 208.070312 266.878906 199.085938 260.195312 188.664062 260.195312 C 178.339844 260.195312 169.394531 266.679688 164.453125 276.117188 C 159.554688 266.878906 150.570312 260.195312 140.148438 260.195312 C 124.511719 260.195312 111.847656 274.898438 111.847656 292.566406 C 111.847656 307.550781 120.296875 319.808594 132.621094 324.296875 C 138.757812 326.515625 142.519531 320.683594 141.992188 316.003906 C 141.546875 312.125 138.96875 309.59375 136.097656 307.773438 C 132.175781 305.292969 128.011719 299.628906 128.011719 292.605469 C 128.011719 283.683594 133.4375 275.671875 140.140625 275.671875 C 146.84375 275.671875 152.269531 282.988281 152.269531 291.070312 L 160.484375 291.070312 C 160.460938 291.570312 160.355469 292.046875 160.355469 292.558594 C 160.355469 307.539062 168.804688 319.800781 181.128906 324.285156 C 187.265625 326.507812 191.023438 320.675781 190.5 315.996094 C 190.054688 312.125 187.476562 309.59375 184.605469 307.773438 C 180.683594 305.292969 176.519531 299.628906 176.519531 292.605469 C 176.519531 283.683594 181.945312 275.671875 188.648438 275.671875 C 195.351562 275.671875 200.792969 282.996094 200.792969 291.078125 L 209.007812 291.078125 C 208.984375 291.578125 208.878906 292.054688 208.878906 292.566406 C 208.878906 307.550781 217.328125 319.808594 229.652344 324.296875 C 235.789062 326.515625 239.550781 320.683594 239.023438 316.003906 C 238.578125 312.132812 236 309.601562 233.128906 307.785156 C 229.207031 305.300781 225.042969 299.636719 225.042969 292.613281 C 225.042969 283.691406 230.46875 275.679688 237.171875 275.679688 C 243.875 275.679688 249.308594 282.996094 249.308594 291.078125 L 257.523438 291.078125 C 257.5 291.578125 257.394531 292.054688 257.394531 292.566406 C 257.394531 307.550781 265.84375 319.808594 278.167969 324.296875 C 284.304688 326.515625 288.066406 320.683594 287.539062 316.003906 C 287.09375 312.132812 284.515625 309.601562 281.644531 307.785156 C 277.722656 305.300781 273.558594 299.636719 273.558594 292.613281 C 273.558594 283.691406 278.984375 275.679688 285.6875 275.679688 C 292.390625 275.679688 297.824219 282.996094 297.824219 291.078125 L 313.964844 291.078125 C 313.792969 274.914062 301.21875 260.195312 285.695312 260.195312 Z M 285.695312 260.195312 " fill-opacity="1" fill-rule="nonzero"/><path fill="#ffffff" d="M 153.773438 379.980469 L 186.117188 379.980469 L 186.117188 412.308594 L 153.773438 412.308594 Z M 194.203125 379.980469 L 226.546875 379.980469 L 226.546875 412.308594 L 194.203125 412.308594 Z M 234.632812 379.980469 L 266.976562 379.980469 L 266.976562 412.308594 L 234.632812 412.308594 Z M 275.0625 379.980469 L 307.40625 379.980469 L 307.40625 412.308594 L 275.0625 412.308594 Z M 113.34375 420.390625 L 145.6875 420.390625 L 145.6875 452.71875 L 113.34375 452.71875 Z M 153.773438 420.390625 L 186.117188 420.390625 L 186.117188 452.71875 L 153.773438 452.71875 Z M 194.203125 420.390625 L 226.546875 420.390625 L 226.546875 452.71875 L 194.203125 452.71875 Z M 234.632812 420.390625 L 266.976562 420.390625 L 266.976562 452.71875 L 234.632812 452.71875 Z M 275.0625 420.390625 L 307.40625 420.390625 L 307.40625 452.71875 L 275.0625 452.71875 Z M 113.34375 460.800781 L 145.6875 460.800781 L 145.6875 493.128906 L 113.34375 493.128906 Z M 153.773438 460.800781 L 186.117188 460.800781 L 186.117188 493.128906 L 153.773438 493.128906 Z M 194.203125 460.800781 L 226.546875 460.800781 L 226.546875 493.128906 L 194.203125 493.128906 Z M 234.632812 460.800781 L 266.976562 460.800781 L 266.976562 493.128906 L 234.632812 493.128906 Z M 275.0625 460.800781 L 307.40625 460.800781 L 307.40625 493.128906 L 275.0625 493.128906 Z M 113.34375 501.210938 L 145.6875 501.210938 L 145.6875 533.539062 L 113.34375 533.539062 Z M 153.773438 501.210938 L 186.117188 501.210938 L 186.117188 533.539062 L 153.773438 533.539062 Z M 194.203125 501.210938 L 226.546875 501.210938 L 226.546875 533.539062 L 194.203125 533.539062 Z M 194.203125 501.210938 " fill-opacity="1" fill-rule="nonzero"/><g clip-path="url(#a146e90f18)"><path fill="#8899a6" d="M 621.984375 419.300781 C 617.511719 419.300781 613.179688 419.863281 609.003906 420.832031 L 534.453125 346.285156 C 535.417969 342.109375 535.976562 337.773438 535.976562 333.304688 C 535.976562 301.5 510.195312 275.71875 478.398438 275.71875 C 471.914062 275.71875 463.289062 282.300781 470.46875 289.480469 L 492.011719 311.023438 C 492.011719 311.023438 499.191406 325.382812 484.832031 339.738281 C 470.46875 354.089844 456.109375 346.910156 456.109375 346.910156 L 434.574219 325.375 C 427.394531 318.195312 420.8125 326.785156 420.8125 333.304688 C 420.8125 365.109375 446.59375 390.890625 478.398438 390.890625 C 482.867188 390.890625 487.203125 390.328125 491.378906 389.367188 L 565.921875 463.90625 C 564.949219 468.082031 564.390625 472.417969 564.390625 476.886719 C 564.390625 508.691406 590.179688 534.46875 621.976562 534.46875 C 628.453125 534.46875 637.078125 527.882812 629.894531 520.703125 L 608.355469 499.164062 C 608.355469 499.164062 601.175781 484.800781 615.535156 470.449219 C 629.894531 456.09375 644.25 463.269531 644.25 463.269531 L 665.789062 484.808594 C 672.976562 491.988281 679.5625 483.398438 679.5625 476.886719 C 679.5625 445.082031 653.78125 419.300781 621.984375 419.300781 Z M 621.984375 419.300781 " fill-opacity="1" fill-rule="nonzero"/></g></svg>