<svg xmlns="http://www.w3.org/2000/svg" xmlns:xlink="http://www.w3.org/1999/xlink" width="1920" zoomAndPan="magnify" viewBox="0 0 1440 809.999993" height="1080" preserveAspectRatio="xMidYMid meet" version="1.0"><defs><clipPath id="b4e2a1f138"><path d="M 494 81 L 867 81 L 867 489 L 494 489 Z M 494 81 " clip-rule="nonzero"/></clipPath></defs><path fill="#ef9645" d="M 673.804688 344.574219 C 673.601562 316.90625 696.050781 294.320312 723.757812 294.117188 C 751.445312 293.917969 772.40625 316.1875 772.609375 343.851562 L 772.488281 430.179688 C 772.488281 430.179688 809.511719 666.847656 663.503906 666.847656 C 517.496094 666.847656 494.566406 492.851562 494.566406 492.851562 L 494.066406 447.890625 C 493.863281 422.011719 673.804688 344.574219 673.804688 344.574219 Z M 673.804688 344.574219 " fill-opacity="1" fill-rule="nonzero"/><g clip-path="url(#b4e2a1f138)"><path fill="#ffdc5d" d="M 774.113281 367.023438 L 774.113281 326.015625 C 773.953125 303.886719 755.863281 286.074219 733.714844 286.234375 C 711.570312 286.394531 693.742188 304.46875 693.902344 326.597656 L 694.144531 367.042969 L 774.113281 367.042969 Z M 826.175781 420.867188 C 803.949219 420.867188 785.757812 402.691406 785.757812 380.484375 L 785.757812 121.363281 C 785.757812 99.15625 803.949219 80.980469 826.175781 80.980469 C 848.402344 80.980469 866.59375 99.15625 866.59375 121.363281 L 866.59375 380.484375 C 866.59375 402.691406 848.402344 420.867188 826.175781 420.867188 Z M 534.460938 488.257812 C 512.234375 488.257812 494.042969 470.082031 494.042969 447.871094 L 494.042969 368.085938 C 494.042969 345.878906 512.234375 327.703125 534.460938 327.703125 C 556.6875 327.703125 574.878906 345.878906 574.878906 368.085938 L 574.878906 447.871094 C 574.859375 470.082031 556.667969 488.257812 534.460938 488.257812 Z M 534.460938 488.257812 " fill-opacity="1" fill-rule="nonzero"/></g><path fill="#ef9645" d="M 618.648438 468.855469 C 594.554688 468.855469 574.859375 449.15625 574.859375 425.101562 L 574.859375 338.59375 C 574.859375 314.519531 594.574219 294.839844 618.648438 294.839844 C 642.742188 294.839844 662.441406 314.539062 662.441406 338.59375 L 662.441406 425.082031 C 662.441406 449.15625 642.742188 468.855469 618.648438 468.855469 Z M 915.261719 430.960938 C 915 394.566406 885.265625 365.277344 848.84375 365.539062 L 690.828125 365.539062 L 691.089844 505.8125 L 849.847656 505.8125 C 886.269531 505.550781 915.582031 475.839844 915.324219 439.445312 Z M 915.261719 430.960938 " fill-opacity="1" fill-rule="nonzero"/><path fill="#ffdc5d" d="M 633.445312 286.9375 C 655.59375 286.773438 673.683594 304.589844 673.84375 326.71875 L 673.84375 382.75 C 661.695312 393.84375 654.386719 409.3125 654.507812 427.066406 C 654.609375 442.15625 660.472656 455.738281 669.726562 466.207031 C 662.980469 478.628906 650.011719 487.214844 634.871094 487.3125 C 612.726562 487.472656 594.636719 469.660156 594.476562 447.53125 L 593.613281 327.300781 C 593.472656 305.171875 611.300781 287.097656 633.445312 286.9375 Z M 633.445312 286.9375 " fill-opacity="1" fill-rule="nonzero"/><path fill="#ffdc5d" d="M 913.394531 413.484375 C 905.566406 390.515625 884.84375 385.339844 874.824219 385.417969 L 714.984375 385.417969 C 692.757812 385.417969 674.566406 403.597656 674.566406 425.804688 C 674.566406 448.011719 692.757812 466.1875 714.984375 466.1875 L 825.273438 466.128906 C 830.8125 466.089844 835.332031 470.722656 835.371094 476.261719 C 835.414062 481.796875 830.953125 486.730469 825.414062 486.730469 L 822.902344 486.730469 C 768.992188 486.730469 725.585938 549.988281 726.148438 627.328125 C 726.1875 632.863281 721.730469 636.996094 716.1875 637.035156 C 710.648438 637.078125 706.128906 632.621094 706.089844 627.085938 C 705.648438 566.78125 729.921875 513.996094 765.980469 486.390625 L 715.105469 486.753906 C 695.046875 486.894531 689.542969 481.175781 685.488281 478.90625 L 685.550781 478.96875 C 682.636719 483.621094 667.039062 507.375 635.03125 507.375 C 600.4375 507.375 587.449219 484.222656 584.957031 480.59375 C 574.539062 496.621094 555.984375 506.792969 534.441406 506.792969 C 520.105469 506.792969 503.742188 503.023438 494.546875 492.128906 C 497.476562 625.78125 605.800781 728.035156 736.890625 727.09375 C 851.496094 726.273438 944.9375 625.398438 944.253906 529.0625 C 942.289062 475.71875 913.394531 413.484375 913.394531 413.484375 Z M 913.394531 413.484375 " fill-opacity="1" fill-rule="nonzero"/></svg>