<svg xmlns="http://www.w3.org/2000/svg" xmlns:xlink="http://www.w3.org/1999/xlink" width="1920" zoomAndPan="magnify" viewBox="0 0 1440 809.999993" height="1080" preserveAspectRatio="xMidYMid meet" version="1.0"><defs><clipPath id="ad825ed98d"><path d="M 539 243 L 901 243 L 901 567 L 539 567 Z M 539 243 " clip-rule="nonzero"/></clipPath></defs><path fill="#fa743e" d="M 1358.101562 729 L 1358.101562 706.5625 C 1358.101562 691.691406 1346.050781 679.636719 1331.175781 679.636719 L 1259.375 679.636719 C 1244.507812 679.636719 1232.453125 691.691406 1232.453125 706.5625 L 1232.453125 729 Z M 1358.101562 729 " fill-opacity="1" fill-rule="nonzero"/><path fill="#ffdc5d" d="M 1275.710938 680.113281 C 1275.710938 684.125 1286.300781 689.054688 1295.277344 689.054688 C 1304.253906 689.054688 1314.839844 684.125 1314.839844 680.117188 L 1314.839844 662.988281 L 1275.707031 662.988281 L 1275.707031 680.113281 Z M 1275.710938 680.113281 " fill-opacity="1" fill-rule="nonzero"/><path fill="#f9ca55" d="M 1275.675781 671.203125 C 1281.132812 677.371094 1287.898438 679.039062 1295.257812 679.039062 C 1302.613281 679.039062 1309.375 677.367188 1314.839844 671.203125 L 1314.839844 655.539062 L 1275.671875 655.539062 L 1275.671875 671.203125 Z M 1275.675781 671.203125 " fill-opacity="1" fill-rule="nonzero"/><path fill="#ffac33" d="M 1312.019531 569.832031 C 1303.382812 567.035156 1283.054688 567.796875 1277.96875 574.40625 C 1264.757812 574.660156 1249.257812 586.601562 1247.222656 602.351562 C 1245.214844 617.945312 1249.695312 625.183594 1251.289062 636.910156 C 1253.097656 650.195312 1260.566406 654.445312 1266.535156 656.222656 C 1275.125 667.570312 1284.253906 667.085938 1299.589844 667.085938 C 1329.53125 667.085938 1343.792969 647.054688 1345.050781 613.023438 C 1345.816406 592.449219 1333.738281 576.859375 1312.019531 569.832031 Z M 1312.019531 569.832031 " fill-opacity="1" fill-rule="nonzero"/><path fill="#ffdc5d" d="M 1329.144531 614.484375 C 1326.246094 610.472656 1322.539062 607.238281 1314.40625 606.101562 C 1317.457031 607.496094 1320.378906 612.324219 1320.761719 614.996094 C 1321.144531 617.664062 1321.523438 619.824219 1319.109375 617.152344 C 1309.441406 606.464844 1298.90625 610.671875 1288.472656 604.144531 C 1281.1875 599.585938 1278.964844 594.535156 1278.964844 594.535156 C 1278.964844 594.535156 1278.078125 601.265625 1267.023438 608.128906 C 1263.820312 610.117188 1259.996094 614.546875 1257.878906 621.089844 C 1256.351562 625.792969 1256.828125 629.984375 1256.828125 637.144531 C 1256.828125 658.054688 1274.0625 675.640625 1295.320312 675.640625 C 1316.578125 675.640625 1333.816406 657.898438 1333.816406 637.144531 C 1333.808594 624.140625 1332.445312 619.054688 1329.144531 614.484375 Z M 1329.144531 614.484375 " fill-opacity="1" fill-rule="nonzero"/><path fill="#c1694f" d="M 1299.589844 647.839844 L 1291.035156 647.839844 C 1289.855469 647.839844 1288.894531 646.882812 1288.894531 645.699219 C 1288.894531 644.511719 1289.851562 643.558594 1291.035156 643.558594 L 1299.589844 643.558594 C 1300.769531 643.558594 1301.730469 644.511719 1301.730469 645.699219 C 1301.730469 646.882812 1300.773438 647.839844 1299.589844 647.839844 Z M 1299.589844 647.839844 " fill-opacity="1" fill-rule="nonzero"/><path fill="#662113" d="M 1278.203125 632.867188 C 1275.839844 632.867188 1273.925781 630.953125 1273.925781 628.589844 L 1273.925781 624.316406 C 1273.925781 621.953125 1275.839844 620.039062 1278.203125 620.039062 C 1280.5625 620.039062 1282.476562 621.953125 1282.476562 624.316406 L 1282.476562 628.589844 C 1282.484375 630.957031 1280.566406 632.867188 1278.203125 632.867188 Z M 1312.421875 632.867188 C 1310.0625 632.867188 1308.148438 630.953125 1308.148438 628.589844 L 1308.148438 624.316406 C 1308.148438 621.953125 1310.0625 620.039062 1312.421875 620.039062 C 1314.785156 620.039062 1316.699219 621.953125 1316.699219 624.316406 L 1316.699219 628.589844 C 1316.699219 630.957031 1314.785156 632.867188 1312.421875 632.867188 Z M 1312.421875 632.867188 " fill-opacity="1" fill-rule="nonzero"/><path fill="#c1694f" d="M 1295.878906 665.699219 C 1283.519531 665.699219 1279.722656 662.535156 1279.089844 661.894531 C 1277.941406 660.746094 1277.941406 658.882812 1279.089844 657.734375 C 1280.203125 656.621094 1281.988281 656.589844 1283.136719 657.628906 C 1283.371094 657.796875 1286.375 659.816406 1295.878906 659.816406 C 1305.75 659.816406 1308.605469 657.640625 1308.632812 657.617188 C 1309.78125 656.472656 1311.582031 656.527344 1312.730469 657.683594 C 1313.878906 658.832031 1313.816406 660.75 1312.667969 661.894531 C 1312.027344 662.535156 1308.238281 665.699219 1295.878906 665.699219 " fill-opacity="1" fill-rule="nonzero"/><path fill="#e1e8ed" d="M 1349.128906 724.511719 C 1349.128906 726.992188 1347.121094 729 1344.640625 729 L 1299.765625 729 C 1297.28125 729 1295.277344 726.992188 1295.277344 724.511719 C 1295.277344 722.03125 1297.28125 720.023438 1299.765625 720.023438 L 1344.640625 720.023438 C 1347.121094 720.023438 1349.128906 722.03125 1349.128906 724.511719 Z M 1349.128906 724.511719 " fill-opacity="1" fill-rule="nonzero"/><path fill="#e1e8ed" d="M 1291.867188 666.175781 L 1217.90625 666.175781 C 1211.066406 666.175781 1202.300781 669.632812 1206.789062 682.019531 L 1220.574219 720.050781 C 1220.578125 720.050781 1222.355469 729 1232.453125 729 L 1322.203125 729 L 1304.253906 678.558594 C 1302.285156 672.628906 1298.710938 666.175781 1291.867188 666.175781 Z M 1291.867188 666.175781 " fill-opacity="1" fill-rule="nonzero"/><path fill="#99aab5" d="M 1287.378906 666.175781 L 1213.417969 666.175781 C 1206.582031 666.175781 1197.8125 669.632812 1202.300781 682.019531 L 1216.085938 720.050781 C 1216.089844 720.050781 1217.867188 729 1227.964844 729 L 1317.714844 729 L 1299.765625 678.558594 C 1297.800781 672.628906 1294.222656 666.175781 1287.378906 666.175781 Z M 1287.378906 666.175781 " fill-opacity="1" fill-rule="nonzero"/><path fill="#e1e8ed" d="M 1263.949219 698.855469 C 1266.300781 705.910156 1264.394531 712.902344 1259.691406 714.46875 C 1254.988281 716.039062 1249.269531 711.59375 1246.917969 704.539062 C 1244.566406 697.484375 1246.476562 690.492188 1251.179688 688.925781 C 1255.878906 687.359375 1261.601562 691.804688 1263.949219 698.855469 Z M 1286.300781 678.515625 L 1214.5 678.515625 C 1212.644531 678.515625 1211.136719 677.007812 1211.136719 675.148438 C 1211.136719 673.292969 1212.644531 671.785156 1214.5 671.785156 L 1286.300781 671.785156 C 1288.160156 671.785156 1289.667969 673.292969 1289.667969 675.148438 C 1289.667969 677.007812 1288.160156 678.515625 1286.300781 678.515625 Z M 1286.300781 678.515625 " fill-opacity="1" fill-rule="nonzero"/><path fill="#ccd6dc" d="M 216 684 C 216 693.941406 207.941406 702 198 702 L 99 702 C 89.058594 702 81 693.941406 81 684 L 81 585 C 81 575.058594 89.058594 567 99 567 L 198 567 C 207.941406 567 216 575.058594 216 585 Z M 216 684 " fill-opacity="1" fill-rule="nonzero"/><path fill="#f5f8fa" d="M 207 684 C 207 688.96875 202.96875 693 198 693 L 99 693 C 94.03125 693 90 688.96875 90 684 L 90 585 C 90 580.03125 94.03125 576 99 576 L 198 576 C 202.96875 576 207 580.03125 207 585 Z M 207 684 " fill-opacity="1" fill-rule="nonzero"/><path fill="#50a5e6" d="M 108 684 C 105.511719 684 103.5 681.984375 103.5 679.5 L 103.5 625.5 C 103.5 623.015625 105.511719 621 108 621 C 110.488281 621 112.5 623.015625 112.5 625.5 L 112.5 679.5 C 112.5 681.984375 110.488281 684 108 684 Z M 108 684 " fill-opacity="1" fill-rule="nonzero"/><path fill="#77b255" d="M 126 684 C 123.511719 684 121.5 681.984375 121.5 679.5 L 121.5 603 C 121.5 600.515625 123.511719 598.5 126 598.5 C 128.488281 598.5 130.5 600.515625 130.5 603 L 130.5 679.5 C 130.5 681.984375 128.488281 684 126 684 Z M 126 684 " fill-opacity="1" fill-rule="nonzero"/><path fill="#dd2f45" d="M 144 684 C 141.511719 684 139.5 681.984375 139.5 679.5 L 139.5 648 C 139.5 645.515625 141.511719 643.5 144 643.5 C 146.488281 643.5 148.5 645.515625 148.5 648 L 148.5 679.5 C 148.5 681.984375 146.488281 684 144 684 Z M 144 684 " fill-opacity="1" fill-rule="nonzero"/><path fill="#226798" d="M 243 729 L 243 720 C 243 705.085938 230.917969 693 216 693 L 144 693 C 129.089844 693 117 705.085938 117 720 L 117 729 Z M 243 729 " fill-opacity="1" fill-rule="nonzero"/><path fill="#3a87c2" d="M 156 729 L 171.898438 729 L 157.5 693 L 148.5 693 L 144 720 L 157.5 724.5 Z M 204 729 L 188.101562 729 L 202.5 693 L 211.5 693 L 216 720 L 202.5 724.5 Z M 204 729 " fill-opacity="1" fill-rule="nonzero"/><path fill="#ccd6dc" d="M 189 729 L 202.5 702 L 157.5 702 L 171 729 Z M 189 729 " fill-opacity="1" fill-rule="nonzero"/><path fill="#ffdc5d" d="M 163.445312 696.054688 C 166.507812 698.976562 169.828125 702.9375 172.691406 706.601562 C 176.417969 711.382812 183.648438 711.375 187.363281 706.585938 C 190.207031 702.917969 193.503906 698.96875 196.558594 696.054688 C 198.464844 694.242188 199.621094 691.78125 199.621094 689.152344 L 199.621094 685.628906 C 199.621094 680.480469 195.445312 676.304688 190.296875 676.304688 L 169.703125 676.304688 C 164.554688 676.304688 160.378906 680.480469 160.378906 685.628906 L 160.378906 689.148438 C 160.378906 691.78125 161.535156 694.242188 163.445312 696.054688 Z M 163.445312 696.054688 " fill-opacity="1" fill-rule="nonzero"/><path fill="#f9ca55" d="M 160.34375 683.878906 C 165.816406 690.0625 172.601562 691.734375 179.980469 691.734375 C 187.359375 691.734375 194.144531 690.058594 199.617188 683.878906 L 199.617188 668.167969 L 160.339844 668.167969 L 160.339844 683.878906 Z M 160.34375 683.878906 " fill-opacity="1" fill-rule="nonzero"/><path fill="#ffac33" d="M 196.789062 581.953125 C 188.128906 579.148438 167.742188 579.914062 162.644531 586.539062 C 149.394531 586.796875 133.851562 598.769531 131.8125 614.566406 C 129.796875 630.203125 134.292969 637.460938 135.890625 649.21875 C 137.703125 662.539062 145.191406 666.800781 151.175781 668.582031 C 159.789062 679.964844 168.949219 679.476562 184.324219 679.476562 C 214.347656 679.476562 228.648438 659.390625 229.914062 625.265625 C 230.679688 604.632812 218.570312 589 196.789062 581.953125 Z M 196.789062 581.953125 " fill-opacity="1" fill-rule="nonzero"/><path fill="#ffdc5d" d="M 213.960938 626.726562 C 211.054688 622.707031 207.335938 619.464844 199.183594 618.324219 C 202.242188 619.722656 205.171875 624.5625 205.554688 627.242188 C 205.9375 629.917969 206.320312 632.082031 203.898438 629.40625 C 194.203125 618.6875 183.640625 622.90625 173.179688 616.359375 C 165.871094 611.789062 163.640625 606.726562 163.640625 606.726562 C 163.640625 606.726562 162.75 613.476562 151.667969 620.355469 C 148.453125 622.351562 144.621094 626.792969 142.496094 633.351562 C 140.96875 638.070312 141.445312 642.273438 141.445312 649.453125 C 141.445312 670.421875 158.726562 688.054688 180.046875 688.054688 C 201.363281 688.054688 218.644531 670.265625 218.644531 649.453125 C 218.636719 636.414062 217.273438 631.3125 213.960938 626.726562 Z M 213.960938 626.726562 " fill-opacity="1" fill-rule="nonzero"/><path fill="#c1694f" d="M 184.324219 660.179688 L 175.746094 660.179688 C 174.5625 660.179688 173.601562 659.222656 173.601562 658.035156 C 173.601562 656.847656 174.558594 655.886719 175.746094 655.886719 L 184.324219 655.886719 C 185.507812 655.886719 186.472656 656.847656 186.472656 658.035156 C 186.472656 659.222656 185.511719 660.179688 184.324219 660.179688 Z M 184.324219 660.179688 " fill-opacity="1" fill-rule="nonzero"/><path fill="#662113" d="M 162.878906 645.164062 C 160.511719 645.164062 158.589844 643.242188 158.589844 640.875 L 158.589844 636.589844 C 158.589844 634.222656 160.511719 632.300781 162.878906 632.300781 C 165.246094 632.300781 167.164062 634.222656 167.164062 636.589844 L 167.164062 640.875 C 167.164062 643.246094 165.25 645.164062 162.878906 645.164062 Z M 197.195312 645.164062 C 194.828125 645.164062 192.90625 643.242188 192.90625 640.875 L 192.90625 636.589844 C 192.90625 634.222656 194.828125 632.300781 197.195312 632.300781 C 199.5625 632.300781 201.484375 634.222656 201.484375 636.589844 L 201.484375 640.875 C 201.484375 643.246094 199.5625 645.164062 197.195312 645.164062 Z M 197.195312 645.164062 " fill-opacity="1" fill-rule="nonzero"/><path fill="#c1694f" d="M 180.601562 678.085938 C 168.210938 678.085938 164.402344 674.914062 163.769531 674.269531 C 162.617188 673.117188 162.617188 671.25 163.769531 670.097656 C 164.882812 668.984375 166.675781 668.953125 167.828125 669.996094 C 168.0625 670.164062 171.070312 672.1875 180.601562 672.1875 C 190.503906 672.1875 193.363281 670.003906 193.390625 669.984375 C 194.542969 668.835938 196.347656 668.890625 197.5 670.050781 C 198.652344 671.203125 198.589844 673.125 197.4375 674.269531 C 196.796875 674.914062 192.996094 678.085938 180.601562 678.085938 " fill-opacity="1" fill-rule="nonzero"/><path fill="#f4f7f9" d="M 201.234375 687.375 C 198.683594 689.921875 189.046875 704.410156 189.046875 704.410156 C 189.046875 704.410156 194.117188 708.1875 202.921875 718.496094 C 203.808594 719.53125 205.367188 697.683594 205.550781 692.804688 C 205.601562 691.441406 202.453125 686.15625 201.234375 687.375 M 158.855469 687.375 C 161.402344 689.921875 171.046875 704.410156 171.046875 704.410156 C 171.046875 704.410156 165.972656 708.1875 157.167969 718.496094 C 156.28125 719.53125 154.722656 697.683594 154.539062 692.804688 C 154.484375 691.441406 157.628906 686.15625 158.855469 687.375 " fill-opacity="1" fill-rule="nonzero"/><g clip-path="url(#ad825ed98d)"><path fill="#be1931" d="M 900.609375 342.25 C 900.609375 287.238281 856.007812 242.648438 800.992188 242.648438 C 767.59375 242.648438 738.125 259.128906 720.042969 284.324219 C 701.960938 259.128906 672.492188 242.648438 639.101562 242.648438 C 584.078125 242.648438 539.476562 287.230469 539.476562 342.25 C 539.476562 350.042969 540.464844 357.589844 542.160156 364.867188 C 555.992188 450.792969 651.550781 541.445312 720.042969 566.332031 C 788.523438 541.445312 884.09375 450.792969 897.90625 364.878906 C 899.621094 357.601562 900.609375 350.050781 900.609375 342.25 Z M 900.609375 342.25 " fill-opacity="1" fill-rule="nonzero"/></g></svg>