<svg xmlns="http://www.w3.org/2000/svg" xmlns:xlink="http://www.w3.org/1999/xlink" width="1920" zoomAndPan="magnify" viewBox="0 0 1440 809.999993" height="1080" preserveAspectRatio="xMidYMid meet" version="1.0"><path fill="#ccd6dc" d="M 216 684 C 216 693.941406 207.941406 702 198 702 L 99 702 C 89.058594 702 81 693.941406 81 684 L 81 585 C 81 575.058594 89.058594 567 99 567 L 198 567 C 207.941406 567 216 575.058594 216 585 Z M 216 684 " fill-opacity="1" fill-rule="nonzero"/><path fill="#f5f8fa" d="M 207 684 C 207 688.96875 202.96875 693 198 693 L 99 693 C 94.03125 693 90 688.96875 90 684 L 90 585 C 90 580.03125 94.03125 576 99 576 L 198 576 C 202.96875 576 207 580.03125 207 585 Z M 207 684 " fill-opacity="1" fill-rule="nonzero"/><path fill="#50a5e6" d="M 108 684 C 105.511719 684 103.5 681.984375 103.5 679.5 L 103.5 625.5 C 103.5 623.015625 105.511719 621 108 621 C 110.488281 621 112.5 623.015625 112.5 625.5 L 112.5 679.5 C 112.5 681.984375 110.488281 684 108 684 Z M 108 684 " fill-opacity="1" fill-rule="nonzero"/><path fill="#77b255" d="M 126 684 C 123.511719 684 121.5 681.984375 121.5 679.5 L 121.5 603 C 121.5 600.515625 123.511719 598.5 126 598.5 C 128.488281 598.5 130.5 600.515625 130.5 603 L 130.5 679.5 C 130.5 681.984375 128.488281 684 126 684 Z M 126 684 " fill-opacity="1" fill-rule="nonzero"/><path fill="#dd2f45" d="M 144 684 C 141.511719 684 139.5 681.984375 139.5 679.5 L 139.5 648 C 139.5 645.515625 141.511719 643.5 144 643.5 C 146.488281 643.5 148.5 645.515625 148.5 648 L 148.5 679.5 C 148.5 681.984375 146.488281 684 144 684 Z M 144 684 " fill-opacity="1" fill-rule="nonzero"/><path fill="#226798" d="M 243 729 L 243 720 C 243 705.085938 230.917969 693 216 693 L 144 693 C 129.089844 693 117 705.085938 117 720 L 117 729 Z M 243 729 " fill-opacity="1" fill-rule="nonzero"/><path fill="#3a87c2" d="M 156 729 L 171.898438 729 L 157.5 693 L 148.5 693 L 144 720 L 157.5 724.5 Z M 204 729 L 188.101562 729 L 202.5 693 L 211.5 693 L 216 720 L 202.5 724.5 Z M 204 729 " fill-opacity="1" fill-rule="nonzero"/><path fill="#ccd6dc" d="M 189 729 L 202.5 702 L 157.5 702 L 171 729 Z M 189 729 " fill-opacity="1" fill-rule="nonzero"/><path fill="#ffdc5d" d="M 163.445312 696.054688 C 166.507812 698.976562 169.828125 702.9375 172.691406 706.601562 C 176.417969 711.382812 183.648438 711.375 187.363281 706.585938 C 190.207031 702.917969 193.503906 698.96875 196.558594 696.054688 C 198.464844 694.242188 199.621094 691.78125 199.621094 689.152344 L 199.621094 685.628906 C 199.621094 680.480469 195.445312 676.304688 190.296875 676.304688 L 169.703125 676.304688 C 164.554688 676.304688 160.378906 680.480469 160.378906 685.628906 L 160.378906 689.148438 C 160.378906 691.78125 161.535156 694.242188 163.445312 696.054688 Z M 163.445312 696.054688 " fill-opacity="1" fill-rule="nonzero"/><path fill="#f9ca55" d="M 160.34375 683.878906 C 165.816406 690.0625 172.601562 691.734375 179.980469 691.734375 C 187.359375 691.734375 194.144531 690.058594 199.617188 683.878906 L 199.617188 668.167969 L 160.339844 668.167969 L 160.339844 683.878906 Z M 160.34375 683.878906 " fill-opacity="1" fill-rule="nonzero"/><path fill="#ffac33" d="M 196.789062 581.953125 C 188.128906 579.148438 167.742188 579.914062 162.644531 586.539062 C 149.394531 586.796875 133.851562 598.769531 131.8125 614.566406 C 129.796875 630.203125 134.292969 637.460938 135.890625 649.21875 C 137.703125 662.539062 145.191406 666.800781 151.175781 668.582031 C 159.789062 679.964844 168.949219 679.476562 184.324219 679.476562 C 214.347656 679.476562 228.648438 659.390625 229.914062 625.265625 C 230.679688 604.632812 218.570312 589 196.789062 581.953125 Z M 196.789062 581.953125 " fill-opacity="1" fill-rule="nonzero"/><path fill="#ffdc5d" d="M 213.960938 626.726562 C 211.054688 622.707031 207.335938 619.464844 199.183594 618.324219 C 202.242188 619.722656 205.171875 624.5625 205.554688 627.242188 C 205.9375 629.917969 206.320312 632.082031 203.898438 629.40625 C 194.203125 618.6875 183.640625 622.90625 173.179688 616.359375 C 165.871094 611.789062 163.640625 606.726562 163.640625 606.726562 C 163.640625 606.726562 162.75 613.476562 151.667969 620.355469 C 148.453125 622.351562 144.621094 626.792969 142.496094 633.351562 C 140.96875 638.070312 141.445312 642.273438 141.445312 649.453125 C 141.445312 670.421875 158.726562 688.054688 180.046875 688.054688 C 201.363281 688.054688 218.644531 670.265625 218.644531 649.453125 C 218.636719 636.414062 217.273438 631.3125 213.960938 626.726562 Z M 213.960938 626.726562 " fill-opacity="1" fill-rule="nonzero"/><path fill="#c1694f" d="M 184.324219 660.179688 L 175.746094 660.179688 C 174.5625 660.179688 173.601562 659.222656 173.601562 658.035156 C 173.601562 656.847656 174.558594 655.886719 175.746094 655.886719 L 184.324219 655.886719 C 185.507812 655.886719 186.472656 656.847656 186.472656 658.035156 C 186.472656 659.222656 185.511719 660.179688 184.324219 660.179688 Z M 184.324219 660.179688 " fill-opacity="1" fill-rule="nonzero"/><path fill="#662113" d="M 162.878906 645.164062 C 160.511719 645.164062 158.589844 643.242188 158.589844 640.875 L 158.589844 636.589844 C 158.589844 634.222656 160.511719 632.300781 162.878906 632.300781 C 165.246094 632.300781 167.164062 634.222656 167.164062 636.589844 L 167.164062 640.875 C 167.164062 643.246094 165.25 645.164062 162.878906 645.164062 Z M 197.195312 645.164062 C 194.828125 645.164062 192.90625 643.242188 192.90625 640.875 L 192.90625 636.589844 C 192.90625 634.222656 194.828125 632.300781 197.195312 632.300781 C 199.5625 632.300781 201.484375 634.222656 201.484375 636.589844 L 201.484375 640.875 C 201.484375 643.246094 199.5625 645.164062 197.195312 645.164062 Z M 197.195312 645.164062 " fill-opacity="1" fill-rule="nonzero"/><path fill="#c1694f" d="M 180.601562 678.085938 C 168.210938 678.085938 164.402344 674.914062 163.769531 674.269531 C 162.617188 673.117188 162.617188 671.25 163.769531 670.097656 C 164.882812 668.984375 166.675781 668.953125 167.828125 669.996094 C 168.0625 670.164062 171.070312 672.1875 180.601562 672.1875 C 190.503906 672.1875 193.363281 670.003906 193.390625 669.984375 C 194.542969 668.835938 196.347656 668.890625 197.5 670.050781 C 198.652344 671.203125 198.589844 673.125 197.4375 674.269531 C 196.796875 674.914062 192.996094 678.085938 180.601562 678.085938 " fill-opacity="1" fill-rule="nonzero"/><path fill="#f4f7f9" d="M 201.234375 687.375 C 198.683594 689.921875 189.046875 704.410156 189.046875 704.410156 C 189.046875 704.410156 194.117188 708.1875 202.921875 718.496094 C 203.808594 719.53125 205.367188 697.683594 205.550781 692.804688 C 205.601562 691.441406 202.453125 686.15625 201.234375 687.375 M 158.855469 687.375 C 161.402344 689.921875 171.046875 704.410156 171.046875 704.410156 C 171.046875 704.410156 165.972656 708.1875 157.167969 718.496094 C 156.28125 719.53125 154.722656 697.683594 154.539062 692.804688 C 154.484375 691.441406 157.628906 686.15625 158.855469 687.375 " fill-opacity="1" fill-rule="nonzero"/></svg>